<svg width="20" height="20" viewBox="0 0 20 20" fill="none" xmlns="http://www.w3.org/2000/svg">
<path fill-rule="evenodd" clip-rule="evenodd" d="M16.6667 2.5H5V17.5H16.6667C17.1269 17.5 17.5 17.1269 17.5 16.6667V3.33333C17.5 2.8731 17.1269 2.5 16.6667 2.5ZM10 5.41667V6.66667H7.5V5.41667H10ZM10.8333 12.9167V14.1667H7.5V12.9167H10.8333ZM13.3333 10.4167V11.6667H9.16667V10.4167H13.3333ZM15 7.91667V9.16667L9.16667 9.16667V7.91667H15Z" fill="#9DDFC9"/>
<path d="M3.33333 2.5C2.8731 2.5 2.5 2.8731 2.5 3.33333V16.6667C2.5 17.1269 2.8731 17.5 3.33333 17.5H5V2.5H3.33333Z" fill="#15A675"/>
<path d="M10 5.41667V6.66667H7.5V5.41667H10Z" fill="#15A675"/>
<path d="M10.8333 12.9167V14.1667H7.5V12.9167H10.8333Z" fill="#15A675"/>
<path d="M13.3333 10.4167V11.6667H9.16667V10.4167H13.3333Z" fill="#15A675"/>
<path d="M15 7.91667V9.16667L9.16667 9.16667V7.91667H15Z" fill="#15A675"/>
</svg>
