<svg width="32" height="32" viewBox="0 0 48 48" fill="none">
  <path d="M43.9955 6.8327L38.849 11.9792L36.0206 9.15076L41.1671 4.00427L43.9955 6.8327Z" fill="currentColor"></path>
  <path d="M6.84015 4.01184L11.9789 9.15064L9.15051 11.9791L4.01172 6.84027L6.84015 4.01184Z" fill="currentColor">
  </path>
  <path d="M4.00391 41.1674L9.15051 36.0208L11.9789 38.8492L6.83233 43.9958L4.00391 41.1674Z" fill="currentColor">
  </path>
  <path d="M36.0206 38.8491L41.1671 43.9956L43.9955 41.1672L38.849 36.0207L36.0206 38.8491Z" fill="currentColor"></path>
  <path
    d="M25.2072 8.33036C25.7893 7.57352 26.9998 7.98521 26.9998 8.94006V22.4999H33.9689C34.7986 22.4999 35.2674 23.452 34.7615 24.1097L22.7924 39.6695C22.2102 40.4264 20.9998 40.0147 20.9998 39.0598V25.4999H14.0307C13.201 25.4999 12.7322 24.5479 13.238 23.8902L25.2072 8.33036Z"
    fill="currentColor"></path>
</svg>