<svg width="32" height="32" viewBox="0 0 48 48" fill="none">
  <path d="M4 8C4 6.89543 4.89543 6 6 6H19L24 10H42C43.1046 10 44 10.8954 44 12V20.4644C42.205 19.5289 40.1643 19 38 19C30.8203 19 25 24.8203 25 32C25 36.0209 26.8255 39.6154 29.6929 42H6C4.89543 42 4 41.1046 4 40V8Z" fill="currentColor"></path>
  <path fill-rule="evenodd" clip-rule="evenodd" d="M48 32C48 37.5228 43.5228 42 38 42C32.4772 42 28 37.5228 28 32C28 26.4772 32.4772 22 38 22C43.5228 22 48 26.4772 48 32ZM36.5 27V30.5H33V33.5H36.5V37H39.5V33.5H43V30.5H39.5V27H36.5Z" fill="currentColor"></path>
</svg>