<svg width="76" height="82" viewBox="10 0 56 56" fill="none" xmlns="http://www.w3.org/2000/svg">
<path opacity="0.2" d="M66 28C66 46.6667 56.6667 56 38 56C19.3333 56 10 46.6667 10 28C10 9.33333 19.3333 0 38 0C56.6667 0 66 9.33333 66 28Z" fill="#939EA9"/>
<g filter="url(#filter0_d)">
<path d="M60 28C60 42.6667 52.6667 50 38 50C23.3333 50 16 42.6667 16 28C16 13.3333 23.3333 6 38 6C52.6667 6 60 13.3333 60 28Z" fill="#324558"/>
</g>
<path fill-rule="evenodd" clip-rule="evenodd" d="M33.7202 29.335V31.7005L32.7606 33.6197C31.8578 33.6745 31.1533 34.4221 31.1523 35.3266C31.1523 36.2721 31.9188 37.0385 32.8642 37.0385C33.8097 37.0385 34.5761 36.2721 34.5761 35.3266C34.5758 34.9913 34.477 34.6634 34.2919 34.3837L35.4321 32.1051V29.335H33.7202ZM37.144 29.335V33.8471C36.6153 34.1523 36.2891 34.7161 36.288 35.3266C36.288 36.2721 37.0545 37.0385 37.9999 37.0385C38.9454 37.0385 39.7118 36.2721 39.7118 35.3266C39.7113 34.7155 39.3851 34.151 38.8559 33.8454V29.335H37.144ZM40.5678 29.335V32.1051L41.7079 34.3854C41.5232 34.6646 41.4244 34.9918 41.4237 35.3266C41.4237 36.2721 42.1902 37.0385 43.1356 37.0385C44.0811 37.0385 44.8475 36.2721 44.8475 35.3266C44.8465 34.4221 44.1421 33.6745 43.2393 33.6197L42.2797 31.7005V29.335H40.5678Z" fill="white" fill-opacity="0.9"/>
<path fill-rule="evenodd" clip-rule="evenodd" d="M37.9999 19.0386C36.0389 19.0386 34.2002 20.0126 33.0849 21.6098C30.1122 21.7193 27.7285 24.1717 27.7285 27.1701C27.7285 29.5916 29.286 31.6501 31.4499 32.4128L32.0083 31.2977V27.6231H43.9915V31.2977L44.6452 32.6034C46.7209 32.1129 48.2713 30.2498 48.2713 28.026C48.2713 25.489 46.2539 23.4141 43.7391 23.3217C42.9979 20.7983 40.6953 19.0386 37.9999 19.0386Z" fill="white" fill-opacity="0.6"/>
<defs>
<filter id="filter0_d" x="0" y="6" width="76" height="76" filterUnits="userSpaceOnUse" color-interpolation-filters="sRGB">
<feFlood flood-opacity="0" result="BackgroundImageFix"/>
<feColorMatrix in="SourceAlpha" type="matrix" values="0 0 0 0 0 0 0 0 0 0 0 0 0 0 0 0 0 0 127 0"/>
<feMorphology radius="8" operator="erode" in="SourceAlpha" result="effect1_dropShadow"/>
<feOffset dy="16"/>
<feGaussianBlur stdDeviation="12"/>
<feColorMatrix type="matrix" values="0 0 0 0 0.196078 0 0 0 0 0.270588 0 0 0 0 0.345098 0 0 0 0.12 0"/>
<feBlend mode="normal" in2="BackgroundImageFix" result="effect1_dropShadow"/>
<feBlend mode="normal" in="SourceGraphic" in2="effect1_dropShadow" result="shape"/>
</filter>
</defs>
</svg>
