<svg width="47" height="47" viewBox="0 0 47 47" fill="none" xmlns="http://www.w3.org/2000/svg">
<rect width="47" height="47" rx="10" fill="#DAEBFB"/>
<rect x="4" y="4" width="39" height="39" rx="10" fill="#024D8E"/>
<path d="M32 14H14C12.8 14 11.8 15 11.8 16.2V28.76C11.8 29.96 12.8 30.96 14 30.96H32C33.2 30.96 34.2 29.96 34.2 28.76V16.2C34.2 15 33.2 14 32 14ZM18.84 25.36C19.16 25.68 19.16 26.16 18.84 26.48C18.68 26.64 18.48 26.72 18.28 26.72C18.08 26.72 17.88 26.64 17.72 26.48L14.76 23.52C14.44 23.2 14.44 22.72 14.76 22.4L17.72 19.44C18.04 19.12 18.52 19.12 18.84 19.44C19.16 19.76 19.16 20.24 18.84 20.56L16.44 22.96L18.84 25.36ZM24.72 19.76L22.84 26.16C22.72 26.52 22.4 26.72 22.08 26.72C22 26.72 21.92 26.72 21.84 26.68C21.4 26.56 21.16 26.12 21.28 25.68L23.16 19.28C23.28 18.84 23.72 18.6 24.16 18.72C24.6 18.88 24.84 19.36 24.72 19.76ZM31.24 23.52L28.28 26.48C28.12 26.64 27.92 26.72 27.72 26.72C27.52 26.72 27.32 26.64 27.16 26.48C26.84 26.16 26.84 25.68 27.16 25.36L29.56 22.96L27.16 20.56C26.84 20.24 26.84 19.76 27.16 19.44C27.48 19.12 27.96 19.12 28.28 19.44L31.24 22.4C31.56 22.68 31.56 23.2 31.24 23.52Z" fill="white"/>
<path opacity="0.3" d="M16.6801 34.2H29.3201C29.7601 34.2 30.1201 33.84 30.1201 33.4C30.1201 32.96 29.7601 32.6 29.3201 32.6H16.6801C16.2401 32.6 15.8801 32.96 15.8801 33.4C15.8801 33.84 16.2401 34.2 16.6801 34.2Z" fill="white"/>
</svg>
