<svg width="76" height="82" viewBox="10 0 56 56" fill="none" xmlns="http://www.w3.org/2000/svg">
<path opacity="0.2" d="M66 28C66 46.6667 56.6667 56 38 56C19.3333 56 10 46.6667 10 28C10 9.33333 19.3333 0 38 0C56.6667 0 66 9.33333 66 28Z" fill="#939EA9"/>
<g filter="url(#filter0_d)">
<path d="M60 28C60 42.6667 52.6667 50 38 50C23.3333 50 16 42.6667 16 28C16 13.3333 23.3333 6 38 6C52.6667 6 60 13.3333 60 28Z" fill="#324558"/>
</g>
<path fill-rule="evenodd" clip-rule="evenodd" d="M48.2186 20.8247L48.219 24.3507C47.441 23.9858 46.5725 23.782 45.6564 23.782C43.3991 23.782 41.4309 25.0197 40.3934 26.8535L27.7815 26.8539V20.8247H48.2186ZM32.2329 22.8522H30.2586V24.8265H32.2329V22.8522ZM35.662 22.8522H33.6877V24.8265H35.662V22.8522Z" fill="white" fill-opacity="0.6"/>
<path fill-rule="evenodd" clip-rule="evenodd" d="M44.707 25.5059L44.5101 26.5152C44.1818 26.6394 43.8783 26.8128 43.6117 27.0316L42.6422 26.6973L41.7094 28.3145L42.4851 28.9887C42.4576 29.1575 42.4398 29.3293 42.4398 29.5059C42.4398 29.6824 42.4576 29.8543 42.4851 30.023L41.7094 30.6973L42.6422 32.3145L43.6117 31.9801C43.8783 32.1989 44.1818 32.3723 44.5101 32.4965L44.707 33.5059H46.5726L46.7695 32.4965C47.0978 32.3723 47.4014 32.1989 47.6679 31.9801L48.6375 32.3145L49.5703 30.6973L48.7945 30.023C48.822 29.8543 48.8398 29.6824 48.8398 29.5059C48.8398 29.3293 48.822 29.1575 48.7945 28.9887L49.5703 28.3145L48.6375 26.6973L47.6679 27.0316C47.4014 26.8128 47.0978 26.6394 46.7695 26.5152L46.5726 25.5059H44.707ZM45.6398 27.9059C46.5234 27.9059 47.2398 28.6223 47.2398 29.5059C47.2398 30.3895 46.5234 31.1059 45.6398 31.1059C44.7562 31.1059 44.0398 30.3895 44.0398 29.5059C44.0398 28.6223 44.7562 27.9059 45.6398 27.9059Z" fill="white" fill-opacity="0.9"/>
<path fill-rule="evenodd" clip-rule="evenodd" d="M39.6137 29.8641L38.9145 29.8631L38.9145 34.5969C39.4327 34.8961 39.7688 35.4278 39.8216 36.0172L39.8289 36.1793C39.8289 37.1893 39.0101 38.0081 38 38.0081C36.99 38.0081 36.1712 37.1893 36.1712 36.1793C36.1723 35.5814 36.4651 35.0255 36.949 34.6858L37.0856 34.5987L37.0855 29.8631H35.2565L35.2568 33.436H32.2653C31.9391 34.0009 31.3369 34.3493 30.6847 34.3504C29.6746 34.3504 28.8558 33.5316 28.8558 32.5216C28.8558 31.5115 29.6746 30.6927 30.6847 30.6927C31.2831 30.6932 31.8398 30.9861 32.1798 31.4704L32.267 31.6072H33.4279L33.4275 29.8631L27.7815 29.8639V27.8508L39.9578 27.8501C39.735 28.48 39.6138 29.1579 39.6137 29.8641Z" fill="white" fill-opacity="0.9"/>
<defs>
<filter id="filter0_d" x="0" y="6" width="76" height="76" filterUnits="userSpaceOnUse" color-interpolation-filters="sRGB">
<feFlood flood-opacity="0" result="BackgroundImageFix"/>
<feColorMatrix in="SourceAlpha" type="matrix" values="0 0 0 0 0 0 0 0 0 0 0 0 0 0 0 0 0 0 127 0"/>
<feMorphology radius="8" operator="erode" in="SourceAlpha" result="effect1_dropShadow"/>
<feOffset dy="16"/>
<feGaussianBlur stdDeviation="12"/>
<feColorMatrix type="matrix" values="0 0 0 0 0 0 0 0 0 0.666667 0 0 0 0 0.447059 0 0 0 0.09 0"/>
<feBlend mode="normal" in2="BackgroundImageFix" result="effect1_dropShadow"/>
<feBlend mode="normal" in="SourceGraphic" in2="effect1_dropShadow" result="shape"/>
</filter>
</defs>
</svg>
