<svg width="76" height="82" viewBox="10 0 56 56" fill="none" xmlns="http://www.w3.org/2000/svg">
<path opacity="0.2" d="M66 28C66 46.6667 56.6667 56 38 56C19.3333 56 10 46.6667 10 28C10 9.33333 19.3333 0 38 0C56.6667 0 66 9.33333 66 28Z" fill="#939EA9"/>
<g filter="url(#filter0_d)">
<path d="M60 28C60 42.6667 52.6667 50 38 50C23.3333 50 16 42.6667 16 28C16 13.3333 23.3333 6 38 6C52.6667 6 60 13.3333 60 28Z" fill="#324558"/>
</g>
<path fill-rule="evenodd" clip-rule="evenodd" d="M28 23.2998H47.8V35.3998C47.8 36.0073 47.3075 36.4998 46.7 36.4998H29.1C28.4925 36.4998 28 36.0073 28 35.3998V23.2998Z" fill="white" fill-opacity="0.6"/>
<path fill-rule="evenodd" clip-rule="evenodd" d="M46.7 20C47.3075 20 47.8 20.4925 47.8 21.1V23.3H28V21.1C28 20.4925 28.4925 20 29.1 20H46.7ZM41.75 21.1C41.4462 21.1 41.2 21.3462 41.2 21.65C41.2 21.9538 41.4462 22.2 41.75 22.2C42.0538 22.2 42.3 21.9538 42.3 21.65C42.3 21.3766 42.1005 21.1498 41.8392 21.1072L41.75 21.1ZM43.95 21.1C43.6462 21.1 43.4 21.3462 43.4 21.65C43.4 21.9538 43.6462 22.2 43.95 22.2C44.2538 22.2 44.5 21.9538 44.5 21.65C44.5 21.3462 44.2538 21.1 43.95 21.1ZM46.15 21.1C45.8462 21.1 45.6 21.3462 45.6 21.65C45.6 21.9538 45.8462 22.2 46.15 22.2C46.4538 22.2 46.7 21.9538 46.7 21.65C46.7 21.3766 46.5005 21.1498 46.2392 21.1072L46.15 21.1Z" fill="white" fill-opacity="0.9"/>
<path fill-rule="evenodd" clip-rule="evenodd" d="M41.8572 27.4181C40.5114 27.1245 39.7166 26.7087 39.1364 26.4052C38.6854 26.1701 38.3601 26 38 26C37.6399 26 37.3146 26.1701 36.8636 26.4052C36.2834 26.7087 35.4886 27.1245 34.1428 27.4181L34 27.4492V27.5946C34 33.0991 37.8842 34.9456 37.924 34.9633L38.0036 35L38.0824 34.9605C38.1214 34.94 42 32.9162 42 27.5946V27.4492L41.8572 27.4181Z" fill="white" fill-opacity="0.9"/>
<defs>
<filter id="filter0_d" x="0" y="6" width="76" height="76" filterUnits="userSpaceOnUse" color-interpolation-filters="sRGB">
<feFlood flood-opacity="0" result="BackgroundImageFix"/>
<feColorMatrix in="SourceAlpha" type="matrix" values="0 0 0 0 0 0 0 0 0 0 0 0 0 0 0 0 0 0 127 0"/>
<feMorphology radius="8" operator="erode" in="SourceAlpha" result="effect1_dropShadow"/>
<feOffset dy="16"/>
<feGaussianBlur stdDeviation="12"/>
<feColorMatrix type="matrix" values="0 0 0 0 0.196078 0 0 0 0 0.270588 0 0 0 0 0.345098 0 0 0 0.12 0"/>
<feBlend mode="normal" in2="BackgroundImageFix" result="effect1_dropShadow"/>
<feBlend mode="normal" in="SourceGraphic" in2="effect1_dropShadow" result="shape"/>
</filter>
</defs>
</svg>
