<svg width="60" height="60" viewBox="0 0 60 60" fill="none" xmlns="http://www.w3.org/2000/svg">
<path opacity="0.2" d="M60 30C60 50 50 60 30 60C10 60 0 50 0 30C0 10 10 0 30 0C50 0 60 10 60 30Z" fill="#939EA9"/>
<path d="M53.5714 29.9997C53.5714 45.714 45.7143 53.5711 30 53.5711C14.2857 53.5711 6.42859 45.714 6.42859 29.9997C6.42859 14.2854 14.2857 6.42822 30 6.42822C45.7143 6.42822 53.5714 14.2854 53.5714 29.9997Z" fill="url(#paint0_linear_21712_148378)"/>
<path d="M30 19.2856C26.754 19.2856 23.9897 21.3477 22.9455 24.2334C20.5453 24.764 18.75 26.9045 18.75 29.4642C18.75 31.7318 20.1588 33.6702 22.1489 34.4522L22.5 33.7499V29.4642H37.5V33.7499L37.8511 34.4522C39.8412 33.6702 41.25 31.7318 41.25 29.4642C41.25 26.9045 39.4547 24.764 37.0545 24.2334C36.0103 21.3477 33.246 19.2856 30 19.2856Z" fill="white" fill-opacity="0.4"/>
<path d="M26.5179 34.4236V31.0713H24.9107V34.4236C24.9107 34.469 24.8992 34.5136 24.8772 34.5533L23.8306 36.444C23.7456 36.4337 23.6591 36.4285 23.5714 36.4285C22.388 36.4285 21.4286 37.3878 21.4286 38.5713C21.4286 39.7548 22.388 40.7142 23.5714 40.7142C24.7549 40.7142 25.7143 39.7548 25.7143 38.5713C25.7143 38.0601 25.5353 37.5908 25.2366 37.2225L26.2833 35.3317C26.4371 35.0537 26.5179 34.7413 26.5179 34.4236Z" fill="white"/>
<path d="M33.4821 34.4236V31.0713H35.0893V34.4236C35.0893 34.469 35.1008 34.5136 35.1228 34.5533L36.1694 36.444C36.2544 36.4337 36.3409 36.4285 36.4286 36.4285C37.612 36.4285 38.5714 37.3878 38.5714 38.5713C38.5714 39.7548 37.612 40.7142 36.4286 40.7142C35.2451 40.7142 34.2857 39.7548 34.2857 38.5713C34.2857 38.0601 34.4647 37.5908 34.7634 37.2225L33.7167 35.3317C33.5629 35.0537 33.4821 34.7413 33.4821 34.4236Z" fill="white"/>
<path d="M30 40.7142C31.1835 40.7142 32.1429 39.7548 32.1429 38.5713C32.1429 37.672 31.5889 36.9021 30.8036 36.5842V31.0713H29.1964V36.5842C28.4111 36.9021 27.8571 37.672 27.8571 38.5713C27.8571 39.7548 28.8165 40.7142 30 40.7142Z" fill="white"/>
<defs>
<linearGradient id="paint0_linear_21712_148378" x1="6.42859" y1="53.5711" x2="53.5714" y2="8.78537" gradientUnits="userSpaceOnUse">
<stop stop-color="#324558"/>
<stop offset="1" stop-color="#778592"/>
</linearGradient>
</defs>
</svg>
