<svg width="60" height="60" viewBox="0 0 60 60" fill="none" xmlns="http://www.w3.org/2000/svg">
<path opacity="0.2" d="M60 30C60 50 50 60 30 60C10 60 0 50 0 30C0 10 10 0 30 0C50 0 60 10 60 30Z" fill="#939EA9"/>
<path d="M53.5714 29.9998C53.5714 45.7141 45.7143 53.5712 30 53.5712C14.2857 53.5712 6.42856 45.7141 6.42856 29.9998C6.42856 14.2855 14.2857 6.42834 30 6.42834C45.7143 6.42834 53.5714 14.2855 53.5714 29.9998Z" fill="url(#paint0_linear_21250_147828)"/>
<path d="M26.2215 26.3717L33.2146 23.5745C33.2249 24.1437 33.4572 24.6588 33.8285 25.0368L26.7854 27.854C26.7856 27.8429 26.7857 27.8319 26.7857 27.8208C26.7857 27.262 26.5718 26.7532 26.2215 26.3717H26.2215Z" fill="white" fill-opacity="0.6"/>
<path d="M26.2215 34.9431L33.2146 32.1459C33.2249 32.7152 33.4572 33.2302 33.8285 33.6082L26.7854 36.4254C26.7856 36.4143 26.7857 36.4033 26.7857 36.3922C26.7857 35.8334 26.5718 35.3246 26.2215 34.9431H26.2215Z" fill="white" fill-opacity="0.6"/>
<path d="M33.2145 32.1398L26.1714 29.3225C26.5428 28.9446 26.7751 28.4295 26.7853 27.8602L33.7785 30.6575C33.4281 31.0389 33.2143 31.5478 33.2143 32.1065C33.2143 32.1176 33.2144 32.1287 33.2145 32.1398V32.1398Z" fill="white" fill-opacity="0.6"/>
<ellipse cx="35.3572" cy="23.5351" rx="2.14286" ry="2.14286" fill="white" fill-opacity="0.9"/>
<ellipse cx="24.6429" cy="27.8208" rx="2.14286" ry="2.14286" fill="white" fill-opacity="0.9"/>
<ellipse cx="35.3572" cy="32.1065" rx="2.14286" ry="2.14286" fill="white" fill-opacity="0.9"/>
<ellipse cx="24.6429" cy="36.3922" rx="2.14286" ry="2.14286" fill="white" fill-opacity="0.9"/>
<defs>
<linearGradient id="paint0_linear_21250_147828" x1="6.42856" y1="53.5712" x2="53.5714" y2="8.78549" gradientUnits="userSpaceOnUse">
<stop stop-color="#324558"/>
<stop offset="1" stop-color="#778592"/>
</linearGradient>
</defs>
</svg>
