<svg width="47" height="47" viewBox="0 0 47 47" fill="none" xmlns="http://www.w3.org/2000/svg">
<rect width="47" height="47" rx="10" fill="#DAEBFB"/>
<rect x="4" y="4" width="39" height="39" rx="10" fill="#024D8E"/>
<mask id="mask0_222_2779" style="mask-type:alpha" maskUnits="userSpaceOnUse" x="11" y="11" width="26" height="26">
<rect x="11" y="11" width="26" height="26" fill="#D9D9D9"/>
</mask>
<g mask="url(#mask0_222_2779)">
<path d="M21.125 32.3613C21.125 33.1156 21.4247 33.8389 21.958 34.3722C22.4913 34.9055 23.2146 35.2051 23.9688 35.2051C24.723 35.2051 25.4463 34.9055 25.9796 34.3722C26.5129 33.8389 26.8126 33.1156 26.8126 32.3613C26.8126 31.6071 26.5129 30.8838 25.9796 30.3505C25.4463 29.8172 24.723 29.5176 23.9688 29.5176C23.2146 29.5176 22.4913 29.8172 21.958 30.3505C21.4247 30.8838 21.125 31.6071 21.125 32.3613Z" fill="white"/>
<path d="M28.0637 31.5975L26.3737 28.8025L30.1112 26.5762V22.075H33.3612V28.4125L28.0637 31.5975ZM20.0362 31.5162L14.5438 28.3637L14.4463 22.1725L17.6963 22.1237L17.7613 26.4625L21.6612 28.705L20.0362 31.5162Z" fill="white"/>
<path d="M29.25 18.0125C29.25 18.7667 29.5497 19.49 30.083 20.0233C30.6163 20.5566 31.3396 20.8562 32.0938 20.8562C32.848 20.8562 33.5713 20.5566 34.1046 20.0233C34.6379 19.49 34.9376 18.7667 34.9376 18.0125C34.9376 17.2582 34.6379 16.5349 34.1046 16.0016C33.5713 15.4683 32.848 15.1687 32.0938 15.1687C31.3396 15.1687 30.6163 15.4683 30.083 16.0016C29.5497 16.5349 29.25 17.2582 29.25 18.0125Z" fill="white"/>
<path d="M20.1826 17.98L18.5576 15.1687L24.0501 12L29.4614 14.99L27.8851 17.8338L24.0826 15.7375L20.1826 17.98Z" fill="white"/>
<path d="M13 18.0125C13 18.3859 13.0736 18.7557 13.2165 19.1008C13.3594 19.4458 13.5689 19.7593 13.8329 20.0233C14.097 20.2874 14.4105 20.4969 14.7555 20.6398C15.1005 20.7827 15.4703 20.8562 15.8438 20.8562C16.2172 20.8562 16.587 20.7827 16.932 20.6398C17.277 20.4969 17.5905 20.2874 17.8546 20.0233C18.1186 19.7593 18.3282 19.4458 18.4711 19.1008C18.614 18.7557 18.6875 18.3859 18.6875 18.0125C18.6875 17.639 18.614 17.2692 18.4711 16.9242C18.3282 16.5792 18.1186 16.2657 17.8546 16.0016C17.5905 15.7375 17.277 15.5281 16.932 15.3852C16.587 15.2423 16.2172 15.1687 15.8438 15.1687C15.4703 15.1687 15.1005 15.2423 14.7555 15.3852C14.4105 15.5281 14.097 15.7375 13.8329 16.0016C13.5689 16.2657 13.3594 16.5792 13.2165 16.9242C13.0736 17.2692 13 17.639 13 18.0125Z" fill="white"/>
<path opacity="0.3" d="M18.9688 19.3686L23.9688 16.8301L28.9688 19.3686V25.7147L23.9688 27.8301L18.9688 25.7147V19.3686Z" fill="white"/>
</g>
</svg>
