<svg width="60" height="60" viewBox="0 0 60 60" fill="none" xmlns="http://www.w3.org/2000/svg">
<path opacity="0.2" d="M60 30C60 50 50 60 30 60C10 60 0 50 0 30C0 10 10 0 30 0C50 0 60 10 60 30Z" fill="#939EA9"/>
<path d="M53.5714 30.0001C53.5714 45.7144 45.7143 53.5716 30 53.5716C14.2857 53.5716 6.42859 45.7144 6.42859 30.0001C6.42859 14.2859 14.2857 6.42871 30 6.42871C45.7143 6.42871 53.5714 14.2859 53.5714 30.0001Z" fill="url(#paint0_linear_21712_148368)"/>
<path d="M19.8214 18.7502C19.2297 18.7502 18.75 19.2299 18.75 19.8217V40.1788C18.75 40.7705 19.2297 41.2502 19.8214 41.2502H21.9643C22.556 41.2502 23.0357 40.7705 23.0357 40.1788V32.411H28.5486C28.8665 33.1963 29.6364 33.7502 30.5357 33.7502C31.7192 33.7502 32.6786 32.7909 32.6786 31.6074C32.6786 30.4239 31.7192 29.4645 30.5357 29.4645C29.6364 29.4645 28.8665 30.0185 28.5486 30.8038H23.0357V24.911H23.2857C24.5521 24.911 25.7878 24.5206 26.8245 23.7931L27.8712 23.0586C28.6375 22.5209 29.5508 22.2324 30.4869 22.2324H34.4415C34.7594 23.0177 35.5293 23.5717 36.4286 23.5717C37.612 23.5717 38.5714 22.6123 38.5714 21.4288C38.5714 20.2453 37.612 19.286 36.4286 19.286C35.5293 19.286 34.7594 19.8399 34.4415 20.6252H30.4869C29.2204 20.6252 27.9847 21.0156 26.9481 21.7431L25.9013 22.4776C25.1351 23.0153 24.2217 23.3038 23.2857 23.3038H23.0357V19.8217C23.0357 19.2299 22.556 18.7502 21.9643 18.7502H19.8214Z" fill="white" fill-opacity="0.4"/>
<path d="M23.0356 28.9288V26.7859H35.0042C35.4455 25.5375 36.6361 24.6431 38.0356 24.6431C39.8108 24.6431 41.2499 26.0822 41.2499 27.8574C41.2499 29.6326 39.8108 31.0716 38.0356 31.0716C36.6361 31.0716 35.4455 30.1772 35.0042 28.9288H23.0356Z" fill="white"/>
<path d="M23.0356 36.4441V34.2961C24.1371 34.3582 25.2062 34.703 26.1388 35.2999L26.8466 35.7528C27.5363 36.1942 28.338 36.4288 29.1568 36.4288H31.7899C32.2312 35.1804 33.4218 34.2859 34.8213 34.2859C36.5965 34.2859 38.0356 35.725 38.0356 37.5002C38.0356 39.2754 36.5965 40.7145 34.8213 40.7145C33.4218 40.7145 32.2312 39.8201 31.7899 38.5716H29.1568C27.9286 38.5716 26.726 38.2198 25.6915 37.5577L24.9837 37.1047C24.3961 36.7287 23.7272 36.5027 23.0356 36.4441Z" fill="white"/>
<defs>
<linearGradient id="paint0_linear_21712_148368" x1="6.42859" y1="53.5716" x2="53.5714" y2="8.7859" gradientUnits="userSpaceOnUse">
<stop stop-color="#324558"/>
<stop offset="1" stop-color="#778592"/>
</linearGradient>
</defs>
</svg>
