<svg width="56" height="56" viewBox="0 0 56 56" fill="none" xmlns="http://www.w3.org/2000/svg">
<path opacity="0.2" d="M56 28C56 46.6667 46.6667 56 28 56C9.33333 56 0 46.6667 0 28C0 9.33333 9.33333 0 28 0C46.6667 0 56 9.33333 56 28Z" fill="#939EA9"/>
<path d="M50 28C50 42.6667 42.6667 50 28 50C13.3333 50 6 42.6667 6 28C6 13.3333 13.3333 6 28 6C42.6667 6 50 13.3333 50 28Z" fill="url(#paint0_linear)"/>
<path fill-rule="evenodd" clip-rule="evenodd" d="M20 21H36C37.1046 21 38 21.8954 38 23V33C38 34.1046 37.1046 35 36 35H20C18.8954 35 18 34.1046 18 33V23C18 21.8954 18.8954 21 20 21ZM35.007 29.5385C35.5806 29.5385 36.0455 29.0735 36.0455 28.5C36.0455 27.9265 35.5806 27.4615 35.007 27.4615C34.4335 27.4615 33.9685 27.9265 33.9685 28.5C33.9685 29.0735 34.4335 29.5385 35.007 29.5385Z" fill="white" fill-opacity="0.6"/>
<path d="M34.1723 27.8821C34.0443 28.0548 33.9685 28.2686 33.9685 28.5C33.9685 28.7657 34.0683 29.008 34.2323 29.1917C33.5033 29.182 32.867 28.6949 32.6673 27.9936L32.1541 26.1909L31.8034 28.2345C31.7071 28.7956 31.2736 29.2386 30.7147 29.3472C30.0906 29.4683 29.4833 29.1449 29.2199 28.5978L28.8946 31.8586C28.8331 32.4755 28.3338 32.9571 27.715 32.9963C27.0172 33.0406 26.4157 32.5108 26.3715 31.813L25.8959 24.3104L25.4433 29.5001C25.3986 30.0123 25.0276 30.4367 24.526 30.5495C23.8897 30.6926 23.258 30.2928 23.1149 29.6566L22.7095 27.8543L22.3434 28.4333C22.041 28.9115 21.5146 29.2014 20.9488 29.2014H20L20 27.9014H20.9488C21.0688 27.9014 21.1805 27.8399 21.2446 27.7385L21.7 27.0183C22.0634 26.4437 22.8236 26.2725 23.3982 26.6358C23.6742 26.8104 23.8695 27.0875 23.9412 27.4061L24.2149 28.6228L24.6011 24.1942C24.6635 23.4791 25.2937 22.9499 26.0089 23.0123C26.6491 23.0682 27.1524 23.5835 27.1931 24.2249L27.6425 31.3143L27.9603 28.1281C28.0276 27.4538 28.6287 26.9618 29.3029 27.029C29.8422 27.0828 30.2823 27.4841 30.3855 28.0161C30.3929 28.0537 30.4293 28.0783 30.4669 28.071C30.4953 28.0655 30.5173 28.043 30.5221 28.0146L30.893 25.8536C31.0119 25.1607 31.67 24.6954 32.3629 24.8144C32.8455 24.8972 33.2378 25.2495 33.3718 25.7204L33.9177 27.6376C33.9528 27.7609 34.0515 27.853 34.1723 27.8821Z" fill="white" fill-opacity="0.9"/>
<defs>
<linearGradient id="paint0_linear" x1="6" y1="50" x2="50" y2="8.2" gradientUnits="userSpaceOnUse">
<stop stop-color="#324558"/>
<stop offset="1" stop-color="#778592"/>
</linearGradient>
</defs>
</svg>
