<svg width="47" height="47" viewBox="0 0 47 47" fill="none" xmlns="http://www.w3.org/2000/svg">
<rect width="47" height="47" rx="10" fill="#DAEBFB"/>
<rect x="4" y="4" width="39" height="39" rx="10" fill="#024D8E"/>
<path fill-rule="evenodd" clip-rule="evenodd" d="M17 29.4794C19.3921 30.6852 22.7857 31.8334 26.6665 31.8334C27.2188 31.8334 27.6665 31.3857 27.6665 30.8334C27.6665 30.2811 27.2188 29.8334 26.6665 29.8334C22.6035 29.8334 19.123 28.4304 17 27.2094V29.4794Z" fill="white"/>
<rect x="17" y="21" width="12" height="2" fill="white"/>
<circle cx="32" cy="22" r="4" fill="white"/>
<circle r="2.66667" transform="matrix(1 0 0 -1 28.0002 30.8333)" fill="white"/>
<g opacity="0.3">
<path d="M12 25.5H26V26.5H12V25.5Z" fill="white"/>
<circle cx="26" cy="26" r="2" fill="white"/>
<path d="M16 18.8333C17.6 17.4999 22.24 14.8333 28 14.8333" stroke="white" stroke-width="2" stroke-linecap="round"/>
<circle cx="29.3332" cy="14.8333" r="2.66667" fill="white"/>
<rect x="12" y="12" width="5" height="23" rx="2.5" fill="white"/>
</g>
</svg>
