<svg width="80" height="86" viewBox="0 0 80 86" fill="none" xmlns="http://www.w3.org/2000/svg">
<path opacity="0.2" d="M70 30C70 50 60 60 40 60C20 60 10 50 10 30C10 10 20 0 40 0C60 0 70 10 70 30Z" fill="#939EA9"/>
<g filter="url(#filter0_d_21250_147894)">
<path d="M63.5714 30.0001C63.5714 45.7144 55.7143 53.5716 40 53.5716C24.2857 53.5716 16.4286 45.7144 16.4286 30.0001C16.4286 14.2859 24.2857 6.42871 40 6.42871C55.7143 6.42871 63.5714 14.2859 63.5714 30.0001Z" fill="url(#paint0_linear_21250_147894)"/>
</g>
<path d="M29.8214 18.7502C29.2297 18.7502 28.75 19.2299 28.75 19.8217V40.1788C28.75 40.7705 29.2297 41.2502 29.8214 41.2502H31.9643C32.556 41.2502 33.0357 40.7705 33.0357 40.1788V32.411H38.5486C38.8665 33.1963 39.6364 33.7502 40.5357 33.7502C41.7192 33.7502 42.6786 32.7909 42.6786 31.6074C42.6786 30.4239 41.7192 29.4645 40.5357 29.4645C39.6364 29.4645 38.8665 30.0185 38.5486 30.8038H33.0357V24.911H33.2857C34.5521 24.911 35.7878 24.5206 36.8245 23.7931L37.8712 23.0586C38.6375 22.5209 39.5508 22.2324 40.4869 22.2324H44.4415C44.7594 23.0177 45.5293 23.5717 46.4286 23.5717C47.612 23.5717 48.5714 22.6123 48.5714 21.4288C48.5714 20.2453 47.612 19.286 46.4286 19.286C45.5293 19.286 44.7594 19.8399 44.4415 20.6252H40.4869C39.2204 20.6252 37.9847 21.0156 36.9481 21.7431L35.9013 22.4776C35.1351 23.0153 34.2217 23.3038 33.2857 23.3038H33.0357V19.8217C33.0357 19.2299 32.556 18.7502 31.9643 18.7502H29.8214Z" fill="white" fill-opacity="0.4"/>
<path d="M33.0357 28.9288V26.7859H45.0043C45.4456 25.5375 46.6362 24.6431 48.0357 24.6431C49.8109 24.6431 51.25 26.0822 51.25 27.8574C51.25 29.6326 49.8109 31.0716 48.0357 31.0716C46.6362 31.0716 45.4456 30.1772 45.0043 28.9288H33.0357Z" fill="white"/>
<path d="M33.0357 36.4441V34.2961C34.1372 34.3582 35.2063 34.703 36.1389 35.2999L36.8467 35.7528C37.5364 36.1942 38.3381 36.4288 39.1569 36.4288H41.79C42.2313 35.1804 43.4219 34.2859 44.8214 34.2859C46.5966 34.2859 48.0357 35.725 48.0357 37.5002C48.0357 39.2754 46.5966 40.7145 44.8214 40.7145C43.4219 40.7145 42.2313 39.8201 41.79 38.5716H39.1569C37.9287 38.5716 36.7261 38.2198 35.6916 37.5577L34.9838 37.1047C34.3962 36.7287 33.7273 36.5027 33.0357 36.4441Z" fill="white"/>
<defs>
<filter id="filter0_d_21250_147894" x="0.428558" y="6.42871" width="79.1429" height="79.1428" filterUnits="userSpaceOnUse" color-interpolation-filters="sRGB">
<feFlood flood-opacity="0" result="BackgroundImageFix"/>
<feColorMatrix in="SourceAlpha" type="matrix" values="0 0 0 0 0 0 0 0 0 0 0 0 0 0 0 0 0 0 127 0" result="hardAlpha"/>
<feMorphology radius="8" operator="erode" in="SourceAlpha" result="effect1_dropShadow_21250_147894"/>
<feOffset dy="16"/>
<feGaussianBlur stdDeviation="12"/>
<feColorMatrix type="matrix" values="0 0 0 0 0.196078 0 0 0 0 0.270588 0 0 0 0 0.345098 0 0 0 0.12 0"/>
<feBlend mode="normal" in2="BackgroundImageFix" result="effect1_dropShadow_21250_147894"/>
<feBlend mode="normal" in="SourceGraphic" in2="effect1_dropShadow_21250_147894" result="shape"/>
</filter>
<linearGradient id="paint0_linear_21250_147894" x1="16.4286" y1="53.5716" x2="63.5714" y2="8.78585" gradientUnits="userSpaceOnUse">
<stop stop-color="#324558"/>
<stop offset="1" stop-color="#778592"/>
</linearGradient>
</defs>
</svg>
