<svg width="76" height="82" viewBox="10 0 56 56" fill="none" xmlns="http://www.w3.org/2000/svg">
<path opacity="0.2" d="M66 28C66 46.6667 56.6667 56 38 56C19.3333 56 10 46.6667 10 28C10 9.33333 19.3333 0 38 0C56.6667 0 66 9.33333 66 28Z" fill="#939EA9"/>
<g filter="url(#filter0_d)">
<path d="M60 28C60 42.6667 52.6667 50 38 50C23.3333 50 16 42.6667 16 28C16 13.3333 23.3333 6 38 6C52.6667 6 60 13.3333 60 28Z" fill="#324558"/>
</g>
<path fill-rule="evenodd" clip-rule="evenodd" d="M32 19C30.3431 19 29 20.3431 29 22V34C29 35.6569 30.3431 37 32 37H44C45.6569 37 47 35.6569 47 34V22C47 20.3431 45.6569 19 44 19H32ZM37.3 22.4342V21H38.7V22.4342C42.2311 22.7866 45 25.7781 45 29.4H44.3H43.6C43.6 28.6183 42.9817 28 42.2 28C41.4183 28 40.8 28.6183 40.8 29.4H40.1H39.4C39.4 28.6183 38.7817 28 38 28C37.2183 28 36.6 28.6183 36.6 29.4H35.9H35.2C35.2 28.6183 34.5817 28 33.8 28C33.0183 28 32.4 28.6183 32.4 29.4H31.7H31C31 25.7781 33.7689 22.7866 37.3 22.4342Z" fill="white" fill-opacity="0.6"/>
<path fill-rule="evenodd" clip-rule="evenodd" d="M37.3 22.4342V21H38V28C37.2183 28 36.6 28.6183 36.6 29.4H35.9H35.2C35.2 28.6183 34.5817 28 33.8 28C33.0183 28 32.4 28.6183 32.4 29.4H31.7H31C31 25.7781 33.7689 22.7866 37.3 22.4342Z" fill="white" fill-opacity="0.9"/>
<path d="M37.3 29.3999V32.8999C37.3 33.2954 36.9955 33.5999 36.6 33.5999C36.2045 33.5999 35.9 33.2954 35.9 32.8999H34.5C34.5 34.0514 35.4485 34.9999 36.6 34.9999C37.7515 34.9999 38.7 34.0514 38.7 32.8999V29.3999H37.3Z" fill="white" fill-opacity="0.9"/>
<defs>
<filter id="filter0_d" x="0" y="6" width="76" height="76" filterUnits="userSpaceOnUse" color-interpolation-filters="sRGB">
<feFlood flood-opacity="0" result="BackgroundImageFix"/>
<feColorMatrix in="SourceAlpha" type="matrix" values="0 0 0 0 0 0 0 0 0 0 0 0 0 0 0 0 0 0 127 0"/>
<feMorphology radius="8" operator="erode" in="SourceAlpha" result="effect1_dropShadow"/>
<feOffset dy="16"/>
<feGaussianBlur stdDeviation="12"/>
<feColorMatrix type="matrix" values="0 0 0 0 0.196078 0 0 0 0 0.270588 0 0 0 0 0.345098 0 0 0 0.12 0"/>
<feBlend mode="normal" in2="BackgroundImageFix" result="effect1_dropShadow"/>
<feBlend mode="normal" in="SourceGraphic" in2="effect1_dropShadow" result="shape"/>
</filter>
</defs>
</svg>
