<svg width="60" height="60" viewBox="0 0 60 60" fill="none" xmlns="http://www.w3.org/2000/svg">
<path opacity="0.2" d="M60 30C60 50 50 60 30 60C10 60 0 50 0 30C0 10 10 0 30 0C50 0 60 10 60 30Z" fill="#939EA9"/>
<path d="M53.5714 29.9998C53.5714 45.7141 45.7143 53.5712 30 53.5712C14.2857 53.5712 6.42854 45.7141 6.42854 29.9998C6.42854 14.2855 14.2857 6.42834 30 6.42834C45.7143 6.42834 53.5714 14.2855 53.5714 29.9998Z" fill="url(#paint0_linear_21250_147857)"/>
<path d="M30 19.2856C26.754 19.2856 23.9897 21.3477 22.9455 24.2334C20.5453 24.764 18.75 26.9045 18.75 29.4642C18.75 31.7318 20.1588 33.6702 22.1489 34.4522L22.5 33.7499V29.4642H37.5V33.7499L37.8511 34.4522C39.8412 33.6702 41.25 31.7318 41.25 29.4642C41.25 26.9045 39.4547 24.764 37.0545 24.2334C36.0103 21.3477 33.246 19.2856 30 19.2856Z" fill="white" fill-opacity="0.4"/>
<path d="M26.5179 34.4237V31.0714H24.9107V34.4237C24.9107 34.4691 24.8992 34.5137 24.8772 34.5534L23.8306 36.4441C23.7456 36.4338 23.6591 36.4286 23.5714 36.4286C22.388 36.4286 21.4286 37.3879 21.4286 38.5714C21.4286 39.7549 22.388 40.7143 23.5714 40.7143C24.7549 40.7143 25.7143 39.7549 25.7143 38.5714C25.7143 38.0602 25.5353 37.5909 25.2366 37.2226L26.2833 35.3318C26.4371 35.0538 26.5179 34.7414 26.5179 34.4237Z" fill="white"/>
<path d="M33.4821 34.4237V31.0714H35.0893V34.4237C35.0893 34.4691 35.1008 34.5137 35.1228 34.5534L36.1694 36.4441C36.2544 36.4338 36.3409 36.4286 36.4286 36.4286C37.612 36.4286 38.5714 37.3879 38.5714 38.5714C38.5714 39.7549 37.612 40.7143 36.4286 40.7143C35.2451 40.7143 34.2857 39.7549 34.2857 38.5714C34.2857 38.0602 34.4647 37.5909 34.7634 37.2226L33.7167 35.3318C33.5629 35.0538 33.4821 34.7414 33.4821 34.4237Z" fill="white"/>
<path d="M30 40.7143C31.1835 40.7143 32.1429 39.7549 32.1429 38.5714C32.1429 37.6721 31.5889 36.9022 30.8036 36.5843V31.0714H29.1964V36.5843C28.4111 36.9022 27.8571 37.6721 27.8571 38.5714C27.8571 39.7549 28.8165 40.7143 30 40.7143Z" fill="white"/>
<defs>
<linearGradient id="paint0_linear_21250_147857" x1="6.42854" y1="53.5712" x2="53.5714" y2="8.78549" gradientUnits="userSpaceOnUse">
<stop stop-color="#324558"/>
<stop offset="1" stop-color="#778592"/>
</linearGradient>
</defs>
</svg>
