<svg width="60" height="60" viewBox="0 0 60 60" fill="none" xmlns="http://www.w3.org/2000/svg">
<path opacity="0.2" d="M60 30C60 50 50 60 30 60C10 60 0 50 0 30C0 10 10 0 30 0C50 0 60 10 60 30Z" fill="#939EA9"/>
<path d="M53.5715 29.9997C53.5715 45.714 45.7144 53.5711 30.0001 53.5711C14.2858 53.5711 6.42871 45.714 6.42871 29.9997C6.42871 14.2854 14.2858 6.42822 30.0001 6.42822C45.7144 6.42822 53.5715 14.2854 53.5715 29.9997Z" fill="url(#paint0_linear_21712_148386)"/>
<path d="M26.2217 26.3717L33.2148 23.5745C33.2251 24.1437 33.4574 24.6588 33.8287 25.0368L26.7856 27.854C26.7858 27.8429 26.7859 27.8319 26.7859 27.8208C26.7859 27.262 26.572 26.7532 26.2217 26.3717Z" fill="white" fill-opacity="0.6"/>
<path d="M26.2217 34.9432L33.2148 32.146C33.2251 32.7153 33.4574 33.2303 33.8287 33.6083L26.7856 36.4255C26.7858 36.4144 26.7859 36.4034 26.7859 36.3923C26.7859 35.8335 26.572 35.3247 26.2217 34.9432Z" fill="white" fill-opacity="0.6"/>
<path d="M33.2145 32.1397L26.1714 29.3224C26.5428 28.9445 26.7751 28.4294 26.7853 27.8601L33.7785 30.6574C33.4281 31.0388 33.2143 31.5477 33.2143 32.1064C33.2143 32.1175 33.2144 32.1286 33.2145 32.1397Z" fill="white" fill-opacity="0.6"/>
<path d="M35.3572 25.6781C36.5407 25.6781 37.5001 24.7187 37.5001 23.5352C37.5001 22.3517 36.5407 21.3923 35.3572 21.3923C34.1737 21.3923 33.2144 22.3517 33.2144 23.5352C33.2144 24.7187 34.1737 25.6781 35.3572 25.6781Z" fill="white" fill-opacity="0.9"/>
<path d="M24.6429 29.9637C25.8263 29.9637 26.7857 29.0043 26.7857 27.8208C26.7857 26.6374 25.8263 25.678 24.6429 25.678C23.4594 25.678 22.5 26.6374 22.5 27.8208C22.5 29.0043 23.4594 29.9637 24.6429 29.9637Z" fill="white" fill-opacity="0.9"/>
<path d="M35.3572 34.2493C36.5407 34.2493 37.5001 33.29 37.5001 32.1065C37.5001 30.923 36.5407 29.9636 35.3572 29.9636C34.1737 29.9636 33.2144 30.923 33.2144 32.1065C33.2144 33.29 34.1737 34.2493 35.3572 34.2493Z" fill="white" fill-opacity="0.9"/>
<path d="M24.6429 38.535C25.8263 38.535 26.7857 37.5756 26.7857 36.3921C26.7857 35.2087 25.8263 34.2493 24.6429 34.2493C23.4594 34.2493 22.5 35.2087 22.5 36.3921C22.5 37.5756 23.4594 38.535 24.6429 38.535Z" fill="white" fill-opacity="0.9"/>
<defs>
<linearGradient id="paint0_linear_21712_148386" x1="6.42871" y1="53.5711" x2="53.5715" y2="8.78537" gradientUnits="userSpaceOnUse">
<stop stop-color="#324558"/>
<stop offset="1" stop-color="#778592"/>
</linearGradient>
</defs>
</svg>
