<svg width="47" height="47" viewBox="0 0 47 47" fill="none" xmlns="http://www.w3.org/2000/svg">
<rect width="47" height="47" rx="10" fill="#DAEBFB"/>
<rect x="4" y="4" width="39" height="39" rx="10" fill="#024D8E"/>
<path opacity="0.4" fill-rule="evenodd" clip-rule="evenodd" d="M33.1848 20.3868C33.141 16.761 30.1906 13.8325 26.5512 13.8325C23.702 13.8325 21.2793 15.6317 20.3387 18.1528C19.7809 17.3927 18.8895 16.895 17.8723 16.895C16.1797 16.895 14.8098 18.2649 14.8098 19.9575C14.8098 20.0617 14.8235 20.1629 14.8373 20.2644C14.842 20.2987 14.8466 20.3331 14.8508 20.3677C13.0297 21.1442 11.75 22.9544 11.75 25.0626C11.75 27.8817 14.0359 30.1649 16.8551 30.1649H18.1667V25.5H29.8333V30.1649H31.1449C33.9641 30.1649 36.25 27.8817 36.25 25.0626C36.25 22.9681 34.9867 21.1743 33.1848 20.3868Z" fill="white"/>
<rect x="23" y="26" width="2" height="9" rx="1" fill="white"/>
<rect x="22" y="32" width="4" height="4" rx="1" fill="white"/>
<path d="M21 27C21 30 20.8 33 18 33" stroke="white" stroke-width="2" stroke-linecap="round"/>
<rect x="17" y="32" width="4" height="4" rx="1" fill="white"/>
<path d="M27 27C27 30 27.2 33 30 33" stroke="white" stroke-width="2" stroke-linecap="round"/>
<rect width="4" height="4" rx="1" transform="matrix(-1 0 0 1 31 32)" fill="white"/>
</svg>
