<svg width="20" height="21" viewBox="0 0 20 21" fill="none" xmlns="http://www.w3.org/2000/svg">
<path fill-rule="evenodd" clip-rule="evenodd" d="M16.6667 3.32593H5V18.3259H16.6667C17.1269 18.3259 17.5 17.9528 17.5 17.4926V4.15926C17.5 3.69902 17.1269 3.32593 16.6667 3.32593ZM10 6.24259V7.49259H7.5V6.24259H10ZM10.8333 13.7426V14.9926H7.5V13.7426H10.8333ZM13.3333 11.2426V12.4926H9.16667V11.2426H13.3333ZM15 8.74259V9.9926L9.16667 9.99259V8.74259H15Z" fill="#9DDFC9"/>
<path d="M3.33333 3.32593C2.8731 3.32593 2.5 3.69902 2.5 4.15926V17.4926C2.5 17.9528 2.8731 18.3259 3.33333 18.3259H5V3.32593H3.33333Z" fill="#15A675"/>
<path d="M10 6.24259V7.49259H7.5V6.24259H10Z" fill="#15A675"/>
<path d="M10.8333 13.7426V14.9926H7.5V13.7426H10.8333Z" fill="#15A675"/>
<path d="M13.3333 11.2426V12.4926H9.16667V11.2426H13.3333Z" fill="#15A675"/>
<path d="M15 8.74259V9.9926L9.16667 9.99259V8.74259H15Z" fill="#15A675"/>
</svg>
