<svg width="24" height="24" viewBox="0 0 24 24" fill="none" xmlns="http://www.w3.org/2000/svg"><path fill-rule="evenodd" clip-rule="evenodd" d="M4 3a1 1 0 0 0-1 1v16a1 1 0 0 0 1 1h16a1 1 0 0 0 1-1V4a1 1 0 0 0-1-1H4zm8.024 5.096c-.9.707-1.73 1.36-.556 3.747-3.115-2.414-1.626-3.548-.1-4.71.985-.748 1.985-1.51 1.775-2.633.625 2.224-.277 2.933-1.12 3.596zm.2 3.117c-.614-1.159-1.45-2.734 2.232-3.799-2.228.835-1.828 1.925-1.466 2.915.275.752.53 1.445-.407 1.923.05-.265-.14-.626-.359-1.039zm2.918 1.352c-1.287 1.12-8.896 1.276-5.606-.481-6.386 1.636 4.533 3.682 5.606.481zm-5.245 2.322c-1.75 1.48 3.586 2.13 4.343 0-1.536.626-4.021 1.023-4.343 0zm-2.367 1.2c-7.646 2.407 8.635 3.77 10.47.385-2.07 1.12-13.241 2.022-10.47-.385zm8.002-1.38c3.29-1.203 1.121-4.067-.39-2.455 1.511-.168 1.852 1.083.39 2.455z" fill="currentColor"/></svg>