<svg width="24" height="24" viewBox="0 0 24 24" fill="none" xmlns="http://www.w3.org/2000/svg">
<path fill-rule="evenodd" clip-rule="evenodd" d="M6 2C8.20914 2 10 3.79086 10 6C10 7.40062 9.28012 8.63311 8.19018 9.34765C8.78023 10.0605 9.5482 10.5 10.5 10.5H13.5C14.9095 10.5 16.0273 10.9273 16.8742 11.648C17.6564 12.3136 18.1458 13.1763 18.4533 14.0254C20.449 14.2505 22 15.9441 22 18C22 20.2091 20.2091 22 18 22C15.7909 22 14 20.2091 14 18C14 16.3531 14.9953 14.9387 16.4171 14.3254C16.2048 13.8637 15.9288 13.4696 15.5781 13.1711C15.1249 12.7855 14.4784 12.5 13.5 12.5H10.5C9.03129 12.5 7.86327 11.88 7 11.0088V15H8.5C9.05228 15 9.5 15.4477 9.5 16V21C9.5 21.5523 9.05228 22 8.5 22H3.5C2.94772 22 2.5 21.5523 2.5 21V16C2.5 15.4477 2.94772 15 3.5 15H5V9.87398C3.27477 9.42994 2 7.86384 2 6C2 3.79086 3.79086 2 6 2ZM4.5 17V20H7.5V17H4.5Z" fill="currentColor"/>
</svg>
