<svg width="24" height="24" viewBox="0 0 24 24" fill="none" xmlns="http://www.w3.org/2000/svg"><path fill-rule="evenodd" clip-rule="evenodd" d="M7.033 4.14S6.724 2 11.669 2c5.168 0 4.768 2.58 4.768 2.58v4.262c0 2.578-2.63 2.536-2.63 2.536h-4.68c-2.806 0-2.717 2.755-2.717 2.755v2.31H4.762S2 16.62 2 11.643s3.164-4.62 3.164-4.62h6.593v-.666H7.038L7.033 4.14zm3.53-.704a1.11 1.11 0 0 0-1.896.786 1.11 1.11 0 1 0 2.222 0 1.11 1.11 0 0 0-.325-.786z" fill="#fff"/><path fill-rule="evenodd" clip-rule="evenodd" d="M16.967 19.86S17.276 22 12.331 22c-5.168 0-4.768-2.58-4.768-2.58v-4.262c0-2.578 2.63-2.536 2.63-2.536h4.68c2.806 0 2.717-2.756 2.717-2.756v-2.31h1.648S22 7.38 22 12.358s-3.164 4.62-3.164 4.62h-6.593v.666h4.719l.005 2.216zm-3.53.704a1.11 1.11 0 0 0 1.896-.786 1.11 1.11 0 1 0-2.222 0c0 .295.117.577.325.786z" fill="currentColor"/></svg>