<svg width="24" height="24" viewBox="0 0 24 24" fill="none" xmlns="http://www.w3.org/2000/svg"><path fill-rule="evenodd" clip-rule="evenodd" d="M4 3a1 1 0 0 0-1 1v16a1 1 0 0 0 1 1h16a1 1 0 0 0 1-1V4a1 1 0 0 0-1-1H4zm5.79 11.402c.063.153.094.318.094.493s-.036.337-.108.486a1.063 1.063 0 0 1-.31.37 1.52 1.52 0 0 1-.5.244 2.314 2.314 0 0 1-.667.088c-.284 0-.545-.032-.783-.095a1.665 1.665 0 0 1-.607-.297 1.381 1.381 0 0 1-.392-.52 2.013 2.013 0 0 1-.155-.762H4.5c0 .36.05.688.148.985.104.297.243.563.419.796.18.234.391.44.634.614.243.176.504.322.783.44.283.116.578.201.884.256.31.058.62.087.93.087.5 0 .961-.058 1.384-.175a3.34 3.34 0 0 0 1.093-.526c.306-.234.544-.518.715-.85.176-.338.263-.723.263-1.155 0-.404-.076-.77-.23-1.1a2.713 2.713 0 0 0-.633-.883 3.884 3.884 0 0 0-.972-.675 7.344 7.344 0 0 0-1.241-.479 8.23 8.23 0 0 1-.85-.277 3.458 3.458 0 0 1-.635-.324 1.442 1.442 0 0 1-.405-.404.944.944 0 0 1-.135-.5c0-.175.034-.337.102-.485a1.09 1.09 0 0 1 .31-.392c.135-.112.3-.198.493-.256.197-.063.422-.095.674-.095.275 0 .513.039.715.115a1.33 1.33 0 0 1 .824.783c.072.184.112.387.121.607h1.849a2.81 2.81 0 0 0-.972-2.166 3.253 3.253 0 0 0-1.1-.627A4.213 4.213 0 0 0 8.265 7.5c-.495 0-.954.065-1.376.196a3.36 3.36 0 0 0-1.1.546 2.58 2.58 0 0 0-.729.864 2.405 2.405 0 0 0-.263 1.127c0 .427.088.805.263 1.133.18.329.418.617.715.864s.639.459 1.026.634c.391.175.8.322 1.228.439.35.094.643.198.877.31.238.108.43.23.574.364.148.13.251.273.31.425zm7.118 1.613a1.695 1.695 0 0 1-.526.081c-.301 0-.551-.06-.749-.182a1.396 1.396 0 0 1-.465-.48 2.183 2.183 0 0 1-.237-.694 4.917 4.917 0 0 1-.067-.823v-.203c0-.279.022-.549.067-.81.05-.26.13-.492.243-.694.117-.203.272-.365.466-.486.193-.122.438-.182.735-.182.203 0 .39.036.56.108.171.067.317.16.439.276.121.117.213.257.277.419.063.162.09.332.08.512H19.5a2.717 2.717 0 0 0-.216-1.167 2.475 2.475 0 0 0-.647-.89 2.887 2.887 0 0 0-.985-.574 3.727 3.727 0 0 0-1.249-.203c-.562 0-1.057.097-1.484.29a3.083 3.083 0 0 0-1.066.79 3.317 3.317 0 0 0-.648 1.174 4.648 4.648 0 0 0-.216 1.437v.203c0 .513.072.994.216 1.444.148.445.364.834.648 1.167.288.333.645.596 1.073.79.427.188.924.283 1.49.283.42 0 .815-.066 1.188-.196a3.27 3.27 0 0 0 .992-.553c.284-.234.506-.513.668-.837.166-.324.245-.675.236-1.053h-1.767a.894.894 0 0 1-.095.466c-.067.14-.164.259-.29.358a1.406 1.406 0 0 1-.439.23z" fill="currentColor"/></svg>