<svg width="32" height="32" viewBox="0 0 32 32" fill="none" xmlns="http://www.w3.org/2000/svg">
<rect width="32" height="32" rx="6" fill="url(#paint0_linear)"/>
<path fill-rule="evenodd" clip-rule="evenodd" d="M16.0001 24.5725C20.734 24.5725 24.5716 20.735 24.5716 16.0011C24.5716 11.2672 20.734 7.42969 16.0001 7.42969C11.2663 7.42969 7.42871 11.2672 7.42871 16.0011C7.42871 20.735 11.2663 24.5725 16.0001 24.5725ZM16.5415 16.6771L16.5543 16.664L21.3901 11.8281L20.3103 10.7483L15.9998 15.0588L12.5974 11.6563L11.5208 12.733L15.4648 16.6771C15.7621 16.9744 16.2442 16.9744 16.5415 16.6771Z" fill="white" fill-opacity="0.6"/>
<path fill-rule="evenodd" clip-rule="evenodd" d="M16.554 16.6637C16.5498 16.6681 16.5456 16.6725 16.5412 16.6768C16.2439 16.9741 15.7619 16.9741 15.4646 16.6768L11.5205 12.7328L12.5972 11.6561L15.9996 15.0585L20.31 10.748L21.3899 11.8279L16.554 16.6637Z" fill="white" fill-opacity="0.9"/>
<defs>
<linearGradient id="paint0_linear" x1="-4.47035e-07" y1="32" x2="28.5" y2="2" gradientUnits="userSpaceOnUse">
<stop stop-color="#939EA9"/>
<stop offset="1" stop-color="#B6C2CD"/>
</linearGradient>
</defs>
</svg>
