<svg width="32" height="32" viewBox="0 0 32 32" fill="none" xmlns="http://www.w3.org/2000/svg">
<rect width="32" height="32" rx="6" fill="url(#paint0_linear)"/>
<path d="M10.0091 24.5725H21.9911C23.4047 24.5725 24.5607 23.3655 24.5715 21.8835L24.5716 16.0011L21.291 7.82885C21.171 7.57675 20.931 7.42969 20.6709 7.42969H11.3494C11.0893 7.42969 10.8493 7.57675 10.7293 7.82885L7.42871 16.0011L7.42872 21.8415V21.8835C7.44872 23.3751 8.58891 24.5725 10.0091 24.5725Z" fill="white" fill-opacity="0.6"/>
<path d="M24.5716 16.1581C24.5716 16.2166 24.5716 22.7389 24.5716 22.7389C24.5716 23.7537 23.7314 24.5734 22.6912 24.5734C21.6511 24.5734 9.30903 24.5734 9.30903 24.5734C8.26886 24.5734 7.42872 23.7537 7.42872 22.7389V16.119C7.42872 16.08 7.4287 16.0322 7.42872 16.002H11.7294C12.3695 16.002 12.9096 16.5094 12.9096 17.1534C12.9096 17.4657 13.0497 17.7584 13.2497 17.9731C13.4697 18.1877 13.7498 18.3048 14.0898 18.3048H17.9305C18.5706 18.3048 19.1107 17.7974 19.1107 17.1534C19.1107 16.8411 19.2507 16.5484 19.4507 16.3337C19.6708 16.119 19.9508 16.002 20.2708 16.002H24.5716C24.5716 16.0496 24.5716 16.0995 24.5716 16.1581Z" fill="white" fill-opacity="0.9"/>
<defs>
<linearGradient id="paint0_linear" x1="-4.47035e-07" y1="32" x2="28.5" y2="2" gradientUnits="userSpaceOnUse">
<stop stop-color="#934BC5"/>
<stop offset="1" stop-color="#C096E0"/>
</linearGradient>
</defs>
</svg>
