<svg width="24" height="24" viewBox="0 0 24 24" fill="none" xmlns="http://www.w3.org/2000/svg"><path fill-rule="evenodd" clip-rule="evenodd" d="M4 3a1 1 0 0 0-1 1v16a1 1 0 0 0 1 1h16a1 1 0 0 0 1-1V4a1 1 0 0 0-1-1H4zm5.793 9.906c.063.153.094.317.094.493a1.1 1.1 0 0 1-.108.486 1.065 1.065 0 0 1-.31.371 1.521 1.521 0 0 1-.5.243 2.313 2.313 0 0 1-.668.088c-.284 0-.545-.032-.783-.095a1.667 1.667 0 0 1-.608-.297 1.382 1.382 0 0 1-.392-.52 2.014 2.014 0 0 1-.155-.762H4.5c0 .36.05.688.149.985.103.297.243.563.418.797.18.234.392.439.635.614.243.176.504.322.783.439.283.117.578.203.884.257.31.058.621.087.932.087.5 0 .96-.058 1.384-.175a3.34 3.34 0 0 0 1.093-.527c.306-.234.545-.517.716-.85.175-.338.263-.723.263-1.155 0-.405-.076-.772-.23-1.1a2.716 2.716 0 0 0-.634-.885 3.886 3.886 0 0 0-.972-.675 7.35 7.35 0 0 0-1.242-.479 8.237 8.237 0 0 1-.85-.277 3.466 3.466 0 0 1-.635-.324 1.443 1.443 0 0 1-.406-.405.945.945 0 0 1-.135-.5c0-.175.034-.337.102-.485a1.09 1.09 0 0 1 .31-.392c.135-.112.3-.198.493-.256.198-.063.423-.095.675-.095.275 0 .513.038.716.115a1.33 1.33 0 0 1 .823.783c.072.185.113.387.122.608h1.85a2.81 2.81 0 0 0-.972-2.167 3.257 3.257 0 0 0-1.101-.628A4.216 4.216 0 0 0 8.267 6a4.65 4.65 0 0 0-1.377.196c-.423.126-.79.308-1.1.547-.311.238-.554.526-.73.864a2.406 2.406 0 0 0-.263 1.127c0 .428.088.806.263 1.134.18.329.419.617.716.864.297.248.639.46 1.026.635.392.175.801.322 1.229.439.35.094.643.198.877.31.239.108.43.23.574.365.149.13.252.272.31.425zm3.361-2.174a5.73 5.73 0 0 0-.189 1.52v.14c0 .532.063 1.025.19 1.48.13.45.317.84.56 1.174.243.328.542.587.898.776.355.185.762.277 1.221.277.383 0 .72-.065 1.013-.196a2.29 2.29 0 0 0 .77-.56v3.43H19.5V8.66h-1.654l-.115.742a2.368 2.368 0 0 0-.803-.648c-.306-.153-.666-.23-1.08-.23-.464 0-.876.09-1.236.27-.355.18-.657.435-.904.764a3.465 3.465 0 0 0-.554 1.174zm1.769 2.511a4.265 4.265 0 0 1-.081-.85v-.142c0-.31.027-.598.081-.864a2.35 2.35 0 0 1 .263-.702c.122-.198.275-.353.46-.466a1.27 1.27 0 0 1 .681-.175c.32 0 .583.063.79.189.211.121.378.294.5.52v3.105c-.122.23-.289.41-.5.54-.207.13-.475.196-.803.196a1.27 1.27 0 0 1-.682-.176 1.38 1.38 0 0 1-.452-.473 2.317 2.317 0 0 1-.257-.702z" fill="currentColor"/></svg>