<svg width="16" height="16" viewBox="0 0 16 16" fill="none" xmlns="http://www.w3.org/2000/svg">
<path fill-rule="evenodd" clip-rule="evenodd" d="M11 3C11 4.42772 10.0027 5.62251 8.66667 5.92566V10.0743C10.0027 10.3775 11 11.5723 11 13C11 14.6569 9.65685 16 8 16C6.34315 16 5 14.6569 5 13C5 11.5723 5.99734 10.3775 7.33333 10.0743V5.92566C5.99734 5.62251 5 4.42772 5 3C5 1.34315 6.34315 0 8 0C9.65685 0 11 1.34315 11 3ZM8 4.66667C8.92047 4.66667 9.66667 3.92047 9.66667 3C9.66667 2.07953 8.92047 1.33333 8 1.33333C7.07953 1.33333 6.33333 2.07953 6.33333 3C6.33333 3.92047 7.07953 4.66667 8 4.66667Z" fill="white"/>
</svg>
