<svg width="16" height="16" viewBox="0 0 16 16" fill="none" xmlns="http://www.w3.org/2000/svg">
  <path fill-rule="evenodd" clip-rule="evenodd"
    d="M1.99967 2.66663C1.63148 2.66663 1.33301 2.9651 1.33301 3.33329V12.6666C1.33301 13.0348 1.63148 13.3333 1.99967 13.3333H13.9997C14.3679 13.3333 14.6663 13.0348 14.6663 12.6666V3.33329C14.6663 2.9651 14.3679 2.66663 13.9997 2.66663H1.99967ZM8.0499 4.99996L6.3999 11H7.78273L9.43273 4.99996H8.0499ZM5.19496 5.86186L6.13777 6.80467L5.10917 7.83326L6.13777 8.86186L5.19496 9.80467L3.22355 7.83326L5.19496 5.86186ZM9.86158 6.80467L10.8044 5.86186L12.7758 7.83326L10.8044 9.80467L9.86158 8.86186L10.8902 7.83326L9.86158 6.80467Z"
    fill="currentColor" />
</svg>