<svg width="32" height="32" viewBox="0 0 48 48" fill="none">
  <path
    fill-rule="evenodd"
    clip-rule="evenodd"
    d="M32.8532 13.0255C31.5042 10.7265 31.8161 7.72189 33.7888 5.74918C36.1319 3.40603 39.9309 3.40603 42.2741 5.74918C44.6172 8.09233 44.6172 11.8913 42.2741 14.2345C40.293 16.2156 37.2712 16.5217 34.9685 15.1528L32.1031 18.0182C34.0425 20.9641 34.0192 24.8226 32.0331 27.7466L34.631 30.0344C35.5914 29.3815 36.7512 29 38 29C41.3137 29 44 31.6863 44 35C44 38.3137 41.3137 41 38 41C34.6863 41 32 38.3137 32 35C32 34.023 32.2335 33.1005 32.6478 32.2854L29.9471 29.907C26.9957 32.0684 22.9976 32.1511 19.966 30.1553L16.896 33.2253C17.5948 34.3144 18 35.6099 18 37C18 40.866 14.866 44 11 44C7.13401 44 4 40.866 4 37C4 33.134 7.13401 30 11 30C12.3901 30 13.6856 30.4052 14.7747 31.1039L17.7771 28.1016C15.6796 25.3234 15.4551 21.5811 17.1034 18.5964L14.7977 16.5659C13.2992 17.3169 11.4273 17.0673 10.1771 15.8171C8.61497 14.255 8.61497 11.7223 10.1771 10.1602C11.7392 8.59812 14.2718 8.59812 15.8339 10.1602C16.9574 11.2836 17.2728 12.9091 16.7804 14.3144L18.9846 16.2556C22.1192 13.488 26.7601 13.3459 30.0494 15.8293L32.8532 13.0255ZM36.6172 11.406C35.8362 10.625 35.8362 9.35866 36.6172 8.57761C37.3983 7.79656 38.6646 7.79656 39.4457 8.57761C40.2267 9.35866 40.2267 10.625 39.4457 11.406C38.6646 12.1871 37.3983 12.1871 36.6172 11.406ZM11 40C9.34314 40 8 38.6569 8 37C8 35.3431 9.34315 34 11 34C12.6569 34 14 35.3431 14 37C14 38.6569 12.6569 40 11 40Z"
    fill="currentColor"
  ></path>
</svg>
