<svg width="121" height="101" viewBox="0 0 121 101" fill="none" xmlns="http://www.w3.org/2000/svg"><path d="M69.246 94.902c24.21 0 43.837-19.645 43.837-43.88 0-24.234-19.627-43.88-43.837-43.88-24.21 0-43.837 19.646-43.837 43.88 0 24.235 19.627 43.88 43.837 43.88z" fill="#EAEEF9"/><path d="M66.496 52.577c1.046 0 1.868.383 1.868.87v19.311c0 .487-.822.87-1.868.87H2.867c-1.045 0-1.867-.383-1.867-.87V53.447c0-.488.822-.87 1.867-.87h63.63z" fill="#fff" stroke="#EAEEF9" stroke-width="2" stroke-miterlimit="10" stroke-linecap="round" stroke-linejoin="round" stroke-dasharray="1 6"/><path d="M34.984 15.353a2.208 2.208 0 0 0-1.363-4.198 2.208 2.208 0 0 0 1.363 4.198z" fill="#E2EBFF"/><path d="M119.134 25.37a1.501 1.501 0 0 0-.927-2.855 1.501 1.501 0 0 0 .927 2.855z" fill="#35E09D"/><path d="M99.569 98.737a3.357 3.357 0 0 0 .213-4.74 3.35 3.35 0 0 0-4.736-.214 3.357 3.357 0 0 0-.213 4.74 3.35 3.35 0 0 0 4.736.214zM105.02 87.19a1.41 1.41 0 1 0-1.904-2.086 1.414 1.414 0 0 0-.09 1.996 1.41 1.41 0 0 0 1.994.09z" fill="#EAEEF9"/><path d="M84.037 80.994c.654 0 1.167.344 1.167.782v17.383c0 .437-.513.781-1.167.781H44.27c-.654 0-1.167-.344-1.167-.781V81.776c0-.438.514-.782 1.167-.782h39.768zM119.064 64.153c.49 0 .875.249.875.565v12.554c0 .316-.385.565-.875.565H89.238c-.49 0-.876-.249-.876-.565V64.718c0-.316.385-.565.876-.565h29.826z" fill="#fff" stroke="#EAEEF9" stroke-width="2" stroke-miterlimit="10" stroke-linecap="round" stroke-linejoin="round" stroke-dasharray="1 6"/><path d="M99.302 73.556h-1.326v-2.139h-1.965v2.14h-1.333v-5.123h1.334v2.033h1.964v-2.033h1.326v5.122zM100.15 73.556v-5.122h1.782c.489 0 .928.103 1.318.31.39.204.694.493.912.868.221.373.332.792.335 1.256v.236c0 .47-.108.89-.323 1.263a2.26 2.26 0 0 1-.905.873 2.725 2.725 0 0 1-1.299.316h-1.82zm1.333-4.169v3.22h.464c.382 0 .676-.126.881-.377.206-.254.308-.629.308-1.126v-.222c0-.494-.102-.867-.308-1.118-.205-.251-.504-.377-.896-.377h-.449zM108.665 71.516h-2.151v2.04h-1.334v-5.122h3.702v.953h-2.368v1.179h2.151v.95zM112.29 72.195c0-.18-.07-.322-.209-.422-.137-.101-.379-.206-.726-.314a7.284 7.284 0 0 1-.851-.313c-.717-.326-1.075-.774-1.075-1.344 0-.283.088-.533.266-.749.18-.218.433-.387.76-.506a3.13 3.13 0 0 1 1.102-.183c.397 0 .753.065 1.067.197.317.131.563.319.738.563.174.241.262.518.262.83h-1.33c0-.209-.07-.37-.209-.486-.137-.115-.323-.172-.559-.172-.238 0-.427.05-.566.148a.434.434 0 0 0-.205.369c0 .131.076.251.228.359.152.105.419.216.802.33.382.113.696.235.942.366.598.32.897.76.897 1.32 0 .448-.183.8-.547 1.055-.365.256-.866.383-1.501.383-.449 0-.855-.073-1.22-.221-.362-.15-.636-.354-.821-.612a1.527 1.527 0 0 1-.273-.897h1.337c0 .274.076.477.228.608.155.13.404.194.749.194.22 0 .394-.044.52-.13a.429.429 0 0 0 .194-.373z" fill="#1C3754"/><path d="M118.597 30.472c.752 0 1.342.382 1.342.87v19.31c0 .488-.59.87-1.342.87H72.863c-.751 0-1.341-.382-1.341-.87v-19.31c0-.488.59-.87 1.341-.87h45.734z" fill="#fff" stroke="#EAEEF9" stroke-width="2" stroke-miterlimit="10" stroke-linecap="round" stroke-linejoin="round" stroke-dasharray="1 6"/><path d="M81.824 36.672l1.67 5.206 1.665-5.206h2.375v7.483h-1.81v-1.748l.175-3.577-1.809 5.325h-1.192l-1.814-5.33.174 3.582v1.748h-1.803v-7.483h2.369z" fill="url(#paint0_linear_8592_129506)"/><path d="M90.828 41.729l.925-3.135h1.856l-2.267 6.49-.097.237c-.323.72-.891 1.08-1.707 1.08-.226 0-.464-.035-.714-.103v-1.239h.226c.243 0 .428-.036.555-.108.13-.068.226-.193.288-.375l.138-.37-1.932-5.612h1.85l.88 3.135z" fill="url(#paint1_linear_8592_129506)"/><path d="M98.003 42.166c0-.264-.094-.47-.283-.617-.185-.147-.512-.3-.981-.457a9.446 9.446 0 0 1-1.152-.458c-.97-.476-1.454-1.13-1.454-1.963 0-.415.12-.78.36-1.095.243-.318.586-.565 1.028-.74a3.957 3.957 0 0 1 1.49-.267c.538 0 1.02.096 1.444.288.428.192.76.466.997.822.237.353.355.757.355 1.213h-1.8c0-.305-.093-.541-.282-.71-.185-.167-.437-.251-.755-.251-.322 0-.578.072-.766.216a.65.65 0 0 0-.277.54c0 .191.102.366.308.524.205.154.567.315 1.084.483.518.164.942.342 1.275.534.808.466 1.213 1.109 1.213 1.928 0 .654-.247 1.168-.74 1.541-.494.374-1.17.56-2.03.56a4.073 4.073 0 0 1-1.65-.323c-.49-.22-.86-.518-1.11-.895a2.354 2.354 0 0 1-.37-1.31h1.809c0 .4.103.697.308.889.21.188.547.283 1.013.283.298 0 .532-.064.704-.19a.64.64 0 0 0 .262-.545z" fill="url(#paint2_linear_8592_129506)"/><path d="M107.079 40.567c0 .693-.115 1.297-.344 1.815a3.16 3.16 0 0 1-.951 1.238l1.208.956-1.116.946-1.608-1.295a3.36 3.36 0 0 1-.452.03c-.638 0-1.203-.147-1.697-.441a3.028 3.028 0 0 1-1.156-1.265c-.274-.548-.416-1.178-.426-1.891v-.396c0-.736.133-1.384.4-1.943.271-.558.655-.99 1.152-1.295.5-.305 1.072-.457 1.716-.457.634 0 1.199.15 1.696.452.497.302.883.732 1.157 1.29.277.555.418 1.193.421 1.912v.344zm-1.835-.313c0-.744-.125-1.307-.375-1.691a1.188 1.188 0 0 0-1.064-.58c-.476 0-.834.19-1.074.57-.24.38-.361.937-.365 1.67v.344c0 .737.122 1.302.365 1.696.243.391.605.586 1.085.586.459 0 .81-.193 1.053-.58.247-.388.372-.944.375-1.67v-.345z" fill="url(#paint3_linear_8592_129506)"/><path d="M109.803 42.767h3.14v1.388h-4.944v-7.483h1.804v6.095z" fill="url(#paint4_linear_8592_129506)"/><path d="M19.347 96.877a1.5 1.5 0 1 0-.002-3 1.5 1.5 0 0 0 .002 3z" fill="#3E5061"/><path d="M49.566 22.053c.506 0 .904.296.904.673v14.968c0 .377-.398.673-.904.673h-30.82c-.507 0-.905-.296-.905-.673V22.726c0-.377.398-.673.904-.673h30.82z" fill="#fff" stroke="#EAEEF9" stroke-width="2" stroke-miterlimit="10" stroke-linecap="round" stroke-linejoin="round" stroke-dasharray="1 6"/><path d="M27.583 32.746h-1.39v-2.422h-2.06v2.422h-1.397v-5.8h1.398v2.303h2.06v-2.302h1.39v5.8z" fill="url(#paint5_linear_8592_129506)"/><path d="M28.471 32.746v-5.8h2.084c.746 0 1.313.138 1.7.411.39.274.586.67.586 1.191 0 .3-.07.556-.207.769-.138.212-.342.369-.61.47.303.08.535.228.697.446.162.218.243.483.243.796 0 .569-.18.996-.541 1.283-.359.284-.891.429-1.598.434h-2.354zm1.398-2.465v1.39h.917c.252 0 .446-.057.581-.171.136-.117.203-.28.203-.49 0-.484-.24-.727-.72-.73h-.98zm0-.916h.73c.305-.003.523-.059.653-.168.13-.109.195-.27.195-.482 0-.244-.07-.42-.211-.525-.141-.11-.368-.164-.681-.164h-.686v1.339z" fill="url(#paint6_linear_8592_129506)"/><path d="M36.103 32.746a1.516 1.516 0 0 1-.128-.386c-.246.31-.592.466-1.035.466-.406 0-.752-.122-1.036-.367a1.178 1.178 0 0 1-.426-.928c0-.467.173-.82.518-1.06.345-.238.847-.358 1.506-.358h.414v-.227c0-.395-.171-.593-.514-.593-.319 0-.478.157-.478.47h-1.342c0-.417.176-.756.53-1.016.355-.26.808-.39 1.358-.39s.983.134 1.302.402c.319.268.482.636.49 1.104v1.907c.005.396.066.699.183.909v.067h-1.342zm-.84-.876a.739.739 0 0 0 .414-.108.67.67 0 0 0 .239-.243v-.689h-.39c-.468 0-.702.21-.702.63a.39.39 0 0 0 .124.298.451.451 0 0 0 .315.112z" fill="url(#paint7_linear_8592_129506)"/><path d="M40.265 31.535c0-.114-.06-.205-.179-.274-.12-.07-.346-.141-.681-.215a3.157 3.157 0 0 1-.828-.291 1.405 1.405 0 0 1-.498-.442 1.051 1.051 0 0 1-.172-.594c0-.396.164-.72.49-.976.327-.257.754-.386 1.283-.386.568 0 1.025.129 1.37.386.345.258.518.596.518 1.016h-1.346c0-.345-.182-.518-.546-.518-.14 0-.26.04-.355.12a.358.358 0 0 0-.143.29c0 .12.058.217.175.291.117.075.303.136.558.183.257.048.483.105.677.172.648.223.972.622.972 1.198 0 .393-.175.713-.526.96-.348.247-.8.37-1.354.37-.37 0-.699-.066-.988-.198a1.65 1.65 0 0 1-.677-.542 1.226 1.226 0 0 1-.243-.72h1.255c.005.198.071.344.199.437.127.09.29.136.49.136.183 0 .32-.037.41-.112a.355.355 0 0 0 .14-.29z" fill="url(#paint8_linear_8592_129506)"/><path d="M44.276 32.826c-.66 0-1.196-.197-1.605-.59-.409-.395-.613-.91-.613-1.541v-.112c0-.44.08-.83.243-1.167.164-.337.403-.597.717-.78.313-.186.685-.28 1.115-.28.605 0 1.083.19 1.434.566.35.375.526.898.526 1.57v.522h-2.67a.968.968 0 0 0 .316.57c.162.137.371.206.629.206.425 0 .757-.148.996-.446l.613.725a1.726 1.726 0 0 1-.713.554 2.407 2.407 0 0 1-.988.203zm-.151-3.434c-.393 0-.627.26-.701.781h1.354v-.103c.005-.215-.049-.381-.163-.498-.114-.12-.278-.18-.49-.18z" fill="url(#paint9_linear_8592_129506)"/><path d="M109.768 1c.98 0 1.751.337 1.751.766v17.042c0 .43-.771.767-1.751.767H50.116c-.98 0-1.75-.338-1.75-.767V1.766c0-.429.77-.766 1.75-.766h59.652z" fill="#fff" stroke="#EAEEF9" stroke-width="2" stroke-miterlimit="10" stroke-linecap="round" stroke-linejoin="round" stroke-dasharray="1 6"/><path d="M58.315 10.097v2.24h-1.591V5.734h2.634c.505 0 .951.094 1.338.281.39.185.69.45.903.794.214.342.322.73.322 1.165 0 .644-.232 1.16-.694 1.547-.46.384-1.092.576-1.896.576h-1.016zm0-1.23h1.043c.309 0 .543-.076.703-.23.163-.155.245-.372.245-.654 0-.308-.083-.554-.25-.739-.166-.184-.392-.278-.68-.28h-1.06v1.904z" fill="url(#paint10_linear_8592_129506)"/><path d="M62.447 9.838c0-.49.095-.925.285-1.306a2.04 2.04 0 0 1 .821-.884c.357-.206.776-.309 1.256-.309.735 0 1.314.229 1.737.685.423.454.635 1.072.635 1.855v.054c0 .765-.213 1.373-.64 1.823-.423.448-.997.671-1.723.671-.698 0-1.259-.208-1.682-.625-.423-.42-.652-.989-.685-1.705l-.005-.259zm1.528.095c0 .454.07.786.213.998.142.212.352.318.63.318.544 0 .823-.42.835-1.257v-.154c0-.88-.282-1.32-.844-1.32-.51 0-.787.38-.83 1.139l-.004.276z" fill="url(#paint11_linear_8592_129506)"/><path d="M70.423 10.958c0-.13-.068-.234-.204-.313-.136-.078-.394-.16-.775-.245a3.593 3.593 0 0 1-.944-.33 1.599 1.599 0 0 1-.566-.504 1.197 1.197 0 0 1-.195-.676c0-.45.186-.82.557-1.11.372-.294.859-.44 1.46-.44.648 0 1.168.146 1.56.44.394.293.59.678.59 1.156h-1.533c0-.393-.207-.59-.62-.59a.61.61 0 0 0-.404.136.408.408 0 0 0-.164.331c0 .136.067.247.2.331.133.085.344.155.635.209.293.054.55.12.77.195.738.254 1.107.709 1.107 1.365 0 .447-.2.812-.599 1.093-.396.281-.91.421-1.541.421-.42 0-.796-.075-1.125-.226a1.88 1.88 0 0 1-.77-.617 1.397 1.397 0 0 1-.277-.82h1.428c.006.226.082.392.227.498a.942.942 0 0 0 .557.154c.209 0 .365-.042.468-.127a.404.404 0 0 0 .158-.33z" fill="url(#paint12_linear_8592_129506)"/><path d="M74.396 6.21v1.22h.807v1.061h-.807v2.245c0 .184.033.313.1.385.066.073.198.11.394.11.151 0 .278-.01.38-.028v1.093a2.82 2.82 0 0 1-.86.132c-.527 0-.915-.124-1.166-.372-.251-.248-.376-.625-.376-1.13V8.492h-.626v-1.06h.626V6.21h1.528z" fill="url(#paint13_linear_8592_129506)"/><path d="M75.63 9.847c0-.496.08-.934.244-1.315.163-.38.398-.674.703-.88.305-.208.66-.313 1.066-.313.51 0 .91.173 1.197.517l.054-.426h1.388v4.72c0 .433-.101.808-.304 1.125-.2.321-.49.566-.87.735-.382.172-.823.259-1.325.259-.36 0-.709-.068-1.047-.204-.336-.136-.593-.313-.771-.531l.64-.898c.283.336.658.504 1.124.504.677 0 1.016-.348 1.016-1.043v-.155a1.435 1.435 0 0 1-1.111.486c-.599 0-1.083-.229-1.452-.685-.368-.46-.553-1.074-.553-1.841v-.055zm1.532.095c0 .402.075.722.227.957.15.233.362.35.635.35.33 0 .57-.11.72-.332V8.854c-.147-.224-.385-.335-.711-.335-.273 0-.486.122-.64.367-.154.242-.231.594-.231 1.056z" fill="url(#paint14_linear_8592_129506)"/><path d="M84.118 8.813l-.503-.036c-.48 0-.79.151-.925.454v3.106h-1.528V7.43h1.433l.05.63c.257-.48.615-.72 1.074-.72.163 0 .306.018.427.054l-.028 1.42z" fill="url(#paint15_linear_8592_129506)"/><path d="M86.953 12.428c-.753 0-1.362-.224-1.828-.672-.466-.45-.698-1.035-.698-1.755v-.127c0-.501.092-.944.276-1.328.188-.384.46-.68.817-.89.356-.21.78-.317 1.27-.317.689 0 1.233.215 1.632.644.399.427.598 1.022.598 1.787v.594h-3.038c.055.275.174.491.358.649.185.157.424.236.717.236.484 0 .861-.17 1.134-.508l.698.825c-.19.263-.461.473-.812.63a2.744 2.744 0 0 1-1.124.232zm-.173-3.91c-.447 0-.713.297-.798.89h1.542v-.119c.006-.244-.056-.433-.186-.566-.13-.136-.316-.204-.558-.204z" fill="url(#paint16_linear_8592_129506)"/><path d="M93.115 10.582a.652.652 0 0 0-.249-.544c-.163-.13-.452-.265-.866-.404a8.329 8.329 0 0 1-1.016-.404c-.856-.42-1.283-.997-1.283-1.732 0-.366.106-.688.317-.966.215-.28.517-.499.907-.653a3.49 3.49 0 0 1 1.315-.236c.475 0 .9.085 1.274.254.378.17.672.412.88.726.209.311.313.668.313 1.07H93.12c0-.269-.083-.477-.25-.626-.163-.148-.385-.222-.666-.222-.284 0-.51.064-.676.19a.573.573 0 0 0-.245.477c0 .17.091.323.272.462.182.136.5.278.957.427.457.145.832.302 1.125.471.713.411 1.07.978 1.07 1.7 0 .578-.218 1.032-.653 1.361-.435.33-1.032.495-1.791.495-.535 0-1.02-.096-1.456-.286-.432-.194-.759-.457-.98-.79a2.078 2.078 0 0 1-.326-1.156h1.596c0 .354.091.616.273.785.184.166.482.25.893.25.263 0 .47-.057.621-.168a.565.565 0 0 0 .231-.481z" fill="url(#paint17_linear_8592_129506)"/><path d="M101.124 9.172c0 .61-.101 1.144-.304 1.6a2.783 2.783 0 0 1-.839 1.093l1.066.844-.984.834-1.42-1.143a2.941 2.941 0 0 1-.399.027c-.562 0-1.06-.13-1.496-.39a2.667 2.667 0 0 1-1.02-1.115c-.242-.484-.368-1.04-.377-1.669v-.349c0-.65.118-1.221.354-1.714a2.673 2.673 0 0 1 1.016-1.143c.44-.269.946-.404 1.514-.404.56 0 1.058.134 1.497.4.438.266.778.645 1.02 1.138.245.49.369 1.052.372 1.687v.304zm-1.62-.277c0-.656-.11-1.153-.33-1.492a1.048 1.048 0 0 0-.939-.512c-.42 0-.736.167-.948.503-.211.335-.319.827-.322 1.474v.304c0 .65.108 1.148.322 1.496.215.345.534.517.957.517.405 0 .715-.17.93-.512.217-.342.328-.833.33-1.474v-.304z" fill="url(#paint18_linear_8592_129506)"/><path d="M103.527 11.112h2.771v1.225h-4.362V5.734h1.591v5.378z" fill="url(#paint19_linear_8592_129506)"/><path d="M54.066 91.475l-.74.812v1.974h-1.803v-7.483h1.803v3.3l.627-.952 1.614-2.348h2.23l-2.528 3.31 2.529 4.173H55.66l-1.593-2.786zM61.308 94.26a1.96 1.96 0 0 1-.164-.498c-.32.401-.765.602-1.337.602-.524 0-.97-.158-1.336-.473a1.52 1.52 0 0 1-.55-1.198c0-.603.223-1.058.668-1.367.446-.308 1.093-.462 1.943-.462h.534v-.293c0-.51-.22-.766-.663-.766-.41 0-.616.202-.616.606h-1.732c0-.538.227-.975.683-1.31.46-.336 1.044-.504 1.753-.504.709 0 1.27.173 1.68.52.412.345.622.82.633 1.423V93c.006.511.085.902.236 1.172v.088h-1.732zm-1.084-1.13a.953.953 0 0 0 .534-.139.865.865 0 0 0 .308-.313v-.89h-.503c-.603 0-.905.271-.905.813 0 .157.053.286.16.385a.582.582 0 0 0 .406.144zM64.15 94.26v-4.358h-.807V88.7h.807v-.442c0-.634.187-1.126.56-1.475.374-.35.898-.524 1.573-.524.247 0 .517.036.812.108l.005 1.274a1.584 1.584 0 0 0-.426-.046c-.525 0-.787.226-.787.678v.427h1.085v1.203h-1.085v4.358H64.15zM69.814 92.19l-.488.488v1.583h-1.732v-7.9h1.732v4.194l.174-.231 1.306-1.624h2.076l-1.948 2.287 2.076 3.274h-1.983l-1.213-2.072zM76.47 94.26a1.956 1.956 0 0 1-.165-.498c-.319.401-.764.602-1.336.602-.525 0-.97-.158-1.337-.473a1.52 1.52 0 0 1-.55-1.198c0-.603.223-1.058.669-1.367.445-.308 1.093-.462 1.942-.462h.535v-.293c0-.51-.221-.766-.663-.766-.411 0-.617.202-.617.606h-1.732c0-.538.228-.975.684-1.31.459-.336 1.043-.504 1.752-.504.71 0 1.27.173 1.68.52.412.345.623.82.633 1.423V93c.007.511.085.902.236 1.172v.088H76.47zm-1.085-1.13a.954.954 0 0 0 .534-.139.864.864 0 0 0 .309-.313v-.89h-.504c-.603 0-.904.271-.904.813 0 .157.053.286.159.385a.583.583 0 0 0 .406.144z" fill="#1C3754"/><path d="M13.58 64.258c-.024.52-.164.981-.421 1.382a2.547 2.547 0 0 1-1.085.925c-.462.22-.991.33-1.588.33-.983 0-1.757-.321-2.323-.962-.565-.64-.848-1.545-.848-2.714v-.37c0-.733.127-1.373.38-1.922a2.898 2.898 0 0 1 1.106-1.274c.48-.302 1.034-.453 1.665-.453.908 0 1.638.24 2.19.72.55.476.864 1.134.94 1.974h-1.799c-.014-.456-.129-.783-.344-.982-.216-.199-.545-.298-.987-.298-.449 0-.778.168-.987.504-.209.335-.319.871-.329 1.608v.53c0 .798.1 1.368.298 1.71.202.344.548.515 1.038.515.415 0 .732-.098.951-.293.22-.195.336-.505.35-.93h1.793z" fill="url(#paint20_linear_8592_129506)"/><path d="M16.181 66.791h-1.737v-7.894h1.737v7.894z" fill="url(#paint21_linear_8592_129506)"/><path d="M19.08 66.791h-1.737v-5.56h1.737v5.56zm-1.84-6.994c0-.247.089-.45.267-.607.178-.157.41-.236.694-.236s.515.079.694.236c.178.158.267.36.267.607 0 .246-.09.449-.267.606-.179.158-.41.236-.694.236-.285 0-.516-.078-.694-.236a.773.773 0 0 1-.267-.606z" fill="url(#paint22_linear_8592_129506)"/><path d="M22.503 65.558c.243 0 .431-.065.565-.195.133-.134.198-.319.195-.555h1.624c0 .61-.22 1.11-.658 1.5-.435.39-.997.586-1.685.586-.809 0-1.446-.253-1.912-.76-.466-.508-.7-1.21-.7-2.108v-.071c0-.562.104-1.057.31-1.486a2.26 2.26 0 0 1 .898-.992c.391-.233.854-.35 1.388-.35.723 0 1.297.201 1.722.602.425.401.637.944.637 1.63h-1.624c0-.288-.07-.51-.21-.664a.727.727 0 0 0-.566-.231c-.449 0-.71.286-.786.858a6.052 6.052 0 0 0-.036.75c0 .56.067.946.2 1.162.134.216.346.324.638.324z" fill="url(#paint23_linear_8592_129506)"/><path d="M27.853 64.72l-.489.489v1.582h-1.732v-7.899h1.732v4.194l.175-.231 1.305-1.624h2.077l-1.948 2.287 2.076 3.273h-1.983l-1.213-2.07z" fill="url(#paint24_linear_8592_129506)"/><path d="M37.71 66.791h-1.794v-3.124H33.26v3.124h-1.804v-7.483h1.804v2.971h2.657v-2.97h1.794v7.482z" fill="url(#paint25_linear_8592_129506)"/><path d="M38.558 63.96c0-.555.108-1.049.324-1.48.216-.436.526-.77.93-1.003.404-.233.879-.35 1.424-.35.832 0 1.488.26 1.968.777.48.514.72 1.214.72 2.102v.061c0 .867-.242 1.556-.725 2.067-.48.507-1.13.76-1.953.76-.791 0-1.427-.236-1.907-.709-.48-.476-.738-1.12-.776-1.932l-.005-.293zm1.732.107c0 .515.08.891.242 1.131.16.24.399.36.714.36.617 0 .932-.475.946-1.424v-.174c0-.997-.319-1.496-.956-1.496-.58 0-.893.43-.94 1.29l-.006.313z" fill="url(#paint26_linear_8592_129506)"/><path d="M48 66.19c-.367.47-.862.704-1.486.704-.61 0-1.073-.176-1.388-.53-.311-.356-.467-.866-.467-1.53V61.23h1.732v3.613c0 .476.23.714.693.714.398 0 .68-.142.848-.427v-3.9h1.743v5.56H48.05l-.052-.6z" fill="url(#paint27_linear_8592_129506)"/><path d="M53.54 65.23c0-.148-.078-.267-.232-.356-.154-.089-.447-.181-.879-.277a4.07 4.07 0 0 1-1.069-.375 1.811 1.811 0 0 1-.642-.57 1.356 1.356 0 0 1-.221-.767c0-.51.21-.93.632-1.259.422-.332.973-.498 1.655-.498.733 0 1.323.166 1.768.498.445.333.668.77.668 1.31h-1.737c0-.444-.235-.667-.704-.667a.69.69 0 0 0-.458.154.462.462 0 0 0-.185.375c0 .154.076.28.227.375.15.096.39.175.72.237.331.061.623.135.873.22.836.288 1.254.804 1.254 1.548 0 .507-.226.92-.679 1.238-.448.319-1.03.478-1.747.478-.476 0-.901-.085-1.275-.257a2.132 2.132 0 0 1-.873-.699 1.583 1.583 0 0 1-.314-.93h1.62c.006.257.092.446.256.565.165.117.375.175.632.175.237 0 .413-.048.53-.144a.458.458 0 0 0 .18-.375z" fill="url(#paint28_linear_8592_129506)"/><path d="M58.715 66.894c-.853 0-1.544-.253-2.071-.76-.528-.51-.792-1.174-.792-1.99v-.143c0-.569.105-1.071.314-1.506.212-.435.52-.771.925-1.007.404-.24.884-.36 1.439-.36.781 0 1.398.243 1.85.73.452.483.678 1.158.678 2.025v.673h-3.443c.062.312.197.557.406.735.21.178.48.267.812.267.548 0 .977-.192 1.285-.576l.791.936c-.215.298-.522.536-.92.714a3.107 3.107 0 0 1-1.274.262zm-.195-4.43c-.508 0-.809.336-.905 1.007h1.747v-.133c.007-.278-.063-.492-.21-.643-.148-.154-.358-.231-.632-.231z" fill="url(#paint29_linear_8592_129506)"/><defs><linearGradient id="paint0_linear_8592_129506" x1="79.302" y1="41.532" x2="112.945" y2="41.532" gradientUnits="userSpaceOnUse"><stop stop-color="#42FCED"/><stop offset="1" stop-color="#00AA72"/></linearGradient><linearGradient id="paint1_linear_8592_129506" x1="79.302" y1="41.532" x2="112.945" y2="41.532" gradientUnits="userSpaceOnUse"><stop stop-color="#42FCED"/><stop offset="1" stop-color="#00AA72"/></linearGradient><linearGradient id="paint2_linear_8592_129506" x1="79.302" y1="41.532" x2="112.945" y2="41.532" gradientUnits="userSpaceOnUse"><stop stop-color="#42FCED"/><stop offset="1" stop-color="#00AA72"/></linearGradient><linearGradient id="paint3_linear_8592_129506" x1="79.302" y1="41.532" x2="112.945" y2="41.532" gradientUnits="userSpaceOnUse"><stop stop-color="#42FCED"/><stop offset="1" stop-color="#00AA72"/></linearGradient><linearGradient id="paint4_linear_8592_129506" x1="79.302" y1="41.532" x2="112.945" y2="41.532" gradientUnits="userSpaceOnUse"><stop stop-color="#42FCED"/><stop offset="1" stop-color="#00AA72"/></linearGradient><linearGradient id="paint5_linear_8592_129506" x1="22.629" y1="29.915" x2="46.094" y2="29.915" gradientUnits="userSpaceOnUse"><stop stop-color="#42FCED"/><stop offset="1" stop-color="#00AA72"/></linearGradient><linearGradient id="paint6_linear_8592_129506" x1="22.629" y1="29.915" x2="46.094" y2="29.915" gradientUnits="userSpaceOnUse"><stop stop-color="#42FCED"/><stop offset="1" stop-color="#00AA72"/></linearGradient><linearGradient id="paint7_linear_8592_129506" x1="22.629" y1="29.915" x2="46.094" y2="29.915" gradientUnits="userSpaceOnUse"><stop stop-color="#42FCED"/><stop offset="1" stop-color="#00AA72"/></linearGradient><linearGradient id="paint8_linear_8592_129506" x1="22.629" y1="29.915" x2="46.094" y2="29.915" gradientUnits="userSpaceOnUse"><stop stop-color="#42FCED"/><stop offset="1" stop-color="#00AA72"/></linearGradient><linearGradient id="paint9_linear_8592_129506" x1="22.629" y1="29.915" x2="46.094" y2="29.915" gradientUnits="userSpaceOnUse"><stop stop-color="#42FCED"/><stop offset="1" stop-color="#00AA72"/></linearGradient><linearGradient id="paint10_linear_8592_129506" x1="56.498" y1="9.998" x2="106.301" y2="9.998" gradientUnits="userSpaceOnUse"><stop stop-color="#42FCED"/><stop offset="1" stop-color="#00AA72"/></linearGradient><linearGradient id="paint11_linear_8592_129506" x1="56.498" y1="9.998" x2="106.301" y2="9.998" gradientUnits="userSpaceOnUse"><stop stop-color="#42FCED"/><stop offset="1" stop-color="#00AA72"/></linearGradient><linearGradient id="paint12_linear_8592_129506" x1="56.498" y1="9.998" x2="106.301" y2="9.998" gradientUnits="userSpaceOnUse"><stop stop-color="#42FCED"/><stop offset="1" stop-color="#00AA72"/></linearGradient><linearGradient id="paint13_linear_8592_129506" x1="56.498" y1="9.998" x2="106.301" y2="9.998" gradientUnits="userSpaceOnUse"><stop stop-color="#42FCED"/><stop offset="1" stop-color="#00AA72"/></linearGradient><linearGradient id="paint14_linear_8592_129506" x1="56.498" y1="9.998" x2="106.301" y2="9.998" gradientUnits="userSpaceOnUse"><stop stop-color="#42FCED"/><stop offset="1" stop-color="#00AA72"/></linearGradient><linearGradient id="paint15_linear_8592_129506" x1="56.498" y1="9.998" x2="106.301" y2="9.998" gradientUnits="userSpaceOnUse"><stop stop-color="#42FCED"/><stop offset="1" stop-color="#00AA72"/></linearGradient><linearGradient id="paint16_linear_8592_129506" x1="56.498" y1="9.998" x2="106.301" y2="9.998" gradientUnits="userSpaceOnUse"><stop stop-color="#42FCED"/><stop offset="1" stop-color="#00AA72"/></linearGradient><linearGradient id="paint17_linear_8592_129506" x1="56.498" y1="9.998" x2="106.301" y2="9.998" gradientUnits="userSpaceOnUse"><stop stop-color="#42FCED"/><stop offset="1" stop-color="#00AA72"/></linearGradient><linearGradient id="paint18_linear_8592_129506" x1="56.498" y1="9.998" x2="106.301" y2="9.998" gradientUnits="userSpaceOnUse"><stop stop-color="#42FCED"/><stop offset="1" stop-color="#00AA72"/></linearGradient><linearGradient id="paint19_linear_8592_129506" x1="56.498" y1="9.998" x2="106.301" y2="9.998" gradientUnits="userSpaceOnUse"><stop stop-color="#42FCED"/><stop offset="1" stop-color="#00AA72"/></linearGradient><linearGradient id="paint20_linear_8592_129506" x1="7.07" y1="62.932" x2="61.062" y2="62.932" gradientUnits="userSpaceOnUse"><stop stop-color="#42FCED"/><stop offset="1" stop-color="#00AA72"/></linearGradient><linearGradient id="paint21_linear_8592_129506" x1="7.07" y1="62.932" x2="61.062" y2="62.932" gradientUnits="userSpaceOnUse"><stop stop-color="#42FCED"/><stop offset="1" stop-color="#00AA72"/></linearGradient><linearGradient id="paint22_linear_8592_129506" x1="7.07" y1="62.932" x2="61.062" y2="62.932" gradientUnits="userSpaceOnUse"><stop stop-color="#42FCED"/><stop offset="1" stop-color="#00AA72"/></linearGradient><linearGradient id="paint23_linear_8592_129506" x1="7.07" y1="62.932" x2="61.062" y2="62.932" gradientUnits="userSpaceOnUse"><stop stop-color="#42FCED"/><stop offset="1" stop-color="#00AA72"/></linearGradient><linearGradient id="paint24_linear_8592_129506" x1="7.07" y1="62.932" x2="61.062" y2="62.932" gradientUnits="userSpaceOnUse"><stop stop-color="#42FCED"/><stop offset="1" stop-color="#00AA72"/></linearGradient><linearGradient id="paint25_linear_8592_129506" x1="7.07" y1="62.932" x2="61.062" y2="62.932" gradientUnits="userSpaceOnUse"><stop stop-color="#42FCED"/><stop offset="1" stop-color="#00AA72"/></linearGradient><linearGradient id="paint26_linear_8592_129506" x1="7.07" y1="62.932" x2="61.062" y2="62.932" gradientUnits="userSpaceOnUse"><stop stop-color="#42FCED"/><stop offset="1" stop-color="#00AA72"/></linearGradient><linearGradient id="paint27_linear_8592_129506" x1="7.07" y1="62.932" x2="61.062" y2="62.932" gradientUnits="userSpaceOnUse"><stop stop-color="#42FCED"/><stop offset="1" stop-color="#00AA72"/></linearGradient><linearGradient id="paint28_linear_8592_129506" x1="7.07" y1="62.932" x2="61.062" y2="62.932" gradientUnits="userSpaceOnUse"><stop stop-color="#42FCED"/><stop offset="1" stop-color="#00AA72"/></linearGradient><linearGradient id="paint29_linear_8592_129506" x1="7.07" y1="62.932" x2="61.062" y2="62.932" gradientUnits="userSpaceOnUse"><stop stop-color="#42FCED"/><stop offset="1" stop-color="#00AA72"/></linearGradient></defs></svg>