<svg width="158" height="97" viewBox="0 0 158 97" fill="none" xmlns="http://www.w3.org/2000/svg">
<path d="M75.7576 39.7158C75.7616 39.7097 75.7674 39.7042 75.7714 39.6979C75.7559 39.6249 75.7432 39.5612 75.7376 39.5158C75.7446 39.5821 75.7518 39.6489 75.7576 39.7158ZM90.1603 55.2326C90.1608 55.2326 90.1609 55.232 90.1609 55.2317C90.1589 55.2307 90.1523 55.2307 90.151 55.2286C90.1531 55.2307 90.1582 55.2307 90.1603 55.2326ZM90.5292 55.2781C90.44 55.264 90.2397 55.2896 90.1604 55.2326C90.1115 55.3991 90.1853 55.4619 90.5292 55.2781ZM76.5001 9C55.7889 9 39 25.5651 39 45.9998C39 66.4342 55.7889 83 76.5001 83C97.2104 83 114 66.4343 114 45.9998C114 25.5651 97.2104 9 76.5001 9ZM100.453 23.4535C99.1607 23.4922 98.2612 23.4946 97.2232 24.2014C96.8049 24.4867 96.521 24.8645 95.9901 25.0114C95.5142 25.1436 95.0005 25.0277 94.5283 25.1857C92.8245 25.7562 93.0944 29.357 90.8494 28.8131C89.7949 28.5578 89.0516 27.3282 88.5208 26.5252C88.0533 25.8188 87.2019 25.2346 87.7769 24.3505C87.5146 24.4168 87.2349 24.3412 86.9766 24.3897C87.3363 23.6105 88.5425 23.6786 88.7431 23.2804C89.2429 22.2823 87.3671 22.178 86.836 22.0396C87.4763 21.3664 87.8003 22.2661 88.4323 22.1133C89.0395 21.9658 88.1118 21.1767 87.7476 21.0881C87.6168 21.0561 85.4784 21.6712 86.7161 20.5783C85.1882 19.6173 83.661 18.6567 82.1327 17.695C81.8756 18.7642 84.1663 19.3718 84.9146 19.7485C84.7984 20.19 84.1023 20.8329 83.5694 20.6447C83.0674 20.4671 83.2712 19.6464 82.5132 19.7288C81.972 20.9704 83.6575 20.6075 83.8141 21.3683C83.992 22.2352 83.1769 21.8678 82.8635 21.8528C82.7887 21.849 82.2045 21.2523 82.1729 21.704C82.1351 22.2404 83.1048 22.0312 83.1732 22.573C82.0437 22.6181 81.4669 22.2158 80.5473 21.613C79.4741 20.9103 78.9234 20.9736 77.6085 20.9736C78.0017 20.8142 78.5435 20.6961 78.8797 20.4394C79.0634 20.2992 79.7842 19.608 79.8317 19.4537C80.0354 18.7879 79.8206 18.8384 79.175 18.4019C78.601 18.0145 77.9049 17.319 77.2094 17.1819C74.6896 16.6857 76.4323 19.4266 74.5195 19.8046C74.5522 19.8063 74.5876 19.8078 74.6158 19.8078H74.5062C74.5111 19.8074 74.5151 19.8057 74.5195 19.8046C74.077 19.789 73.2477 19.6828 72.9626 19.9134C72.7613 20.0755 72.7444 20.7269 72.5194 20.9627C72.119 21.3839 71.5221 21.468 71.0443 21.7716C70.578 22.0684 69.5497 22.8295 69.2759 23.3459C68.2664 25.2486 71.5502 25.8393 72.7953 26.3955C73.3578 26.6468 75.0017 26.991 75.3078 27.4109C75.7184 27.9748 74.9539 28.5036 75.8113 28.9C76.0852 29.0263 76.6499 29.052 76.8858 28.7904C77.2691 28.3642 76.73 28.2681 76.6382 27.7758C76.4604 26.8281 76.7534 27.2047 77.2365 26.8526C78.221 26.1354 77.9993 26.0914 77.6451 24.9487C77.4806 24.4167 76.8601 22.9318 77.4059 22.5392C78.1176 22.0268 79.6355 22.8168 80.1812 22.8829C80.8163 22.9596 81.177 23.8279 81.5231 24.183C81.7529 24.4188 82.1641 24.9192 82.5657 24.8651C83.2032 24.7789 82.9365 24.2291 83.3062 23.9754C84.2981 23.2966 84.5594 24.2187 84.9547 25.1408C85.3266 26.007 85.6785 26.3285 86.3404 26.8841C86.6478 27.1428 87.995 28.0658 87.8679 28.6347C87.7817 29.018 86.2428 29.5993 85.8312 29.7279C84.327 30.198 81.5051 28.9583 81.202 31.312C81.7857 31.0976 83.4458 29.7595 83.9437 30.3937C84.1707 30.6814 83.7636 31.1005 83.8594 31.3863C84.1435 32.243 84.8132 31.9445 85.5154 31.8061C85.4676 31.8356 85.4185 31.8612 85.3666 31.8841C86.3261 31.3976 86.2264 31.499 86.6667 30.7099C86.8105 30.452 87.0243 29.8281 87.2269 29.6435C87.9243 29.0105 88.0317 29.4464 88.4638 29.9348C88.577 30.0636 89.6452 31.5812 89.265 31.5055C88.0224 31.2596 86.8293 31.2925 85.7988 31.963C85.2051 32.35 84.6435 32.872 83.9343 33.129C83.7644 33.1903 82.5057 33.3079 82.6545 33.0962C82.8717 32.7874 83.6192 32.5831 83.9142 32.2497C83.0967 31.9176 82.4149 32.651 81.7725 33.0798C81.0908 33.3981 80.9323 33.991 80.3519 34.511C80.0985 34.7377 79.6194 34.7762 79.3706 35.0746C79.1293 35.364 79.0993 35.8192 78.8706 36.094C78.7102 36.2864 78.299 36.1703 78.1315 36.4602C77.9133 36.8391 78.3312 37.1908 78.2396 37.4637C78.0718 37.9597 77.1158 38.3804 76.7481 38.7376C76.7972 38.691 76.846 38.643 76.894 38.5944C76.5256 38.9759 76.0594 39.2564 75.7716 39.6978C75.9037 40.3209 76.3201 41.8071 76.204 42.1491C75.8208 43.2741 75.0765 41.5372 74.7746 41.0886C73.7374 39.5466 71.6644 40.5785 70.2482 40.7064C68.4372 40.8698 66.6632 43.189 67.7805 45.0714C68.3167 45.9742 69.2188 46.3237 70.2535 46.1148C71.1746 45.9287 71.4511 44.6575 72.3183 44.6343C73.912 44.5924 72.3534 46.1752 72.2155 46.756C72.088 47.2941 72.4142 47.3438 72.9755 47.4772C73.3901 47.575 73.9771 47.3022 74.3365 47.5357C74.5629 47.6832 74.5519 48.4905 74.8634 48.2359C74.2504 48.7372 74.3936 49.9259 75.0221 50.3555C75.7189 50.8325 76.5393 50.3908 77.2688 50.5739C78.6462 50.9207 77.9887 50.4703 79.1982 49.7499C80.0146 49.2644 80.1485 49.8413 80.7064 49.8436C81.0861 49.8451 81.3273 49.3049 81.9623 49.4621C82.4798 49.5908 82.6843 49.985 83.3022 50.0757C83.5556 50.1125 83.8171 49.9816 84.0588 50.0079C85.2016 50.1332 86.0766 50.8537 86.9772 51.5052C87.7194 52.0413 88.211 51.9327 89.078 52.1772C89.7113 52.3554 90.88 53.2597 90.8201 54.0537C90.8094 54.1958 90.2557 54.9099 90.1612 55.2315C90.3232 55.3422 91.4504 55.0937 91.7803 55.0703C91.6719 55.1948 90.9043 55.7269 90.9043 55.4443C90.9043 55.5892 91.4475 55.8866 91.5798 55.9789C91.9801 54.6964 92.6377 55.5217 93.4292 55.8394C94.1021 56.1098 94.9303 56.1243 95.6481 56.293C96.2573 56.4361 97.6009 56.842 98.0523 57.3332C98.5958 57.9245 98.2201 58.8851 97.818 59.4735C97.2919 60.2445 96.4988 60.5412 96.1707 61.4485C95.9114 62.1675 96.1061 62.8941 95.9579 63.6912C95.7576 64.7704 95.597 64.3921 94.8927 65.0505C94.3 65.6051 94.8828 65.5088 94.0759 65.8622C93.2654 66.2176 92.5517 66.1119 91.9906 66.9893C92.013 66.9341 92.0313 66.8788 92.0469 66.8211C91.8101 67.148 91.6918 67.8175 91.5795 68.0372C91.2967 68.5977 90.9064 68.9513 90.4589 69.4181C90.2875 69.5968 88.711 71.7219 88.6199 71.5511C88.5028 71.3291 87.2598 71.7741 87.2006 71.4574C87.25 71.7236 87.1888 71.6343 87.4975 71.7877C87.2117 73.5341 86.463 73.7947 84.7249 73.8123C84.8744 74.6517 84.095 74.4842 83.7328 74.9355C83.521 75.199 83.42 75.94 83.2732 76.2813C83.1815 76.4956 82.503 77.3544 82.503 77.5246C82.5022 77.6814 82.7313 77.911 82.9456 78.1313C81.7202 78.3704 80.4708 78.5372 79.2018 78.6388C79.4394 78.3435 79.4965 78.084 78.7399 78.0485C78.9423 77.5056 79.4178 77.196 79.6193 76.6702C79.7148 76.4221 79.6357 76.3241 79.7166 76.0782C79.9934 75.2297 79.8734 75.5498 79.7172 74.8907C79.3516 73.3459 79.8473 72.9235 80.2741 71.5091C80.7122 70.0557 80.6714 68.1716 80.9522 66.6059C81.0854 65.8568 81.3035 64.2978 81.0398 63.5896C80.7426 62.792 79.4356 62.1639 78.837 61.6275C77.9895 60.8657 77.539 60.0425 76.9097 59.1008C76.5903 58.6226 76.2262 58.1533 75.977 57.6333C75.444 56.5215 75.9773 57.1832 76.067 56.527C76.153 55.8929 75.9905 55.3261 76.2456 54.6606C76.5279 53.9249 77.2325 53.4664 77.4639 52.7244C77.6722 52.064 77.5138 51.2338 76.8261 51.0135C76.4429 50.89 76.02 51.1744 75.6349 51.112C75.098 51.0261 74.4902 50.6306 74.0688 50.3144C73.4806 49.8722 73.2601 49.1537 72.6338 48.7344C72.1093 48.385 71.7363 48.5941 71.1753 48.4306C70.5903 48.2606 70.2291 47.5484 69.7572 47.3254C69.049 46.9911 68.6499 47.471 67.9023 47.374C67.2665 47.2919 66.2968 46.5967 65.7028 46.334C64.4948 45.8005 63.7592 45.2117 63.2761 44.0021C62.8625 42.9648 62.2595 42.4809 61.5494 41.617C60.8298 40.7416 60.6045 39.9957 59.4955 39.7624C59.3653 39.7345 59.7669 40.6813 59.8084 40.7572C60.2046 41.4812 60.7997 42.1425 61.2784 42.8166C61.9826 43.8096 61.6824 43.9959 60.9661 43.0358C60.1468 41.9373 59.1962 40.8452 58.4856 39.682C58.217 39.2423 58.2685 38.9581 57.8255 38.5407C57.3973 38.1374 56.8371 37.9409 56.4059 37.5573C54.8547 36.181 54.5727 34.3435 54.7496 32.3814C54.807 31.7418 55.0412 31.2302 54.9379 30.6155C54.8527 30.105 54.5473 29.6829 54.1657 29.3068C54.0427 29.1136 53.734 28.6377 53.7162 28.6074C53.364 28.0302 53.09 27.4626 52.5306 26.9892C52.2097 26.7164 51.3792 26.0788 50.5973 25.5446C54.1103 21.2216 58.7072 17.7956 63.9806 15.6685C64.0225 15.9301 64.1364 16.1912 64.307 16.4412C64.7406 17.0756 65.1538 17.0254 66.0001 17.201C65.9095 18.1703 64.7612 18.1779 63.984 18.0729C63.0563 17.9471 62.0802 17.6431 61.2765 18.4453C61.7205 18.7087 62.9387 19.7342 62.7769 18.6627C63.6656 18.6187 64.5247 18.5926 65.3942 18.6975C65.7425 18.7396 66.9098 19.1261 67.2262 18.9498C67.3589 18.8758 67.5003 18.2296 67.6409 18.0308C67.393 18.0322 67.1273 17.9088 66.8805 17.9322C67.4562 17.2048 68.0299 17.7754 68.7626 18.1099C67.9559 18.5936 68.4343 19.7528 69.2231 18.8109C69.8709 18.0364 69.0645 17.4749 68.2419 17.0236C69.0714 15.9999 69.5829 15.9076 70.3634 17.0629C70.492 16.3504 71.0749 16.6357 71.6841 16.6883V16.51C71.4159 16.5164 71.1296 16.3642 70.8642 16.3917C71.4848 15.4148 71.0887 15.1915 71.976 14.8727C72.6824 14.6188 74.698 14.8552 74.9464 14.1997C73.5358 14.4704 71.8315 14.535 70.5589 15.1679C70.0102 15.4408 69.3565 16.3022 68.8085 15.7423C68.2468 15.1679 69.2102 14.2443 69.7032 13.9628H69.5852C71.8171 13.4944 74.1287 13.243 76.5002 13.243C78.0326 13.243 79.5385 13.3548 81.0167 13.554C80.5052 13.8191 80.8834 13.9981 80.5109 14.2689C79.7994 14.7853 78.5364 15.2162 77.6896 15.5425C78.7659 15.5396 81.3713 16.5382 81.8727 15.0486C81.5252 14.996 81.1787 14.9431 80.8315 14.8905C81.48 14.4662 82.2035 14.1228 82.963 13.871C89.8171 15.2107 95.9135 18.6409 100.551 23.4541C100.518 23.4535 100.485 23.4526 100.453 23.4535ZM106.522 36.444C106.584 36.314 106.728 36.2711 106.787 36.1639C106.913 35.9383 106.885 35.7853 107.039 35.5918C107.204 35.3825 107.427 35.3312 107.611 35.1678C107.686 35.1019 107.727 35.041 107.761 34.9789C108.314 36.502 108.755 38.0768 109.076 39.6936C109.066 39.7052 109.061 39.7228 109.048 39.7325C108.968 39.7953 108.442 39.8724 108.334 39.8761C107.954 39.8905 107.671 39.6414 107.398 39.4068C107.12 39.1686 106.793 38.8499 106.595 38.5414C106.384 38.2118 106.514 37.8734 106.529 37.497C106.542 37.1805 106.386 36.7292 106.522 36.444ZM106.951 53.4087C106.307 52.8565 105.547 52.1164 105.089 51.4012C104.6 50.6386 104.901 49.8539 104.937 48.9806C104.967 48.2461 104.603 47.2009 104.92 46.5396C105.065 46.2378 105.398 46.1378 105.535 45.8905C105.826 45.3666 105.761 45.0126 106.119 44.5622C106.502 44.0785 107.018 43.9594 107.445 43.5802C107.892 43.1826 107.88 42.8687 108.163 42.3594C108.37 41.9866 108.858 41.3654 109.319 41.0404C109.569 42.658 109.7 44.3146 109.7 45.9997C109.7 48.9155 109.306 51.7414 108.578 54.434C107.957 54.276 107.447 53.8345 106.951 53.4087Z" fill="#EAF4FB"/>
<circle cx="76" cy="45" r="43.5" stroke="#EAF4FB" stroke-dasharray="2 2"/>
<circle cx="33" cy="33" r="3" fill="#DAEBFB"/>
<circle cx="117" cy="65" r="6" fill="#DFECFF"/>
<circle cx="40" cy="79" r="3" fill="#DFECFF"/>
<g filter="url(#filter0_d_226_3258)">
<rect x="94" y="14" width="56" height="19" rx="2" fill="white"/>
</g>
<g filter="url(#filter1_d_226_3258)">
<rect x="8" y="54" width="56" height="19" rx="2" fill="white"/>
</g>
<g filter="url(#filter2_d_226_3258)">
<rect x="102" y="39" width="40" height="19" rx="2" fill="white"/>
</g>
<g filter="url(#filter3_d_226_3258)">
<rect x="91" y="74" width="27" height="15" rx="2" fill="white"/>
</g>
<path d="M103.902 25.0703V27H102.641V21.3984H104.617C106.029 21.3984 106.734 21.9935 106.734 23.1836C106.734 23.7461 106.531 24.2018 106.125 24.5508C105.721 24.8971 105.181 25.0703 104.504 25.0703H103.902ZM103.902 22.3672V24.1133H104.398C105.07 24.1133 105.406 23.819 105.406 23.2305C105.406 22.6549 105.07 22.3672 104.398 22.3672H103.902ZM109.1 27.0977C108.433 27.0977 107.908 26.9115 107.526 26.5391C107.145 26.1641 106.955 25.6562 106.955 25.0156C106.955 24.3542 107.153 23.8372 107.549 23.4648C107.945 23.0898 108.48 22.9023 109.155 22.9023C109.819 22.9023 110.339 23.0898 110.717 23.4648C111.095 23.8372 111.283 24.3307 111.283 24.9453C111.283 25.6094 111.088 26.1341 110.698 26.5195C110.309 26.9049 109.777 27.0977 109.1 27.0977ZM109.131 23.8477C108.839 23.8477 108.613 23.9479 108.451 24.1484C108.29 24.349 108.209 24.6328 108.209 25C108.209 25.7682 108.519 26.1523 109.139 26.1523C109.73 26.1523 110.026 25.7578 110.026 24.9688C110.026 24.2214 109.727 23.8477 109.131 23.8477ZM111.583 26.8945V25.8945C111.786 26.0169 111.987 26.1081 112.188 26.168C112.391 26.2279 112.583 26.2578 112.762 26.2578C112.981 26.2578 113.153 26.2279 113.278 26.168C113.405 26.1081 113.469 26.0169 113.469 25.8945C113.469 25.8164 113.441 25.7513 113.383 25.6992C113.326 25.6471 113.252 25.6016 113.161 25.5625C113.072 25.5234 112.974 25.4883 112.868 25.457C112.761 25.4258 112.658 25.3906 112.559 25.3516C112.4 25.2917 112.26 25.2279 112.137 25.1602C112.017 25.0898 111.916 25.0091 111.833 24.918C111.752 24.8268 111.689 24.7214 111.645 24.6016C111.603 24.4818 111.583 24.3398 111.583 24.1758C111.583 23.9518 111.631 23.7591 111.727 23.5977C111.826 23.4362 111.956 23.3047 112.118 23.2031C112.282 23.099 112.468 23.0234 112.676 22.9766C112.887 22.9271 113.106 22.9023 113.333 22.9023C113.51 22.9023 113.689 22.9167 113.872 22.9453C114.054 22.9714 114.234 23.0104 114.411 23.0625V24.0156C114.254 23.9245 114.086 23.8568 113.907 23.8125C113.73 23.7656 113.555 23.7422 113.383 23.7422C113.303 23.7422 113.226 23.75 113.153 23.7656C113.083 23.7786 113.02 23.7995 112.965 23.8281C112.911 23.8542 112.868 23.8893 112.836 23.9336C112.805 23.9753 112.79 24.0234 112.79 24.0781C112.79 24.151 112.813 24.2135 112.86 24.2656C112.907 24.3177 112.968 24.3633 113.043 24.4023C113.119 24.4388 113.202 24.4727 113.293 24.5039C113.387 24.5326 113.48 24.5625 113.571 24.5938C113.735 24.651 113.883 24.7135 114.016 24.7812C114.149 24.849 114.262 24.9284 114.356 25.0195C114.452 25.1107 114.525 25.2174 114.575 25.3398C114.627 25.4622 114.653 25.6081 114.653 25.7773C114.653 26.0143 114.601 26.2174 114.497 26.3867C114.395 26.5534 114.258 26.6901 114.086 26.7969C113.917 26.901 113.721 26.9766 113.497 27.0234C113.275 27.0729 113.045 27.0977 112.805 27.0977C112.365 27.0977 111.958 27.0299 111.583 26.8945ZM117.546 26.9531C117.363 27.0495 117.089 27.0977 116.721 27.0977C115.852 27.0977 115.417 26.6458 115.417 25.7422V23.9102H114.768V23H115.417V22.1367L116.647 21.7852V23H117.546V23.9102H116.647V25.5273C116.647 25.944 116.813 26.1523 117.143 26.1523C117.273 26.1523 117.408 26.1146 117.546 26.0391V26.9531ZM121.895 26.543C121.895 27.2852 121.681 27.8594 121.251 28.2656C120.821 28.6745 120.199 28.8789 119.384 28.8789C118.845 28.8789 118.418 28.8021 118.102 28.6484V27.6094C118.514 27.849 118.929 27.9688 119.349 27.9688C119.765 27.9688 120.088 27.8581 120.317 27.6367C120.547 27.418 120.661 27.1198 120.661 26.7422V26.4258H120.645C120.364 26.8737 119.949 27.0977 119.399 27.0977C118.889 27.0977 118.484 26.918 118.185 26.5586C117.885 26.1992 117.735 25.7174 117.735 25.1133C117.735 24.4362 117.902 23.8984 118.235 23.5C118.569 23.1016 119.007 22.9023 119.552 22.9023C120.039 22.9023 120.403 23.0898 120.645 23.4648H120.661V23H121.895V26.543ZM120.677 25.0781V24.7617C120.677 24.5091 120.601 24.2943 120.45 24.1172C120.302 23.9375 120.108 23.8477 119.868 23.8477C119.595 23.8477 119.38 23.9544 119.224 24.168C119.067 24.3815 118.989 24.6823 118.989 25.0703C118.989 25.4036 119.063 25.668 119.212 25.8633C119.36 26.056 119.563 26.1523 119.821 26.1523C120.076 26.1523 120.282 26.0547 120.438 25.8594C120.597 25.6615 120.677 25.401 120.677 25.0781ZM125.296 24.1133C125.148 24.0326 124.974 23.9922 124.777 23.9922C124.508 23.9922 124.299 24.0911 124.148 24.2891C123.997 24.4844 123.921 24.7513 123.921 25.0898V27H122.687V23H123.921V23.7422H123.937C124.132 23.2005 124.484 22.9297 124.991 22.9297C125.122 22.9297 125.223 22.9453 125.296 22.9766V24.1133ZM129.228 25.3516H126.619C126.66 25.9323 127.026 26.2227 127.716 26.2227C128.156 26.2227 128.543 26.1185 128.876 25.9102V26.8008C128.507 26.9987 128.026 27.0977 127.435 27.0977C126.789 27.0977 126.288 26.9193 125.931 26.5625C125.574 26.2031 125.396 25.7031 125.396 25.0625C125.396 24.3984 125.589 23.8724 125.974 23.4844C126.359 23.0964 126.833 22.9023 127.396 22.9023C127.979 22.9023 128.43 23.0755 128.747 23.4219C129.068 23.7682 129.228 24.2383 129.228 24.832V25.3516ZM128.083 24.5938C128.083 24.0208 127.852 23.7344 127.388 23.7344C127.19 23.7344 127.018 23.8164 126.872 23.9805C126.729 24.1445 126.642 24.349 126.611 24.5938H128.083ZM129.586 26.7852V25.5352C129.812 25.7253 130.058 25.8685 130.324 25.9648C130.59 26.0586 130.858 26.1055 131.129 26.1055C131.287 26.1055 131.425 26.0911 131.543 26.0625C131.662 26.0339 131.761 25.9948 131.84 25.9453C131.92 25.8932 131.98 25.8333 132.019 25.7656C132.058 25.6953 132.078 25.6198 132.078 25.5391C132.078 25.4297 132.047 25.332 131.984 25.2461C131.922 25.1602 131.836 25.0807 131.726 25.0078C131.619 24.9349 131.492 24.8646 131.343 24.7969C131.195 24.7292 131.035 24.6602 130.863 24.5898C130.425 24.4076 130.099 24.1849 129.882 23.9219C129.669 23.6589 129.562 23.3411 129.562 22.9688C129.562 22.6771 129.621 22.4271 129.738 22.2188C129.855 22.0078 130.014 21.8346 130.215 21.6992C130.418 21.5638 130.652 21.4648 130.918 21.4023C131.183 21.3372 131.465 21.3047 131.761 21.3047C132.053 21.3047 132.311 21.3229 132.535 21.3594C132.761 21.3932 132.97 21.4466 133.16 21.5195V22.6875C133.066 22.6224 132.963 22.5651 132.851 22.5156C132.742 22.4661 132.629 22.4258 132.511 22.3945C132.394 22.3607 132.277 22.3359 132.16 22.3203C132.045 22.3047 131.936 22.2969 131.832 22.2969C131.688 22.2969 131.558 22.3112 131.441 22.3398C131.324 22.3659 131.225 22.4036 131.144 22.4531C131.063 22.5026 131.001 22.5625 130.957 22.6328C130.912 22.7005 130.89 22.7773 130.89 22.8633C130.89 22.957 130.915 23.0417 130.965 23.1172C131.014 23.1901 131.084 23.2604 131.175 23.3281C131.267 23.3932 131.377 23.4583 131.507 23.5234C131.638 23.5859 131.785 23.651 131.949 23.7188C132.173 23.8125 132.373 23.9128 132.55 24.0195C132.73 24.1237 132.884 24.2422 133.011 24.375C133.139 24.5078 133.237 24.6602 133.304 24.832C133.372 25.0013 133.406 25.1992 133.406 25.4258C133.406 25.7383 133.346 26.0013 133.226 26.2148C133.109 26.4258 132.949 26.5977 132.746 26.7305C132.543 26.8607 132.306 26.9544 132.035 27.0117C131.767 27.069 131.483 27.0977 131.183 27.0977C130.876 27.0977 130.583 27.0716 130.304 27.0195C130.028 26.9674 129.789 26.8893 129.586 26.7852ZM136.455 27.0977C135.653 27.0977 134.999 26.8372 134.494 26.3164C133.989 25.7904 133.736 25.1094 133.736 24.2734C133.736 23.3906 133.993 22.6745 134.506 22.125C135.016 21.5781 135.696 21.3047 136.545 21.3047C137.344 21.3047 137.99 21.5664 138.482 22.0898C138.977 22.6107 139.225 23.3008 139.225 24.1602C139.225 25.0378 138.968 25.7474 138.455 26.2891C138.437 26.3073 138.42 26.3255 138.404 26.3438C138.389 26.3594 138.372 26.375 138.353 26.3906L139.771 27.7539H138.006L137.264 27C137.019 27.0651 136.749 27.0977 136.455 27.0977ZM136.51 22.3906C136.07 22.3906 135.718 22.5573 135.455 22.8906C135.195 23.2214 135.064 23.6602 135.064 24.207C135.064 24.7617 135.195 25.2005 135.455 25.5234C135.715 25.8464 136.057 26.0078 136.478 26.0078C136.913 26.0078 137.258 25.8516 137.514 25.5391C137.769 25.2214 137.896 24.7852 137.896 24.2305C137.896 23.6523 137.773 23.2005 137.525 22.875C137.281 22.5521 136.942 22.3906 136.51 22.3906ZM143.254 27H139.918V21.3984H141.18V25.9766H143.254V27Z" fill="#057CE4"/>
<path d="M21.6562 66.8008C21.2474 66.9987 20.7135 67.0977 20.0547 67.0977C19.1953 67.0977 18.5195 66.8451 18.0273 66.3398C17.5352 65.8346 17.2891 65.1615 17.2891 64.3203C17.2891 63.4245 17.5651 62.6979 18.1172 62.1406C18.6719 61.5833 19.3906 61.3047 20.2734 61.3047C20.8203 61.3047 21.2812 61.3737 21.6562 61.5117V62.7266C21.2812 62.5026 20.8542 62.3906 20.375 62.3906C19.849 62.3906 19.4245 62.556 19.1016 62.8867C18.7786 63.2174 18.6172 63.6654 18.6172 64.2305C18.6172 64.7721 18.7695 65.2044 19.0742 65.5273C19.3789 65.8477 19.7891 66.0078 20.3047 66.0078C20.7969 66.0078 21.2474 65.888 21.6562 65.6484V66.8008ZM23.5061 67H22.2717V61.0781H23.5061V67ZM24.9302 62.3672C24.7218 62.3672 24.5512 62.306 24.4184 62.1836C24.2856 62.0586 24.2192 61.9062 24.2192 61.7266C24.2192 61.5417 24.2856 61.3906 24.4184 61.2734C24.5512 61.1562 24.7218 61.0977 24.9302 61.0977C25.1411 61.0977 25.3117 61.1562 25.4419 61.2734C25.5747 61.3906 25.6411 61.5417 25.6411 61.7266C25.6411 61.9141 25.5747 62.0677 25.4419 62.1875C25.3117 62.3073 25.1411 62.3672 24.9302 62.3672ZM25.5395 67H24.3052V63H25.5395V67ZM29.3698 66.8555C29.0912 67.0169 28.6889 67.0977 28.1628 67.0977C27.5482 67.0977 27.0508 66.9115 26.6706 66.5391C26.2904 66.1667 26.1003 65.6862 26.1003 65.0977C26.1003 64.418 26.3034 63.8828 26.7097 63.4922C27.1185 63.099 27.6641 62.9023 28.3464 62.9023C28.8178 62.9023 29.1589 62.9648 29.3698 63.0898V64.1367C29.112 63.944 28.8243 63.8477 28.5066 63.8477C28.1524 63.8477 27.8711 63.9518 27.6628 64.1602C27.4571 64.3659 27.3542 64.651 27.3542 65.0156C27.3542 65.3698 27.4532 65.6484 27.6511 65.8516C27.849 66.0521 28.1211 66.1523 28.4675 66.1523C28.7748 66.1523 29.0756 66.056 29.3698 65.8633V66.8555ZM33.9502 67H32.4697L31.1923 65.0156H31.1767V67H29.9423V61.0781H31.1767V64.8477H31.1923L32.3837 63H33.8486L32.415 64.8789L33.9502 67ZM38.0187 67H36.7883V64.7266C36.7883 64.1406 36.5747 63.8477 36.1477 63.8477C35.9289 63.8477 35.7518 63.9297 35.6164 64.0938C35.481 64.2578 35.4133 64.4661 35.4133 64.7188V67H34.1789V61.0781H35.4133V63.5938H35.4289C35.731 63.1328 36.1411 62.9023 36.6594 62.9023C37.5656 62.9023 38.0187 63.4492 38.0187 64.543V67ZM40.6655 67.0977C39.9988 67.0977 39.4741 66.9115 39.0912 66.5391C38.711 66.1641 38.5209 65.6562 38.5209 65.0156C38.5209 64.3542 38.7189 63.8372 39.1147 63.4648C39.5105 63.0898 40.0457 62.9023 40.7202 62.9023C41.3842 62.9023 41.9051 63.0898 42.2827 63.4648C42.6603 63.8372 42.8491 64.3307 42.8491 64.9453C42.8491 65.6094 42.6537 66.1341 42.2631 66.5195C41.8751 66.9049 41.3426 67.0977 40.6655 67.0977ZM40.6967 63.8477C40.4051 63.8477 40.1785 63.9479 40.017 64.1484C39.8556 64.349 39.7748 64.6328 39.7748 65C39.7748 65.7682 40.0847 66.1523 40.7045 66.1523C41.2957 66.1523 41.5912 65.7578 41.5912 64.9688C41.5912 64.2214 41.2931 63.8477 40.6967 63.8477ZM47.2106 67H45.9802V66.3906H45.9606C45.6559 66.862 45.2484 67.0977 44.738 67.0977C43.8109 67.0977 43.3473 66.5365 43.3473 65.4141V63H44.5778V65.3047C44.5778 65.8698 44.8018 66.1523 45.2497 66.1523C45.471 66.1523 45.6481 66.0755 45.7809 65.9219C45.9137 65.7656 45.9802 65.5547 45.9802 65.2891V63H47.2106V67ZM47.7519 66.8945V65.8945C47.955 66.0169 48.1568 66.1081 48.3573 66.168C48.5605 66.2279 48.7519 66.2578 48.9316 66.2578C49.1503 66.2578 49.3222 66.2279 49.4472 66.168C49.5748 66.1081 49.6386 66.0169 49.6386 65.8945C49.6386 65.8164 49.6099 65.7513 49.5527 65.6992C49.4954 65.6471 49.4211 65.6016 49.33 65.5625C49.2415 65.5234 49.1438 65.4883 49.037 65.457C48.9303 65.4258 48.8274 65.3906 48.7284 65.3516C48.5696 65.2917 48.429 65.2279 48.3066 65.1602C48.1868 65.0898 48.0852 65.0091 48.0019 64.918C47.9211 64.8268 47.8586 64.7214 47.8144 64.6016C47.7727 64.4818 47.7519 64.3398 47.7519 64.1758C47.7519 63.9518 47.8001 63.7591 47.8964 63.5977C47.9954 63.4362 48.1256 63.3047 48.287 63.2031C48.4511 63.099 48.6373 63.0234 48.8456 62.9766C49.0566 62.9271 49.2753 62.9023 49.5019 62.9023C49.679 62.9023 49.8586 62.9167 50.0409 62.9453C50.2232 62.9714 50.4029 63.0104 50.58 63.0625V64.0156C50.4237 63.9245 50.2558 63.8568 50.0761 63.8125C49.899 63.7656 49.7245 63.7422 49.5527 63.7422C49.4719 63.7422 49.3951 63.75 49.3222 63.7656C49.2519 63.7786 49.1894 63.7995 49.1347 63.8281C49.08 63.8542 49.037 63.8893 49.0058 63.9336C48.9745 63.9753 48.9589 64.0234 48.9589 64.0781C48.9589 64.151 48.9823 64.2135 49.0292 64.2656C49.0761 64.3177 49.1373 64.3633 49.2128 64.4023C49.2883 64.4388 49.3717 64.4727 49.4628 64.5039C49.5566 64.5326 49.649 64.5625 49.7402 64.5938C49.9042 64.651 50.0527 64.7135 50.1855 64.7812C50.3183 64.849 50.4316 64.9284 50.5253 65.0195C50.6217 65.1107 50.6946 65.2174 50.7441 65.3398C50.7961 65.4622 50.8222 65.6081 50.8222 65.7773C50.8222 66.0143 50.7701 66.2174 50.6659 66.3867C50.5644 66.5534 50.4277 66.6901 50.2558 66.7969C50.0865 66.901 49.8899 66.9766 49.6659 67.0234C49.4446 67.0729 49.2141 67.0977 48.9745 67.0977C48.5344 67.0977 48.1269 67.0299 47.7519 66.8945ZM54.8908 65.3516H52.2814C52.3231 65.9323 52.689 66.2227 53.3791 66.2227C53.8192 66.2227 54.2059 66.1185 54.5392 65.9102V66.8008C54.1694 66.9987 53.689 67.0977 53.0978 67.0977C52.452 67.0977 51.9507 66.9193 51.5939 66.5625C51.2371 66.2031 51.0588 65.7031 51.0588 65.0625C51.0588 64.3984 51.2515 63.8724 51.6369 63.4844C52.0223 63.0964 52.4963 62.9023 53.0588 62.9023C53.6421 62.9023 54.0926 63.0755 54.4103 63.4219C54.7306 63.7682 54.8908 64.2383 54.8908 64.832V65.3516ZM53.7463 64.5938C53.7463 64.0208 53.5145 63.7344 53.0509 63.7344C52.853 63.7344 52.6811 63.8164 52.5353 63.9805C52.3921 64.1445 52.3048 64.349 52.2736 64.5938H53.7463Z" fill="#057CE4"/>
<path d="M116.023 52H114.777V48.6484C114.777 48.2865 114.793 47.8867 114.824 47.4492H114.793C114.728 47.793 114.669 48.0404 114.617 48.1914L113.305 52H112.273L110.938 48.2305C110.901 48.1289 110.842 47.8685 110.762 47.4492H110.727C110.76 48.0013 110.777 48.4857 110.777 48.9023V52H109.641V46.3984H111.488L112.633 49.7188C112.724 49.9844 112.79 50.2513 112.832 50.5195H112.855C112.926 50.2096 113 49.9401 113.078 49.7109L114.223 46.3984H116.023V52ZM120.744 48L119.119 52.3203C118.729 53.3594 118.14 53.8789 117.354 53.8789C117.054 53.8789 116.808 53.8451 116.615 53.7773V52.793C116.78 52.8893 116.958 52.9375 117.151 52.9375C117.468 52.9375 117.69 52.7878 117.815 52.4883L118.026 51.9922L116.401 48H117.768L118.514 50.4336C118.561 50.5846 118.597 50.763 118.623 50.9688H118.639C118.662 50.8177 118.705 50.6419 118.768 50.4414L119.522 48H120.744ZM120.864 51.7852V50.5352C121.09 50.7253 121.336 50.8685 121.602 50.9648C121.868 51.0586 122.136 51.1055 122.407 51.1055C122.566 51.1055 122.704 51.0911 122.821 51.0625C122.941 51.0339 123.04 50.9948 123.118 50.9453C123.198 50.8932 123.258 50.8333 123.297 50.7656C123.336 50.6953 123.356 50.6198 123.356 50.5391C123.356 50.4297 123.325 50.332 123.262 50.2461C123.2 50.1602 123.114 50.0807 123.004 50.0078C122.898 49.9349 122.77 49.8646 122.622 49.7969C122.473 49.7292 122.313 49.6602 122.141 49.5898C121.704 49.4076 121.377 49.1849 121.161 48.9219C120.947 48.6589 120.84 48.3411 120.84 47.9688C120.84 47.6771 120.899 47.4271 121.016 47.2188C121.133 47.0078 121.292 46.8346 121.493 46.6992C121.696 46.5638 121.93 46.4648 122.196 46.4023C122.461 46.3372 122.743 46.3047 123.04 46.3047C123.331 46.3047 123.589 46.3229 123.813 46.3594C124.04 46.3932 124.248 46.4466 124.438 46.5195V47.6875C124.344 47.6224 124.241 47.5651 124.129 47.5156C124.02 47.4661 123.907 47.4258 123.79 47.3945C123.672 47.3607 123.555 47.3359 123.438 47.3203C123.323 47.3047 123.214 47.2969 123.11 47.2969C122.967 47.2969 122.836 47.3112 122.719 47.3398C122.602 47.3659 122.503 47.4036 122.422 47.4531C122.342 47.5026 122.279 47.5625 122.235 47.6328C122.191 47.7005 122.168 47.7773 122.168 47.8633C122.168 47.957 122.193 48.0417 122.243 48.1172C122.292 48.1901 122.362 48.2604 122.454 48.3281C122.545 48.3932 122.655 48.4583 122.786 48.5234C122.916 48.5859 123.063 48.651 123.227 48.7188C123.451 48.8125 123.652 48.9128 123.829 49.0195C124.008 49.1237 124.162 49.2422 124.29 49.375C124.417 49.5078 124.515 49.6602 124.583 49.832C124.65 50.0013 124.684 50.1992 124.684 50.4258C124.684 50.7383 124.624 51.0013 124.504 51.2148C124.387 51.4258 124.227 51.5977 124.024 51.7305C123.821 51.8607 123.584 51.9544 123.313 52.0117C123.045 52.069 122.761 52.0977 122.461 52.0977C122.154 52.0977 121.861 52.0716 121.583 52.0195C121.306 51.9674 121.067 51.8893 120.864 51.7852ZM127.733 52.0977C126.931 52.0977 126.277 51.8372 125.772 51.3164C125.267 50.7904 125.014 50.1094 125.014 49.2734C125.014 48.3906 125.271 47.6745 125.784 47.125C126.294 46.5781 126.974 46.3047 127.823 46.3047C128.622 46.3047 129.268 46.5664 129.76 47.0898C130.255 47.6107 130.503 48.3008 130.503 49.1602C130.503 50.0378 130.246 50.7474 129.733 51.2891C129.715 51.3073 129.698 51.3255 129.682 51.3438C129.667 51.3594 129.65 51.375 129.632 51.3906L131.05 52.7539H129.284L128.542 52C128.297 52.0651 128.027 52.0977 127.733 52.0977ZM127.788 47.3906C127.348 47.3906 126.996 47.5573 126.733 47.8906C126.473 48.2214 126.342 48.6602 126.342 49.207C126.342 49.7617 126.473 50.2005 126.733 50.5234C126.994 50.8464 127.335 51.0078 127.757 51.0078C128.191 51.0078 128.537 50.8516 128.792 50.5391C129.047 50.2214 129.175 49.7852 129.175 49.2305C129.175 48.6523 129.051 48.2005 128.803 47.875C128.559 47.5521 128.22 47.3906 127.788 47.3906ZM134.532 52H131.196V46.3984H132.458V50.9766H134.532V52Z" fill="#024D8E"/>
<path d="M101.116 84H100.167V82.2891H98.4268V84H97.4805V79.7988H98.4268V81.4746H100.167V79.7988H101.116V84ZM101.9 84V79.7988H103.388C104.881 79.7988 105.627 80.4814 105.627 81.8467C105.627 82.501 105.423 83.0234 105.014 83.4141C104.608 83.8047 104.066 84 103.388 84H101.9ZM102.846 80.5693V83.2324H103.315C103.725 83.2324 104.047 83.1094 104.279 82.8633C104.513 82.6172 104.631 82.2822 104.631 81.8584C104.631 81.458 104.514 81.1436 104.282 80.915C104.051 80.6846 103.727 80.5693 103.309 80.5693H102.846ZM108.573 80.5693H107.09V81.6006H108.453V82.3682H107.09V84H106.144V79.7988H108.573V80.5693ZM108.894 83.8389V82.9014C109.064 83.0439 109.248 83.1514 109.447 83.2236C109.647 83.2939 109.848 83.3291 110.051 83.3291C110.17 83.3291 110.273 83.3184 110.361 83.2969C110.451 83.2754 110.525 83.2461 110.584 83.209C110.645 83.1699 110.689 83.125 110.719 83.0742C110.748 83.0215 110.763 82.9648 110.763 82.9043C110.763 82.8223 110.739 82.749 110.692 82.6846C110.646 82.6201 110.581 82.5605 110.499 82.5059C110.419 82.4512 110.323 82.3984 110.212 82.3477C110.101 82.2969 109.981 82.2451 109.852 82.1924C109.523 82.0557 109.278 81.8887 109.116 81.6914C108.956 81.4941 108.876 81.2559 108.876 80.9766C108.876 80.7578 108.92 80.5703 109.008 80.4141C109.096 80.2559 109.215 80.126 109.365 80.0244C109.518 79.9229 109.693 79.8486 109.893 79.8018C110.092 79.7529 110.303 79.7285 110.525 79.7285C110.744 79.7285 110.938 79.7422 111.106 79.7695C111.275 79.7949 111.432 79.835 111.574 79.8896V80.7656C111.504 80.7168 111.427 80.6738 111.343 80.6367C111.261 80.5996 111.176 80.5693 111.088 80.5459C111 80.5205 110.912 80.502 110.824 80.4902C110.738 80.4785 110.656 80.4727 110.578 80.4727C110.471 80.4727 110.373 80.4834 110.285 80.5049C110.197 80.5244 110.123 80.5527 110.063 80.5898C110.002 80.627 109.955 80.6719 109.922 80.7246C109.889 80.7754 109.872 80.833 109.872 80.8975C109.872 80.9678 109.891 81.0312 109.928 81.0879C109.965 81.1426 110.018 81.1953 110.086 81.2461C110.154 81.2949 110.237 81.3438 110.335 81.3926C110.433 81.4395 110.543 81.4883 110.666 81.5391C110.834 81.6094 110.984 81.6846 111.117 81.7646C111.252 81.8428 111.367 81.9316 111.463 82.0312C111.559 82.1309 111.632 82.2451 111.683 82.374C111.733 82.501 111.759 82.6494 111.759 82.8193C111.759 83.0537 111.714 83.251 111.624 83.4111C111.536 83.5693 111.416 83.6982 111.264 83.7979C111.111 83.8955 110.934 83.9658 110.731 84.0088C110.529 84.0518 110.316 84.0732 110.092 84.0732C109.861 84.0732 109.642 84.0537 109.433 84.0146C109.226 83.9756 109.046 83.917 108.894 83.8389Z" fill="#024D8E"/>
<g filter="url(#filter4_d_226_3258)">
<rect x="24" y="8" width="38" height="19" rx="2" fill="white"/>
</g>
<path d="M37.4883 21H36.2227V18.7188H33.9023V21H32.6406V15.3984H33.9023V17.6328H36.2227V15.3984H37.4883V21ZM38.5334 21V15.3984H40.5725C41.1975 15.3984 41.678 15.513 42.0139 15.7422C42.3498 15.9714 42.5178 16.2943 42.5178 16.7109C42.5178 17.013 42.4149 17.2773 42.2092 17.5039C42.0061 17.7305 41.7457 17.888 41.428 17.9766V17.9922C41.8264 18.0417 42.1441 18.1888 42.3811 18.4336C42.6207 18.6784 42.7405 18.9766 42.7405 19.3281C42.7405 19.8411 42.5569 20.2487 42.1897 20.5508C41.8225 20.8503 41.3212 21 40.6858 21H38.5334ZM39.7952 16.3281V17.6562H40.3498C40.6103 17.6562 40.8147 17.5938 40.9631 17.4688C41.1142 17.3411 41.1897 17.1667 41.1897 16.9453C41.1897 16.5339 40.8824 16.3281 40.2678 16.3281H39.7952ZM39.7952 18.5938V20.0703H40.4788C40.7704 20.0703 40.9983 20.0026 41.1623 19.8672C41.329 19.7318 41.4123 19.5469 41.4123 19.3125C41.4123 19.0885 41.3303 18.9128 41.1663 18.7852C41.0048 18.6576 40.7782 18.5938 40.4866 18.5938H39.7952ZM46.6333 21H45.4653V20.4258H45.4497C45.1815 20.8737 44.7843 21.0977 44.2583 21.0977C43.8703 21.0977 43.5643 20.9883 43.3403 20.7695C43.119 20.5482 43.0083 20.2539 43.0083 19.8867C43.0083 19.1107 43.4679 18.6628 44.3872 18.543L45.4731 18.3984C45.4731 17.9609 45.2361 17.7422 44.7622 17.7422C44.2856 17.7422 43.8325 17.8841 43.4028 18.168V17.2383C43.5747 17.1497 43.8091 17.0716 44.1059 17.0039C44.4054 16.9362 44.6776 16.9023 44.9223 16.9023C46.063 16.9023 46.6333 17.4714 46.6333 18.6094V21ZM45.4731 19.375V19.1055L44.7466 19.1992C44.3455 19.2513 44.145 19.4323 44.145 19.7422C44.145 19.8828 44.1932 19.9987 44.2895 20.0898C44.3885 20.1784 44.5213 20.2227 44.688 20.2227C44.9197 20.2227 45.1085 20.1432 45.2544 19.9844C45.4002 19.8229 45.4731 19.6198 45.4731 19.375ZM47.1081 20.8945V19.8945C47.3112 20.0169 47.5131 20.1081 47.7136 20.168C47.9167 20.2279 48.1081 20.2578 48.2878 20.2578C48.5066 20.2578 48.6784 20.2279 48.8034 20.168C48.931 20.1081 48.9948 20.0169 48.9948 19.8945C48.9948 19.8164 48.9662 19.7513 48.9089 19.6992C48.8516 19.6471 48.7774 19.6016 48.6862 19.5625C48.5977 19.5234 48.5001 19.4883 48.3933 19.457C48.2865 19.4258 48.1836 19.3906 48.0847 19.3516C47.9258 19.2917 47.7852 19.2279 47.6628 19.1602C47.543 19.0898 47.4415 19.0091 47.3581 18.918C47.2774 18.8268 47.2149 18.7214 47.1706 18.6016C47.129 18.4818 47.1081 18.3398 47.1081 18.1758C47.1081 17.9518 47.1563 17.7591 47.2527 17.5977C47.3516 17.4362 47.4818 17.3047 47.6433 17.2031C47.8073 17.099 47.9935 17.0234 48.2019 16.9766C48.4128 16.9271 48.6316 16.9023 48.8581 16.9023C49.0352 16.9023 49.2149 16.9167 49.3972 16.9453C49.5795 16.9714 49.7592 17.0104 49.9362 17.0625V18.0156C49.78 17.9245 49.612 17.8568 49.4323 17.8125C49.2553 17.7656 49.0808 17.7422 48.9089 17.7422C48.8282 17.7422 48.7514 17.75 48.6784 17.7656C48.6081 17.7786 48.5456 17.7995 48.4909 17.8281C48.4362 17.8542 48.3933 17.8893 48.362 17.9336C48.3308 17.9753 48.3152 18.0234 48.3152 18.0781C48.3152 18.151 48.3386 18.2135 48.3855 18.2656C48.4323 18.3177 48.4935 18.3633 48.5691 18.4023C48.6446 18.4388 48.7279 18.4727 48.8191 18.5039C48.9128 18.5326 49.0053 18.5625 49.0964 18.5938C49.2605 18.651 49.4089 18.7135 49.5417 18.7812C49.6745 18.849 49.7878 18.9284 49.8816 19.0195C49.9779 19.1107 50.0508 19.2174 50.1003 19.3398C50.1524 19.4622 50.1784 19.6081 50.1784 19.7773C50.1784 20.0143 50.1264 20.2174 50.0222 20.3867C49.9206 20.5534 49.7839 20.6901 49.612 20.7969C49.4428 20.901 49.2461 20.9766 49.0222 21.0234C48.8008 21.0729 48.5704 21.0977 48.3308 21.0977C47.8907 21.0977 47.4831 21.0299 47.1081 20.8945ZM54.247 19.3516H51.6377C51.6793 19.9323 52.0452 20.2227 52.7353 20.2227C53.1754 20.2227 53.5621 20.1185 53.8955 19.9102V20.8008C53.5257 20.9987 53.0452 21.0977 52.4541 21.0977C51.8082 21.0977 51.3069 20.9193 50.9502 20.5625C50.5934 20.2031 50.415 19.7031 50.415 19.0625C50.415 18.3984 50.6077 17.8724 50.9931 17.4844C51.3785 17.0964 51.8525 16.9023 52.415 16.9023C52.9983 16.9023 53.4489 17.0755 53.7666 17.4219C54.0869 17.7682 54.247 18.2383 54.247 18.832V19.3516ZM53.1025 18.5938C53.1025 18.0208 52.8707 17.7344 52.4072 17.7344C52.2093 17.7344 52.0374 17.8164 51.8916 17.9805C51.7483 18.1445 51.6611 18.349 51.6298 18.5938H53.1025Z" fill="#057CE4"/>
<defs>
<filter id="filter0_d_226_3258" x="86" y="6" width="72" height="35" filterUnits="userSpaceOnUse" color-interpolation-filters="sRGB">
<feFlood flood-opacity="0" result="BackgroundImageFix"/>
<feColorMatrix in="SourceAlpha" type="matrix" values="0 0 0 0 0 0 0 0 0 0 0 0 0 0 0 0 0 0 127 0" result="hardAlpha"/>
<feOffset/>
<feGaussianBlur stdDeviation="4"/>
<feComposite in2="hardAlpha" operator="out"/>
<feColorMatrix type="matrix" values="0 0 0 0 0 0 0 0 0 0 0 0 0 0 0 0 0 0 0.08 0"/>
<feBlend mode="normal" in2="BackgroundImageFix" result="effect1_dropShadow_226_3258"/>
<feBlend mode="normal" in="SourceGraphic" in2="effect1_dropShadow_226_3258" result="shape"/>
</filter>
<filter id="filter1_d_226_3258" x="0" y="46" width="72" height="35" filterUnits="userSpaceOnUse" color-interpolation-filters="sRGB">
<feFlood flood-opacity="0" result="BackgroundImageFix"/>
<feColorMatrix in="SourceAlpha" type="matrix" values="0 0 0 0 0 0 0 0 0 0 0 0 0 0 0 0 0 0 127 0" result="hardAlpha"/>
<feOffset/>
<feGaussianBlur stdDeviation="4"/>
<feComposite in2="hardAlpha" operator="out"/>
<feColorMatrix type="matrix" values="0 0 0 0 0 0 0 0 0 0 0 0 0 0 0 0 0 0 0.08 0"/>
<feBlend mode="normal" in2="BackgroundImageFix" result="effect1_dropShadow_226_3258"/>
<feBlend mode="normal" in="SourceGraphic" in2="effect1_dropShadow_226_3258" result="shape"/>
</filter>
<filter id="filter2_d_226_3258" x="94" y="31" width="56" height="35" filterUnits="userSpaceOnUse" color-interpolation-filters="sRGB">
<feFlood flood-opacity="0" result="BackgroundImageFix"/>
<feColorMatrix in="SourceAlpha" type="matrix" values="0 0 0 0 0 0 0 0 0 0 0 0 0 0 0 0 0 0 127 0" result="hardAlpha"/>
<feOffset/>
<feGaussianBlur stdDeviation="4"/>
<feComposite in2="hardAlpha" operator="out"/>
<feColorMatrix type="matrix" values="0 0 0 0 0 0 0 0 0 0 0 0 0 0 0 0 0 0 0.08 0"/>
<feBlend mode="normal" in2="BackgroundImageFix" result="effect1_dropShadow_226_3258"/>
<feBlend mode="normal" in="SourceGraphic" in2="effect1_dropShadow_226_3258" result="shape"/>
</filter>
<filter id="filter3_d_226_3258" x="83" y="66" width="43" height="31" filterUnits="userSpaceOnUse" color-interpolation-filters="sRGB">
<feFlood flood-opacity="0" result="BackgroundImageFix"/>
<feColorMatrix in="SourceAlpha" type="matrix" values="0 0 0 0 0 0 0 0 0 0 0 0 0 0 0 0 0 0 127 0" result="hardAlpha"/>
<feOffset/>
<feGaussianBlur stdDeviation="4"/>
<feComposite in2="hardAlpha" operator="out"/>
<feColorMatrix type="matrix" values="0 0 0 0 0 0 0 0 0 0 0 0 0 0 0 0 0 0 0.08 0"/>
<feBlend mode="normal" in2="BackgroundImageFix" result="effect1_dropShadow_226_3258"/>
<feBlend mode="normal" in="SourceGraphic" in2="effect1_dropShadow_226_3258" result="shape"/>
</filter>
<filter id="filter4_d_226_3258" x="16" y="0" width="54" height="35" filterUnits="userSpaceOnUse" color-interpolation-filters="sRGB">
<feFlood flood-opacity="0" result="BackgroundImageFix"/>
<feColorMatrix in="SourceAlpha" type="matrix" values="0 0 0 0 0 0 0 0 0 0 0 0 0 0 0 0 0 0 127 0" result="hardAlpha"/>
<feOffset/>
<feGaussianBlur stdDeviation="4"/>
<feComposite in2="hardAlpha" operator="out"/>
<feColorMatrix type="matrix" values="0 0 0 0 0 0 0 0 0 0 0 0 0 0 0 0 0 0 0.08 0"/>
<feBlend mode="normal" in2="BackgroundImageFix" result="effect1_dropShadow_226_3258"/>
<feBlend mode="normal" in="SourceGraphic" in2="effect1_dropShadow_226_3258" result="shape"/>
</filter>
</defs>
</svg>
