 <svg width="108" height="102" viewBox="0 0 108 102" fill="none" xmlns="http://www.w3.org/2000/svg">
    <path d="M54.482 87.76c20.84 0 37.735-16.894 37.735-37.735 0-20.84-16.895-37.735-37.735-37.735S16.747 29.185 16.747 50.025 33.64 87.76 54.482 87.76z" fill="#EAEEF9" />
    <path d="M54.483 68.02c9.938 0 17.994-8.057 17.994-17.995s-8.056-17.994-17.994-17.994-17.995 8.056-17.995 17.994S44.545 68.02 54.483 68.02z" fill="#fff" />
    <path d="M54.482 94.594c24.614 0 44.568-19.954 44.568-44.569 0-24.614-19.954-44.568-44.568-44.568-24.615 0-44.569 19.954-44.569 44.568 0 24.615 19.954 44.569 44.569 44.569z" stroke="#EAEEF9" stroke-width="2" stroke-miterlimit="10" stroke-linecap="round" stroke-linejoin="round" stroke-dasharray="1 6" />
    <path d="M29.567 19.94a1.898 1.898 0 1 0-1.173-3.61 1.898 1.898 0 0 0 1.173 3.61zM33.687 13.675a1.29 1.29 0 1 0-.799-2.455 1.29 1.29 0 0 0 .799 2.455z" fill="#EAEEF9" />
    <path d="M66.479 11.227a1.215 1.215 0 1 0 0-2.43 1.215 1.215 0 0 0 0 2.43z" fill="url(#paint0_linear_8592_129354)" />
    <path d="M13.862 56.48a1.215 1.215 0 1 0 0-2.43 1.215 1.215 0 0 0 0 2.43z" fill="url(#paint1_linear_8592_129354)" />
    <path d="M20.771 85.33a1.215 1.215 0 1 0 0-2.429 1.215 1.215 0 0 0 0 2.43z" fill="url(#paint2_linear_8592_129354)" />
    <path d="M24.43 21.948c-.227 0-.455-.076-.683-.304l-4.328-4.252a.962.962 0 0 1 0-1.366.962.962 0 0 1 1.367 0l4.328 4.327c.38.38.38.987 0 1.367a1.224 1.224 0 0 1-.683.228z" fill="url(#paint3_linear_8592_129354)" />
    <path d="M87.95 85.468c-.228 0-.455-.076-.683-.304l-4.328-4.328a.962.962 0 0 1 0-1.366.962.962 0 0 1 1.367 0l4.328 4.328c.38.38.38.987 0 1.366-.228.228-.456.304-.684.304z" fill="url(#paint4_linear_8592_129354)" />
    <path d="M20.103 85.468c-.228 0-.456-.076-.684-.304a.962.962 0 0 1 0-1.367l4.328-4.327a.962.962 0 0 1 1.367 0c.38.38.38.987 0 1.366l-4.328 4.328c-.228.228-.455.304-.683.304z" fill="url(#paint5_linear_8592_129354)" />
    <path d="M83.622 21.948c-.227 0-.455-.076-.683-.304a.962.962 0 0 1 0-1.366l4.328-4.328a.962.962 0 0 1 1.367 0c.38.38.38.987 0 1.366l-4.328 4.328c-.228.228-.456.304-.684.304z" fill="url(#paint6_linear_8592_129354)" />
    <path d="M106.478 5.185c-.154-.257-.308-.462-.564-.615h-.051l-5.69-3.332c-.564-.308-1.18-.257-1.743.05l-5.588 3.23c-.256.154-.513.36-.666.667a1.729 1.729 0 0 0-.257.871v7.074c0 .615.36 1.23.872 1.538l5.434 3.127c.307.205.717.308 1.076.308.359 0 .718-.103 1.077-.308l5.433-3.127c.564-.307.872-.923.872-1.538V6.056c.051-.307-.052-.615-.205-.871z" stroke="url(#paint7_linear_8592_129354)" stroke-width="2" stroke-miterlimit="10" stroke-linecap="round" stroke-linejoin="round" />
    <path d="M106.734 6.056v7.074c0 .615-.358 1.23-.871 1.538l-5.434 3.127a2.015 2.015 0 0 1-1.076.307c-.359 0-.718-.102-1.077-.307l-5.433-3.127c-.564-.308-.872-.872-.872-1.538V6.056c0-.308.103-.615.257-.872.153-.256.358-.512.666-.666l5.587-3.23c.513-.307 1.18-.307 1.743-.05 0 0 .052 0 .052.05l5.638 3.23s.052 0 .052.051h.051c.256.154.41.36.564.615.051.257.153.564.153.872z" fill="#F3F6FA" />
    <path d="M106.732 6.056v7.074c0 .615-.359 1.23-.871 1.538l-5.434 3.127a2.016 2.016 0 0 1-1.076.307V9.285l7.125-4.1c.154.256.256.563.256.87z" fill="#DBDFE6" />
    <path d="M99.35 9.285v8.817c-.358 0-.717-.102-1.076-.307l-5.434-3.127c-.564-.308-.871-.872-.871-1.538V6.056c0-.308.102-.615.256-.872l7.125 4.101z" fill="#EAEEF9" />
    <path d="M106.476 5.185l-7.125 4.1-7.177-4.152c.154-.256.36-.512.667-.666l5.587-3.23c.513-.307 1.18-.307 1.743-.05l5.741 3.331h.052c.205.205.41.41.512.667z" fill="#F3F6FA" />
    <path d="M96.612 11.569l-.051-.359c0-.564-.41-1.281-.923-1.589-.513-.256-.872-.051-.872.513v.358l-.05-.05c-.206-.103-.36 0-.36.204v1.384c0 .36.257.82.616 1.026l1.486.82c.308.205.615.051.615-.36v-1.383c-.102-.154-.256-.41-.461-.564zm-.769 1.025c0 .103-.051.154-.103.154 0 0-.05 0-.102-.051a.432.432 0 0 1-.205-.36v-.46c0-.103.102-.154.205-.103.102.051.205.205.205.308v.512zm.359-1.23l-1.025-.615v-.359c0-.308.256-.41.563-.256.308.205.513.564.513.922v.308h-.051z" fill="#1C3754" />
    <path d="M15.558 5.185c-.154-.257-.307-.462-.564-.615h-.05l-5.69-3.332C8.688.93 8.073.98 7.51 1.288l-5.587 3.23c-.257.154-.513.36-.667.667A1.728 1.728 0 0 0 1 6.056v7.074c0 .615.359 1.23.871 1.538l5.434 3.127c.308.205.718.308 1.077.308.358 0 .717-.103 1.076-.308l5.434-3.127c.564-.307.871-.923.871-1.538V6.056c.052-.307-.051-.615-.205-.871z" stroke="url(#paint8_linear_8592_129354)" stroke-width="2" stroke-miterlimit="10" stroke-linecap="round" stroke-linejoin="round" />
    <path d="M15.815 6.056v7.074c0 .615-.359 1.23-.871 1.538L9.51 17.795a2.018 2.018 0 0 1-1.077.307c-.358 0-.717-.102-1.076-.307l-5.434-3.127c-.564-.308-.871-.872-.871-1.538V6.056c0-.308.102-.615.256-.872.154-.256.359-.512.666-.666l5.588-3.23c.513-.307 1.179-.307 1.743-.05 0 0 .051 0 .051.05l5.639 3.23s.051 0 .051.051h.051c.257.154.41.36.564.615.052.257.154.564.154.872z" fill="#F3F6FA" />
    <path d="M15.814 6.056v7.074c0 .615-.36 1.23-.872 1.538L9.51 17.795a2.018 2.018 0 0 1-1.077.307V9.285l7.125-4.1c.154.256.257.563.257.87z" fill="#DBDFE6" />
    <path d="M8.432 9.285v8.817c-.359 0-.718-.102-1.077-.307l-5.433-3.127c-.564-.308-.872-.872-.872-1.538V6.056c0-.308.103-.615.257-.872l7.125 4.101z" fill="#EAEEF9" />
    <path d="M15.558 5.185l-7.126 4.1-7.176-4.152c.154-.256.359-.512.666-.666l5.588-3.23C8.022.93 8.689.93 9.253 1.188l5.74 3.331h.052c.205.205.41.41.513.667z" fill="#F3F6FA" />
    <path d="M5.693 11.569l-.052-.359c0-.564-.41-1.281-.922-1.589-.513-.256-.872-.051-.872.513v.358l-.051-.05c-.205-.103-.359 0-.359.204v1.384c0 .36.256.82.615 1.026l1.487.82c.307.205.615.051.615-.36v-1.383c-.103-.154-.256-.41-.461-.564zm-.77 1.025c0 .103-.05.154-.102.154 0 0-.051 0-.102-.051a.432.432 0 0 1-.206-.36v-.46c0-.103.103-.154.206-.103.102.051.205.205.205.308v.512zm.36-1.23l-1.026-.615v-.359c0-.308.256-.41.564-.256.308.205.513.564.513.922v.308h-.052z" fill="#1C3754" />
    <path d="M106.478 88.083c-.154-.257-.308-.462-.564-.615h-.051l-5.69-3.333c-.564-.307-1.18-.256-1.743.052l-5.588 3.23c-.256.153-.513.358-.666.666a1.729 1.729 0 0 0-.257.871v7.074c0 .615.36 1.23.872 1.538l5.434 3.127c.307.205.717.307 1.076.307.359 0 .718-.102 1.077-.307l5.433-3.127c.564-.308.872-.923.872-1.538v-7.074c.051-.307-.052-.615-.205-.871z" stroke="url(#paint9_linear_8592_129354)" stroke-width="2" stroke-miterlimit="10" stroke-linecap="round" stroke-linejoin="round" />
    <path d="M106.734 88.953v7.074c0 .615-.358 1.23-.871 1.538l-5.434 3.127a2.016 2.016 0 0 1-1.076.308c-.359 0-.718-.103-1.077-.308l-5.433-3.127c-.564-.307-.872-.871-.872-1.538v-7.074c0-.307.103-.615.257-.871.153-.256.358-.513.666-.666l5.587-3.23c.513-.308 1.18-.308 1.743-.051 0 0 .052 0 .052.051l5.638 3.23s.052 0 .052.05h.051c.256.155.41.36.564.616.051.256.153.564.153.871z" fill="#F3F6FA" />
    <path d="M106.732 88.954v7.074c0 .615-.359 1.23-.871 1.538l-5.434 3.127a2.016 2.016 0 0 1-1.076.307v-8.817l7.125-4.1c.154.256.256.563.256.871z" fill="#DBDFE6" />
    <path d="M99.35 92.183V101c-.358 0-.717-.102-1.076-.307l-5.434-3.127c-.564-.308-.871-.871-.871-1.538v-7.074c0-.308.102-.615.256-.871l7.125 4.1z" fill="#EAEEF9" />
    <path d="M106.476 88.083l-7.125 4.1-7.177-4.152c.154-.256.36-.512.667-.666l5.587-3.23c.513-.307 1.18-.307 1.743-.05l5.741 3.331h.052c.205.205.41.41.512.667z" fill="#F3F6FA" />
    <path d="M96.612 94.466l-.051-.358c0-.564-.41-1.282-.923-1.59-.513-.256-.872-.05-.872.513v.359l-.05-.051c-.206-.103-.36 0-.36.205v1.384c0 .359.257.82.616 1.025l1.486.82c.308.205.615.051.615-.359V95.03c-.102-.154-.256-.41-.461-.564zm-.769 1.026c0 .102-.051.153-.103.153 0 0-.05 0-.102-.05a.431.431 0 0 1-.205-.36v-.461c0-.103.102-.154.205-.103.102.052.205.205.205.308v.513zm.359-1.23l-1.025-.616v-.359c0-.307.256-.41.563-.256.308.205.513.564.513.923v.307h-.051z" fill="#1C3754" />
    <path d="M16.45 88.083c-.154-.257-.308-.462-.564-.615h-.051l-5.69-3.333c-.564-.307-1.18-.256-1.743.052l-5.588 3.23c-.256.153-.512.358-.666.666a1.728 1.728 0 0 0-.256.871v7.074c0 .615.358 1.23.871 1.538l5.434 3.127c.307.205.717.307 1.076.307.36 0 .718-.102 1.077-.307l5.433-3.127c.564-.308.872-.923.872-1.538v-7.074c.051-.307-.051-.615-.205-.871z" stroke="url(#paint10_linear_8592_129354)" stroke-width="2" stroke-miterlimit="10" stroke-linecap="round" stroke-linejoin="round" />
    <path d="M16.707 88.953v7.074c0 .615-.36 1.23-.872 1.538l-5.434 3.127a2.018 2.018 0 0 1-1.076.308c-.359 0-.718-.103-1.076-.308l-5.434-3.127c-.564-.307-.872-.871-.872-1.538v-7.074c0-.307.103-.615.257-.871.153-.256.358-.513.666-.666l5.588-3.23c.512-.308 1.179-.308 1.742-.051 0 0 .052 0 .052.051l5.638 3.23s.052 0 .052.05h.051c.256.155.41.36.564.616.051.256.154.564.154.871z" fill="#F3F6FA" />
    <path d="M16.706 88.954v7.074c0 .615-.359 1.23-.872 1.538l-5.433 3.127a2.017 2.017 0 0 1-1.077.307v-8.817l7.126-4.1c.153.256.256.563.256.871z" fill="#DBDFE6" />
    <path d="M9.324 92.183V101c-.359 0-.718-.102-1.076-.307l-5.434-3.127c-.564-.308-.872-.871-.872-1.538v-7.074c0-.308.103-.615.257-.871l7.125 4.1z" fill="#EAEEF9" />
    <path d="M16.45 88.083l-7.125 4.1-7.177-4.152c.154-.256.359-.512.666-.666l5.588-3.23c.512-.307 1.179-.307 1.743-.05l5.741 3.331h.051c.205.205.41.41.513.667z" fill="#F3F6FA" />
    <path d="M6.584 94.466l-.051-.358c0-.564-.41-1.282-.923-1.59-.512-.256-.871-.05-.871.513v.359l-.052-.051c-.205-.103-.358 0-.358.205v1.384c0 .359.256.82.615 1.025l1.486.82c.308.205.615.051.615-.359V95.03c-.102-.154-.256-.41-.46-.564zm-.769 1.026c0 .102-.051.153-.102.153 0 0-.052 0-.103-.05a.431.431 0 0 1-.205-.36v-.461c0-.103.103-.154.205-.103.103.052.205.205.205.308v.513zm.359-1.23l-1.025-.616v-.359c0-.307.256-.41.564-.256.307.205.512.564.512.923v.307h-.051z" fill="#1C3754" />
    <path fill-rule="evenodd" clip-rule="evenodd" d="M35.514 33.09h4.459v26.422h-4.459V33.09zM14.37 34.766h16.981v3.844H19.052v6.78h11.593v3.706H19.052v10.415H14.37V34.767zm31.27.507c-.534.501-.8 1.09-.8 1.765 0 .676.266 1.264.8 1.765.532.502 1.206.752 2.024.752.819 0 1.506-.239 2.063-.717.558-.477.836-1.077.836-1.8 0-.722-.278-1.322-.836-1.8-.557-.477-1.245-.716-2.063-.716-.817 0-1.492.25-2.025.751zm4.29 7.462h-4.458v16.777h4.459V42.736zm5.428 0h4.234v2.691h.074c.396-.838 1.084-1.578 2.062-2.219.98-.64 2.137-.961 3.475-.961 1.164 0 2.16.192 2.99.577.83.384 1.512.891 2.045 1.52.532.629.922 1.352 1.17 2.167.247.816.372 1.655.372 2.516v10.486h-4.459v-9.297c0-.49-.037-1.002-.11-1.538a3.996 3.996 0 0 0-.484-1.45 3.09 3.09 0 0 0-1.022-1.066c-.434-.28-1.01-.42-1.727-.42-.72 0-1.339.135-1.858.402-.52.268-.948.612-1.282 1.032-.335.419-.59.903-.762 1.45a5.47 5.47 0 0 0-.26 1.66v9.227h-4.458V42.736zm26.155-9.647h-4.458v26.423h4.459v-8.598h.112l7.059 8.598h5.908l-8.212-9.192 7.729-7.584h-5.722l-6.763 7.06h-.112V33.089z" fill="url(#paint11_linear_8592_129354)" />
    <defs>
      <linearGradient id="paint0_linear_8592_129354" x1="65.269" y1="10.042" x2="67.625" y2="10.042" gradientUnits="userSpaceOnUse">
        <stop offset=".003" stop-color="#FFD44F" />
        <stop offset="1" stop-color="#FFA607" />
      </linearGradient>
      <linearGradient id="paint1_linear_8592_129354" x1="12.654" y1="55.239" x2="15.011" y2="55.239" gradientUnits="userSpaceOnUse">
        <stop offset=".003" stop-color="#FFD44F" />
        <stop offset="1" stop-color="#FFA607" />
      </linearGradient>
      <linearGradient id="paint2_linear_8592_129354" x1="19.571" y1="84.102" x2="21.928" y2="84.102" gradientUnits="userSpaceOnUse">
        <stop offset=".003" stop-color="#FFD44F" />
        <stop offset="1" stop-color="#FFA607" />
      </linearGradient>
      <linearGradient id="paint3_linear_8592_129354" x1="19.147" y1="18.866" x2="25.378" y2="18.866" gradientUnits="userSpaceOnUse">
        <stop stop-color="#51DFD4" />
        <stop offset="1" stop-color="#1BE068" />
      </linearGradient>
      <linearGradient id="paint4_linear_8592_129354" x1="82.665" y1="82.385" x2="88.896" y2="82.385" gradientUnits="userSpaceOnUse">
        <stop stop-color="#51DFD4" />
        <stop offset="1" stop-color="#1BE068" />
      </linearGradient>
      <linearGradient id="paint5_linear_8592_129354" x1="22.262" y1="85.5" x2="22.262" y2="79.269" gradientUnits="userSpaceOnUse">
        <stop stop-color="#51DFD4" />
        <stop offset="1" stop-color="#1BE068" />
      </linearGradient>
      <linearGradient id="paint6_linear_8592_129354" x1="85.781" y1="21.982" x2="85.781" y2="15.751" gradientUnits="userSpaceOnUse">
        <stop stop-color="#51DFD4" />
        <stop offset="1" stop-color="#1BE068" />
      </linearGradient>
      <linearGradient id="paint7_linear_8592_129354" x1="91.45" y1="9.551" x2="107.25" y2="9.551" gradientUnits="userSpaceOnUse">
        <stop stop-color="#51DFD4" />
        <stop offset="1" stop-color="#1BE068" />
      </linearGradient>
      <linearGradient id="paint8_linear_8592_129354" x1=".531" y1="9.551" x2="16.33" y2="9.551" gradientUnits="userSpaceOnUse">
        <stop stop-color="#51DFD4" />
        <stop offset="1" stop-color="#1BE068" />
      </linearGradient>
      <linearGradient id="paint9_linear_8592_129354" x1="91.45" y1="92.449" x2="107.25" y2="92.449" gradientUnits="userSpaceOnUse">
        <stop stop-color="#51DFD4" />
        <stop offset="1" stop-color="#1BE068" />
      </linearGradient>
      <linearGradient id="paint10_linear_8592_129354" x1="1.423" y1="92.449" x2="17.222" y2="92.449" gradientUnits="userSpaceOnUse">
        <stop stop-color="#51DFD4" />
        <stop offset="1" stop-color="#1BE068" />
      </linearGradient>
      <linearGradient id="paint11_linear_8592_129354" x1="14.005" y1="46.429" x2="94.598" y2="46.429" gradientUnits="userSpaceOnUse">
        <stop stop-color="#42FCED" />
        <stop offset="1" stop-color="#00AA72" />
      </linearGradient>
    </defs>
  </svg>