<svg width="102" height="102" viewBox="0 0 102 102" fill="none" xmlns="http://www.w3.org/2000/svg">
<path d="M50.9999 93.3338C74.3803 93.3338 93.3338 74.3803 93.3338 50.9999C93.3338 27.6195 74.3803 8.66602 50.9999 8.66602C27.6195 8.66602 8.66602 27.6195 8.66602 50.9999C8.66602 74.3803 27.6195 93.3338 50.9999 93.3338Z" fill="#EAEEF9"/>
<path d="M51.0001 71.1873C62.1493 71.1873 71.1875 62.1491 71.1875 50.9999C71.1875 39.8507 62.1493 30.8125 51.0001 30.8125C39.8509 30.8125 30.8127 39.8507 30.8127 50.9999C30.8127 62.1491 39.8509 71.1873 51.0001 71.1873Z" fill="white"/>
<path d="M51 101C78.6142 101 101 78.6142 101 51C101 23.3858 78.6142 1 51 1C23.3858 1 1 23.3858 1 51C1 78.6142 23.3858 101 51 101Z" stroke="#EAEEF9" stroke-width="2" stroke-miterlimit="10" stroke-linecap="round" stroke-linejoin="round" stroke-dasharray="1 6"/>
<path d="M23.0487 17.2485C24.1672 16.885 24.7791 15.6836 24.4156 14.5651C24.0521 13.4467 22.8507 12.8347 21.7323 13.1982C20.6138 13.5617 20.0018 14.7631 20.3654 15.8816C20.7289 17 21.9303 17.612 23.0487 17.2485Z" fill="#EAEEF9"/>
<path d="M27.6706 10.2197C28.4311 9.97247 28.8473 9.15554 28.6001 8.395C28.3529 7.63445 27.5359 7.2183 26.7754 7.4655C26.0149 7.71269 25.5987 8.52963 25.8459 9.29017C26.0931 10.0507 26.91 10.4669 27.6706 10.2197Z" fill="#EAEEF9"/>
<path d="M64.4586 7.47377C65.2113 7.47377 65.8214 6.8636 65.8214 6.11091C65.8214 5.35822 65.2113 4.74805 64.4586 4.74805C63.7059 4.74805 63.0957 5.35822 63.0957 6.11091C63.0957 6.8636 63.7059 7.47377 64.4586 7.47377Z" fill="url(#paint0_linear)"/>
<path d="M5.42927 58.2404C6.18196 58.2404 6.79213 57.6302 6.79213 56.8775C6.79213 56.1248 6.18196 55.5146 5.42927 55.5146C4.67658 55.5146 4.06641 56.1248 4.06641 56.8775C4.06641 57.6302 4.67658 58.2404 5.42927 58.2404Z" fill="url(#paint1_linear)"/>
<path d="M13.1805 90.608C13.9332 90.608 14.5434 89.9979 14.5434 89.2452C14.5434 88.4925 13.9332 87.8823 13.1805 87.8823C12.4278 87.8823 11.8176 88.4925 11.8176 89.2452C11.8176 89.9979 12.4278 90.608 13.1805 90.608Z" fill="url(#paint2_linear)"/>
<path d="M93.6747 14.2024C93.4192 13.7765 93.1636 13.4358 92.7377 13.1803H92.6525L83.1977 7.64366C82.2607 7.13259 81.2386 7.21776 80.3016 7.72884L71.0171 13.0951C70.5912 13.3506 70.1653 13.6914 69.9098 14.2024C69.6542 14.6283 69.4839 15.1394 69.4839 15.6505V27.4052C69.4839 28.4273 70.0801 29.4495 70.9319 29.9605L79.9609 35.1564C80.472 35.4972 81.1534 35.6675 81.7496 35.6675C82.3459 35.6675 82.9421 35.4972 83.5384 35.1564L92.5674 29.9605C93.5043 29.4495 94.0154 28.4273 94.0154 27.4052V15.6505C94.1006 15.1394 93.9302 14.6283 93.6747 14.2024Z" stroke="url(#paint3_linear)" stroke-width="2" stroke-miterlimit="10" stroke-linecap="round" stroke-linejoin="round"/>
<path d="M94.1006 15.6503V27.405C94.1006 28.4271 93.5044 29.4493 92.6526 29.9604L83.6236 35.1563C83.1125 35.497 82.4311 35.6673 81.8349 35.6673C81.2386 35.6673 80.6423 35.497 80.0461 35.1563L71.0171 29.9604C70.0802 29.4493 69.5691 28.5123 69.5691 27.405V15.6503C69.5691 15.1392 69.7394 14.6282 69.995 14.2023C70.2505 13.7764 70.5912 13.3505 71.1023 13.0949L80.3868 7.72866C81.2386 7.21759 82.3459 7.21759 83.2829 7.64349C83.2829 7.64349 83.3681 7.64348 83.3681 7.72866L92.7377 13.0949C92.7377 13.0949 92.8229 13.0949 92.8229 13.1801C92.8229 13.1801 92.8229 13.1801 92.9081 13.1801C93.334 13.4356 93.5895 13.7764 93.8451 14.2023C93.9303 14.6282 94.1006 15.1392 94.1006 15.6503Z" fill="#F3F6FA"/>
<path d="M94.1005 15.6507V27.4054C94.1005 28.4275 93.5042 29.4497 92.6524 29.9607L83.6235 35.1566C83.1124 35.4974 82.431 35.6677 81.8347 35.6677V21.0169L93.6746 14.2026C93.9301 14.6285 94.1005 15.1396 94.1005 15.6507Z" fill="#DBDFE6"/>
<path d="M81.8347 21.0169V35.6677C81.2385 35.6677 80.6422 35.4974 80.046 35.1566L71.017 29.9607C70.08 29.4497 69.569 28.5127 69.569 27.4054V15.6507C69.569 15.1396 69.7393 14.6285 69.9949 14.2026L81.8347 21.0169Z" fill="#EAEEF9"/>
<path d="M93.6748 14.2025L81.835 21.0168L69.9099 14.1173C70.1654 13.6914 70.5062 13.2655 71.0172 13.01L80.3017 7.6437C81.1535 7.13263 82.2608 7.13263 83.1978 7.55852L92.7378 13.0952C92.7378 13.0952 92.7379 13.0952 92.823 13.0952C93.1637 13.4359 93.5045 13.7766 93.6748 14.2025Z" fill="#F3F6FA"/>
<path d="M77.2806 24.8107L77.1954 24.2144C77.1954 23.2774 76.514 22.0849 75.6622 21.5739C74.8104 21.148 74.2141 21.4887 74.2141 22.4257V23.0219L74.129 22.9367C73.7882 22.7664 73.5327 22.9367 73.5327 23.2774V25.5773C73.5327 26.1735 73.9586 26.9401 74.5549 27.2809L77.0251 28.6437C77.5361 28.9844 78.0472 28.7289 78.0472 28.0475V25.7476C77.8768 25.4921 77.6213 25.0662 77.2806 24.8107ZM76.0029 26.5142C76.0029 26.6846 75.9177 26.7698 75.8325 26.7698C75.8325 26.7698 75.7474 26.7698 75.6622 26.6846C75.4918 26.5994 75.3215 26.3439 75.3215 26.0883V25.3217C75.3215 25.1514 75.4918 25.0662 75.6622 25.1514C75.8325 25.2366 76.0029 25.4921 76.0029 25.6625V26.5142ZM76.5992 24.4699L74.8956 23.4478V22.8515C74.8956 22.3405 75.3215 22.1701 75.8325 22.4257C76.3436 22.7664 76.6843 23.3626 76.6843 23.9589V24.4699H76.5992Z" fill="#1C3754"/>
<path d="M93.6747 74.5086C93.4192 74.0827 93.1636 73.742 92.7377 73.4864H92.6525L83.1125 67.9498C82.1755 67.4387 81.1534 67.5239 80.2164 68.035L71.0171 73.4013C70.5912 73.6568 70.1653 73.9975 69.9098 74.5086C69.6542 74.9345 69.4839 75.4456 69.4839 75.9566V87.7113C69.4839 88.7335 70.0801 89.7556 70.9319 90.2667L79.9609 95.4626C80.472 95.8033 81.1534 95.9737 81.7496 95.9737C82.3459 95.9737 82.9421 95.8033 83.5384 95.4626L92.5674 90.2667C93.5043 89.7556 94.0154 88.7335 94.0154 87.7113V76.0418C94.1006 75.4456 93.9302 75.0197 93.6747 74.5086Z" stroke="url(#paint4_linear)" stroke-width="2" stroke-miterlimit="10" stroke-linecap="round" stroke-linejoin="round"/>
<path d="M94.1006 76.0419V87.7966C94.1006 88.8187 93.5044 89.8409 92.6526 90.352L83.6236 95.5479C83.1125 95.8886 82.4311 96.0589 81.8349 96.0589C81.2386 96.0589 80.6423 95.8886 80.0461 95.5479L71.0171 90.352C70.0802 89.8409 69.5691 88.9039 69.5691 87.7966V76.0419C69.5691 75.5308 69.7394 75.0198 69.995 74.5939C70.2505 74.168 70.5912 73.7421 71.1023 73.4865L80.3868 68.1203C81.2386 67.6092 82.3459 67.6092 83.2829 68.0351C83.2829 68.0351 83.3681 68.0351 83.3681 68.1203L92.7377 73.4865C92.7377 73.4865 92.8229 73.4865 92.8229 73.5717C92.8229 73.5717 92.8229 73.5717 92.9081 73.5717C93.334 73.8272 93.5895 74.168 93.8451 74.5939C93.9303 75.0198 94.1006 75.4456 94.1006 76.0419Z" fill="#F3F6FA"/>
<path d="M94.1005 76.0418V87.7965C94.1005 88.8186 93.5042 89.8408 92.6524 90.3518L83.6235 95.5478C83.1124 95.8885 82.431 96.0588 81.8347 96.0588V81.4081L93.6746 74.5938C93.9301 75.0196 94.1005 75.4455 94.1005 76.0418Z" fill="#DBDFE6"/>
<path d="M81.8347 81.4081V96.0588C81.2385 96.0588 80.6422 95.8885 80.046 95.5478L71.017 90.3518C70.08 89.8408 69.569 88.9038 69.569 87.7965V76.0418C69.569 75.5307 69.7393 75.0196 69.9949 74.5938L81.8347 81.4081Z" fill="#EAEEF9"/>
<path d="M93.6748 74.5086L81.835 81.3229L69.9099 74.4234C70.1654 73.9976 70.5062 73.5717 71.0172 73.3161L80.3017 67.9499C81.1535 67.4388 82.2608 67.4388 83.1978 67.8647L92.7378 73.4013C92.7378 73.4013 92.7379 73.4013 92.823 73.4013C93.1637 73.8272 93.5045 74.1679 93.6748 74.5086Z" fill="#F3F6FA"/>
<path d="M77.2806 85.2023L77.1954 84.606C77.1954 83.669 76.514 82.4765 75.6622 81.9655C74.8104 81.5396 74.2141 81.8803 74.2141 82.8173V83.4135L74.129 83.3283C73.7882 83.158 73.5327 83.3283 73.5327 83.669V85.9689C73.5327 86.5651 73.9586 87.3317 74.5549 87.6725L77.0251 89.0353C77.5361 89.376 78.0472 89.1205 78.0472 88.4391V86.1392C77.8768 85.8837 77.6213 85.3726 77.2806 85.2023ZM76.0029 86.9058C76.0029 87.0762 75.9177 87.1614 75.8325 87.1614C75.8325 87.1614 75.7474 87.1614 75.6622 87.0762C75.4918 86.991 75.3215 86.7355 75.3215 86.4799V85.7133C75.3215 85.543 75.4918 85.4578 75.6622 85.543C75.8325 85.6282 76.0029 85.8837 76.0029 86.0541V86.9058ZM76.5992 84.7764L74.8956 83.7542V83.158C74.8956 82.6469 75.3215 82.4765 75.8325 82.7321C76.3436 83.0728 76.6843 83.669 76.6843 84.2653V84.7764H76.5992Z" fill="#1C3754"/>
<path d="M32.0051 74.5086C31.7496 74.0827 31.4941 73.742 31.0682 73.4864H30.983L21.443 67.9498C20.506 67.4387 19.4838 67.5239 18.5469 68.035L9.34755 73.4013C8.92166 73.6568 8.49576 73.9975 8.24023 74.5086C7.98469 74.9345 7.81433 75.4456 7.81433 75.9566V87.7113C7.81433 88.7335 8.41058 89.7556 9.26237 90.2667L18.2913 95.4626C18.8024 95.8033 19.4838 95.9737 20.0801 95.9737C20.6763 95.9737 21.2726 95.8033 21.8688 95.4626L30.8978 90.2667C31.8348 89.7556 32.3458 88.7335 32.3458 87.7113V76.0418C32.431 75.4456 32.2607 75.0197 32.0051 74.5086Z" stroke="url(#paint5_linear)" stroke-width="2" stroke-miterlimit="10" stroke-linecap="round" stroke-linejoin="round"/>
<path d="M32.4309 76.0419V87.7966C32.4309 88.8187 31.8347 89.8409 30.9829 90.352L21.9539 95.5479C21.4429 95.8886 20.7614 96.0589 20.1652 96.0589C19.5689 96.0589 18.9727 95.8886 18.3764 95.5479L9.34745 90.352C8.41049 89.8409 7.89941 88.9039 7.89941 87.7966V76.0419C7.89941 75.5308 8.06977 75.0198 8.32531 74.5939C8.58085 74.168 8.92156 73.7421 9.43263 73.4865L18.7171 68.1203C19.5689 67.6092 20.6762 67.6092 21.6132 68.0351C21.6132 68.0351 21.6984 68.0351 21.6984 68.1203L31.0681 73.4865C31.0681 73.4865 31.1532 73.4865 31.1532 73.5717C31.1532 73.5717 31.1532 73.5717 31.2384 73.5717C31.6643 73.8272 31.9199 74.168 32.1754 74.5939C32.2606 75.0198 32.4309 75.4456 32.4309 76.0419Z" fill="#F3F6FA"/>
<path d="M32.431 76.0418V87.7965C32.431 88.8186 31.8348 89.8408 30.983 90.3518L21.954 95.5478C21.443 95.8885 20.7615 96.0588 20.1653 96.0588V81.4081L32.0051 74.5938C32.2607 75.0196 32.431 75.4455 32.431 76.0418Z" fill="#DBDFE6"/>
<path d="M20.1652 81.4081V96.0588C19.5689 96.0588 18.9727 95.8885 18.3764 95.5478L9.34745 90.3518C8.41049 89.8408 7.89941 88.9038 7.89941 87.7965V76.0418C7.89941 75.5307 8.06977 75.0196 8.32531 74.5938L20.1652 81.4081Z" fill="#EAEEF9"/>
<path d="M32.0049 74.5086L20.165 81.3229L8.23999 74.4234C8.49553 73.9976 8.83624 73.5717 9.34732 73.3161L18.6318 67.9499C19.4836 67.4388 20.5909 67.4388 21.5279 67.8647L31.0679 73.4013C31.0679 73.4013 31.0679 73.4013 31.1531 73.4013C31.4938 73.8272 31.8345 74.1679 32.0049 74.5086Z" fill="#F3F6FA"/>
<path d="M15.6107 85.2023L15.5255 84.606C15.5255 83.669 14.8441 82.4765 13.9923 81.9655C13.1405 81.5396 12.5442 81.8803 12.5442 82.8173V83.4135H12.459C12.1183 83.2432 11.8628 83.4135 11.8628 83.7542V86.0541C11.8628 86.6503 12.2887 87.4169 12.8849 87.7576L15.3551 89.1205C15.8662 89.4612 16.3773 89.2057 16.3773 88.5242V86.2244C16.2069 85.8837 15.9514 85.3726 15.6107 85.2023ZM14.333 86.9058C14.333 87.0762 14.2478 87.1614 14.1626 87.1614C14.1626 87.1614 14.0774 87.1614 13.9923 87.0762C13.8219 86.991 13.6515 86.7355 13.6515 86.4799V85.7133C13.6515 85.543 13.8219 85.4578 13.9923 85.543C14.1626 85.6282 14.333 85.8837 14.333 86.0541V86.9058ZM14.8441 84.7764L13.1405 83.7542V83.158C13.1405 82.6469 13.5664 82.4765 14.0774 82.7321C14.5885 83.0728 14.9292 83.669 14.9292 84.2653V84.7764H14.8441Z" fill="#1C3754"/>
<path d="M32.0053 12.8394C31.7497 12.4135 31.4942 12.0728 31.0683 11.8173H30.9831L21.5283 6.36583C20.5913 5.85475 19.5691 5.93993 18.6322 6.451L9.34767 11.8173C8.92178 12.0728 8.49588 12.4135 8.24035 12.9246C7.98481 13.3505 7.81445 13.8616 7.81445 14.3726V26.1273C7.81445 27.1495 8.41071 28.1716 9.26249 28.6827L18.2915 33.8786C18.8025 34.2193 19.484 34.3897 20.0802 34.3897C20.6765 34.3897 21.2727 34.2193 21.869 33.8786L30.8979 28.6827C31.8349 28.1716 32.346 27.1495 32.346 26.1273V14.3726C32.4311 13.7764 32.2608 13.2653 32.0053 12.8394Z" stroke="url(#paint6_linear)" stroke-width="2" stroke-miterlimit="10" stroke-linecap="round" stroke-linejoin="round"/>
<path d="M32.4309 14.3725V26.1272C32.4309 27.1493 31.8347 28.1714 30.9829 28.6825L21.9539 33.8784C21.4429 34.2191 20.7614 34.3895 20.1652 34.3895C19.5689 34.3895 18.9727 34.2191 18.3764 33.8784L9.34745 28.6825C8.41049 28.1714 7.89941 27.2345 7.89941 26.1272V14.3725C7.89941 13.8614 8.06977 13.3503 8.32531 12.9244C8.58085 12.4985 8.92156 12.0726 9.43263 11.8171L18.7171 6.45083C19.5689 5.93976 20.6762 5.93976 21.6132 6.36565C21.6132 6.36565 21.6984 6.36565 21.6984 6.45083L31.0681 11.8171C31.0681 11.8171 31.1532 11.8171 31.1532 11.9023C31.1532 11.9023 31.1532 11.9023 31.2384 11.9023C31.6643 12.1578 31.9199 12.4985 32.1754 12.9244C32.2606 13.2651 32.4309 13.7762 32.4309 14.3725Z" fill="#F3F6FA"/>
<path d="M32.4308 14.3724V26.127C32.4308 27.1492 31.8345 28.1713 30.9828 28.6824L21.9538 33.8783C21.4427 34.219 20.7613 34.3894 20.165 34.3894V19.7386L32.0049 12.9243C32.2604 13.265 32.4308 13.7761 32.4308 14.3724Z" fill="#DBDFE6"/>
<path d="M20.1652 19.6532V34.3039C19.5689 34.3039 18.9727 34.1336 18.3764 33.7929L9.34745 28.597C8.41049 28.0859 7.89941 27.1489 7.89941 26.0416V14.2869C7.89941 13.7758 8.06977 13.2648 8.32531 12.8389L20.1652 19.6532Z" fill="#EAEEF9"/>
<path d="M32.0048 12.8392L20.1649 19.6535L8.23987 12.754C8.4954 12.3281 8.83612 11.9022 9.34719 11.6467L18.6317 6.28042C19.4835 5.76935 20.5908 5.76935 21.5278 6.19524L31.0678 11.7319C31.0678 11.7319 31.0678 11.7319 31.153 11.7319C31.4937 12.1578 31.8344 12.4985 32.0048 12.8392Z" fill="#F3F6FA"/>
<path d="M15.611 23.5328L15.5258 22.9366C15.5258 21.9996 14.8444 20.8071 13.9926 20.296C13.1408 19.8701 12.5446 20.2109 12.5446 21.1478V21.7441H12.4594C12.1187 21.5737 11.8632 21.7441 11.8632 22.0848V24.3846C11.8632 24.9809 12.2891 25.7475 12.8853 26.0882L15.3555 27.4511C15.8666 27.7918 16.3776 27.5362 16.3776 26.8548V24.555C16.2073 24.2143 15.9517 23.7032 15.611 23.5328ZM14.3333 25.2364C14.3333 25.4068 14.2482 25.4919 14.163 25.4919C14.163 25.4919 14.0778 25.4919 13.9926 25.4068C13.8223 25.3216 13.6519 25.0661 13.6519 24.8105V24.0439C13.6519 23.8735 13.8223 23.7884 13.9926 23.8735C14.163 23.9587 14.3333 24.2143 14.3333 24.3846V25.2364ZM14.8444 23.1069L13.1408 22.0848V21.4885C13.1408 20.9775 13.5667 20.8071 14.0778 21.0626C14.5889 21.4034 14.9296 21.9996 14.9296 22.5959V23.1069H14.8444Z" fill="#1C3754"/>
<path d="M62.8397 43.6741C62.5842 43.2482 62.3287 42.9075 61.9028 42.652H61.8176L52.2775 37.1153C51.3406 36.6043 50.3184 36.6894 49.3815 37.2005L40.1821 42.5668C39.7563 42.8223 39.3304 43.163 39.0748 43.6741C38.8193 44.1 38.6489 44.6111 38.6489 45.1222V56.8768C38.6489 57.899 39.2452 58.9211 40.097 59.4322L49.1259 64.6281C49.637 64.9688 50.3184 65.1392 50.9147 65.1392C51.5109 65.1392 52.1072 64.9688 52.7034 64.6281L61.7324 59.4322C62.6694 58.9211 63.1804 57.899 63.1804 56.8768V45.2073C63.2656 44.6111 63.0953 44.1 62.8397 43.6741Z" stroke="url(#paint7_linear)" stroke-width="2" stroke-miterlimit="10" stroke-linecap="round" stroke-linejoin="round"/>
<path d="M63.2654 45.2076V56.9623C63.2654 57.9845 62.6692 59.0066 61.8174 59.5177L52.7884 64.7136C52.2773 65.0543 51.5959 65.2247 50.9996 65.2247C50.4034 65.2247 49.8071 65.0543 49.2109 64.7136L40.1819 59.4325C39.245 58.9214 38.7339 57.9845 38.7339 56.8771V45.1225C38.7339 44.6114 38.9042 44.1003 39.1598 43.6744C39.4153 43.2485 39.756 42.8226 40.2671 42.5671L49.5516 37.2008C50.4034 36.6898 51.5107 36.6898 52.4477 37.1157C52.4477 37.1157 52.5329 37.1157 52.5329 37.2008L61.9025 42.5671C61.9025 42.5671 61.9877 42.5671 61.9877 42.6523C61.9877 42.6523 61.9877 42.6523 62.0729 42.6523C62.4988 42.9078 62.7543 43.2485 63.0099 43.6744C63.095 44.1003 63.2654 44.6114 63.2654 45.2076Z" fill="#F3F6FA"/>
<path d="M63.2655 45.2073V56.962C63.2655 57.9841 62.6693 59.0063 61.8175 59.5174L52.7885 64.7133C52.2774 65.054 51.596 65.2244 50.9998 65.2244V50.5736L62.8396 43.7593C63.0952 44.1 63.2655 44.6111 63.2655 45.2073Z" fill="#DBDFE6"/>
<path d="M50.9996 50.5733V65.2241C50.4034 65.2241 49.8071 65.0537 49.2109 64.713L40.1819 59.4319C39.245 58.9208 38.7339 57.9839 38.7339 56.8766V45.1219C38.7339 44.6108 38.9042 44.0997 39.1598 43.6738L50.9996 50.5733Z" fill="#EAEEF9"/>
<path d="M62.8395 43.6742L50.9996 50.4885L39.0746 43.589C39.3301 43.1631 39.6708 42.7372 40.1819 42.4817L49.4664 37.1154C50.3182 36.6043 51.4255 36.6043 52.3625 37.0302L61.9025 42.5668C61.9025 42.5668 61.9025 42.5668 61.9877 42.5668C62.3284 42.9927 62.6691 43.3334 62.8395 43.6742Z" fill="#F3F6FA"/>
<path d="M46.4456 54.3678L46.3604 53.7715C46.3604 52.8346 45.679 51.6421 44.8272 51.131C43.9754 50.7051 43.3792 51.0458 43.3792 51.9828V52.579L43.294 52.4939C42.9533 52.3235 42.6978 52.4939 42.6978 52.8346V55.1344C42.6978 55.7307 43.1236 56.4973 43.7199 56.838L46.1901 58.2008C46.7012 58.5416 47.2122 58.286 47.2122 57.6046V55.3048C47.0419 55.0492 46.7863 54.5381 46.4456 54.3678ZM45.1679 56.0714C45.1679 56.2417 45.0828 56.3269 44.9976 56.3269C44.9976 56.3269 44.9124 56.3269 44.8272 56.2417C44.6569 56.1565 44.4865 55.901 44.4865 55.6455V54.8789C44.4865 54.7085 44.6569 54.6233 44.8272 54.7085C44.9976 54.7937 45.1679 55.0492 45.1679 55.2196V56.0714ZM45.7642 53.9419L44.0606 52.9197V52.3235C44.0606 51.8124 44.4865 51.6421 44.9976 51.8976C45.5087 52.2383 45.8494 52.8346 45.8494 53.4308V53.9419H45.7642Z" fill="#1C3754"/>
<path d="M59.7735 19.4837H42.0563C41.46 19.4837 40.949 18.9726 40.949 18.3764C40.949 17.7801 41.46 17.269 42.0563 17.269H59.7735C60.3698 17.269 60.8808 17.7801 60.8808 18.3764C60.8808 18.9726 60.3698 19.4837 59.7735 19.4837Z" fill="url(#paint8_linear)"/>
<path d="M59.7735 83.7088H42.0563C41.46 83.7088 40.949 83.1977 40.949 82.6015C40.949 82.0052 41.46 81.4941 42.0563 81.4941H59.7735C60.3698 81.4941 60.8808 82.0052 60.8808 82.6015C60.8808 83.1977 60.3698 83.7088 59.7735 83.7088Z" fill="url(#paint9_linear)"/>
<path d="M82.942 60.4548C82.3458 60.4548 81.8347 59.9437 81.8347 59.3475V41.6303C81.8347 41.034 82.3458 40.5229 82.942 40.5229C83.5383 40.5229 84.0494 41.034 84.0494 41.6303V59.3475C84.0494 59.9437 83.5383 60.4548 82.942 60.4548Z" fill="url(#paint10_linear)"/>
<path d="M18.8023 60.4548C18.206 60.4548 17.6949 59.9437 17.6949 59.3475V41.6303C17.6949 41.034 18.206 40.5229 18.8023 40.5229C19.3985 40.5229 19.9096 41.034 19.9096 41.6303V59.3475C19.9096 59.9437 19.3985 60.4548 18.8023 60.4548Z" fill="url(#paint11_linear)"/>
<path d="M37.2863 39.501C37.0308 39.501 36.7752 39.4158 36.5197 39.1603L31.6645 34.3902C31.2386 33.9643 31.2386 33.2829 31.6645 32.857C32.0904 32.4311 32.7718 32.4311 33.1977 32.857L38.0529 37.7122C38.4788 38.1381 38.4788 38.8195 38.0529 39.2454C37.7974 39.4158 37.5419 39.501 37.2863 39.501Z" fill="url(#paint12_linear)"/>
<path d="M68.5468 70.7614C68.2913 70.7614 68.0357 70.6763 67.7802 70.4207L62.925 65.5655C62.4991 65.1396 62.4991 64.4582 62.925 64.0323C63.3509 63.6064 64.0323 63.6064 64.4582 64.0323L69.3134 68.8875C69.7393 69.3134 69.7393 69.9948 69.3134 70.4207C69.0579 70.6763 68.8024 70.7614 68.5468 70.7614Z" fill="url(#paint13_linear)"/>
<path d="M32.4311 70.7614C32.1756 70.7614 31.9201 70.6763 31.6645 70.4207C31.2386 69.9948 31.2386 69.3134 31.6645 68.8875L36.5197 64.0323C36.9456 63.6064 37.627 63.6064 38.0529 64.0323C38.4788 64.4582 38.4788 65.1396 38.0529 65.5655L33.1977 70.4207C32.9422 70.6763 32.6867 70.7614 32.4311 70.7614Z" fill="url(#paint14_linear)"/>
<path d="M63.6916 39.5012C63.4361 39.5012 63.1805 39.416 62.925 39.1605C62.4991 38.7346 62.4991 38.0531 62.925 37.6273L67.7802 32.7721C68.2061 32.3462 68.8875 32.3462 69.3134 32.7721C69.7393 33.198 69.7393 33.8794 69.3134 34.3053L64.4582 39.1605C64.2027 39.416 63.9472 39.5012 63.6916 39.5012Z" fill="url(#paint15_linear)"/>
<defs>
<linearGradient id="paint0_linear" x1="63.1006" y1="6.14455" x2="65.7447" y2="6.14455" gradientUnits="userSpaceOnUse">
<stop offset="0.00289017" stop-color="#FFD44F"/>
<stop offset="1" stop-color="#FFA607"/>
</linearGradient>
<linearGradient id="paint1_linear" x1="4.07382" y1="56.8485" x2="6.71794" y2="56.8485" gradientUnits="userSpaceOnUse">
<stop offset="0.00289017" stop-color="#FFD44F"/>
<stop offset="1" stop-color="#FFA607"/>
</linearGradient>
<linearGradient id="paint2_linear" x1="11.8342" y1="89.2294" x2="14.4784" y2="89.2294" gradientUnits="userSpaceOnUse">
<stop offset="0.00289017" stop-color="#FFD44F"/>
<stop offset="1" stop-color="#FFA607"/>
</linearGradient>
<linearGradient id="paint3_linear" x1="68.7046" y1="21.458" x2="94.9574" y2="21.458" gradientUnits="userSpaceOnUse">
<stop stop-color="#51DFD4"/>
<stop offset="1" stop-color="#1BE068"/>
</linearGradient>
<linearGradient id="paint4_linear" x1="68.7046" y1="81.8301" x2="94.9574" y2="81.8301" gradientUnits="userSpaceOnUse">
<stop stop-color="#51DFD4"/>
<stop offset="1" stop-color="#1BE068"/>
</linearGradient>
<linearGradient id="paint5_linear" x1="7.02208" y1="81.8301" x2="33.2749" y2="81.8301" gradientUnits="userSpaceOnUse">
<stop stop-color="#51DFD4"/>
<stop offset="1" stop-color="#1BE068"/>
</linearGradient>
<linearGradient id="paint6_linear" x1="7.0222" y1="20.148" x2="33.275" y2="20.148" gradientUnits="userSpaceOnUse">
<stop stop-color="#51DFD4"/>
<stop offset="1" stop-color="#1BE068"/>
</linearGradient>
<linearGradient id="paint7_linear" x1="37.8632" y1="50.9892" x2="64.116" y2="50.9892" gradientUnits="userSpaceOnUse">
<stop stop-color="#51DFD4"/>
<stop offset="1" stop-color="#1BE068"/>
</linearGradient>
<linearGradient id="paint8_linear" x1="40.9553" y1="18.4481" x2="60.8142" y2="18.4481" gradientUnits="userSpaceOnUse">
<stop stop-color="#51DFD4"/>
<stop offset="1" stop-color="#1BE068"/>
</linearGradient>
<linearGradient id="paint9_linear" x1="40.9553" y1="82.6079" x2="60.8142" y2="82.6079" gradientUnits="userSpaceOnUse">
<stop stop-color="#51DFD4"/>
<stop offset="1" stop-color="#1BE068"/>
</linearGradient>
<linearGradient id="paint10_linear" x1="82.9648" y1="40.5984" x2="82.9648" y2="60.4574" gradientUnits="userSpaceOnUse">
<stop stop-color="#51DFD4"/>
<stop offset="1" stop-color="#1BE068"/>
</linearGradient>
<linearGradient id="paint11_linear" x1="18.8053" y1="40.5984" x2="18.8053" y2="60.4574" gradientUnits="userSpaceOnUse">
<stop stop-color="#51DFD4"/>
<stop offset="1" stop-color="#1BE068"/>
</linearGradient>
<linearGradient id="paint12_linear" x1="31.3586" y1="36.0437" x2="38.3492" y2="36.0437" gradientUnits="userSpaceOnUse">
<stop stop-color="#51DFD4"/>
<stop offset="1" stop-color="#1BE068"/>
</linearGradient>
<linearGradient id="paint13_linear" x1="62.6175" y1="67.3025" x2="69.6082" y2="67.3025" gradientUnits="userSpaceOnUse">
<stop stop-color="#51DFD4"/>
<stop offset="1" stop-color="#1BE068"/>
</linearGradient>
<linearGradient id="paint14_linear" x1="34.8539" y1="70.7978" x2="34.8539" y2="63.8071" gradientUnits="userSpaceOnUse">
<stop stop-color="#51DFD4"/>
<stop offset="1" stop-color="#1BE068"/>
</linearGradient>
<linearGradient id="paint15_linear" x1="66.1129" y1="39.539" x2="66.1129" y2="32.5488" gradientUnits="userSpaceOnUse">
<stop stop-color="#51DFD4"/>
<stop offset="1" stop-color="#1BE068"/>
</linearGradient>
</defs>
</svg>
