<svg width="148" height="100" viewBox="0 0 148 100" fill="none" xmlns="http://www.w3.org/2000/svg"><path d="M76.508 100c23.908 0 43.288-19.4 43.288-43.33 0-23.931-19.38-43.33-43.288-43.33-23.907 0-43.287 19.399-43.287 43.33C33.22 80.6 52.6 100 76.508 100z" fill="#EAEEF9"/><path d="M48.34 17.322a2.18 2.18 0 0 0-1.346-4.146 2.18 2.18 0 0 0 1.346 4.146z" fill="#E2EBFF"/><path d="M81.156 9.514a1.482 1.482 0 0 0-.915-2.82 1.482 1.482 0 0 0 .915 2.82z" fill="#35E09D"/><path d="M46.982 99.871a1.481 1.481 0 1 0-.002-2.962 1.481 1.481 0 0 0 .002 2.962zM124.569 35.12a3.316 3.316 0 0 0 .21-4.681 3.307 3.307 0 0 0-4.676-.21 3.316 3.316 0 0 0-.21 4.68 3.307 3.307 0 0 0 4.676.21zM124.754 20.326a1.393 1.393 0 1 0-1.88-2.06 1.396 1.396 0 0 0-.089 1.971c.52.569 1.401.609 1.969.089z" fill="#EAEEF9"/><path d="M75.936 77.227V30.875" stroke="url(#paint0_linear_8592_129417)" stroke-width="2" stroke-miterlimit="10" stroke-linecap="round" stroke-linejoin="round" stroke-dasharray="0.5 4"/><path d="M81.543 33.1v6.138a7.367 7.367 0 0 0 7.387 7.385h32.84a7.367 7.367 0 0 1 7.387 7.384v17.882" stroke="url(#paint1_linear_8592_129417)" stroke-width="2" stroke-miterlimit="10" stroke-linecap="round" stroke-linejoin="round" stroke-dasharray="0.5 4"/><path d="M70.241 33.1v6.138a7.367 7.367 0 0 1-7.387 7.385h-32.84a7.367 7.367 0 0 0-7.387 7.384v17.882" stroke="url(#paint2_linear_8592_129417)" stroke-width="2" stroke-miterlimit="10" stroke-linecap="round" stroke-linejoin="round" stroke-dasharray="0.5 4"/><path fill-rule="evenodd" clip-rule="evenodd" d="M32.15 87.014V70.29c0-.623-.446-1.068-1.069-1.068H7.051c-.622 0-1.067.534-1.067 1.068v16.725c0 .623.534 1.068 1.068 1.068h8.544v1.69h-.267c-.712 0-1.246.534-1.246 1.246h10.235c0-.712-.534-1.246-1.246-1.246h-.267v-1.69h8.276c.623 0 1.068-.534 1.068-1.067z" fill="#BFD0E0"/><path d="M30.636 83.1v2.758H7.675V70.644h22.961v9.608" fill="#fff"/><path d="M43.186 91.017h-8.722a1.216 1.216 0 0 1-1.246-1.245v-20.73c0-.711.534-1.245 1.246-1.245h8.722c.712 0 1.245.534 1.245 1.245v20.73c.09.623-.533 1.245-1.245 1.245z" fill="#1F3C5C"/><path d="M42.117 70.823H35.53c-.267 0-.534-.267-.534-.534s.267-.534.534-.534h6.586c.267 0 .534.267.534.534s-.267.534-.534.534zM42.117 73.491H35.53c-.267 0-.534-.267-.534-.534s.267-.534.534-.534h6.586c.267 0 .534.267.534.534s-.267.534-.534.534zM40.07 86.747h-2.402c-.267 0-.534-.267-.534-.534s.267-.534.534-.534h2.403c.267 0 .534.267.534.534 0 .356-.267.534-.534.534zM38.824 84.434a1.513 1.513 0 1 0 0-3.026 1.513 1.513 0 0 0 0 3.026z" fill="#BFD0E0"/><path d="M19.114 88.885c-.445 0-.801-.267-.98-.623l-.978-1.69a1.503 1.503 0 0 1-.267-.89v-5.516c-1.691-.8-2.759-2.491-2.848-4.448v-.09c0-2.135 1.335-4.003 3.382-4.715a5.184 5.184 0 0 1 1.69-.266c2.137 0 4.006 1.334 4.718 3.38.89 2.402-.267 5.071-2.492 6.14-.09.355-.178.622-.445.978l-.09.089.179.178c.089.089.178.177.178.266.178.267.178.534.178.801l-.267.534c0 .089 0 .089-.09.089v.089c.179.267.357.534.357.89v.355c0 .356-.09.623-.356.89.178.267.267.534.267.89v.178c0 .445-.178.89-.534 1.245l-.98.89-.177.178c0 .089-.178.178-.445.178zm.089-15.303c-.09 0-.09.09 0 0-.09.09-.09.178 0 .178 0 0 .089 0 0-.178.089.09 0 0 0 0z" fill="url(#paint3_linear_8592_129417)"/><path d="M19.202 71.535c1.691 0 3.293 1.068 3.916 2.758.8 2.136-.356 4.538-2.492 5.25v.177c0 .356-.089.623-.267.89l-.445.623a.27.27 0 0 0 0 .356l.623.534c.089.089 0 .178-.089.266l-.178.09v.088c0 .178-.089.267-.178.356a.27.27 0 0 0 0 .356l.445.445c.089.089.089.178.089.267v.356c0 .089-.089.267-.178.356l-.356.267c-.089.089-.089.177 0 .267l.356.444c.089.09.089.178.089.267v.356a.808.808 0 0 1-.267.623l-.979.89h-.178c-.089 0-.178-.09-.267-.178l-.089-.178-.89-1.513c-.089-.089-.089-.267-.089-.445v-6.138c-1.69-.534-2.759-2.136-2.759-3.915 0-1.78 1.068-3.292 2.759-3.915.445.09.89 0 1.424 0zm0 3.114a.987.987 0 0 0 .979-.978.988.988 0 0 0-.979-.979.988.988 0 0 0-.979.979c0 .533.445.978.979.978zm0-4.893c-.712 0-1.335.09-1.958.356-2.403.8-3.916 3.114-3.916 5.605v.089c0 2.046 1.157 3.915 2.848 4.893v4.982c0 .445.09.89.356 1.335l.89 1.512.089.178c.356.623 1.068 1.068 1.78 1.068.356 0 .712-.09.979-.267 0 0 .089 0 .089-.089.089-.089.178-.178.267-.178l.979-.89c.534-.533.8-1.245.8-1.868v-.356c0-.267-.088-.623-.177-.89.089-.266.178-.533.178-.89v-.355c0-.356-.09-.623-.178-.979.267-.623.267-1.334-.09-1.957.09-.089.09-.178.179-.356a5.938 5.938 0 0 0 2.58-7.117c-.978-2.224-3.203-3.826-5.695-3.826z" fill="#fff"/><path d="M143.129 74.025c0 4.36-1.69 8.274-4.538 11.21-.267.266-.445.533-.712.711-2.937 2.67-6.764 4.36-11.036 4.36-3.471 0-6.675-1.068-9.256-2.936a14.158 14.158 0 0 1-2.136-1.78c-3.026-2.935-4.895-7.028-4.895-11.654 0-8.986 7.298-16.281 16.287-16.281 8.9.089 16.286 7.384 16.286 16.37z" fill="#E9F0F8"/><path d="M143.129 74.025c0 4.715-2.046 8.985-5.25 11.921-2.937 2.67-6.764 4.36-11.036 4.36-3.471 0-6.675-1.068-9.256-2.936-4.272-2.936-7.031-7.83-7.031-13.434 0-8.986 7.298-16.281 16.287-16.281 8.989 0 16.286 7.384 16.286 16.37z" fill="#D8E2EB"/><path d="M138.591 85.234c-.267.267-.445.534-.712.712-2.937 2.67-6.764 4.36-11.036 4.36-3.471 0-6.675-1.068-9.256-2.936a14.159 14.159 0 0 1-2.136-1.78c.356-.445.979-.8 2.225-1.334l.534-.178c.979-.356 2.314-.89 4.094-1.602.267-.089.534-.267.623-.534.089-.088.178-.266.178-.355.089-.178.178-.445.178-.712v-3.292l-.178-.178a3.93 3.93 0 0 1-.534-1.423l-.267-.178c-.801.178-.801-.712-.979-2.402-.089-.712 0-.89.356-.979l.267-.356c-.623-1.423-.89-2.58-.89-3.648 0-1.601.712-2.669 1.691-3.202-.534-1.157-.534-1.602-.534-1.602s3.471.534 4.628.356c1.513-.267 3.827.089 4.628 2.046 1.424.534 1.958 1.424 2.136 2.402.178 1.513-.712 3.292-.801 3.915v.089c.267.089.267.267.178.89-.178 1.69-.178 2.669-.979 2.402l-.712 1.334c0 .178 0 .178-.089.267v3.47c0 .356.089.623.267.89.089.089.089.178.178.178.178.177.356.355.623.444 1.958.801 3.382 1.335 4.361 1.78.89.623 1.513.89 1.958 1.156z" fill="#fff"/><path d="M138.591 85.234c-.267.267-.445.534-.712.712-2.937 2.67-6.764 4.36-11.036 4.36-3.471 0-6.674-1.068-9.255-2.936a14.158 14.158 0 0 1-2.136-1.78c.356-.444.979-.8 2.225-1.334l.534-.178c.979-.356 2.314-.89 4.094-1.602.267-.088.533-.266.622-.533a5.435 5.435 0 0 0 4.361 2.224c1.78 0 3.293-.89 4.272-2.135.178.178.356.356.623.445 1.958.8 3.382 1.334 4.361 1.779.979.445 1.602.712 2.047.978z" fill="url(#paint4_linear_8592_129417)"/><path d="M132.629 72.423c.089-.445-.089-.89-.267-1.335 0-.088-.089-.088-.089-.177-.623-1.335-2.136-1.869-3.471-1.958-3.56-.178-3.916.534-4.984-.534.356.534.356 1.335-.178 2.403-.356.711-1.068 1.067-1.691 1.245-1.602-3.648-.801-5.96.801-6.85-.534-1.157-.534-1.602-.534-1.602s3.471.534 4.628.356c1.513-.267 3.827.089 4.628 2.046 1.424.534 1.958 1.424 2.136 2.402.089 1.602-.801 3.292-.979 4.004z" fill="#1C3754"/><path d="M123.284 80.964v-3.292l-.178-.178v-.178c.178.267.445.534.712.801l2.581 1.78a1.625 1.625 0 0 0 2.136 0l2.403-2.136.267-.267v3.47c0 .178 0 .356.089.445h-8.01c-.089-.178 0-.267 0-.445z" fill="url(#paint5_linear_8592_129417)"/><path d="M143.129 74.025c0 4.715-2.046 8.985-5.25 11.921-2.937 2.67-6.764 4.36-11.036 4.36-3.471 0-6.675-1.068-9.256-2.936-4.272-2.936-7.031-7.83-7.031-13.434 0-8.986 7.298-16.281 16.287-16.281 8.989 0 16.286 7.384 16.286 16.37z" stroke="#fff" stroke-width="1.935" stroke-miterlimit="10" stroke-linecap="round" stroke-linejoin="round"/><path d="M139.617 91.553c-.445 0-.801-.267-1.068-.623l-1.068-1.957a1.716 1.716 0 0 1-.267-.89v-6.316c-1.869-.89-3.115-2.847-3.204-4.982v-.09c0-2.313 1.513-4.448 3.738-5.248.623-.178 1.246-.356 1.869-.356 2.314 0 4.45 1.512 5.251 3.736.979 2.67-.356 5.605-2.848 6.85-.089.357-.267.802-.445 1.069l-.178.178.267.266c.089.09.178.178.178.267.267.445.178.979-.178 1.335 0 .089-.089.178-.089.267l.089.089c.178.267.356.622.356.89v.444c0 .356-.178.712-.356.979l.089.089c.178.267.356.534.356.89v.355c0 .534-.178.979-.534 1.335l-1.068.979s-.178.089-.178.177c-.356.267-.534.267-.712.267zm0-17.17c-.089 0-.089 0-.178.089 0 0-.089.089-.089.178 0 .088.089.177.178.177s.089 0 .178-.089c.089-.088.089-.088.089-.177a.191.191 0 0 0-.178-.178z" fill="url(#paint6_linear_8592_129417)"/><path d="M139.617 72.158c1.958 0 3.738 1.157 4.361 3.114.89 2.402-.445 5.071-2.848 5.96v.179c0 .356-.089.712-.356.978l-.534.712a.27.27 0 0 0 0 .356l.712.623c.089.089 0 .178-.089.267l-.178.089v.089a.49.49 0 0 1-.267.444.27.27 0 0 0 0 .356l.445.534c.089.09.089.178.089.356v.445c0 .178-.089.267-.178.356l-.356.356a.27.27 0 0 0 0 .356l.445.533c.089.09.089.178.089.356v.356c0 .267-.089.534-.267.712l-1.068.978h-.267c-.089 0-.178-.088-.267-.177l-.089-.267-.979-1.69c-.089-.179-.089-.268-.089-.446v-6.94c-1.869-.622-3.115-2.401-3.115-4.359 0-1.957 1.246-3.736 3.115-4.359.623-.178 1.157-.267 1.691-.267zm0 3.559c.623 0 1.068-.534 1.068-1.068 0-.623-.534-1.067-1.068-1.067-.623 0-1.068.534-1.068 1.067 0 .534.445 1.068 1.068 1.068zm0-5.338c-.712 0-1.424.089-2.136.356-2.581.89-4.272 3.38-4.272 6.05v.089a6.143 6.143 0 0 0 3.204 5.427v5.782c0 .445.089.979.356 1.335l.979 1.69.089.267c.356.623 1.068 1.068 1.78 1.068a2.37 2.37 0 0 0 1.068-.267h.089l.267-.267 1.068-1.068c.534-.533.89-1.245.89-1.957v-.356c0-.356-.089-.712-.178-.978.178-.267.178-.623.178-.98v-.444c0-.356-.089-.712-.267-1.068a1.897 1.897 0 0 0-.089-2.046l-.089-.089.267-.534c2.67-1.512 4.005-4.804 2.937-7.74-.979-2.58-3.382-4.27-6.141-4.27z" fill="#fff"/><path d="M95.338 83.545c0 2.046-.89 3.915-2.314 5.25a7.039 7.039 0 0 1-4.806 1.867H64.544c-4.806.178-8.455-3.647-8.455-8.185 0-4.626 3.738-8.363 8.544-8.185h.09c.444-1.245.978-2.402 1.601-3.38.09-.09.178-.178.178-.267l.09-.09c1.334-1.868 3.114-3.113 5.072-3.914.089-.089.267-.089.445-.178.089 0 .089 0 .178-.089h.178c2.848-.978 5.963-.89 8.81.178.09 0 .09 0 .179.09.089 0 .178.088.267.088 3.827 1.513 6.942 4.982 7.565 10.053 3.382.178 6.052 3.114 6.052 6.762z" fill="url(#paint7_linear_8592_129417)"/><path d="M88.218 90.662a7.119 7.119 0 1 0 0-14.235 7.119 7.119 0 1 0 0 14.235z" fill="url(#paint8_linear_8592_129417)"/><path d="M76.56 90.662c6.979 0 12.637-5.656 12.637-12.633 0-6.978-5.658-12.634-12.638-12.634-6.98 0-12.638 5.656-12.638 12.634 0 6.977 5.658 12.633 12.638 12.633z" fill="url(#paint9_linear_8592_129417)"/><path d="M93.07 88.766a7.039 7.039 0 0 1-4.805 1.868h-8.722l-.09-.088-.177-.178-2.759-3.737-.801-3.737.801-5.07-3.56-1.602 5.162-.09 1.869-3.38 8.099 10.41 4.984 5.604z" fill="url(#paint10_linear_8592_129417)"/><path d="M75.895 73.137c0-.534.445-.89.89-.89.534 0 .89.445.89.89 0 .534-.445.89-.89.89a.892.892 0 0 1-.89-.89zm-3.026 1.868c0 1.69 1.068 3.203 2.67 3.737v5.872c0 .178 0 .267.089.444l.8 1.424.09.178c.089.089.267.178.356.089h.089l.89-.89a.807.807 0 0 0 .267-.622v-.356c0-.09 0-.178-.09-.267l-.356-.445c-.089-.09-.089-.178 0-.267l.356-.356c.09-.089.09-.178.09-.267v-.356c0-.089 0-.178-.09-.267l-.356-.444c-.089-.09-.089-.267 0-.267.09-.09.178-.178.178-.356v-.09l.178-.088c.09-.09.09-.178.09-.178l-.623-.534c-.09-.089-.09-.178 0-.267l.445-.623c.178-.266.267-.533.267-.8v-.178c2.046-.712 3.114-2.936 2.403-5.071-.712-2.047-2.937-3.114-5.073-2.403-1.691.445-2.67 1.958-2.67 3.648z" fill="url(#paint11_linear_8592_129417)"/><path d="M75.937 35.413c9.781 0 17.71-7.926 17.71-17.704S85.718.004 75.937.004c-9.782 0-17.71 7.927-17.71 17.705 0 9.778 7.928 17.704 17.71 17.704z" fill="#BFD0E0"/><path d="M92.045 17.709c0 6.672-4.005 12.366-9.79 14.857-1.957.801-4.093 1.335-6.318 1.335-2.225 0-4.361-.445-6.32-1.335-5.784-2.49-9.789-8.185-9.789-14.857-.089-6.673 4.005-12.367 9.7-14.769 1.959-.8 4.095-1.334 6.32-1.334 2.225 0 4.36.445 6.319 1.334 5.784 2.402 9.878 8.096 9.878 14.769z" fill="#D8E2EB"/><path d="M81.099 34.79c-.178 0-.356-.088-.534-.177-.356-.267-.445-.801-.178-1.246.356-.534.8-.979 1.246-1.423 3.115-3.114 4.984-8.452 4.984-14.235 0-5.783-1.87-11.032-4.984-14.235-.356-.356-.712-.712-1.068-1.157-.267-.356-.267-.978.178-1.245.356-.267.89-.178 1.246.178.267.356.534.711.89.978 3.382 3.47 5.428 9.253 5.428 15.48 0 6.228-2.046 12.011-5.428 15.481-.356.356-.712.8-1.068 1.246-.178.178-.445.355-.712.355zM70.33 34.257c-.268 0-.535-.09-.713-.356-.267-.267-.445-.534-.712-.8-3.382-3.47-5.428-9.253-5.428-15.481s2.047-12.01 5.429-15.48c.266-.268.444-.534.711-.801.267-.356.89-.445 1.246-.09.356.268.445.89.09 1.246-.268.267-.535.623-.802.89-3.114 3.114-4.983 8.452-4.983 14.235 0 5.783 1.868 11.032 4.983 14.235.267.266.534.622.801.89a.952.952 0 0 1-.089 1.245c-.089.267-.356.267-.534.267zM75.936 35.324a.892.892 0 0 1-.89-.89V.982c0-.445.356-.89.89-.89s.89.356.89.89v33.452c0 .534-.445.89-.89.89z" fill="#BFD0E0"/><path d="M90.8 12.46H60.986a.892.892 0 0 1-.89-.89c0-.534.356-.89.89-.89H90.8c.445 0 .89.356.89.89s-.356.89-.89.89zM90.8 24.738H60.986a.892.892 0 0 1-.89-.89c0-.445.356-.89.89-.89H90.8c.445 0 .89.356.89.89s-.356.89-.89.89z" fill="#BFD0E0"/><path d="M64.812 21.445a2.393 2.393 0 0 1-2.403-2.402 2.393 2.393 0 0 1 2.403-2.402 2.393 2.393 0 0 1 2.403 2.402 2.393 2.393 0 0 1-2.403 2.402z" fill="url(#paint12_linear_8592_129417)"/><path d="M80.03 9.79a2.392 2.392 0 0 1-2.403-2.402 2.392 2.392 0 0 1 2.403-2.402 2.393 2.393 0 0 1 2.403 2.402A2.393 2.393 0 0 1 80.03 9.79z" fill="url(#paint13_linear_8592_129417)"/><path d="M82.878 28.563a2.393 2.393 0 0 1-2.403-2.402 2.393 2.393 0 0 1 2.403-2.403 2.393 2.393 0 0 1 2.403 2.402 2.393 2.393 0 0 1-2.403 2.403z" fill="url(#paint14_linear_8592_129417)"/><path d="M79.941 34.256c-.089 0-.178 0-.267-.089-.178-.089-.267-.356-.089-.623.178-.177.267-.444.445-.622.09-.178.356-.267.534-.09.178.09.267.357.09.535-.179.266-.268.444-.446.622-.089.178-.178.267-.267.267zm1.246-2.313h-.178a.428.428 0 0 1-.178-.534c.09-.178.178-.445.267-.711.09-.178.356-.356.534-.178.178.088.356.355.178.533a2.663 2.663 0 0 1-.356.712c.09.09-.089.178-.267.178zm.98-2.491h-.09c-.178-.089-.356-.267-.267-.534.09-.267.178-.445.178-.712.09-.177.267-.355.534-.267.178.09.356.267.267.534-.089.267-.178.534-.178.712a.49.49 0 0 1-.445.267zM83.234 23.58c-.267 0-.445-.178-.445-.445v-.712c0-.267.178-.445.445-.356.267 0 .445.178.356.445v.801c.089.089-.09.267-.356.267zm.089-2.67c-.267 0-.445-.177-.445-.444v-.712c0-.267.178-.445.356-.445.267 0 .445.178.445.356v.801c.089.267-.09.445-.356.445zm-.178-2.668c-.178 0-.356-.178-.445-.356 0-.267-.09-.534-.09-.712 0-.267.09-.445.357-.445s.445.09.445.356c0 .267.089.534.089.8.089.179-.09.357-.356.357.089 0 0 0 0 0zm-.356-2.58c-.178 0-.356-.178-.445-.356-.09-.267-.09-.534-.178-.712-.09-.267.089-.445.356-.534.267-.089.445.09.534.356.089.267.089.534.178.712 0 .267-.178.445-.445.534zm-.623-2.58a.49.49 0 0 1-.445-.267c-.09-.267-.178-.445-.178-.712-.09-.178.089-.445.267-.534.178-.089.445.09.534.267.089.267.178.445.178.712.089.178-.09.445-.267.534h-.09zm-.801-2.491c-.178 0-.356-.09-.356-.267-.09-.267-.178-.445-.267-.712-.09-.178 0-.445.267-.534.178-.089.445 0 .534.267.089.267.178.445.267.712.089.178 0 .445-.267.534-.09-.09-.178 0-.178 0zM78.428 5.075c-.089 0-.267-.09-.356-.178-.178-.178-.267-.445-.445-.623-.089-.089-.089-.356.178-.534.178-.178.445-.089.623.09.178.177.267.444.445.622a.548.548 0 0 1-.089.623h-.356zm-1.602-2.046c-.089 0-.178 0-.267-.09l-.534-.533c-.267-.178-.267-.445-.089-.623a.43.43 0 0 1 .623 0l.534.534a.43.43 0 0 1 0 .623c-.089.089-.178.089-.267.089zm-2.046-1.78c-.09 0-.178 0-.267-.089-.178-.089-.357-.267-.535-.356-.177-.089-.266-.356-.088-.533.088-.267.356-.356.534-.178.177.178.444.266.622.444s.267.356.09.623c-.09.09-.178.09-.356.09zM63.21 17.708c-.09 0-.178 0-.267-.089l-.535-.534a.43.43 0 0 1 0-.622.43.43 0 0 1 .623 0l.535.533a.43.43 0 0 1 0 .623c-.178.09-.268.09-.357.09zm-1.691-1.957c-.09 0-.267-.09-.356-.178-.178-.178-.267-.445-.445-.623a.548.548 0 0 1 .088-.623.548.548 0 0 1 .623.09c.178.177.267.444.445.622s.09.445-.089.623c-.088 0-.177.089-.266.089zm-1.424-2.313c-.178 0-.267-.09-.356-.267-.09-.267-.267-.445-.356-.712a.428.428 0 0 1 .178-.534.428.428 0 0 1 .534.178c.089.178.178.445.356.623a.428.428 0 0 1-.178.534c0 .178-.09.178-.178.178zM80.654 26.249s-.09 0 0 0c-.267 0-.534-.089-.801-.089s-.356-.267-.356-.445c0-.267.267-.356.445-.356.267 0 .534.09.712.09.267 0 .356.266.356.444a.383.383 0 0 1-.356.356zm-2.67-.445h-.09c-.266-.089-.533-.089-.711-.178-.267-.089-.356-.267-.267-.534.089-.266.267-.355.534-.266.267.088.445.088.712.177.267.09.356.267.356.534-.178.09-.356.267-.534.267zm-2.492-.712h-.09c-.266-.089-.444-.177-.711-.266-.178-.09-.356-.356-.267-.534.089-.178.356-.356.534-.267.267.089.445.178.712.267.178.089.356.267.267.534-.178.177-.267.266-.445.266zm-2.581-.89h-.178c-.267-.088-.445-.177-.712-.266a.428.428 0 0 1-.178-.534c.089-.178.356-.267.534-.178.267.089.445.178.712.267.178.089.356.356.267.534a.68.68 0 0 1-.445.178zm-2.403-1.156c-.089 0-.089 0-.178-.089-.267-.089-.445-.267-.712-.356a.428.428 0 0 1-.178-.534c.089-.177.356-.266.534-.177.178.088.445.267.623.355.178.09.267.356.178.534.089.267-.089.267-.267.267zm-2.314-1.245c-.089 0-.178 0-.178-.09-.178-.177-.445-.266-.623-.444-.178-.09-.267-.356-.089-.623.09-.178.356-.267.623-.089.178.178.445.267.623.445.178.089.267.356.089.534-.178.178-.267.267-.445.267zM86.082 26.338c-.178 0-.356-.178-.445-.356 0-.267.178-.445.356-.445.267 0 .534-.088.712-.088.267 0 .445.088.445.355s-.089.445-.356.445c-.089 0-.356.09-.712.09.09 0 .09 0 0 0zm2.67-.445c-.178 0-.356-.089-.445-.356-.089-.267.09-.444.267-.533.267-.09.445-.09.712-.178.178-.09.445.089.534.267.09.177-.089.444-.267.533-.267.09-.534.178-.712.178 0 .09-.089.09-.089.09zm2.492-.89c-.178 0-.267-.088-.356-.266a.428.428 0 0 1 .178-.534c.267-.089.445-.178.623-.356a.428.428 0 0 1 .534.178.428.428 0 0 1-.178.534c-.267.089-.445.267-.712.356 0 .089 0 .089-.089.089zM82.166 7.388c-.178 0-.356-.089-.445-.356-.09-.267.089-.445.267-.534.267-.089.534-.089.712-.178.267-.089.445.09.534.356.089.267-.09.445-.356.534-.267.09-.445.09-.712.178.089 0 .089 0 0 0zm2.67-.445c-.178 0-.356-.178-.445-.356 0-.267.178-.445.356-.445.267 0 .534-.089.8-.089.268 0 .446.178.446.356 0 .267-.178.445-.356.445-.267 0-.534 0-.801.09zm3.382-.089c-.267 0-.534 0-.801-.089-.267 0-.445-.178-.445-.445s.178-.445.445-.445.534 0 .8.09c.268 0 .357.177.357.444.089.267-.09.445-.356.445zM66.146 17.62c-.089 0-.178 0-.267-.09a.548.548 0 0 1-.089-.622c.178-.178.356-.356.534-.623a.549.549 0 0 1 .623-.09.548.548 0 0 1 .09.624c-.179.178-.357.356-.446.534-.178.177-.356.266-.445.266zm1.78-2.047c-.089 0-.178 0-.267-.089a.43.43 0 0 1 0-.623l.534-.533a.43.43 0 0 1 .623 0 .43.43 0 0 1 0 .622l-.534.534c-.178.09-.267.09-.356.09zm1.958-1.78c-.089 0-.267-.088-.356-.177-.178-.178-.089-.445.09-.623.177-.178.355-.356.622-.534.178-.178.445-.089.623.09.178.177.09.444-.089.622-.178.178-.356.356-.534.445-.178.178-.267.178-.356.178zm2.047-1.6c-.089 0-.267-.09-.356-.178-.178-.179-.089-.445.09-.623.177-.09.355-.267.533-.356l.09-.09a.548.548 0 0 1 .622.09.548.548 0 0 1-.089.623l-.089.088c-.178.09-.356.268-.534.356-.089 0-.178.09-.267.09zm2.225-1.513c-.178 0-.267-.089-.356-.178-.089-.178-.089-.445.178-.534.178-.089.445-.267.623-.356a.428.428 0 0 1 .534.178.428.428 0 0 1-.178.534c-.178.089-.445.267-.623.356h-.178zm2.314-1.246c-.178 0-.267-.089-.356-.267a.428.428 0 0 1 .178-.533c.267-.09.445-.267.712-.356a.428.428 0 0 1 .534.178.428.428 0 0 1-.178.534 2.666 2.666 0 0 0-.712.355c0 .09-.089.09-.178.09zM61.697 28.206c-.267 0-.445-.178-.445-.445v-.8c0-.267.178-.445.445-.356.267 0 .445.178.356.445v.711c.089.267-.09.445-.356.445zm.356-2.669h-.09c-.266-.089-.355-.267-.355-.534.089-.267.089-.533.178-.711.089-.178.267-.356.534-.267.178.089.356.267.267.534-.09.267-.09.444-.178.711 0 .178-.178.267-.356.267zm.8-2.49h-.177c-.178-.09-.356-.357-.267-.535.089-.267.178-.445.267-.711a.428.428 0 0 1 .534-.178.428.428 0 0 1 .178.534c-.09.266-.178.444-.267.711 0 .09-.09.178-.267.178z" fill="#56E090"/><path d="M1 91.996h145.512" stroke="#EBF0F6" stroke-width="2" stroke-miterlimit="10" stroke-linecap="round" stroke-linejoin="round"/><path d="M97.474 17.086a.801.801 0 1 0 0-1.602.801.801 0 0 0 0 1.602zM55.289 10.591a.534.534 0 1 0 0-1.068.534.534 0 0 0 0 1.068zM95.606 5.075a.445.445 0 1 0 0-.89.445.445 0 0 0 0 .89zM58.136 28.651a.445.445 0 1 0 0-.89.445.445 0 0 0 0 .89zM52.174 21.623a.801.801 0 1 0 0-1.602.801.801 0 0 0 0 1.602z" fill="#56E090"/><defs><linearGradient id="paint0_linear_8592_129417"  gradientUnits="userSpaceOnUse"><stop stop-color="#51DFD4"/><stop offset="1" stop-color="#1BE068"/></linearGradient><linearGradient id="paint1_linear_8592_129417" x1="80.61" y1="52.478" x2="130.047" y2="52.478" gradientUnits="userSpaceOnUse"><stop stop-color="#51DFD4"/><stop offset="1" stop-color="#1BE068"/></linearGradient><linearGradient id="paint2_linear_8592_129417" x1="71.171" y1="52.478" x2="21.734" y2="52.478" gradientUnits="userSpaceOnUse"><stop stop-color="#51DFD4"/><stop offset="1" stop-color="#1BE068"/></linearGradient><linearGradient id="paint3_linear_8592_129417" x1="14.146" y1="79.748" x2="24.189" y2="79.748" gradientUnits="userSpaceOnUse"><stop offset=".003" stop-color="#324558"/><stop offset="1" stop-color="#778592"/></linearGradient><linearGradient id="paint4_linear_8592_129417" x1="115.346" y1="86.165" x2="138.593" y2="86.165" gradientUnits="userSpaceOnUse"><stop stop-color="#42FCED"/><stop offset="1" stop-color="#00AA72"/></linearGradient><linearGradient id="paint5_linear_8592_129417" x1="127.132" y1="81.446" x2="127.132" y2="79.147" gradientUnits="userSpaceOnUse"><stop stop-color="#fff"/><stop offset=".991" stop-color="#E6EDF7"/></linearGradient><linearGradient id="paint6_linear_8592_129417" x1="134.057" y1="81.412" x2="145.163" y2="81.412" gradientUnits="userSpaceOnUse"><stop offset=".003" stop-color="#324558"/><stop offset="1" stop-color="#778592"/></linearGradient><linearGradient id="paint7_linear_8592_129417" x1="75.68" y1="65.334" x2="75.68" y2="90.67" gradientUnits="userSpaceOnUse"><stop stop-color="#51DFD4"/><stop offset="1" stop-color="#1BE068"/></linearGradient><linearGradient id="paint8_linear_8592_129417" x1="80.355" y1="74.963" x2="86.675" y2="81.86" gradientUnits="userSpaceOnUse"><stop stop-color="#A8FFD7"/><stop offset="1" stop-color="#52E07F" stop-opacity="0"/></linearGradient><linearGradient id="paint9_linear_8592_129417" x1="66.986" y1="70.665" x2="71.231" y2="73.939" gradientUnits="userSpaceOnUse"><stop stop-color="#A8FFD7"/><stop offset="1" stop-color="#52E07F" stop-opacity="0"/></linearGradient><linearGradient id="paint10_linear_8592_129417" x1="74.47" y1="76.393" x2="89.055" y2="90.983" gradientUnits="userSpaceOnUse"><stop stop-color="#21C29A"/><stop offset="1" stop-color="#19B33C" stop-opacity="0"/></linearGradient><linearGradient id="paint11_linear_8592_129417" x1="81.606" y1="84.954" x2="75.182" y2="74.714" gradientUnits="userSpaceOnUse"><stop offset=".011" stop-color="#B0FFD7"/><stop offset="1" stop-color="#fff"/></linearGradient><linearGradient id="paint12_linear_8592_129417" x1="62.387" y1="19.066" x2="67.215" y2="19.066" gradientUnits="userSpaceOnUse"><stop stop-color="#42FCED"/><stop offset="1" stop-color="#00AA72"/></linearGradient><linearGradient id="paint13_linear_8592_129417" x1="77.605" y1="7.411" x2="82.433" y2="7.411" gradientUnits="userSpaceOnUse"><stop stop-color="#42FCED"/><stop offset="1" stop-color="#00AA72"/></linearGradient><linearGradient id="paint14_linear_8592_129417" x1="80.453" y1="26.184" x2="85.281" y2="26.184" gradientUnits="userSpaceOnUse"><stop stop-color="#42FCED"/><stop offset="1" stop-color="#00AA72"/></linearGradient></defs></svg>