<svg width="159" height="105" viewBox="0 0 159 105" fill="none" xmlns="http://www.w3.org/2000/svg">
<circle cx="36" cy="36" r="36" fill="#EAF4FB"/>
<circle cx="118" cy="59" r="16" fill="#EAF4FB"/>
<mask id="mask0_224_2963" style="mask-type:alpha" maskUnits="userSpaceOnUse" x="50" y="85" width="50" height="19">
<path d="M60 85H89.5L100 104H50L60 85Z" fill="#EEEEEE"/>
</mask>
<g mask="url(#mask0_224_2963)">
<path d="M60 85H89.5L100 104H50L60 85Z" fill="#EEEEEE"/>
<rect x="46" y="89" width="59" height="7" fill="#D9D9D9"/>
</g>
<mask id="mask1_224_2963" style="mask-type:alpha" maskUnits="userSpaceOnUse" x="29" y="20" width="92" height="70">
<rect x="29" y="20" width="92" height="70" rx="2" fill="#EEEEEE"/>
</mask>
<g mask="url(#mask1_224_2963)">
<rect x="29" y="21" width="92" height="65" rx="2" fill="#D9D9D9"/>
<rect x="24" y="78" width="105" height="25" fill="#EEEEEE"/>
</g>
<rect x="33" y="25" width="84" height="49" rx="2" fill="white"/>
<path opacity="0.1" d="M62.6973 48.5645H57.7559V52.002H62.2969V54.5605H57.7559V60H54.6016V45.9961H62.6973V48.5645ZM72.7516 60H64.4117V45.9961H67.566V57.4414H72.7516V60ZM77.2004 60H74.0461V45.9961H77.2004V60ZM92.3914 60H89.2078L83.4363 51.2012C83.0978 50.6868 82.8634 50.2995 82.7332 50.0391H82.6941C82.7462 50.5339 82.7723 51.2891 82.7723 52.3047V60H79.7938V45.9961H83.1922L88.7488 54.5215C89.0027 54.9056 89.2371 55.2865 89.452 55.6641H89.491C89.4389 55.3385 89.4129 54.6973 89.4129 53.7402V45.9961H92.3914V60ZM106.635 60H102.651L98.5687 53.916C98.4906 53.7988 98.3669 53.5417 98.1977 53.1445H98.1488V60H94.9945V45.9961H98.1488V52.6172H98.1977C98.2758 52.4349 98.406 52.1745 98.5883 51.8359L102.455 45.9961H106.215L101.332 52.6758L106.635 60Z" fill="#024D8E"/>
<path d="M58.6973 46.5645H53.7559V50.002H58.2969V52.5605H53.7559V58H50.6016V43.9961H58.6973V46.5645ZM68.7516 58H60.4117V43.9961H63.566V55.4414H68.7516V58ZM73.2004 58H70.0461V43.9961H73.2004V58ZM88.3914 58H85.2078L79.4363 49.2012C79.0978 48.6868 78.8634 48.2995 78.7332 48.0391H78.6941C78.7462 48.5339 78.7723 49.2891 78.7723 50.3047V58H75.7938V43.9961H79.1922L84.7488 52.5215C85.0027 52.9056 85.2371 53.2865 85.452 53.6641H85.491C85.4389 53.3385 85.4129 52.6973 85.4129 51.7402V43.9961H88.3914V58ZM102.635 58H98.6508L94.5687 51.916C94.4906 51.7988 94.3669 51.5417 94.1977 51.1445H94.1488V58H90.9945V43.9961H94.1488V50.6172H94.1977C94.2758 50.4349 94.406 50.1745 94.5883 49.8359L98.4555 43.9961H102.215L97.3324 50.6758L102.635 58Z" fill="#024D8E"/>
<circle cx="75.5" cy="83.5" r="2.5" fill="#D9D9D9"/>
<rect x="47" y="102" width="57" height="3" fill="#D9D9D9"/>
<path d="M39 8.88463L44.625 6L50.25 8.88463V16.0961L44.625 18.5L39 16.0961V8.88463Z" fill="#057CE4"/>
<path d="M11 64.8846L16.625 62L22.25 64.8846V72.0961L16.625 74.5L11 72.0961V64.8846Z" fill="#057CE4"/>
<path d="M41 9.84616L44.5 8L48 9.84616V14.4615L44.5 16L41 14.4615V9.84616Z" fill="white"/>
<path d="M114.5 92.7661V86.1901L119.625 83.5619L124.75 86.1901V92.7661L119.625 94.9563L114.5 92.7661Z" fill="white" stroke="#057CE4"/>
<circle cx="37.5" cy="28.5" r="1.5" fill="#FF8A00"/>
<circle cx="41.5" cy="28.5" r="1.5" fill="#FFC700"/>
<circle cx="45.5" cy="28.5" r="1.5" fill="#17B813"/>
<g filter="url(#filter0_d_224_2963)">
<rect x="111" y="12" width="40" height="40" rx="1" fill="white"/>
</g>
<rect x="124" y="18" width="15" height="3" fill="#D9D9D9"/>
<rect x="115" y="26" width="32" height="3" fill="#EEEEEE"/>
<rect x="115" y="32" width="32" height="3" fill="#EEEEEE"/>
<rect x="115" y="38" width="32" height="3" fill="#EEEEEE"/>
<rect x="115" y="44" width="32" height="3" fill="#EEEEEE"/>
<defs>
<filter id="filter0_d_224_2963" x="103" y="6" width="56" height="56" filterUnits="userSpaceOnUse" color-interpolation-filters="sRGB">
<feFlood flood-opacity="0" result="BackgroundImageFix"/>
<feColorMatrix in="SourceAlpha" type="matrix" values="0 0 0 0 0 0 0 0 0 0 0 0 0 0 0 0 0 0 127 0" result="hardAlpha"/>
<feOffset dy="2"/>
<feGaussianBlur stdDeviation="4"/>
<feComposite in2="hardAlpha" operator="out"/>
<feColorMatrix type="matrix" values="0 0 0 0 0.266667 0 0 0 0 0.266667 0 0 0 0 0.266667 0 0 0 0.04 0"/>
<feBlend mode="normal" in2="BackgroundImageFix" result="effect1_dropShadow_224_2963"/>
<feBlend mode="normal" in="SourceGraphic" in2="effect1_dropShadow_224_2963" result="shape"/>
</filter>
</defs>
</svg>
