<svg width="113" height="119" viewBox="0 0 113 119" fill="none" xmlns="http://www.w3.org/2000/svg">
<circle cx="57" cy="64" r="43" fill="#EAF4FB"/>
<circle cx="17.5" cy="30.5" r="2.5" fill="#DAEBFB"/>
<circle cx="102.5" cy="91.5" r="2.5" fill="#DAEBFB"/>
<rect x="26.5" y="26.5" width="61" height="74" rx="4.5" fill="white" stroke="#D9D9D9" stroke-width="3"/>
<rect opacity="0.5" x="57" y="83" width="22" height="8" fill="#EEEEEE"/>
<rect x="35" y="83" width="19" height="3" fill="#EEEEEE"/>
<rect x="35" y="88" width="19" height="3" fill="#EEEEEE"/>
<rect x="35" y="93" width="35" height="3" fill="#EEEEEE"/>
<g clip-path="url(#clip0_225_3224)">
<path d="M70.6 66L63.8 63.2C64 62.4 64.2 61.6 64.2 60.8C64.2 59.8 64 59 63.6 58.2L67 55.8C67.2 55.6 67.2 55.4 67.2 55.2C67.2 55 66.8 55 66.6 55L63.2 57.4C62.2 55.8 60.6 54.6 58.8 54.2L59.2 47.4C59.2 47.2 59 46.8 58.8 46.8C58.6 46.8 58.2 47 58.2 47.2L57.8 54.2H57.4C54.8 54.2 52.6 55.8 51.4 57.8L46.8 56C46.6 55.8 46.2 56 46.2 56.2C46 56.4 46.2 56.8 46.4 56.8L51.2 58.6C51 59.4 50.8 60 50.8 60.8C50.8 62.6 51.4 64.2 52.6 65.4L48.8 69.2C48.6 69.4 48.6 69.8 48.8 70C49 70 49.4 70 49.6 69.8L53.4 66C54.6 67 56 67.4 57.6 67.4C60.2 67.4 62.2 66 63.4 64L70.4 66.8C70.6 67 71 66.8 71 66.6C71 66.4 71 66 70.6 66Z" fill="#024D8E"/>
<path d="M69.8 67.2C69.8 67.8895 70.074 68.5509 70.5616 69.0385C71.0492 69.526 71.7105 69.8 72.4 69.8C73.0896 69.8 73.7509 69.526 74.2385 69.0385C74.7261 68.5509 75 67.8895 75 67.2C75 66.5104 74.7261 65.8491 74.2385 65.3615C73.7509 64.8739 73.0896 64.6 72.4 64.6C71.7105 64.6 71.0492 64.8739 70.5616 65.3615C70.074 65.8491 69.8 66.5104 69.8 67.2Z" fill="#024D8E"/>
<path d="M44.6001 71.4C44.6001 72.2486 44.9372 73.0626 45.5374 73.6627C46.1375 74.2628 46.9514 74.6 47.8001 74.6C48.6488 74.6 49.4627 74.2628 50.0628 73.6627C50.663 73.0626 51.0001 72.2486 51.0001 71.4C51.0001 70.5513 50.663 69.7373 50.0628 69.1372C49.4627 68.5371 48.6488 68.2 47.8001 68.2C46.9514 68.2 46.1375 68.5371 45.5374 69.1372C44.9372 69.7373 44.6001 70.5513 44.6001 71.4Z" fill="#024D8E"/>
<path d="M57 47C57 47.4773 57.1896 47.9352 57.5272 48.2727C57.8648 48.6103 58.3226 48.8 58.8 48.8C59.2774 48.8 59.7352 48.6103 60.0728 48.2727C60.4104 47.9352 60.6 47.4773 60.6 47C60.6 46.7636 60.5534 46.5295 60.463 46.3111C60.3725 46.0927 60.2399 45.8943 60.0728 45.7272C59.9056 45.56 59.7072 45.4274 59.4888 45.337C59.2704 45.2465 59.0364 45.2 58.8 45.2C58.5636 45.2 58.3296 45.2465 58.1112 45.337C57.8928 45.4274 57.6944 45.56 57.5272 45.7272C57.3601 45.8943 57.2275 46.0927 57.137 46.3111C57.0466 46.5295 57 46.7636 57 47Z" fill="#024D8E"/>
<path d="M43.6001 56C43.6001 56.6365 43.853 57.2469 44.303 57.697C44.7531 58.1471 45.3636 58.4 46.0001 58.4C46.6366 58.4 47.2471 58.1471 47.6972 57.697C48.1472 57.2469 48.4001 56.6365 48.4001 56C48.4001 55.3635 48.1472 54.753 47.6972 54.3029C47.2471 53.8528 46.6366 53.6 46.0001 53.6C45.3636 53.6 44.7531 53.8528 44.303 54.3029C43.853 54.753 43.6001 55.3635 43.6001 56Z" fill="#024D8E"/>
<path d="M64.8 55C64.8 55.6365 65.0529 56.2469 65.503 56.697C65.9531 57.1471 66.5635 57.4 67.2001 57.4C67.8366 57.4 68.447 57.1471 68.8971 56.697C69.3472 56.2469 69.6 55.6365 69.6 55C69.6 54.3635 69.3472 53.753 68.8971 53.3029C68.447 52.8528 67.8366 52.6 67.2001 52.6C66.5635 52.6 65.9531 52.8528 65.503 53.3029C65.0529 53.753 64.8 54.3635 64.8 55Z" fill="#024D8E"/>
</g>
<g filter="url(#filter0_d_225_3224)">
<circle cx="57.5" cy="20.5" r="12.5" fill="white"/>
</g>
<path d="M61.8125 22.975H54.1125C53.15 22.975 52.3625 22.1875 52.3625 21.225V16.2812C52.3625 15.3187 53.15 14.5312 54.1125 14.5312H61.8125C62.775 14.5312 63.5625 15.3187 63.5625 16.2812V21.225C63.5625 22.1875 62.775 22.975 61.8125 22.975Z" fill="#DFECFF"/>
<path d="M62.5782 23.2375H51.3782V17.2219C51.3782 16.2594 52.1657 15.4719 53.1282 15.4719H60.8282C61.7907 15.4719 62.5782 16.2594 62.5782 17.2219V23.2375Z" fill="#057CE4"/>
<path d="M58.3125 19.8688L59.3187 21.5313L59.6469 21.0063L60.5219 21.5969L60.8719 21.0719L59.975 20.4813L60.3031 20L58.3125 19.8688Z" fill="white"/>
<path d="M62.8406 25.4688H51.0938C50.7219 25.4688 50.4375 25.1844 50.4375 24.8125V23.5875H63.4969V24.8125C63.4969 25.1844 63.2125 25.4688 62.8406 25.4688Z" fill="#057CE4"/>
<path d="M52.6907 24.7469H51.4875C51.3782 24.7469 51.2688 24.6594 51.2688 24.5282V24.5063C51.2688 24.3969 51.3563 24.2875 51.4875 24.2875H52.6907C52.8 24.2875 52.9094 24.375 52.9094 24.5063V24.5282C52.9094 24.6594 52.8219 24.7469 52.6907 24.7469ZM54.7907 24.7469H53.5875C53.4782 24.7469 53.3688 24.6594 53.3688 24.5282V24.5063C53.3688 24.3969 53.4563 24.2875 53.5875 24.2875H54.7907C54.9 24.2875 55.0094 24.375 55.0094 24.5063V24.5282C55.0094 24.6594 54.9219 24.7469 54.7907 24.7469ZM62.3157 24.7469H61.1125C61.0032 24.7469 60.8938 24.6594 60.8938 24.5282V24.5063C60.8938 24.3969 60.9813 24.2875 61.1125 24.2875H62.3157C62.425 24.2875 62.5344 24.375 62.5344 24.5063V24.5282C62.5344 24.6594 62.425 24.7469 62.3157 24.7469ZM56.9344 18.6875H53.3907C53.2157 18.6875 53.0625 18.5344 53.0625 18.3594V18.3157C53.0625 18.1407 53.2157 17.9875 53.3907 17.9875H56.9344C57.1094 17.9875 57.2625 18.1407 57.2625 18.3157V18.3594C57.2625 18.5563 57.1094 18.6875 56.9344 18.6875ZM55.5344 19.9344H53.3907C53.2157 19.9344 53.0625 19.7813 53.0625 19.6063V19.5625C53.0625 19.3875 53.2157 19.2344 53.3907 19.2344H55.5344C55.7094 19.2344 55.8625 19.3875 55.8625 19.5625V19.6063C55.8625 19.8032 55.7094 19.9344 55.5344 19.9344ZM57.3938 21.2032H53.3907C53.2157 21.2032 53.0625 21.05 53.0625 20.875V20.8313C53.0625 20.6563 53.2157 20.5032 53.3907 20.5032H57.3938C57.5688 20.5032 57.7219 20.6563 57.7219 20.8313V20.875C57.7219 21.05 57.5907 21.2032 57.3938 21.2032Z" fill="white"/>
<g filter="url(#filter1_d_225_3224)">
<circle cx="20.5" cy="56.5" r="12.5" fill="white"/>
</g>
<g filter="url(#filter2_d_225_3224)">
<circle cx="84.5" cy="96.5" r="12.5" fill="white"/>
</g>
<g filter="url(#filter3_d_225_3224)">
<circle cx="92.5" cy="43.5" r="12.5" fill="white"/>
</g>
<g filter="url(#filter4_d_225_3224)">
<circle cx="27.5" cy="98.5" r="12.5" fill="white"/>
</g>
<g clip-path="url(#clip1_225_3224)">
<path d="M92.5 49.976C88.9159 49.976 86.0098 47.0704 86.0098 43.4876C86.0098 39.9049 88.9153 37 92.5 37C96.0841 37 98.9903 39.9049 98.9903 43.4876C98.9903 47.0711 96.0848 49.976 92.5 49.976ZM92.5 38.2168C91.8076 38.2166 91.122 38.3528 90.4822 38.6177C89.8424 38.8825 89.2611 39.2708 88.7714 39.7603C88.2817 40.2498 87.8933 40.831 87.6282 41.4706C87.3631 42.1103 87.2267 42.7959 87.2266 43.4883C87.2266 44.8494 87.7479 46.0864 88.5955 47.0217C89.3592 46.6518 89.0784 46.9593 90.0775 46.5485C91.1006 46.1279 91.3424 45.9817 91.3424 45.9817L91.3521 45.0132C91.3521 45.0132 90.9693 44.7226 90.8503 43.8107C90.6105 43.8796 90.5318 43.5312 90.5175 43.3102C90.5045 43.0957 90.3784 42.4281 90.6709 42.4886C90.6111 42.042 90.5682 41.6397 90.5897 41.4265C90.6625 40.679 91.3892 39.8964 92.5078 39.8398C93.8241 39.8964 94.3454 40.6783 94.4188 41.4258C94.4396 41.6397 94.3928 42.042 94.333 42.4873C94.6255 42.4282 94.4981 43.095 94.4838 43.3089C94.4708 43.5299 94.3902 43.877 94.151 43.8088C94.0314 44.7201 93.6486 45.008 93.6486 45.008L93.6577 45.972C93.6577 45.972 93.9001 46.1091 94.9226 46.5296C95.9216 46.9404 95.6408 46.6512 96.4046 47.0217C97.2851 46.0554 97.7731 44.795 97.7728 43.4876C97.7728 42.7953 97.6364 42.1097 97.3714 41.47C97.1064 40.8304 96.718 40.2492 96.2284 39.7597C95.7387 39.2702 95.1574 38.8819 94.5177 38.617C93.878 38.3522 93.1924 38.216 92.5 38.2161V38.2168Z" fill="#057CE4"/>
</g>
<path d="M31.3858 97.2214C31.1501 95.6357 29.7572 94.3928 28.1072 94.3928C26.4358 94.3928 25.0644 95.6143 24.8286 97.2214H24.6572C22.9001 97.2214 21.4644 98.6571 21.4644 100.414C21.4644 102.171 22.9001 103.607 24.6572 103.607H31.4072C33.1644 103.607 34.6001 102.171 34.6001 100.414C34.5786 98.6571 33.1429 97.2214 31.3858 97.2214ZM26.7572 102.6L25.4929 101.336C24.7644 100.607 24.7644 99.4071 25.4929 98.6571C26.2215 97.9285 27.4215 97.9285 28.1715 98.6571L29.4358 99.9214L28.8358 100.521L27.5715 99.2571C27.1644 98.85 26.5001 98.85 26.0929 99.2571C25.6858 99.6643 25.6858 100.329 26.0929 100.736L27.3572 102L26.7572 102.6ZM30.8286 101.443C30.4644 101.807 29.9715 102 29.5001 102C29.0072 102 28.5358 101.807 28.1715 101.443L26.9072 100.179L27.5072 99.5785L28.7715 100.843C29.1786 101.25 29.8429 101.25 30.2501 100.843C30.6572 100.436 30.6572 99.7714 30.2501 99.3643L28.9858 98.1L29.5858 97.5L30.8501 98.7643C31.5572 99.5143 31.5572 100.714 30.8286 101.443Z" fill="#057CE4"/>
<path d="M88.8281 99.9955V100.199L86.4686 99.7232C86.3163 100.233 85.7051 100.622 84.9926 100.622C84.2793 100.622 83.6681 100.232 83.5158 99.706L81.1736 100.164V99.961C81.1736 98.8067 81.4961 97.975 82.2251 97.279C81.9701 93.9865 83.4468 91.8992 84.9063 91.0503L84.9918 91L85.0766 91.0503C86.5368 91.8992 87.9956 93.9865 87.7586 97.2797C88.5056 97.9757 88.8281 98.8075 88.8281 99.9955ZM85.7381 95.8885C86.1791 95.4813 86.2128 94.7853 85.8056 94.3435C85.3983 93.9025 84.7031 93.868 84.2613 94.2752C83.8203 94.6825 83.7866 95.3793 84.1938 95.8203C84.6011 96.262 85.2971 96.2958 85.7381 95.8885ZM85.5438 101.744C85.5438 102.236 85.0001 103 85.0001 103C85.0001 103 84.4571 102.185 84.4571 101.744C84.4571 101.37 84.6941 101.065 85.0001 101.065C85.3061 101.065 85.5438 101.37 85.5438 101.744Z" fill="#057CE4"/>
<g clip-path="url(#clip2_225_3224)">
<path d="M26.3754 53.1571C26.3685 52.9737 26.2547 52.8089 26.0829 52.7416L20.6717 50.5826C20.5603 50.5385 20.4372 50.5385 20.3258 50.5826L14.9145 52.7416C14.7428 52.8089 14.629 52.9737 14.622 53.1571C14.6151 53.3428 14.4828 57.7071 15.416 59.5016C16.3794 61.3517 20.1819 62.7005 20.3444 62.7562C20.3931 62.7725 20.4465 62.7817 20.4976 62.7817C20.5486 62.7817 20.602 62.7725 20.6508 62.7562C20.8133 62.7005 24.6158 61.3517 25.5769 59.5016C26.5147 57.7048 26.3801 53.3405 26.3754 53.1571ZM20.0286 58.9955L17.951 56.9225L18.6056 56.2655L20.0867 57.7419L22.8492 55.4553L23.4411 56.1703L20.0286 58.9955Z" fill="#057CE4"/>
</g>
<rect x="37" y="35" width="40" height="4" fill="#EEEEEE"/>
<defs>
<filter id="filter0_d_225_3224" x="37" y="0" width="41" height="41" filterUnits="userSpaceOnUse" color-interpolation-filters="sRGB">
<feFlood flood-opacity="0" result="BackgroundImageFix"/>
<feColorMatrix in="SourceAlpha" type="matrix" values="0 0 0 0 0 0 0 0 0 0 0 0 0 0 0 0 0 0 127 0" result="hardAlpha"/>
<feOffset/>
<feGaussianBlur stdDeviation="4"/>
<feComposite in2="hardAlpha" operator="out"/>
<feColorMatrix type="matrix" values="0 0 0 0 0.533333 0 0 0 0 0.533333 0 0 0 0 0.533333 0 0 0 0.22 0"/>
<feBlend mode="normal" in2="BackgroundImageFix" result="effect1_dropShadow_225_3224"/>
<feBlend mode="normal" in="SourceGraphic" in2="effect1_dropShadow_225_3224" result="shape"/>
</filter>
<filter id="filter1_d_225_3224" x="0" y="36" width="41" height="41" filterUnits="userSpaceOnUse" color-interpolation-filters="sRGB">
<feFlood flood-opacity="0" result="BackgroundImageFix"/>
<feColorMatrix in="SourceAlpha" type="matrix" values="0 0 0 0 0 0 0 0 0 0 0 0 0 0 0 0 0 0 127 0" result="hardAlpha"/>
<feOffset/>
<feGaussianBlur stdDeviation="4"/>
<feComposite in2="hardAlpha" operator="out"/>
<feColorMatrix type="matrix" values="0 0 0 0 0.533333 0 0 0 0 0.533333 0 0 0 0 0.533333 0 0 0 0.22 0"/>
<feBlend mode="normal" in2="BackgroundImageFix" result="effect1_dropShadow_225_3224"/>
<feBlend mode="normal" in="SourceGraphic" in2="effect1_dropShadow_225_3224" result="shape"/>
</filter>
<filter id="filter2_d_225_3224" x="64" y="76" width="41" height="41" filterUnits="userSpaceOnUse" color-interpolation-filters="sRGB">
<feFlood flood-opacity="0" result="BackgroundImageFix"/>
<feColorMatrix in="SourceAlpha" type="matrix" values="0 0 0 0 0 0 0 0 0 0 0 0 0 0 0 0 0 0 127 0" result="hardAlpha"/>
<feOffset/>
<feGaussianBlur stdDeviation="4"/>
<feComposite in2="hardAlpha" operator="out"/>
<feColorMatrix type="matrix" values="0 0 0 0 0.533333 0 0 0 0 0.533333 0 0 0 0 0.533333 0 0 0 0.22 0"/>
<feBlend mode="normal" in2="BackgroundImageFix" result="effect1_dropShadow_225_3224"/>
<feBlend mode="normal" in="SourceGraphic" in2="effect1_dropShadow_225_3224" result="shape"/>
</filter>
<filter id="filter3_d_225_3224" x="72" y="23" width="41" height="41" filterUnits="userSpaceOnUse" color-interpolation-filters="sRGB">
<feFlood flood-opacity="0" result="BackgroundImageFix"/>
<feColorMatrix in="SourceAlpha" type="matrix" values="0 0 0 0 0 0 0 0 0 0 0 0 0 0 0 0 0 0 127 0" result="hardAlpha"/>
<feOffset/>
<feGaussianBlur stdDeviation="4"/>
<feComposite in2="hardAlpha" operator="out"/>
<feColorMatrix type="matrix" values="0 0 0 0 0.533333 0 0 0 0 0.533333 0 0 0 0 0.533333 0 0 0 0.22 0"/>
<feBlend mode="normal" in2="BackgroundImageFix" result="effect1_dropShadow_225_3224"/>
<feBlend mode="normal" in="SourceGraphic" in2="effect1_dropShadow_225_3224" result="shape"/>
</filter>
<filter id="filter4_d_225_3224" x="7" y="78" width="41" height="41" filterUnits="userSpaceOnUse" color-interpolation-filters="sRGB">
<feFlood flood-opacity="0" result="BackgroundImageFix"/>
<feColorMatrix in="SourceAlpha" type="matrix" values="0 0 0 0 0 0 0 0 0 0 0 0 0 0 0 0 0 0 127 0" result="hardAlpha"/>
<feOffset/>
<feGaussianBlur stdDeviation="4"/>
<feComposite in2="hardAlpha" operator="out"/>
<feColorMatrix type="matrix" values="0 0 0 0 0.533333 0 0 0 0 0.533333 0 0 0 0 0.533333 0 0 0 0.22 0"/>
<feBlend mode="normal" in2="BackgroundImageFix" result="effect1_dropShadow_225_3224"/>
<feBlend mode="normal" in="SourceGraphic" in2="effect1_dropShadow_225_3224" result="shape"/>
</filter>
<clipPath id="clip0_225_3224">
<rect width="32" height="32" fill="white" transform="translate(43 44)"/>
</clipPath>
<clipPath id="clip1_225_3224">
<rect width="13" height="13" fill="white" transform="translate(86 37)"/>
</clipPath>
<clipPath id="clip2_225_3224">
<rect width="13" height="13" fill="white" transform="translate(14 50)"/>
</clipPath>
</defs>
</svg>
