<svg color="fff" width="120" height="120" viewBox="0 0 120 120" fill="none" xmlns="http://www.w3.org/2000/svg">
    <path fill="url(#paint0_linear_8179_108171)" fill-opacity=".3" d="M0 32C0 14.327 14.327 0 32 0h88v88c0 17.673-14.327 32-32 32H32c-17.673 0-32-14.327-32-32V32z" />
    <path fill="currentColor" d="M65.035 57.803c0-1.978-.332-3.477-.998-4.498-.656-1.03-1.6-1.545-2.83-1.545-1.267 0-2.22.506-2.857 1.517-.638 1.012-.962 2.493-.971 4.444v.916c0 1.96.324 3.463.97 4.511.648 1.04 1.61 1.559 2.885 1.559 1.222 0 2.156-.515 2.803-1.545.656-1.03.989-2.511.998-4.443v-.916z" />
    <path fill="currentColor" fill-rule="evenodd" clip-rule="evenodd" d="M30.333 33A3.333 3.333 0 0 0 27 36.333V83a3.333 3.333 0 0 0 3.333 3.333h60A3.333 3.333 0 0 0 93.667 83V36.333A3.333 3.333 0 0 0 90.333 33h-60zm15.439 29.889c0-.702-.251-1.249-.752-1.641-.493-.392-1.363-.797-2.612-1.217-1.248-.419-2.27-.825-3.062-1.216-2.58-1.267-3.87-3.008-3.87-5.223 0-1.103.32-2.074.958-2.912.647-.848 1.558-1.504 2.734-1.97 1.176-.473 2.497-.71 3.965-.71 1.43 0 2.711.255 3.842.766 1.139.51 2.023 1.24 2.652 2.187.629.939.943 2.014.943 3.227h-4.785c0-.812-.25-1.44-.752-1.887-.492-.447-1.162-.67-2.01-.67-.856 0-1.535.192-2.037.574-.492.374-.738.852-.738 1.436 0 .51.274.975.82 1.394.547.41 1.509.839 2.885 1.285 1.376.438 2.507.912 3.39 1.422 2.152 1.24 3.227 2.949 3.227 5.127 0 1.741-.656 3.108-1.968 4.102-1.313.993-3.113 1.49-5.4 1.49-1.614 0-3.077-.287-4.39-.861-1.303-.584-2.287-1.376-2.953-2.38-.656-1.01-.984-2.173-.984-3.485h4.813c0 1.066.273 1.854.82 2.365.556.501 1.454.752 2.693.752.793 0 1.417-.169 1.873-.506.465-.346.698-.83.698-1.45zm24.144-4.252c0 1.84-.305 3.45-.916 4.826-.61 1.367-1.454 2.465-2.53 3.295l3.214 2.543-2.967 2.515-4.28-3.445a8.892 8.892 0 0 1-1.203.082c-1.695 0-3.199-.392-4.511-1.176-1.313-.784-2.338-1.905-3.076-3.363-.73-1.458-1.108-3.135-1.135-5.031V57.83c0-1.96.355-3.682 1.066-5.168.72-1.486 1.741-2.634 3.063-3.445C57.97 48.406 59.493 48 61.207 48c1.686 0 3.19.401 4.512 1.203 1.321.802 2.347 1.946 3.076 3.432.738 1.476 1.112 3.172 1.121 5.086v.916zm15.6 5.851h-8.354V48.273h-4.799V68.18h13.153v-3.692z"  />
    <defs>
      <linearGradient id="paint0_linear_8179_108171" y1="104.4" x2="172.2" y2="37.8" gradientUnits="userSpaceOnUse">
        <stop offset="0" stop-color="#4C5E70"/>
        <stop offset="1" stop-color="#4C5E70" stop-opacity="0"/>
      </linearGradient>
    </defs>
  </svg>