<svg color="fff" width="120" height="120" viewBox="0 0 120 120" xmlns="http://www.w3.org/2000/svg">
  <path fill="url(#paint0_linear_8179_108170)" fill-opacity=".3" d="M0 32C0 14.327 14.327 0 32 0h88v88c0 17.673-14.327 32-32 32H32c-17.673 0-32-14.327-32-32V32z" />
  <path fill="currentColor" fill-rule="evenodd" clip-rule="evenodd" d="M40 26.666c7.364 0 13.333 5.97 13.333 13.333 0 4.67-2.4 8.777-6.032 11.16 1.966 2.375 4.526 3.84 7.7 3.84h10c4.698 0 8.423 1.425 11.246 3.827 2.608 2.219 4.24 5.094 5.264 7.925 6.653.75 11.822 6.395 11.822 13.248 0 7.364-5.97 13.334-13.333 13.334-7.364 0-13.333-5.97-13.333-13.334 0-5.49 3.317-10.204 8.057-12.248-.708-1.54-1.628-2.853-2.797-3.848-1.51-1.285-3.666-2.237-6.927-2.237H55c-4.896 0-8.789-2.067-11.667-4.97v13.303h5a3.333 3.333 0 0 1 3.334 3.334v16.666a3.333 3.333 0 0 1-3.334 3.334H31.667a3.333 3.333 0 0 1-3.334-3.334V73.333a3.333 3.333 0 0 1 3.334-3.334h5V52.913c-5.751-1.48-10-6.7-10-12.914 0-7.363 5.97-13.333 13.333-13.333zm-5 50v10h10v-10H35z" />
  <defs>
    <linearGradient id="paint0_linear_8179_108170" y1="104.4" x2="172.2" y2="37.8" gradientUnits="userSpaceOnUse">
      <stop offset="0" stop-color="#4C5E70"/>
      <stop offset="1" stop-color="#4C5E70" stop-opacity="0"/>
    </linearGradient>
  </defs>
</svg>