<svg width="142" height="90" viewBox="0 0 142 90" fill="none" xmlns="http://www.w3.org/2000/svg">
<path d="M73.0978 74.3019V29.7056" stroke="url(#paint0_linear)" stroke-width="2" stroke-miterlimit="10" stroke-linecap="round" stroke-linejoin="round" stroke-dasharray="0.5 4"/>
<path d="M78.4924 31.8457V37.7519C78.4924 41.6894 81.6606 44.8565 85.5995 44.8565H117.196C121.135 44.8565 124.303 48.0237 124.303 51.9612V69.1663" stroke="url(#paint1_linear)" stroke-width="2" stroke-miterlimit="10" stroke-linecap="round" stroke-linejoin="round" stroke-dasharray="0.5 4"/>
<path d="M67.6178 31.8457V37.7519C67.6178 41.6894 64.4496 44.8565 60.5107 44.8565H28.9144C24.9756 44.8565 21.8074 48.0237 21.8074 51.9612V69.1663" stroke="url(#paint2_linear)" stroke-width="2" stroke-miterlimit="10" stroke-linecap="round" stroke-linejoin="round" stroke-dasharray="0.5 4"/>
<path d="M15.043 86.7142V83.7183H21.9787V86.7142H18.468" fill="#102030"/>
<path d="M15.8993 86.3716H14.7862C14.1012 86.3716 13.5874 86.8853 13.5874 87.5704H23.4345C23.4345 86.8853 22.9207 86.3716 22.2357 86.3716H19.5813" fill="#1F3C5C"/>
<path d="M30.9695 67.6263V83.7187C30.9695 84.2322 30.5413 84.7458 29.942 84.7458H6.82269C6.30893 84.7458 5.79517 84.3178 5.79517 83.7187V67.6263C5.79517 67.1127 6.2233 66.5991 6.82269 66.5991H29.942C30.5413 66.5991 30.9695 67.0271 30.9695 67.6263C30.9695 67.5407 30.9695 67.6263 30.9695 67.6263Z" fill="#1F3C5C"/>
<path d="M29.5136 79.9519V82.6055H7.42188V67.9683H29.5136V77.2128" fill="white"/>
<path d="M41.5873 87.57H33.1958C32.5108 87.57 31.9971 87.0564 31.9971 86.3716V66.4274C31.9971 65.7426 32.5108 65.229 33.1958 65.229H41.5873C42.2723 65.229 42.7861 65.7426 42.7861 66.4274V86.3716C42.8717 86.9708 42.2723 87.57 41.5873 87.57Z" fill="#1F3C5C"/>
<path d="M40.5599 68.1403H34.2235C33.9666 68.1403 33.7097 67.8834 33.7097 67.6266C33.7097 67.3697 33.9666 67.1128 34.2235 67.1128H40.5599C40.8168 67.1128 41.0736 67.3697 41.0736 67.6266C41.0736 67.8834 40.8168 68.1403 40.5599 68.1403Z" fill="#102030"/>
<path d="M40.5599 70.7077H34.2235C33.9666 70.7077 33.7097 70.4508 33.7097 70.1939C33.7097 69.9371 33.9666 69.6802 34.2235 69.6802H40.5599C40.8168 69.6802 41.0736 69.9371 41.0736 70.1939C41.0736 70.4508 40.8168 70.7077 40.5599 70.7077Z" fill="#102030"/>
<path d="M38.5902 83.4616H36.2783C36.0214 83.4616 35.7645 83.2047 35.7645 82.9478C35.7645 82.691 36.0214 82.4341 36.2783 82.4341H38.5902C38.8471 82.4341 39.104 82.691 39.104 82.9478C39.104 83.2903 38.8471 83.4616 38.5902 83.4616Z" fill="#102030"/>
<path d="M37.3914 81.2355C38.1954 81.2355 38.8471 80.584 38.8471 79.7804C38.8471 78.9767 38.1954 78.3252 37.3914 78.3252C36.5875 78.3252 35.9358 78.9767 35.9358 79.7804C35.9358 80.584 36.5875 81.2355 37.3914 81.2355Z" fill="#102030"/>
<path d="M18.4276 85.5177C17.9995 85.5177 17.657 85.2609 17.4857 84.9186L16.5438 83.2922C16.3726 83.0354 16.2869 82.7786 16.2869 82.4362V77.1292C14.66 76.3588 13.6325 74.7324 13.5469 72.8493C13.5469 72.8493 13.5469 72.8493 13.5469 72.7637C13.5469 70.7093 14.8313 68.9118 16.8007 68.227C17.3145 68.0558 17.8282 67.9702 18.4276 67.9702C20.4827 67.9702 22.2808 69.2542 22.9658 71.2229C23.8221 73.5341 22.709 76.102 20.5683 77.1292C20.4827 77.4716 20.397 77.7283 20.1402 78.0707L20.0545 78.1563L20.2258 78.3275C20.3114 78.4131 20.397 78.4987 20.397 78.5843C20.5683 78.8411 20.5683 79.0979 20.5683 79.3547C20.4827 79.5259 20.397 79.6971 20.3114 79.8683C20.3114 79.9539 20.3114 79.9539 20.2258 79.9539V80.0395C20.397 80.2963 20.5683 80.5531 20.5683 80.8955V81.2379C20.5683 81.5802 20.4827 81.837 20.2258 82.0938C20.397 82.3506 20.4827 82.6074 20.4827 82.9498V83.121C20.4827 83.549 20.3114 83.977 19.9689 84.3194L19.027 85.1753C19.027 85.1753 18.9414 85.2609 18.8557 85.3465C18.8557 85.4321 18.6845 85.5177 18.4276 85.5177ZM18.5132 70.7949C18.4276 70.7949 18.4276 70.8805 18.5132 70.7949C18.4276 70.8805 18.4276 70.9661 18.5132 70.9661C18.5132 70.9661 18.5989 70.9661 18.5132 70.7949C18.5989 70.8805 18.5132 70.7949 18.5132 70.7949Z" fill="url(#paint3_linear)"/>
<path d="M18.5132 68.8257C20.1401 68.8257 21.6814 69.8529 22.2808 71.4793C23.0514 73.5336 21.9383 75.8447 19.8832 76.5295V76.7007C19.8832 77.0431 19.7976 77.2999 19.6263 77.5567L19.1982 78.1559C19.1126 78.2415 19.1126 78.4127 19.1982 78.4983L19.7976 79.0118C19.8832 79.0974 19.7976 79.183 19.712 79.2686L19.5407 79.3542V79.4398C19.5407 79.611 19.4551 79.6966 19.3695 79.7822C19.2838 79.8678 19.2838 80.039 19.3695 80.1246L19.7976 80.5526C19.8832 80.6382 19.8832 80.7238 19.8832 80.8094V81.1518C19.8832 81.2374 19.7976 81.4086 19.712 81.4942L19.3695 81.751C19.2838 81.8366 19.2838 81.9222 19.3695 82.0078L19.712 82.4357C19.7976 82.5213 19.7976 82.6069 19.7976 82.6925V83.0349C19.7976 83.2917 19.712 83.4629 19.5407 83.6341L18.5988 84.4901C18.5988 84.4901 18.5988 84.4901 18.5132 84.4901H18.4276C18.3419 84.4901 18.2563 84.4045 18.1707 84.3189L18.0851 84.1477L17.2288 82.6925C17.1432 82.6069 17.1432 82.4358 17.1432 82.2646V76.3583C15.5163 75.8447 14.4887 74.304 14.4887 72.592C14.4887 70.8801 15.5163 69.4249 17.1432 68.8257C17.5713 68.9113 17.9994 68.8257 18.5132 68.8257ZM18.5132 71.8216C19.027 71.8216 19.4551 71.3937 19.4551 70.8801C19.4551 70.3665 19.027 69.9385 18.5132 69.9385C17.9994 69.9385 17.5713 70.3665 17.5713 70.8801C17.5713 71.3937 17.9994 71.8216 18.5132 71.8216ZM18.5132 67.1138C17.8282 67.1138 17.2288 67.1994 16.6294 67.4562C14.3175 68.2265 12.8618 70.4521 12.8618 72.8488V72.9344C12.8618 74.9032 13.975 76.7007 15.6019 77.6423V82.4357C15.6019 82.8637 15.6875 83.2917 15.9444 83.7197L16.8007 85.1749L16.8863 85.3461C17.2288 85.9453 17.9138 86.3732 18.5988 86.3732C18.9413 86.3732 19.2838 86.2876 19.5407 86.1164C19.5407 86.1164 19.6263 86.1165 19.6263 86.0309C19.712 85.9453 19.7976 85.8597 19.8832 85.8597L20.8251 85.0037C21.3389 84.4901 21.5958 83.8053 21.5958 83.2061V82.8637C21.5958 82.6069 21.5101 82.2646 21.4245 82.0078C21.5101 81.751 21.5958 81.4942 21.5958 81.1518V80.8094C21.5958 80.467 21.5101 80.2102 21.4245 79.8678C21.6814 79.2686 21.6814 78.5839 21.3389 77.9847C21.4245 77.8991 21.4245 77.8135 21.5101 77.6423C23.8221 76.2727 24.9352 73.448 23.9933 70.7945C23.0514 68.6545 20.9107 67.1138 18.5132 67.1138Z" fill="white"/>
<path d="M137.746 71.2207C137.746 75.415 136.119 79.1813 133.379 82.006C133.122 82.2628 132.951 82.5196 132.694 82.6908C129.869 85.2587 126.187 86.885 122.076 86.885C118.737 86.885 115.654 85.8579 113.171 84.0603C112.401 83.5467 111.716 82.9475 111.116 82.3484C108.205 79.5236 106.407 75.5861 106.407 71.1351C106.407 62.4897 113.428 55.4707 122.076 55.4707C130.639 55.5563 137.746 62.5753 137.746 71.2207Z" fill="#E9F0F8"/>
<path d="M137.746 71.2207C137.746 75.7573 135.777 79.866 132.694 82.6908C129.869 85.2587 126.187 86.885 122.076 86.885C118.737 86.885 115.654 85.8579 113.171 84.0603C109.061 81.2356 106.407 76.5277 106.407 71.1351C106.407 62.4897 113.428 55.4707 122.076 55.4707C130.725 55.4707 137.746 62.5753 137.746 71.2207Z" fill="#D8E2EB"/>
<path d="M133.379 82.0058C133.122 82.2626 132.951 82.5194 132.694 82.6906C129.869 85.2585 126.187 86.8849 122.076 86.8849C118.737 86.8849 115.654 85.8577 113.171 84.0601C112.401 83.5466 111.716 82.9474 111.116 82.3482C111.459 81.9202 112.058 81.5778 113.257 81.0642L113.771 80.893C114.713 80.5506 115.997 80.0371 117.709 79.3523C117.966 79.2667 118.223 79.0955 118.309 78.8387C118.394 78.7531 118.48 78.5819 118.48 78.4963C118.566 78.3251 118.651 78.0683 118.651 77.8115V74.6444C118.566 74.5588 118.566 74.5588 118.48 74.4732C118.223 74.0452 118.052 73.6172 117.966 73.1036L117.709 72.9324C116.939 73.1036 116.939 72.2477 116.768 70.6213C116.682 69.9365 116.768 69.7653 117.11 69.6797L117.367 69.3373C116.768 67.9678 116.511 66.855 116.511 65.8278C116.511 64.2871 117.196 63.2599 118.138 62.7463C117.624 61.6336 117.624 61.2056 117.624 61.2056C117.624 61.2056 120.963 61.7192 122.076 61.548C123.532 61.2912 125.758 61.6336 126.529 63.5167C127.899 64.0303 128.413 64.8863 128.584 65.8278C128.755 67.283 127.899 68.995 127.813 69.5941V69.6797C128.07 69.7653 128.07 69.9365 127.985 70.5357C127.813 72.1621 127.813 73.1036 127.043 72.8468L126.358 74.1308C126.358 74.302 126.358 74.302 126.272 74.3876C126.272 74.6444 126.272 75.0724 126.272 77.7259C126.272 78.0683 126.358 78.3251 126.529 78.5819C126.615 78.6675 126.615 78.7531 126.7 78.7531C126.872 78.9243 127.043 79.0955 127.3 79.1811C129.183 79.9515 130.554 80.465 131.495 80.893C132.352 81.4922 132.951 81.749 133.379 82.0058Z" fill="white"/>
<path d="M133.379 82.006C133.122 82.2628 132.951 82.5196 132.694 82.6908C129.869 85.2587 126.187 86.885 122.077 86.885C118.737 86.885 115.655 85.8579 113.171 84.0603C112.401 83.5467 111.716 82.9476 111.116 82.3484C111.459 81.9204 112.058 81.578 113.257 81.0644L113.771 80.8932C114.713 80.5508 115.997 80.0372 117.71 79.3525C117.966 79.2669 118.223 79.0957 118.309 78.8389C119.251 80.1228 120.792 80.9788 122.505 80.9788C124.217 80.9788 125.673 80.1228 126.615 78.9245C126.786 79.0957 126.957 79.2669 127.214 79.3525C129.098 80.1228 130.468 80.6364 131.41 81.0644C132.352 81.4924 132.951 81.7492 133.379 82.006Z" fill="url(#paint4_linear)"/>
<path d="M127.642 69.6797C127.728 69.2517 127.557 68.8238 127.385 68.3958C127.385 68.3102 127.3 68.3102 127.3 68.2246C126.7 66.9406 125.245 66.427 123.96 66.3414C120.535 66.1702 120.193 66.855 119.165 65.8278C119.508 66.3414 119.508 67.1118 118.994 68.139C118.652 68.8238 117.966 69.1661 117.367 69.3373C115.826 65.8278 116.596 63.6023 118.138 62.7463C117.624 61.6336 117.624 61.2056 117.624 61.2056C117.624 61.2056 120.963 61.7192 122.077 61.548C123.532 61.2912 125.759 61.6336 126.529 63.5167C127.899 64.0303 128.413 64.8863 128.584 65.8278C128.67 67.3686 127.814 68.995 127.642 69.6797Z" fill="#1C3754"/>
<path d="M118.651 77.8972V74.7301C118.566 74.6445 118.566 74.6445 118.48 74.5589V74.3877C118.651 74.6445 118.908 74.9013 119.165 75.1581L121.648 76.87C122.248 77.3836 123.104 77.3836 123.703 76.87L126.015 74.8157C126.101 74.7301 126.187 74.6445 126.272 74.5589C126.272 74.8157 126.272 75.2437 126.272 77.8972C126.272 78.0684 126.272 78.2396 126.358 78.3252H118.651C118.566 78.154 118.651 78.0684 118.651 77.8972Z" fill="url(#paint5_linear)"/>
<path d="M137.746 71.2207C137.746 75.7573 135.777 79.866 132.694 82.6908C129.869 85.2587 126.187 86.885 122.076 86.885C118.737 86.885 115.654 85.8579 113.171 84.0603C109.061 81.2356 106.407 76.5277 106.407 71.1351C106.407 62.4897 113.428 55.4707 122.076 55.4707C130.725 55.4707 137.746 62.5753 137.746 71.2207Z" stroke="white" stroke-width="1.9345" stroke-miterlimit="10" stroke-linecap="round" stroke-linejoin="round"/>
<path d="M134.367 88.0854C133.938 88.0854 133.596 87.8286 133.339 87.4862L132.311 85.6031C132.14 85.3463 132.055 85.0039 132.055 84.7471V78.6697C130.256 77.8137 129.058 75.9305 128.972 73.8762C128.972 73.8762 128.972 73.8762 128.972 73.7906C128.972 71.5651 130.428 69.5107 132.568 68.7403C133.168 68.5691 133.767 68.3979 134.367 68.3979C136.593 68.3979 138.648 69.8531 139.419 71.9931C140.36 74.561 139.076 77.3857 136.678 78.5841C136.593 78.9265 136.422 79.3545 136.25 79.6112L136.079 79.7824L136.336 80.0392C136.422 80.1248 136.507 80.2104 136.507 80.296C136.764 80.724 136.678 81.2376 136.336 81.58C136.336 81.6656 136.25 81.7512 136.25 81.8368L136.336 81.9224C136.507 82.1792 136.678 82.5216 136.678 82.7784V83.2063C136.678 83.5487 136.507 83.8911 136.336 84.1479L136.422 84.2335C136.593 84.4903 136.764 84.7471 136.764 85.0895V85.4319C136.764 85.9455 136.593 86.3735 136.25 86.7158L135.223 87.6574C135.223 87.6574 135.052 87.743 135.052 87.8286C134.709 88.0854 134.538 88.0854 134.367 88.0854ZM134.367 71.5651C134.281 71.5651 134.281 71.5651 134.195 71.6507C134.195 71.6507 134.11 71.7363 134.11 71.8219C134.11 71.9075 134.195 71.9931 134.281 71.9931C134.367 71.9931 134.367 71.9931 134.452 71.9075C134.538 71.8219 134.538 71.8219 134.538 71.7363C134.538 71.6507 134.452 71.5651 134.367 71.5651Z" fill="url(#paint6_linear)"/>
<path d="M134.367 69.4248C136.25 69.4248 137.963 70.5376 138.562 72.4208C139.419 74.7319 138.134 77.2998 135.822 78.1558V78.327C135.822 78.6694 135.737 79.0118 135.48 79.2686L134.966 79.9534C134.88 80.039 134.88 80.2101 134.966 80.2957L135.651 80.8949C135.737 80.9805 135.651 81.0661 135.565 81.1517L135.394 81.2373V81.3229C135.394 81.4941 135.309 81.6653 135.137 81.7509C135.052 81.8365 135.052 82.0077 135.137 82.0933L135.565 82.6069C135.651 82.6925 135.651 82.7781 135.651 82.9493V83.3773C135.651 83.5485 135.565 83.6341 135.48 83.7197L135.137 84.062C135.052 84.1476 135.052 84.3188 135.137 84.4044L135.565 84.918C135.651 85.0036 135.651 85.0892 135.651 85.2604V85.6028C135.651 85.8596 135.565 86.1164 135.394 86.2876L134.367 87.2292C134.367 87.2292 134.367 87.2292 134.281 87.2292C134.195 87.2292 134.195 87.2292 134.11 87.2292C134.024 87.2292 133.939 87.1436 133.853 87.058L133.767 86.8012L132.825 85.1748C132.74 85.0036 132.74 84.918 132.74 84.7468V78.0702C130.942 77.471 129.743 75.7591 129.743 73.8759C129.743 71.9928 130.942 70.2808 132.74 69.6816C133.339 69.5104 133.853 69.4248 134.367 69.4248ZM134.367 72.8488C134.966 72.8488 135.394 72.3352 135.394 71.8216C135.394 71.2224 134.88 70.7944 134.367 70.7944C133.767 70.7944 133.339 71.308 133.339 71.8216C133.339 72.3352 133.767 72.8488 134.367 72.8488ZM134.367 67.7129C133.682 67.7129 132.997 67.7985 132.312 68.0553C129.828 68.9113 128.202 71.308 128.202 73.8759V73.9615C128.202 76.1871 129.4 78.1558 131.284 79.183V84.7468C131.284 85.1748 131.37 85.6884 131.627 86.0308L132.569 87.6571L132.654 87.9139C132.997 88.5131 133.682 88.9411 134.367 88.9411C134.709 88.9411 135.052 88.8555 135.394 88.6843H135.48C135.565 88.5987 135.651 88.5131 135.737 88.4275L136.764 87.4004C137.278 86.8868 137.62 86.202 137.62 85.5172V85.1748C137.62 84.8324 137.535 84.49 137.449 84.2332C137.62 83.9764 137.62 83.6341 137.62 83.2917V82.8637C137.62 82.5213 137.535 82.1789 137.364 81.8365C137.706 81.2373 137.706 80.4669 137.278 79.8678L137.192 79.7822C137.278 79.611 137.364 79.4398 137.449 79.2686C140.018 77.8134 141.302 74.6463 140.275 71.8216C139.333 69.3392 137.021 67.7129 134.367 67.7129Z" fill="white"/>
<path d="M91.7646 80.3803C91.7646 82.349 90.9084 84.1466 89.5383 85.4305C88.3396 86.5433 86.7127 87.2281 84.9145 87.2281C84.9145 87.2281 84.572 87.2281 76.523 87.2281H75.4955C75.153 87.2281 74.8105 87.2281 74.468 87.2281C73.9542 87.2281 73.3549 87.2281 72.8411 87.2281H62.1377C57.5139 87.3993 54.0032 83.7186 54.0032 79.3531C54.0032 74.902 57.5995 71.3069 62.2234 71.4781H62.309C62.7371 70.2797 63.2509 69.167 63.8503 68.2254C63.9359 68.1398 64.0215 68.0542 64.0215 67.9686L64.1071 67.883C65.3915 66.0855 67.1041 64.8871 68.9879 64.1167C69.0735 64.0311 69.2448 64.0311 69.416 63.9455C69.5016 63.9455 69.5016 63.9455 69.5873 63.8599C69.5873 63.8599 69.5873 63.8599 69.6729 63.8599H69.7585C72.4986 62.9183 75.4955 63.0039 78.2356 64.0311C78.3212 64.0311 78.3212 64.0311 78.4068 64.1167C78.4925 64.1167 78.5781 64.2023 78.6637 64.2023C82.3457 65.6575 85.3426 68.9958 85.942 73.8748C89.1958 74.046 91.7646 76.8708 91.7646 80.3803Z" fill="url(#paint7_linear)"/>
<path d="M84.9146 87.2279C88.6978 87.2279 91.7648 84.162 91.7648 80.38C91.7648 76.5981 88.6978 73.5322 84.9146 73.5322C81.1314 73.5322 78.0645 76.5981 78.0645 80.38C78.0645 84.162 81.1314 87.2279 84.9146 87.2279Z" fill="url(#paint8_linear)"/>
<path d="M73.6974 87.2277C80.4126 87.2277 85.8564 81.7858 85.8564 75.0728C85.8564 68.3599 80.4126 62.918 73.6974 62.918C66.9821 62.918 61.5383 68.3599 61.5383 75.0728C61.5383 81.7858 66.9821 87.2277 73.6974 87.2277Z" fill="url(#paint9_linear)"/>
<path d="M89.5836 85.4037C88.3848 86.5164 86.7579 87.2012 84.9598 87.2012C84.9598 87.2012 84.6173 87.2012 76.5683 87.2012L76.4827 87.1156L76.3115 86.9444L73.657 83.3493L72.8864 79.7542L73.657 74.8752L70.2319 73.3344L75.1983 73.2488L76.9965 69.9961L84.7885 80.011L89.5836 85.4037Z" fill="url(#paint10_linear)"/>
<path d="M73.0578 70.3664C73.0578 69.8528 73.4859 69.5104 73.9141 69.5104C74.4278 69.5104 74.7703 69.9384 74.7703 70.3664C74.7703 70.88 74.3422 71.2224 73.9141 71.2224C73.4003 71.2224 73.0578 70.7944 73.0578 70.3664ZM70.1465 72.1639C70.1465 73.7903 71.174 75.2455 72.7153 75.759V81.4085C72.7153 81.5797 72.7153 81.6653 72.8009 81.8365L73.5716 83.206L73.6572 83.3772C73.7428 83.4628 73.9141 83.5484 73.9997 83.4628C73.9997 83.4628 73.9997 83.4628 74.0853 83.4628L74.9416 82.6069C75.1128 82.4357 75.1985 82.2645 75.1985 82.0077V81.6653C75.1985 81.5797 75.1985 81.4941 75.1128 81.4085L74.7703 80.9805C74.6847 80.8949 74.6847 80.8093 74.7703 80.7237L75.1128 80.3813C75.1985 80.2957 75.1985 80.2101 75.1985 80.1245V79.7821C75.1985 79.6965 75.1985 79.6109 75.1128 79.5253L74.7703 79.0974C74.6847 79.0118 74.6847 78.8406 74.7703 78.8406C74.856 78.755 74.9416 78.6694 74.9416 78.4982V78.4126L75.1128 78.327C75.1985 78.2414 75.1985 78.1558 75.1985 78.1558L74.5991 77.6422C74.5135 77.5566 74.5135 77.471 74.5991 77.3854L75.0272 76.7862C75.1985 76.5294 75.2841 76.2726 75.2841 76.0158V75.8446C77.2535 75.1599 78.281 73.0199 77.596 70.9656C76.911 68.9968 74.7703 67.9697 72.7153 68.6544C71.0884 69.0824 70.1465 70.5376 70.1465 72.1639Z" fill="url(#paint11_linear)"/>
<path d="M73.098 34.0718C82.5088 34.0718 90.1377 26.4454 90.1377 17.0378C90.1377 7.63026 82.5088 0.00390625 73.098 0.00390625C63.6872 0.00390625 56.0582 7.63026 56.0582 17.0378C56.0582 26.4454 63.6872 34.0718 73.098 34.0718Z" fill="#172D45"/>
<path d="M88.5963 17.0381C88.5963 23.4579 84.7431 28.9362 79.1774 31.3329C77.2936 32.1033 75.2385 32.6169 73.0979 32.6169C70.9572 32.6169 68.9021 32.1889 67.0184 31.3329C61.4526 28.9362 57.5994 23.4579 57.5994 17.0381C57.5138 10.6183 61.4526 5.14002 66.9327 2.82889C68.8165 2.05851 70.8716 1.54492 73.0122 1.54492C75.1529 1.54492 77.208 1.97291 79.0917 2.82889C84.6575 5.14002 88.5963 10.6183 88.5963 17.0381Z" fill="#1C3754"/>
<path d="M78.0644 33.4727C77.8931 33.4727 77.7219 33.3871 77.5506 33.3015C77.2081 33.0447 77.1225 32.5311 77.3793 32.1031C77.7218 31.5895 78.15 31.1615 78.5781 30.7335C81.5751 27.7376 83.3732 22.6018 83.3732 17.0379C83.3732 11.4741 81.5751 6.4238 78.5781 3.34228C78.2356 2.99989 77.8931 2.6575 77.5506 2.22951C77.2937 1.88712 77.2937 1.28794 77.7218 1.03115C78.0644 0.774354 78.5781 0.859951 78.9206 1.20234C79.1775 1.54473 79.4344 1.88712 79.7769 2.14392C83.0307 5.48223 85.0001 11.0461 85.0001 17.0379C85.0001 23.0297 83.0307 28.5936 79.7769 31.9319C79.4344 32.2743 79.0919 32.7023 78.7494 33.1303C78.5781 33.3015 78.3212 33.4727 78.0644 33.4727Z" fill="#172D45"/>
<path d="M67.7036 32.9591C67.4467 32.9591 67.1899 32.8735 67.0186 32.6167C66.7617 32.3599 66.5905 32.1031 66.3336 31.8463C63.0798 28.508 61.1104 22.9441 61.1104 16.9523C61.1104 10.9605 63.0798 5.39663 66.3336 2.05832C66.5905 1.80152 66.7617 1.54473 67.0186 1.28794C67.2755 0.945548 67.8749 0.85995 68.2174 1.20234C68.5599 1.45913 68.6455 2.05832 68.303 2.40071C68.0461 2.6575 67.7893 2.99989 67.5324 3.25668C64.5354 6.2526 62.7373 11.3885 62.7373 16.9523C62.7373 22.5162 64.5354 27.5664 67.5324 30.6479C67.7893 30.9047 68.0461 31.2471 68.303 31.5039C68.5599 31.8463 68.5599 32.3599 68.2174 32.7023C68.1318 32.9591 67.8749 32.9591 67.7036 32.9591Z" fill="#172D45"/>
<path d="M73.098 33.9855C72.6698 33.9855 72.2417 33.6432 72.2417 33.1296V0.944844C72.2417 0.516856 72.5842 0.0888672 73.098 0.0888672C73.6117 0.0888672 73.9542 0.431258 73.9542 0.944844V33.1296C73.9542 33.6432 73.5261 33.9855 73.098 33.9855Z" fill="#172D45"/>
<path d="M87.398 11.9879H58.713C58.2848 11.9879 57.8567 11.6454 57.8567 11.1317C57.8567 10.6179 58.1992 10.2754 58.713 10.2754H87.398C87.8261 10.2754 88.2542 10.6179 88.2542 11.1317C88.2542 11.6454 87.9117 11.9879 87.398 11.9879Z" fill="#172D45"/>
<path d="M87.398 23.8004H58.713C58.2848 23.8004 57.8567 23.4579 57.8567 22.9442C57.8567 22.516 58.1992 22.0879 58.713 22.0879H87.398C87.8261 22.0879 88.2542 22.4304 88.2542 22.9442C88.2542 23.4579 87.9117 23.8004 87.398 23.8004Z" fill="#172D45"/>
<path d="M62.3944 20.6325C61.11 20.6325 60.0825 19.6054 60.0825 18.3214C60.0825 17.0374 61.11 16.0103 62.3944 16.0103C63.6788 16.0103 64.7064 17.0374 64.7064 18.3214C64.7064 19.6054 63.6788 20.6325 62.3944 20.6325Z" fill="#56E090"/>
<path d="M77.0369 9.41915C75.7525 9.41915 74.725 8.39198 74.725 7.10801C74.725 5.82405 75.7525 4.79688 77.0369 4.79688C78.3213 4.79688 79.3488 5.82405 79.3488 7.10801C79.3488 8.39198 78.3213 9.41915 77.0369 9.41915Z" fill="#56E090"/>
<path d="M79.7768 27.4807C78.4924 27.4807 77.4648 26.4535 77.4648 25.1695C77.4648 23.8856 78.4924 22.8584 79.7768 22.8584C81.0612 22.8584 82.0887 23.8856 82.0887 25.1695C82.0887 26.4535 81.0612 27.4807 79.7768 27.4807Z" fill="#56E090"/>
<path d="M76.9512 32.9586C76.8656 32.9586 76.78 32.9586 76.6944 32.873C76.5231 32.7874 76.4375 32.5306 76.6087 32.2738C76.78 32.1026 76.8656 31.8458 77.0369 31.6746C77.1225 31.5034 77.3794 31.4178 77.5506 31.589C77.7219 31.6746 77.8075 31.9314 77.6362 32.1026C77.465 32.3594 77.3794 32.5306 77.2081 32.7018C77.1225 32.873 77.0369 32.9586 76.9512 32.9586ZM78.15 30.7331C78.0644 30.7331 78.0644 30.7331 77.9788 30.7331C77.8075 30.6475 77.7219 30.3907 77.8075 30.2195C77.8931 30.0483 77.9788 29.7915 78.0644 29.5347C78.15 29.3635 78.4069 29.1923 78.5781 29.3635C78.7494 29.4491 78.9207 29.7059 78.7494 29.8771C78.6638 30.1339 78.5781 30.3051 78.4069 30.5619C78.4925 30.6475 78.3213 30.7331 78.15 30.7331ZM79.0919 28.3363H79.0063C78.835 28.2507 78.6638 28.0795 78.7494 27.8227C78.835 27.5659 78.9207 27.3948 78.9207 27.138C79.0063 26.9668 79.1775 26.7956 79.4344 26.8812C79.6057 26.9668 79.7769 27.138 79.6913 27.3948C79.6057 27.6515 79.52 27.9083 79.52 28.0795C79.4344 28.2507 79.2632 28.3363 79.0919 28.3363Z" fill="#56E090"/>
<path d="M80.1192 22.6867C79.8624 22.6867 79.6911 22.5155 79.6911 22.2587C79.6911 22.0019 79.6911 21.7451 79.6911 21.5739C79.6911 21.3171 79.8624 21.1459 80.1192 21.2315C80.3761 21.2315 80.5474 21.4027 80.4617 21.6595C80.4617 21.9163 80.4617 22.1731 80.4617 22.4299C80.5474 22.5155 80.3761 22.6867 80.1192 22.6867ZM80.2049 20.1187C79.948 20.1187 79.7767 19.9475 79.7767 19.6908C79.7767 19.434 79.7767 19.1772 79.7767 19.006C79.7767 18.7492 79.948 18.578 80.1192 18.578C80.3761 18.578 80.5474 18.7492 80.5474 18.9204C80.5474 19.1772 80.5474 19.434 80.5474 19.6908C80.633 19.9475 80.4617 20.1187 80.2049 20.1187ZM80.0336 17.5508C79.8624 17.5508 79.6911 17.3796 79.6055 17.2084C79.6055 16.9516 79.5198 16.6948 79.5198 16.5236C79.5198 16.2668 79.6055 16.0956 79.8624 16.0956C80.1192 16.0956 80.2905 16.1812 80.2905 16.438C80.2905 16.6948 80.3761 16.9516 80.3761 17.2084C80.4617 17.3796 80.2905 17.5508 80.0336 17.5508C80.1192 17.5508 80.0336 17.5508 80.0336 17.5508ZM79.6911 15.0685C79.5199 15.0685 79.3486 14.8973 79.263 14.7261C79.1773 14.4693 79.1773 14.2125 79.0917 14.0413C79.0061 13.7845 79.1773 13.6133 79.4342 13.5277C79.6911 13.4421 79.8624 13.6133 79.948 13.8701C80.0336 14.1269 80.0336 14.3837 80.1192 14.5549C80.1192 14.8117 79.948 14.9829 79.6911 15.0685ZM79.0917 12.5861C78.9205 12.5861 78.7492 12.5005 78.6636 12.3293C78.578 12.0726 78.4923 11.9014 78.4923 11.6446C78.4067 11.4734 78.578 11.2166 78.7492 11.131C78.9205 11.0454 79.1773 11.2166 79.263 11.3878C79.3486 11.6446 79.4342 11.8158 79.4342 12.0726C79.5198 12.2438 79.3486 12.5005 79.1773 12.5861H79.0917ZM78.3211 10.1894C78.1498 10.1894 77.9786 10.1038 77.9786 9.93262C77.8929 9.67582 77.8073 9.50463 77.7217 9.24783C77.6361 9.07664 77.7217 8.81985 77.9786 8.73425C78.1498 8.64865 78.4067 8.73425 78.4923 8.99104C78.578 9.24783 78.6636 9.41903 78.7492 9.67582C78.8348 9.84702 78.7492 10.1038 78.4923 10.1894C78.4067 10.1038 78.3211 10.1894 78.3211 10.1894Z" fill="#56E090"/>
<path d="M75.4955 4.88253C75.4098 4.88253 75.2386 4.79694 75.153 4.71134C74.9817 4.54014 74.8961 4.28335 74.7248 4.11216C74.6392 4.02656 74.6392 3.76976 74.8961 3.59857C75.0673 3.42737 75.3242 3.51297 75.4955 3.68417C75.6667 3.85536 75.7524 4.11216 75.9236 4.28335C76.0092 4.45455 76.0092 4.71134 75.838 4.88253C75.6667 4.88253 75.5811 4.88253 75.4955 4.88253ZM73.9542 2.91379C73.8686 2.91379 73.7829 2.91379 73.6973 2.82819C73.5261 2.657 73.3548 2.4858 73.1836 2.31461C72.9267 2.14341 72.9267 1.88662 73.0979 1.71542C73.2692 1.54423 73.5261 1.54423 73.6973 1.71542C73.8686 1.88662 74.0398 2.05781 74.2111 2.22901C74.3823 2.4002 74.3823 2.657 74.2111 2.82819C74.1254 2.91379 74.0398 2.91379 73.9542 2.91379ZM71.9848 1.20184C71.8991 1.20184 71.8135 1.20184 71.7279 1.11624C71.5566 1.03064 71.3854 0.859445 71.2141 0.773847C71.0429 0.68825 70.9573 0.431457 71.1285 0.260261C71.2141 0.00346828 71.471 -0.0821294 71.6423 0.0890659C71.8135 0.260261 72.0704 0.345859 72.2417 0.517054C72.4129 0.68825 72.4985 0.859445 72.3273 1.11624C72.2417 1.20184 72.156 1.20184 71.9848 1.20184Z" fill="#56E090"/>
<path d="M60.8532 17.0374C60.7676 17.0374 60.682 17.0374 60.5964 16.9518C60.4251 16.7806 60.2539 16.6094 60.0826 16.4382C59.9113 16.267 59.9113 16.0102 60.0826 15.839C60.2539 15.6678 60.5107 15.6678 60.682 15.839C60.8532 16.0102 61.0245 16.1814 61.1958 16.3526C61.367 16.5238 61.367 16.7806 61.1958 16.9518C61.0245 17.0374 60.9389 17.0374 60.8532 17.0374ZM59.2263 15.1542C59.1407 15.1542 58.9695 15.0686 58.8838 14.983C58.7126 14.8118 58.6269 14.555 58.4557 14.3838C58.3701 14.2126 58.3701 13.9559 58.5413 13.7847C58.7126 13.6991 58.9695 13.6991 59.1407 13.8703C59.312 14.0415 59.3976 14.2982 59.5688 14.4694C59.7401 14.6406 59.6545 14.8974 59.4832 15.0686C59.3976 15.0686 59.312 15.1542 59.2263 15.1542ZM57.8563 12.9287C57.6851 12.9287 57.5994 12.8431 57.5138 12.6719C57.4282 12.4151 57.2569 12.2439 57.1713 11.9871C57.0857 11.8159 57.1713 11.5591 57.3425 11.4735C57.5138 11.3879 57.7707 11.4735 57.8563 11.6447C57.9419 11.8159 58.0276 12.0727 58.1988 12.2439C58.2844 12.4151 58.1988 12.6719 58.0276 12.7575C58.0276 12.9287 57.9419 12.9287 57.8563 12.9287Z" fill="#56E090"/>
<path d="M77.6362 25.2547C77.6362 25.2547 77.5506 25.2547 77.6362 25.2547C77.3794 25.2547 77.1225 25.1691 76.8656 25.1691C76.6087 25.1691 76.5231 24.9123 76.5231 24.7411C76.5231 24.4843 76.78 24.3987 76.9512 24.3987C77.2081 24.3987 77.465 24.4843 77.6362 24.4843C77.8931 24.4843 77.9787 24.7411 77.9787 24.9123C77.9787 25.0835 77.8075 25.2547 77.6362 25.2547ZM75.0674 24.8267H74.9818C74.7249 24.7411 74.468 24.7411 74.2968 24.6555C74.0399 24.5699 73.9543 24.3987 74.0399 24.1419C74.1255 23.8851 74.2968 23.7995 74.5537 23.8851C74.8106 23.9707 74.9818 23.9707 75.2387 24.0563C75.4956 24.1419 75.5812 24.3131 75.5812 24.5699C75.4099 24.6555 75.2387 24.8267 75.0674 24.8267ZM72.6699 24.1419H72.5842C72.3274 24.0563 72.1561 23.9707 71.8992 23.8851C71.728 23.7995 71.5567 23.5427 71.6424 23.3715C71.728 23.2003 71.9849 23.0291 72.1561 23.1147C72.413 23.2003 72.5843 23.2859 72.8411 23.3715C73.0124 23.4571 73.1836 23.6283 73.098 23.8851C72.9268 24.0563 72.8411 24.1419 72.6699 24.1419ZM70.1867 23.2859C70.1011 23.2859 70.1011 23.2859 70.0154 23.2859C69.7586 23.2003 69.5873 23.1147 69.3304 23.0291C69.1592 22.9435 69.0735 22.6867 69.1592 22.5155C69.2448 22.3444 69.5017 22.2588 69.6729 22.3444C69.9298 22.4299 70.1011 22.5155 70.358 22.6011C70.5292 22.6867 70.7005 22.9435 70.6148 23.1147C70.5292 23.2003 70.358 23.2859 70.1867 23.2859ZM67.8748 22.1732C67.7891 22.1732 67.7891 22.1732 67.7035 22.0876C67.4466 22.002 67.2754 21.8308 67.0185 21.7452C66.8472 21.6596 66.7616 21.4028 66.8472 21.2316C66.9329 21.0604 67.1898 20.9748 67.361 21.0604C67.5323 21.146 67.7891 21.3172 67.9604 21.4028C68.1316 21.4884 68.2173 21.7452 68.1317 21.9164C68.2173 22.1732 68.046 22.1732 67.8748 22.1732ZM65.6485 20.9748C65.5628 20.9748 65.4772 20.9748 65.4772 20.8892C65.306 20.718 65.0491 20.6324 64.8778 20.4612C64.7066 20.3756 64.6209 20.1188 64.7922 19.862C64.8778 19.6908 65.1347 19.6052 65.3916 19.7764C65.5628 19.9476 65.8197 20.0332 65.991 20.2044C66.1622 20.29 66.2479 20.5468 66.0766 20.718C65.9054 20.8892 65.8197 20.9748 65.6485 20.9748Z" fill="#56E090"/>
<path d="M82.8594 25.3405C82.6882 25.3405 82.5169 25.1693 82.4313 24.9981C82.4313 24.7413 82.6025 24.5701 82.7738 24.5701C83.0307 24.5701 83.2875 24.4845 83.4588 24.4845C83.7157 24.4845 83.8869 24.5701 83.8869 24.8269C83.8869 25.0837 83.8013 25.2549 83.5444 25.2549C83.4588 25.2549 83.2019 25.3405 82.8594 25.3405C82.945 25.3405 82.945 25.3405 82.8594 25.3405ZM85.4282 24.9125C85.257 24.9125 85.0857 24.8269 85.0001 24.5701C84.9145 24.3133 85.0857 24.1421 85.257 24.0565C85.5138 23.9709 85.6851 23.9709 85.942 23.8853C86.1132 23.7997 86.3701 23.9709 86.4557 24.1421C86.5414 24.3133 86.3701 24.5701 86.1989 24.6557C85.942 24.7413 85.6851 24.8269 85.5138 24.8269C85.5138 24.9125 85.4282 24.9125 85.4282 24.9125ZM87.8258 24.0565C87.6545 24.0565 87.5689 23.9709 87.4833 23.7997C87.3976 23.6285 87.4833 23.3717 87.6545 23.2861C87.9114 23.2005 88.0827 23.1149 88.2539 22.9437C88.4252 22.8581 88.682 22.9437 88.7677 23.1149C88.8533 23.2861 88.7677 23.5429 88.5964 23.6285C88.3395 23.7141 88.1683 23.8853 87.9114 23.9709C87.9114 24.0565 87.9114 24.0565 87.8258 24.0565Z" fill="#56E090"/>
<path d="M79.0917 7.10849C78.9204 7.10849 78.7491 7.02286 78.6635 6.76598C78.5779 6.5091 78.7492 6.33785 78.9204 6.25222C79.1773 6.16659 79.4342 6.16659 79.6054 6.08097C79.8623 5.99534 80.0336 6.16659 80.1192 6.42347C80.2048 6.68036 80.0336 6.85161 79.7767 6.93724C79.5198 7.02286 79.3485 7.02286 79.0917 7.10849C79.1773 7.10849 79.1773 7.10849 79.0917 7.10849ZM81.6605 6.68036C81.4892 6.68036 81.318 6.5091 81.2323 6.33785C81.2323 6.08097 81.4036 5.90971 81.5748 5.90971C81.8317 5.90971 82.0886 5.82409 82.3455 5.82409C82.6024 5.82409 82.7736 5.99534 82.7736 6.16659C82.7736 6.42347 82.6024 6.59473 82.4311 6.59473C82.1742 6.59473 81.9173 6.59473 81.6605 6.68036ZM84.9143 6.59473C84.6574 6.59473 84.4005 6.59473 84.1436 6.5091C83.8868 6.5091 83.7155 6.33785 83.7155 6.08097C83.7155 5.82409 83.8868 5.65283 84.1436 5.65283C84.4005 5.65283 84.6574 5.65283 84.9143 5.73846C85.1712 5.73846 85.2568 5.90971 85.2568 6.16659C85.3424 6.42347 85.1712 6.59473 84.9143 6.59473Z" fill="#56E090"/>
<path d="M63.679 16.952C63.5934 16.952 63.5078 16.952 63.4221 16.8664C63.2509 16.6952 63.2509 16.4384 63.3365 16.2672C63.5078 16.096 63.679 15.9248 63.8503 15.668C64.0215 15.4968 64.2784 15.4968 64.4497 15.5824C64.6209 15.7536 64.6209 16.0104 64.5353 16.1816C64.364 16.3528 64.1928 16.524 64.1072 16.6952C63.9359 16.8664 63.7646 16.952 63.679 16.952ZM65.3916 14.9833C65.3059 14.9833 65.2203 14.9833 65.1347 14.8977C64.9634 14.7265 64.9634 14.4697 65.1347 14.2985C65.3059 14.1273 65.4772 13.9561 65.6484 13.7849C65.8197 13.6137 66.0766 13.6137 66.2478 13.7849C66.4191 13.9561 66.4191 14.2129 66.2478 14.3841C66.0766 14.5553 65.9053 14.7265 65.7341 14.8977C65.5628 14.9833 65.4772 14.9833 65.3916 14.9833ZM67.2754 13.2713C67.1897 13.2713 67.0185 13.1857 66.9328 13.1001C66.7616 12.9289 66.8472 12.6721 67.0185 12.5009C67.1897 12.3297 67.361 12.1585 67.6179 11.9873C67.7891 11.8161 68.046 11.9017 68.2172 12.0729C68.3885 12.2441 68.3029 12.5009 68.1316 12.6721C67.9604 12.8433 67.7891 13.0145 67.6179 13.1001C67.4466 13.2713 67.361 13.2713 67.2754 13.2713ZM69.2448 11.7305C69.1591 11.7305 68.9879 11.6449 68.9023 11.5593C68.731 11.3882 68.8166 11.1314 68.9879 10.9602C69.1591 10.8746 69.3304 10.7034 69.5017 10.6178L69.5873 10.5322C69.7585 10.4466 70.0154 10.4466 70.1867 10.6178C70.2723 10.789 70.2723 11.0458 70.101 11.217L70.0154 11.3026C69.8442 11.3882 69.6729 11.5593 69.5017 11.6449C69.416 11.6449 69.3304 11.7305 69.2448 11.7305ZM71.3854 10.2754C71.2142 10.2754 71.1286 10.1898 71.0429 10.1042C70.9573 9.93299 70.9573 9.6762 71.2142 9.5906C71.3854 9.505 71.6423 9.33381 71.8136 9.24821C71.9848 9.16261 72.2417 9.24821 72.3273 9.4194C72.413 9.5906 72.3273 9.84739 72.1561 9.93299C71.9848 10.0186 71.728 10.1898 71.5567 10.2754C71.5567 10.2754 71.4711 10.2754 71.3854 10.2754ZM73.6117 9.07701C73.4405 9.07701 73.3549 8.99142 73.2692 8.82022C73.1836 8.64903 73.2692 8.39223 73.4405 8.30663C73.6974 8.22104 73.8686 8.04984 74.1255 7.96424C74.2968 7.87865 74.5536 7.96424 74.6393 8.13544C74.7249 8.30663 74.6393 8.56343 74.468 8.64903C74.2111 8.73462 74.0399 8.82022 73.783 8.99142C73.783 9.07701 73.6974 9.07701 73.6117 9.07701Z" fill="#56E090"/>
<path d="M59.3975 27.1378C59.1406 27.1378 58.9694 26.9666 58.9694 26.7098C58.9694 26.453 58.9694 26.1963 58.9694 25.9395C58.9694 25.6827 59.1406 25.5115 59.3975 25.5971C59.6544 25.5971 59.8256 25.7683 59.74 26.0251C59.74 26.2819 59.74 26.5386 59.74 26.7098C59.8256 26.9666 59.6544 27.1378 59.3975 27.1378ZM59.74 24.5699H59.6544C59.3975 24.4843 59.3119 24.3131 59.3119 24.0563C59.3975 23.7995 59.3975 23.5427 59.4831 23.3715C59.5688 23.2003 59.74 23.0291 59.9969 23.1147C60.1681 23.2003 60.3394 23.3715 60.2538 23.6283C60.1681 23.8851 60.1681 24.0563 60.0825 24.3131C60.0825 24.4843 59.9113 24.5699 59.74 24.5699ZM60.5106 22.1732C60.425 22.1732 60.425 22.1732 60.3394 22.1732C60.1681 22.0876 59.9969 21.8308 60.0825 21.6596C60.1681 21.4028 60.2538 21.2316 60.3394 20.9748C60.425 20.8036 60.6819 20.718 60.8532 20.8036C61.0244 20.8892 61.11 21.146 61.0244 21.3172C60.9388 21.574 60.8532 21.7452 60.7675 22.002C60.7675 22.0876 60.6819 22.1732 60.5106 22.1732Z" fill="#56E090"/>
<path d="M1 88.5117H141" stroke="#EBF0F6" stroke-width="2" stroke-miterlimit="10" stroke-linecap="round" stroke-linejoin="round"/>
<path d="M93.8196 16.4387C94.2452 16.4387 94.5902 16.0937 94.5902 15.6681C94.5902 15.2425 94.2452 14.8975 93.8196 14.8975C93.394 14.8975 93.049 15.2425 93.049 15.6681C93.049 16.0937 93.394 16.4387 93.8196 16.4387Z" fill="#56E090"/>
<path d="M53.2323 10.1901C53.516 10.1901 53.746 9.9601 53.746 9.67636C53.746 9.39262 53.516 9.1626 53.2323 9.1626C52.9485 9.1626 52.7185 9.39262 52.7185 9.67636C52.7185 9.9601 52.9485 10.1901 53.2323 10.1901Z" fill="#56E090"/>
<path d="M92.0214 4.88264C92.2578 4.88264 92.4495 4.69095 92.4495 4.4545C92.4495 4.21805 92.2578 4.02637 92.0214 4.02637C91.7849 4.02637 91.5933 4.21805 91.5933 4.4545C91.5933 4.69095 91.7849 4.88264 92.0214 4.88264Z" fill="#56E090"/>
<path d="M55.9724 27.5662C56.2089 27.5662 56.4006 27.3745 56.4006 27.1381C56.4006 26.9016 56.2089 26.71 55.9724 26.71C55.736 26.71 55.5443 26.9016 55.5443 27.1381C55.5443 27.3745 55.736 27.5662 55.9724 27.5662Z" fill="#56E090"/>
<path d="M50.2355 20.804C50.6611 20.804 51.0061 20.459 51.0061 20.0333C51.0061 19.6077 50.6611 19.2627 50.2355 19.2627C49.8099 19.2627 49.4648 19.6077 49.4648 20.0333C49.4648 20.459 49.8099 20.804 50.2355 20.804Z" fill="#56E090"/>
<defs>
<linearGradient id="paint0_linear" x1="-nan" y1="-nan" x2="-nan" y2="-nan" gradientUnits="userSpaceOnUse">
<stop stop-color="#51DFD4"/>
<stop offset="1" stop-color="#1BE068"/>
</linearGradient>
<linearGradient id="paint1_linear" x1="77.595" y1="50.4907" x2="125.159" y2="50.4907" gradientUnits="userSpaceOnUse">
<stop stop-color="#51DFD4"/>
<stop offset="1" stop-color="#1BE068"/>
</linearGradient>
<linearGradient id="paint2_linear" x1="68.5123" y1="50.4907" x2="20.9484" y2="50.4907" gradientUnits="userSpaceOnUse">
<stop stop-color="#51DFD4"/>
<stop offset="1" stop-color="#1BE068"/>
</linearGradient>
<linearGradient id="paint3_linear" x1="13.6476" y1="76.7269" x2="23.3106" y2="76.7269" gradientUnits="userSpaceOnUse">
<stop offset="0.00289017" stop-color="#324558"/>
<stop offset="1" stop-color="#778592"/>
</linearGradient>
<linearGradient id="paint4_linear" x1="111.015" y1="82.9009" x2="133.381" y2="82.9009" gradientUnits="userSpaceOnUse">
<stop stop-color="#42FCED"/>
<stop offset="1" stop-color="#00AA72"/>
</linearGradient>
<linearGradient id="paint5_linear" x1="122.354" y1="78.3608" x2="122.354" y2="76.1491" gradientUnits="userSpaceOnUse">
<stop stop-color="white"/>
<stop offset="0.9913" stop-color="#E6EDF7"/>
</linearGradient>
<linearGradient id="paint6_linear" x1="129.017" y1="78.3282" x2="139.702" y2="78.3282" gradientUnits="userSpaceOnUse">
<stop offset="0.00289017" stop-color="#324558"/>
<stop offset="1" stop-color="#778592"/>
</linearGradient>
<linearGradient id="paint7_linear" x1="72.8515" y1="62.8587" x2="72.8515" y2="87.2357" gradientUnits="userSpaceOnUse">
<stop stop-color="#51DFD4"/>
<stop offset="1" stop-color="#1BE068"/>
</linearGradient>
<linearGradient id="paint8_linear" x1="77.3494" y1="72.1229" x2="83.4302" y2="78.7588" gradientUnits="userSpaceOnUse">
<stop stop-color="#A8FFD7"/>
<stop offset="1" stop-color="#52E07F" stop-opacity="0"/>
</linearGradient>
<linearGradient id="paint9_linear" x1="64.4867" y1="67.9884" x2="68.5707" y2="71.1376" gradientUnits="userSpaceOnUse">
<stop stop-color="#A8FFD7"/>
<stop offset="1" stop-color="#52E07F" stop-opacity="0"/>
</linearGradient>
<linearGradient id="paint10_linear" x1="71.6879" y1="73.4992" x2="85.7206" y2="87.5367" gradientUnits="userSpaceOnUse">
<stop stop-color="#21C29A"/>
<stop offset="1" stop-color="#19B33C" stop-opacity="0"/>
</linearGradient>
<linearGradient id="paint11_linear" x1="78.5529" y1="81.736" x2="72.3724" y2="71.884" gradientUnits="userSpaceOnUse">
<stop offset="0.0113208" stop-color="#B0FFD7"/>
<stop offset="1" stop-color="white"/>
</linearGradient>
</defs>
</svg>
