<svg width="164" height="127" viewBox="0 0 164 127" fill="none" xmlns="http://www.w3.org/2000/svg">
<path d="M82.8379 90.212C105.839 90.212 124.486 71.5472 124.486 48.523C124.486 25.4988 105.839 6.83398 82.8379 6.83398C59.8364 6.83398 41.1899 25.4988 41.1899 48.523C41.1899 71.5472 59.8364 90.212 82.8379 90.212Z" fill="#EAEEF9"/>
<g filter="url(#filter0_d)">
<path d="M139.905 42.7354C141.078 42.7354 142 43.658 142 44.8324V91.3865C142 92.5609 141.078 93.4836 139.905 93.4836H68.5085C67.3354 93.4836 66.4136 92.5609 66.4136 91.3865V44.8324C66.4136 43.658 67.3354 42.7354 68.5085 42.7354H139.905Z" fill="white"/>
</g>
<path d="M142 44.8324V47.6844H66.4136V44.8324C66.4136 43.658 67.3354 42.7354 68.5085 42.7354H139.905C141.078 42.7354 142 43.658 142 44.8324Z" fill="url(#paint0_linear)"/>
<path opacity="0.8" d="M68.9275 45.9227C69.2977 45.9227 69.5979 45.6222 69.5979 45.2516C69.5979 44.881 69.2977 44.5806 68.9275 44.5806C68.5572 44.5806 68.2571 44.881 68.2571 45.2516C68.2571 45.6222 68.5572 45.9227 68.9275 45.9227Z" fill="white"/>
<path opacity="0.5" d="M70.855 45.9227C71.2252 45.9227 71.5253 45.6222 71.5253 45.2516C71.5253 44.881 71.2252 44.5806 70.855 44.5806C70.4847 44.5806 70.1846 44.881 70.1846 45.2516C70.1846 45.6222 70.4847 45.9227 70.855 45.9227Z" fill="white"/>
<path opacity="0.2" d="M72.7822 45.9227C73.1525 45.9227 73.4526 45.6222 73.4526 45.2516C73.4526 44.881 73.1525 44.5806 72.7822 44.5806C72.412 44.5806 72.1118 44.881 72.1118 45.2516C72.1118 45.6222 72.412 45.9227 72.7822 45.9227Z" fill="white"/>
<path d="M55.7371 10.6656C56.8375 10.3076 57.4395 9.12451 57.0819 8.0231C56.7243 6.92169 55.5424 6.31902 54.442 6.67701C53.3417 7.03499 52.7396 8.21806 53.0973 9.31947C53.4549 10.4209 54.6368 11.0235 55.7371 10.6656Z" fill="#E2EBFF"/>
<path d="M87.3106 3.15279C88.0588 2.90936 88.4683 2.10486 88.2251 1.3559C87.9819 0.60694 87.1782 0.197131 86.43 0.440567C85.6818 0.684003 85.2723 1.4885 85.5155 2.23746C85.7587 2.98642 86.5624 3.39623 87.3106 3.15279Z" fill="#35E09D"/>
<path d="M54.4299 90.0883C55.2167 90.0883 55.8545 89.4499 55.8545 88.6623C55.8545 87.8748 55.2167 87.2363 54.4299 87.2363C53.6432 87.2363 53.0054 87.8748 53.0054 88.6623C53.0054 89.4499 53.6432 90.0883 54.4299 90.0883Z" fill="#3E5061"/>
<path d="M129.078 27.7896C130.376 26.6021 130.467 24.5859 129.281 23.2863C128.094 21.9868 126.08 21.896 124.782 23.0836C123.484 24.2712 123.393 26.2874 124.579 27.5869C125.766 28.8864 127.78 28.9772 129.078 27.7896Z" fill="#EAEEF9"/>
<path d="M129.257 13.5561C129.803 13.0561 129.842 12.2071 129.342 11.66C128.842 11.1128 127.994 11.0746 127.448 11.5746C126.901 12.0746 126.863 12.9236 127.362 13.4707C127.862 14.0179 128.71 14.0561 129.257 13.5561Z" fill="#EAEEF9"/>
<path d="M135.883 84.0049H129.011C128.76 84.0049 128.508 84.2565 128.508 84.5082V84.9276H69.0112V85.6825H128.508V86.1019C128.508 86.3536 128.76 86.6052 129.011 86.6052H135.883C136.134 86.6052 136.385 86.3536 136.385 86.1019V84.5082C136.385 84.1727 136.134 84.0049 135.883 84.0049Z" fill="#E6EDF5"/>
<path d="M135.883 74.9458H129.011C128.76 74.9458 128.508 75.1974 128.508 75.4491V75.8685H69.0112V76.6234H128.508V77.0428C128.508 77.2945 128.76 77.5461 129.011 77.5461H135.883C136.134 77.5461 136.385 77.2945 136.385 77.0428V75.4491C136.385 75.1136 136.134 74.9458 135.883 74.9458Z" fill="#E6EDF5"/>
<path d="M135.883 65.8862H129.011C128.76 65.8862 128.508 66.1379 128.508 66.3895V66.8089H69.0112V67.48H128.508V67.8994C128.508 68.151 128.76 68.4027 129.011 68.4027H135.883C136.134 68.4027 136.385 68.151 136.385 67.8994V66.3056C136.385 66.054 136.134 65.8862 135.883 65.8862Z" fill="#E6EDF5"/>
<path d="M136.385 57.3304C136.385 57.0788 136.134 56.8271 135.883 56.8271H129.011C128.76 56.8271 128.508 57.0788 128.508 57.3304V57.7498H69.0112V58.5048H128.508V58.9242C128.508 59.1758 128.76 59.4275 129.011 59.4275H135.883C136.134 59.4275 136.385 59.1758 136.385 58.9242V57.3304Z" fill="#E6EDF5"/>
<path d="M76.1341 76.4551H74.6257V87.6952H76.1341V76.4551Z" fill="#35E09D"/>
<path d="M80.5753 79.0557H79.0669V86.1017H80.5753V79.0557Z" fill="#35E09D"/>
<path d="M84.8464 89.3765V82.8271H85.3548V89.3765H84.8464Z" fill="url(#paint1_linear)" stroke="url(#paint2_linear)"/>
<path d="M90.296 78.9717H88.7876V85.095H90.296V78.9717Z" fill="#35E09D"/>
<path d="M94.5667 91.1382V81.4014H95.075V91.1382H94.5667Z" fill="url(#paint3_linear)" stroke="url(#paint4_linear)"/>
<path d="M100.101 56.7432H98.5923V83.1658H100.101V56.7432Z" fill="#35E09D"/>
<path d="M104.287 68.6581V58.418H104.796V68.6581H104.287Z" fill="url(#paint5_linear)" stroke="url(#paint6_linear)"/>
<path d="M109.821 53.3042H108.313V65.8864H109.821V53.3042Z" fill="#35E09D"/>
<path d="M115.101 50.6201H113.592V75.449H115.101V50.6201Z" fill="#35E09D"/>
<path d="M118.533 71.3419V59.6758H119.042V71.3419H118.533Z" fill="url(#paint7_linear)" stroke="url(#paint8_linear)"/>
<path d="M123.813 74.6976V66.8062H124.321V74.6976H123.813Z" fill="url(#paint9_linear)" stroke="url(#paint10_linear)"/>
<g filter="url(#filter1_d)">
<path d="M95.4915 13.7119C96.6647 13.7119 97.5865 14.6346 97.5865 15.8089V62.447C97.5865 63.6213 96.6647 64.544 95.4915 64.544H24.095C22.9218 64.544 22 63.6213 22 62.447V15.8089C22 14.6346 22.9218 13.7119 24.095 13.7119H95.4915Z" fill="white"/>
</g>
<path d="M34.905 59.8467H27.9497V60.8523H34.905V59.8467Z" fill="#E6EDF5"/>
<path d="M48.8999 59.8467H41.9446V60.8523H48.8999V59.8467Z" fill="#E6EDF5"/>
<path d="M62.9778 59.8467H56.0225V60.8523H62.9778V59.8467Z" fill="#E6EDF5"/>
<path d="M76.9719 59.8467H70.0166V60.8523H76.9719V59.8467Z" fill="#E6EDF5"/>
<path d="M91.0503 59.8467H84.095V60.8523H91.0503V59.8467Z" fill="#E6EDF5"/>
<path d="M97.5865 15.8089V18.6609H22V15.8089C22 14.6346 22.9218 13.7119 24.095 13.7119H95.4915C96.6647 13.7119 97.5865 14.6346 97.5865 15.8089Z" fill="url(#paint11_linear)"/>
<path d="M24.5137 16.9837C24.8839 16.9837 25.184 16.6833 25.184 16.3127C25.184 15.942 24.8839 15.6416 24.5137 15.6416C24.1434 15.6416 23.8433 15.942 23.8433 16.3127C23.8433 16.6833 24.1434 16.9837 24.5137 16.9837Z" fill="white"/>
<path d="M26.4414 16.9837C26.8116 16.9837 27.1118 16.6833 27.1118 16.3127C27.1118 15.942 26.8116 15.6416 26.4414 15.6416C26.0711 15.6416 25.771 15.942 25.771 16.3127C25.771 16.6833 26.0711 16.9837 26.4414 16.9837Z" fill="white"/>
<path d="M28.3686 16.9837C28.7389 16.9837 29.039 16.6833 29.039 16.3127C29.039 15.942 28.7389 15.6416 28.3686 15.6416C27.9984 15.6416 27.6982 15.942 27.6982 16.3127C27.6982 16.6833 27.9984 16.9837 28.3686 16.9837Z" fill="white"/>
<path opacity="0.25" d="M55.1001 56.5756H27.1951V31.4951C28.6196 31.579 30.128 31.7468 31.4688 32.4178C32.0554 32.6695 32.5582 33.0889 32.8934 33.676C33.061 33.9277 33.1448 34.0954 33.1448 34.3471C33.3124 35.102 33.8152 35.6053 34.4856 35.6892L35.156 35.7731C36.4129 35.9408 37.3347 36.9474 37.4185 38.2056L37.5861 40.3027C38.9269 40.7221 39.0945 40.8059 40.2677 41.2254C40.4353 41.3092 40.5191 41.2254 40.6029 41.1415C40.6867 41.0576 40.8543 40.9737 40.9381 40.9737C41.1057 40.9737 41.1895 40.9737 41.3571 40.8898C41.5247 40.8059 41.7761 40.8059 41.8598 41.0576C42.3626 42.0642 43.452 42.6513 44.0386 43.574C44.7928 44.5806 45.966 44.4128 46.804 44.4967C47.0554 44.4967 47.3068 44.6645 47.5582 44.8323C48.6475 45.9227 50.2397 49.3618 51.5805 49.3618C52.0833 49.3618 52.5023 49.6135 52.8375 50.0329C54.0107 52.0461 54.7649 54.1431 55.1001 56.5756Z" fill="url(#paint12_linear)"/>
<path d="M27.1951 31.4951C28.6196 31.579 30.128 31.7468 31.4688 32.4178C32.0554 32.6695 32.5582 33.0889 32.8934 33.676C33.061 33.9277 33.1448 34.0954 33.1448 34.3471C33.3124 35.102 33.8152 35.6053 34.4856 35.6892L35.156 35.7731C36.4129 35.9408 37.3347 36.9474 37.4185 38.2056L37.5861 40.3027C38.9269 40.7221 39.0945 40.8059 40.2677 41.2254C40.4353 41.3092 40.5191 41.2254 40.6029 41.1415C40.6867 41.0576 40.8543 40.9737 40.9381 40.9737C41.1057 40.9737 41.1895 40.9737 41.3571 40.8898C41.5247 40.8059 41.7761 40.8059 41.8599 41.0576C42.3626 42.0642 43.452 42.6513 44.0386 43.574C44.7928 44.5806 45.966 44.4128 46.804 44.4967C47.0554 44.4967 47.3068 44.6645 47.5582 44.8323C48.6476 45.9227 50.2397 49.3618 51.5805 49.3618C52.0833 49.3618 52.5023 49.6135 52.8375 50.0329C54.0945 52.0461 54.8487 54.1431 55.1839 56.5756" stroke="url(#paint13_linear)" stroke-width="1.5" stroke-miterlimit="10"/>
<path opacity="0.25" d="M91.0502 23.2744V56.5753H63.0614C62.8938 56.5753 62.81 56.3237 62.9776 56.1559C64.4022 54.8977 63.3128 54.3105 64.2346 52.9684C64.9888 51.7102 65.4915 48.1033 66.9161 47.9355C68.4245 47.6839 70.1005 43.4898 70.6033 40.8056C70.6871 40.4701 70.9385 40.2184 71.2737 40.2184C72.363 40.2184 73.3686 39.5474 73.9552 38.6247C74.5418 37.7859 74.877 36.7793 75.1284 35.6889C75.2122 35.2694 75.5474 35.1017 75.8826 35.0178C76.3016 34.9339 76.7206 34.5145 76.8882 34.0951C76.8882 34.0112 76.972 33.9273 76.972 33.8435C77.0558 33.5079 77.3072 33.3402 77.5586 33.2563C77.81 33.1724 78.1452 33.1724 78.3966 33.4241C78.4804 33.4241 78.4804 33.5079 78.5642 33.4241C78.648 33.4241 78.648 33.3402 78.648 33.2563C79.2345 31.0754 79.9049 28.8106 81.0781 26.8813C81.4971 26.1264 82.0837 25.4553 82.7541 24.8682C83.6759 24.1132 84.8491 23.7777 86.0222 23.6938C87.1954 23.6099 88.3686 24.0293 89.5418 23.7777C89.9608 23.6099 90.5474 23.2744 91.0502 23.2744Z" fill="#939EA9"/>
<path d="M63.0614 56.5753C62.8938 56.5753 62.81 56.3237 62.9776 56.1559C64.4022 54.8977 63.3128 54.3105 64.2346 52.9684C64.9888 51.7102 65.4915 48.1033 66.9161 47.9355C68.4245 47.6839 70.1005 43.4898 70.6033 40.8056C70.6871 40.4701 70.9385 40.2184 71.2737 40.2184C72.363 40.2184 73.3686 39.5474 73.9552 38.6247C74.5418 37.7859 74.877 36.7793 75.1284 35.6889C75.2122 35.2694 75.5474 35.1017 75.8826 35.0178C76.3016 34.9339 76.7206 34.5145 76.8882 34.0951C76.8882 34.0112 76.972 33.9273 76.972 33.8435C77.0558 33.5079 77.3072 33.3402 77.5586 33.2563C77.81 33.1724 78.1452 33.1724 78.3966 33.4241C78.4804 33.4241 78.4804 33.5079 78.5642 33.4241C78.648 33.4241 78.648 33.3402 78.648 33.2563C79.2345 31.0754 79.9049 28.8106 81.0781 26.8813C81.4971 26.1264 82.0837 25.4553 82.7541 24.8682C83.6759 24.1132 84.8491 23.7777 86.0222 23.6938C87.1954 23.6099 88.3686 24.0293 89.5418 23.7777C89.877 23.6938 90.5474 23.3583 90.9664 23.2744" stroke="url(#paint14_linear)" stroke-width="1.5" stroke-miterlimit="10"/>
<path d="M54.0947 42.316H41.4411C40.9383 42.316 40.5193 41.8966 40.5193 41.3933V36.9476C40.5193 36.4443 40.9383 36.0249 41.4411 36.0249H54.0947C54.5975 36.0249 55.0165 36.4443 55.0165 36.9476V41.3933C55.0165 41.8966 54.5975 42.316 54.0947 42.316Z" fill="#1C3754"/>
<path d="M52.4193 37.7861H43.1177C42.9501 37.7861 42.7825 37.9537 42.7825 38.1213C42.7825 38.2889 42.9501 38.4565 43.1177 38.4565H52.4193C52.5869 38.4565 52.7545 38.2889 52.7545 38.1213C52.7545 37.9537 52.5869 37.7861 52.4193 37.7861Z" fill="#2D5887"/>
<path d="M48.0614 39.8833H43.0334C42.8658 39.8833 42.6982 40.0509 42.6982 40.2185C42.6982 40.3861 42.8658 40.5537 43.0334 40.5537H48.0614C48.229 40.5537 48.3966 40.3861 48.3966 40.2185C48.3966 40.0509 48.229 39.8833 48.0614 39.8833Z" fill="#2D5887"/>
<defs>
<filter id="filter0_d" x="44.4136" y="31.7354" width="119.586" height="94.7482" filterUnits="userSpaceOnUse" color-interpolation-filters="sRGB">
<feFlood flood-opacity="0" result="BackgroundImageFix"/>
<feColorMatrix in="SourceAlpha" type="matrix" values="0 0 0 0 0 0 0 0 0 0 0 0 0 0 0 0 0 0 127 0"/>
<feOffset dy="11"/>
<feGaussianBlur stdDeviation="11"/>
<feColorMatrix type="matrix" values="0 0 0 0 0.397708 0 0 0 0 0.47749 0 0 0 0 0.575 0 0 0 0.18 0"/>
<feBlend mode="normal" in2="BackgroundImageFix" result="effect1_dropShadow"/>
<feBlend mode="normal" in="SourceGraphic" in2="effect1_dropShadow" result="shape"/>
</filter>
<filter id="filter1_d" x="0" y="2.71191" width="119.586" height="94.8321" filterUnits="userSpaceOnUse" color-interpolation-filters="sRGB">
<feFlood flood-opacity="0" result="BackgroundImageFix"/>
<feColorMatrix in="SourceAlpha" type="matrix" values="0 0 0 0 0 0 0 0 0 0 0 0 0 0 0 0 0 0 127 0"/>
<feOffset dy="11"/>
<feGaussianBlur stdDeviation="11"/>
<feColorMatrix type="matrix" values="0 0 0 0 0.397708 0 0 0 0 0.47749 0 0 0 0 0.575 0 0 0 0.18 0"/>
<feBlend mode="normal" in2="BackgroundImageFix" result="effect1_dropShadow"/>
<feBlend mode="normal" in="SourceGraphic" in2="effect1_dropShadow" result="shape"/>
</filter>
<linearGradient id="paint0_linear" x1="87.5911" y1="45.2067" x2="145.28" y2="45.2067" gradientUnits="userSpaceOnUse">
<stop offset="0.00806452" stop-color="#C8D3E6"/>
<stop offset="1" stop-color="white"/>
</linearGradient>
<linearGradient id="paint1_linear" x1="85.128" y1="59.4896" x2="85.128" y2="90.0363" gradientUnits="userSpaceOnUse">
<stop stop-color="#FF66A9"/>
<stop offset="1" stop-color="#F53689"/>
</linearGradient>
<linearGradient id="paint2_linear" x1="84.3215" y1="86.0955" x2="85.8591" y2="86.0955" gradientUnits="userSpaceOnUse">
<stop stop-color="#4C5E70"/>
<stop offset="1" stop-color="#334557"/>
</linearGradient>
<linearGradient id="paint3_linear" x1="94.8563" y1="59.4898" x2="94.8563" y2="90.0365" gradientUnits="userSpaceOnUse">
<stop stop-color="#FF66A9"/>
<stop offset="1" stop-color="#F53689"/>
</linearGradient>
<linearGradient id="paint4_linear" x1="94.0417" y1="86.2607" x2="95.5794" y2="86.2607" gradientUnits="userSpaceOnUse">
<stop stop-color="#4C5E70"/>
<stop offset="1" stop-color="#334557"/>
</linearGradient>
<linearGradient id="paint5_linear" x1="104.585" y1="59.4899" x2="104.585" y2="90.0366" gradientUnits="userSpaceOnUse">
<stop stop-color="#FF66A9"/>
<stop offset="1" stop-color="#F53689"/>
</linearGradient>
<linearGradient id="paint6_linear" x1="103.762" y1="63.5286" x2="105.3" y2="63.5286" gradientUnits="userSpaceOnUse">
<stop stop-color="#4C5E70"/>
<stop offset="1" stop-color="#334557"/>
</linearGradient>
<linearGradient id="paint7_linear" x1="118.773" y1="59.4895" x2="118.773" y2="90.0361" gradientUnits="userSpaceOnUse">
<stop stop-color="#FF66A9"/>
<stop offset="1" stop-color="#F53689"/>
</linearGradient>
<linearGradient id="paint8_linear" x1="118.008" y1="65.4982" x2="119.546" y2="65.4982" gradientUnits="userSpaceOnUse">
<stop stop-color="#4C5E70"/>
<stop offset="1" stop-color="#334557"/>
</linearGradient>
<linearGradient id="paint9_linear" x1="124.043" y1="59.49" x2="124.043" y2="90.0366" gradientUnits="userSpaceOnUse">
<stop stop-color="#FF66A9"/>
<stop offset="1" stop-color="#F53689"/>
</linearGradient>
<linearGradient id="paint10_linear" x1="123.288" y1="70.7444" x2="124.826" y2="70.7444" gradientUnits="userSpaceOnUse">
<stop stop-color="#4C5E70"/>
<stop offset="1" stop-color="#334557"/>
</linearGradient>
<linearGradient id="paint11_linear" x1="43.2023" y1="16.2175" x2="100.891" y2="16.2175" gradientUnits="userSpaceOnUse">
<stop offset="0.00806452" stop-color="#C8D3E6"/>
<stop offset="1" stop-color="white"/>
</linearGradient>
<linearGradient id="paint12_linear" x1="30.8481" y1="34.7957" x2="49.0228" y2="55.0718" gradientUnits="userSpaceOnUse">
<stop stop-color="#51DFD4"/>
<stop offset="1" stop-color="#1BE068"/>
</linearGradient>
<linearGradient id="paint13_linear" x1="30.859" y1="34.7957" x2="49.0277" y2="55.1259" gradientUnits="userSpaceOnUse">
<stop stop-color="#2CF2E3"/>
<stop offset="1" stop-color="#23DE6C"/>
</linearGradient>
<linearGradient id="paint14_linear" x1="62.4212" y1="39.8968" x2="91.0472" y2="39.8968" gradientUnits="userSpaceOnUse">
<stop stop-color="#4C5E70"/>
<stop offset="1" stop-color="#334557"/>
</linearGradient>
</defs>
</svg>
