<svg width="350" height="220" viewBox="0 0 350 220" fill="none" xmlns="http://www.w3.org/2000/svg">
<g id="&#231;&#188;&#150;&#231;&#187;&#132; 8">
<g id="Search engines-cuate 2">
<g id="Search engines-cuate">
<g id="freepik--background-complete--inject-145">
<path id="&#229;&#189;&#162;&#231;&#138;&#182;" fill-rule="evenodd" clip-rule="evenodd" d="M310.082 127.771L306.102 134.189L304.134 132.97C303.557 132.615 302.83 132.615 302.253 132.97C302.099 133.066 301.941 133.162 301.773 133.248C301.748 133.261 301.724 133.273 301.7 133.286C301.557 133.359 301.416 133.432 301.269 133.498C300.654 133.779 300.25 134.382 300.222 135.058L300.15 137.371L292.605 137.136L292.677 134.803C292.687 134.128 292.316 133.504 291.717 133.19C291.394 133.017 291.081 132.824 290.781 132.614C290.226 132.217 289.494 132.167 288.89 132.485L286.854 133.574L283.283 126.917L285.318 125.827C285.917 125.498 286.279 124.859 286.254 124.176C286.25 123.811 286.264 123.442 286.293 123.077C286.362 122.406 286.046 121.754 285.477 121.392L283.494 120.163L287.474 113.746L289.451 114.97C290.019 115.32 290.736 115.32 291.304 114.97C291.467 114.869 291.64 114.773 291.813 114.682L291.813 114.682C291.986 114.59 292.158 114.499 292.336 114.418C292.943 114.136 293.339 113.536 293.358 112.867L293.43 110.549L300.981 110.784L300.904 113.093C300.881 113.76 301.236 114.384 301.821 114.706C302.173 114.899 302.514 115.11 302.843 115.339C303.39 115.716 304.102 115.755 304.686 115.44L306.746 114.355L310.317 121.013L308.282 122.107C307.674 122.429 307.302 123.067 307.322 123.754C307.328 124.122 307.315 124.491 307.283 124.858C307.217 125.53 307.534 126.184 308.104 126.547L310.082 127.771ZM293.19 129.005C295.347 130.548 298.247 130.544 300.4 128.995C302.671 127.364 303.564 124.412 302.579 121.795C301.646 119.313 299.235 117.701 296.585 117.788C293.934 117.875 291.634 119.642 290.866 122.18C290.097 124.718 291.032 127.463 293.19 129.005Z" fill="#D5DEE7"/>
<path id="&#229;&#189;&#162;&#231;&#138;&#182;_2" fill-rule="evenodd" clip-rule="evenodd" d="M287.219 107.913L282.64 110.558L281.815 109.137C281.572 108.73 281.122 108.492 280.648 108.523H280.255H279.866C279.392 108.492 278.942 108.73 278.699 109.137L277.888 110.544L273.304 107.899L274.115 106.493C274.352 106.08 274.335 105.569 274.072 105.173C273.926 104.953 273.793 104.726 273.674 104.491C273.464 104.068 273.033 103.8 272.56 103.8H270.952V98.5199H272.575C273.048 98.52 273.481 98.2498 273.688 97.8239C273.809 97.5898 273.942 97.3623 274.087 97.1423C274.35 96.7477 274.366 96.2381 274.13 95.8271L273.319 94.4207L277.903 91.7759L278.719 93.1871C278.959 93.594 279.408 93.8313 279.88 93.8015H280.269H280.663C281.137 93.8311 281.588 93.5918 281.829 93.1823L282.64 91.7759L287.219 94.4351L286.413 95.8367C286.176 96.2477 286.193 96.7573 286.456 97.1519C286.599 97.3736 286.731 97.6027 286.85 97.8383C287.062 98.2618 287.494 98.5306 287.968 98.5343H289.591V103.814H287.968C287.494 103.816 287.061 104.085 286.85 104.51C286.731 104.744 286.599 104.972 286.456 105.192C286.193 105.588 286.177 106.099 286.413 106.512L287.219 107.913ZM275.92 101.179C275.92 103.565 277.854 105.499 280.24 105.499C282.626 105.499 284.56 103.565 284.56 101.179C284.56 98.7932 282.626 96.8591 280.24 96.8591C277.854 96.8591 275.92 98.7932 275.92 101.179Z" fill="#D5DEE7"/>
<path id="&#229;&#189;&#162;&#231;&#138;&#182;_3" fill-rule="evenodd" clip-rule="evenodd" d="M32.368 36.3743C32.3987 35.8997 32.1591 35.4483 31.7488 35.2079L30.3472 34.3967L32.992 29.8127L34.3984 30.6239C34.8094 30.8606 35.319 30.8438 35.7136 30.5807C35.9352 30.4359 36.1643 30.3029 36.4 30.1823C36.8254 29.971 37.0962 29.5388 37.1008 29.0639V27.4463H42.3808V29.0639C42.3822 29.5384 42.6517 29.9714 43.0768 30.1823C43.3109 30.3029 43.5384 30.4359 43.7584 30.5807C44.1548 30.8436 44.6656 30.8603 45.0784 30.6239L46.48 29.8127L49.1152 34.3871L47.704 35.1983C47.2955 35.44 47.0578 35.8911 47.0896 36.3647V36.7535V37.1423C47.0574 37.6147 47.2954 38.0646 47.704 38.3039L49.1152 39.1199L46.4704 43.7039L45.064 42.8927C44.6503 42.6577 44.1395 42.6763 43.744 42.9407C43.5246 43.0849 43.297 43.2164 43.0624 43.3343C42.6399 43.5474 42.3728 43.9795 42.3712 44.4527V46.0703H37.0912V44.4527C37.0875 43.9788 36.8187 43.5469 36.3952 43.3343C36.1611 43.2153 35.9336 43.0839 35.7136 42.9407C35.3181 42.6763 34.8072 42.6577 34.3936 42.8927L32.992 43.7039L30.3472 39.1199L31.7536 38.3183C32.1605 38.0774 32.3978 37.6286 32.368 37.1567V36.7631V36.3743ZM44.08 36.7487C44.08 34.3628 42.1458 32.4287 39.76 32.4287C37.3741 32.4287 35.44 34.3628 35.44 36.7487C35.44 39.1346 37.3741 41.0687 39.76 41.0687C42.1458 41.0687 44.08 39.1346 44.08 36.7487Z" fill="#D5DEE7"/>
<g id="freepik--aiZGp2--inject-145">
<path id="&#232;&#183;&#175;&#229;&#190;&#132;" d="M261.443 35.8706C260.119 39.2463 259.338 42.8105 259.129 46.4306H258.995H249.875H249.76V46.1714C249.76 45.9314 249.813 45.6914 249.837 45.4514C249.954 44.2062 250.161 42.971 250.456 41.7554C250.943 39.7666 251.641 37.8357 252.539 35.9954C252.574 35.9029 252.666 35.8456 252.765 35.8562H261.453L261.443 35.8706Z" fill="#E4EBF1"/>
<path id="&#232;&#183;&#175;&#229;&#190;&#132;_2" d="M261.16 59.5202H252.548C252.455 59.5317 252.366 59.4754 252.337 59.3858C251.346 57.3158 250.626 55.1265 250.196 52.8722C249.988 51.7827 249.847 50.6814 249.774 49.5746C249.778 49.5379 249.778 49.5009 249.774 49.4642V49.2002C249.822 49.2002 249.87 49.2002 249.918 49.2002H258.99C259.158 49.2002 259.148 49.2002 259.163 49.373C259.22 50.1266 259.268 50.8802 259.34 51.629C259.46 52.822 259.652 54.0066 259.916 55.1762C260.228 56.6089 260.637 58.0186 261.14 59.3954C261.149 59.4366 261.155 59.4783 261.16 59.5202Z" fill="#EBEBEB"/>
<path id="&#232;&#183;&#175;&#229;&#190;&#132;_3" d="M297.395 62.2466L297.318 62.3762C296.589 63.4938 295.772 64.5515 294.875 65.5394C293.8 66.7592 292.602 67.8644 291.299 68.837C288.789 70.7434 285.947 72.169 282.918 73.0418C281.741 73.3797 280.541 73.6347 279.328 73.805L278.977 73.8626H278.766L278.569 73.7378L278.795 73.5746C281.423 71.7853 283.722 69.5558 285.592 66.9842C286.647 65.5321 287.575 63.992 288.366 62.381C288.395 62.2914 288.484 62.2351 288.577 62.2466H297.395Z" fill="#E4EBF1"/>
<path id="&#232;&#183;&#175;&#229;&#190;&#132;_4" d="M288.774 46.4499H276.673V35.8899H286.12C286.207 35.8797 286.289 35.9348 286.312 36.0195C287.176 38.0072 287.82 40.0836 288.232 42.2115C288.451 43.3222 288.612 44.4438 288.712 45.5715C288.726 45.8403 288.75 46.1379 288.774 46.4499Z" fill="#E4EBF1"/>
<path id="&#232;&#183;&#175;&#229;&#190;&#132;_5" d="M288.702 49.2725C288.702 49.5221 288.702 49.7525 288.664 50.0165C288.611 50.6069 288.573 51.1973 288.491 51.7829C288.376 52.5941 288.251 53.4053 288.088 54.2069C287.729 55.9727 287.204 57.7004 286.518 59.3669C286.497 59.4688 286.401 59.5374 286.298 59.5253H276.602V49.2725H288.702Z" fill="#E4EBF1"/>
<path id="&#232;&#183;&#175;&#229;&#190;&#132;_6" d="M273.942 35.938V46.5268H262.129C262.129 46.258 262.153 45.9988 262.177 45.7348C262.24 45.1444 262.288 44.5492 262.384 43.9636C262.528 43.066 262.681 42.1684 262.864 41.2756C263.26 39.4873 263.832 37.7427 264.573 36.0676C264.598 35.9801 264.684 35.9248 264.774 35.938H273.933H273.942Z" fill="#E4EBF1"/>
<path id="&#232;&#183;&#175;&#229;&#190;&#132;_7" d="M273.957 49.4115C273.957 52.7331 273.957 56.0515 273.957 59.3667V59.5203H264.51C264.416 59.5309 264.329 59.4719 264.304 59.3811C263.584 57.664 263.046 55.8768 262.696 54.0483C262.518 53.0883 262.384 52.1571 262.264 51.2067C262.187 50.5875 262.168 49.9587 262.125 49.3347C262.125 49.3347 262.125 49.3011 262.125 49.2675H273.808C273.928 49.2579 273.957 49.2963 273.957 49.4115Z" fill="#E4EBF1"/>
<path id="&#232;&#183;&#175;&#229;&#190;&#132;_8" d="M301.605 46.5265H291.688C291.484 42.8733 290.698 39.2761 289.36 35.8705H298.6C298.693 35.8597 298.782 35.9129 298.816 36.0001C299.875 38.0977 300.646 40.3292 301.105 42.6337C301.347 43.8603 301.507 45.1013 301.585 46.3489C301.609 46.4017 301.605 46.4593 301.605 46.5265Z" fill="#E4EBF1"/>
<path id="&#232;&#183;&#175;&#229;&#190;&#132;_9" d="M301.614 49.2002C301.614 49.4402 301.614 49.6802 301.581 49.8962C301.377 52.8801 300.649 55.8048 299.43 58.5362C299.296 58.8434 299.152 59.1458 299.013 59.453C298.991 59.5146 298.929 59.5525 298.864 59.5442H289.744H289.648C289.758 59.2274 289.869 58.9202 289.974 58.613C290.506 57.0373 290.915 55.4229 291.198 53.7842C291.41 52.5934 291.553 51.3914 291.626 50.1842C291.626 49.901 291.659 49.6178 291.674 49.3298C291.674 49.2578 291.674 49.2194 291.774 49.2242H301.605L301.614 49.2002Z" fill="#E4EBF1"/>
<path id="&#232;&#183;&#175;&#229;&#190;&#132;_10" d="M297.121 33.173C297.121 33.173 297.121 33.173 297.121 33.2114H288.304C288.214 33.2231 288.128 33.1741 288.092 33.0914C286.935 30.7866 285.483 28.6422 283.772 26.7122C282.77 25.5964 281.664 24.5775 280.47 23.669C279.88 23.189 279.265 22.7858 278.66 22.349L278.56 22.2722L278.68 22.1906C278.68 22.133 278.646 22.0754 278.622 22.0034C286.115 22.86 292.864 26.9379 297.107 33.173H297.121Z" fill="#E4EBF1"/>
<path id="&#232;&#183;&#175;&#229;&#190;&#132;_11" d="M272.267 73.7424C272.184 73.7678 272.099 73.7823 272.013 73.7856C271.06 73.6596 270.116 73.4752 269.185 73.2336C267.445 72.794 265.757 72.1697 264.15 71.3712C262.314 70.4594 260.593 69.3314 259.024 68.0112C257.905 67.0769 256.872 66.044 255.937 64.9248C255.241 64.079 254.6 63.1891 254.017 62.2608L253.979 62.1792H262.192C262.281 62.17 262.365 62.2239 262.393 62.3088C263.234 64.0051 264.227 65.6214 265.36 67.1376C266.407 68.5143 267.569 69.7989 268.835 70.9776C269.88 71.9648 271.004 72.8653 272.195 73.6704L272.267 73.7424Z" fill="#E4EBF1"/>
<path id="&#232;&#183;&#175;&#229;&#190;&#132;_12" d="M272.157 22.2578C271.787 22.5314 271.355 22.8338 270.933 23.1602C269.524 24.2549 268.215 25.4724 267.021 26.7986C265.402 28.5638 264.022 30.5343 262.917 32.6594C262.845 32.7938 262.782 32.9282 262.706 33.0578C262.677 33.1011 262.632 33.1306 262.581 33.1394C262.437 33.1394 262.288 33.1394 262.139 33.1394H254.243C258.64 26.933 264.549 23.1986 272.08 22.0562L272.032 22.157L272.157 22.2578Z" fill="#E4EBF1"/>
<path id="&#232;&#183;&#175;&#229;&#190;&#132;_13" d="M285.165 62.2563C284.05 64.2097 282.708 66.024 281.166 67.6611C279.805 69.1303 278.273 70.4308 276.602 71.5347V62.2563H285.165Z" fill="#E4EBF1"/>
<path id="&#232;&#183;&#175;&#229;&#190;&#132;_14" d="M273.942 62.2612V71.3572C270.526 69.0148 267.712 65.8981 265.729 62.2612H273.942Z" fill="#E4EBF1"/>
<path id="&#232;&#183;&#175;&#229;&#190;&#132;_15" d="M284.891 33.1345H276.673V24.4609C278.36 25.5593 279.909 26.8567 281.286 28.3249C282.652 29.7982 283.86 31.4102 284.891 33.1345Z" fill="#E4EBF1"/>
<path id="&#232;&#183;&#175;&#229;&#190;&#132;_16" d="M273.942 24.7202V33.2018H266.056C267.984 29.7964 270.686 26.8912 273.942 24.7202V24.7202Z" fill="#E4EBF1"/>
</g>
<rect id="&#231;&#159;&#169;&#229;&#189;&#162;" x="57.4385" y="18.2979" width="62.4528" height="42.0864" fill="#F4F7F9"/>
<path id="&#229;&#189;&#162;&#231;&#138;&#182;_4" fill-rule="evenodd" clip-rule="evenodd" d="M57.1982 60.624H120.131V18.0576H57.1982V60.624ZM119.651 60.144H57.6782V18.5376H119.651V60.144Z" fill="#EBEBEB"/>
<path id="&#232;&#183;&#175;&#229;&#190;&#132;_17" d="M63.4718 21.4849C63.4718 22.2802 62.8271 22.9249 62.0318 22.9249C61.2365 22.9249 60.5918 22.2802 60.5918 21.4849C60.5918 20.6896 61.2365 20.0449 62.0318 20.0449C62.4137 20.0449 62.78 20.1966 63.05 20.4667C63.3201 20.7367 63.4718 21.103 63.4718 21.4849Z" fill="#D5DEE7"/>
<path id="&#232;&#183;&#175;&#229;&#190;&#132;_18" d="M69.3473 21.4849C69.3473 22.2802 68.7026 22.9249 67.9073 22.9249C67.112 22.9249 66.4673 22.2802 66.4673 21.4849C66.4673 20.6896 67.112 20.0449 67.9073 20.0449C68.7026 20.0449 69.3473 20.6896 69.3473 21.4849Z" fill="#D5DEE7"/>
<path id="&#232;&#183;&#175;&#229;&#190;&#132;_19" d="M75.2174 21.4849C75.2174 22.2802 74.5727 22.9249 73.7774 22.9249C72.9821 22.9249 72.3374 22.2802 72.3374 21.4849C72.3374 20.6896 72.9821 20.0449 73.7774 20.0449C74.5727 20.0449 75.2174 20.6896 75.2174 21.4849Z" fill="#D5DEE7"/>
<rect id="&#231;&#159;&#169;&#229;&#189;&#162;_2" x="57.4385" y="24.3984" width="62.4528" height="0.48" fill="#EBEBEB"/>
</g>
<g id="freepik--Shadow--inject-145">
<ellipse id="&#230;&#164;&#173;&#229;&#156;&#134;&#229;&#189;&#162;" opacity="0.374512" cx="171.81" cy="181.034" rx="157.81" ry="19.8336" fill="#E4EBF1"/>
</g>
<g id="freepik--Floor--inject-145">
<path id="&#232;&#183;&#175;&#229;&#190;&#132;_20" opacity="0.371698" d="M17.2002 180.64L56.1138 180.525L95.0274 180.482L172.855 180.4L250.682 180.482L289.595 180.525L328.509 180.64L289.595 180.76L250.682 180.798L172.855 180.88L95.0274 180.798L56.1138 180.755L17.2002 180.64Z" fill="#778592"/>
</g>
<g id="freepik--Device--inject-145">
<rect id="&#231;&#159;&#169;&#229;&#189;&#162;_3" x="76.0239" y="37.2769" width="187.781" height="125.611" fill="#E4EBF1"/>
<rect id="&#231;&#159;&#169;&#229;&#189;&#162;_4" x="77.3921" y="38.8081" width="185.054" height="122.549" fill="#273849"/>
<rect id="&#231;&#159;&#169;&#229;&#189;&#162;_5" x="51.5679" y="172.306" width="236.698" height="8.6208" fill="#D5DEE7"/>
<path id="&#232;&#183;&#175;&#229;&#190;&#132;_21" d="M51.5679 172.306L76.0239 162.888H263.809L288.265 172.306H51.5679Z" fill="#F5F7FA"/>
<path id="&#232;&#183;&#175;&#229;&#190;&#132;_22" d="M78.208 168.965L93.9904 162.888H245.838L261.626 168.965H78.208Z" fill="#273849"/>
<rect id="&#231;&#159;&#169;&#229;&#189;&#162;_6" x="87.8462" y="48.1201" width="164.136" height="103.925" fill="white"/>
<g id="&#231;&#188;&#150;&#231;&#187;&#132; 5" opacity="0.674967">
<path id="&#232;&#183;&#175;&#229;&#190;&#132;_23" opacity="0.18" d="M212.596 87.832C212.362 87.7866 212.121 87.8278 211.916 87.948C210.076 84.384 205.632 81.072 198.964 78.376C189.8 74.672 177.62 72.632 164.68 72.632C151.74 72.632 139.548 74.672 130.384 78.376C121.404 82.004 116.464 86.74 116.464 91.728C116.464 96.716 121.404 101.448 130.376 105.076C139.54 108.784 151.72 110.824 164.672 110.824C177.624 110.824 189.8 108.784 198.964 105.076C202.648 103.588 205.648 101.916 207.912 100.104C207.96 100.275 207.96 100.457 207.912 100.628C207.876 100.756 207.836 100.884 207.8 101.028C199.568 107.26 183.32 111.508 164.66 111.508C137.712 111.508 115.784 102.644 115.784 91.744C115.784 80.844 137.724 71.96 164.68 71.96C188.328 71.96 208.112 78.792 212.596 87.832Z" fill="#68E1FD"/>
<path id="&#232;&#183;&#175;&#229;&#190;&#132;_24" d="M138.1 121.332C138.265 121.252 138.464 121.305 138.568 121.456C138.918 121.846 139.443 122.029 139.96 121.94C140.528 121.804 140.76 121.14 141.04 121.14C141.32 121.14 142.84 122.428 142.924 122.98C143.008 123.532 142.236 123.94 141.38 123.992C140.524 124.044 138.58 123.456 138.224 123.004C137.911 122.501 137.865 121.876 138.1 121.332Z" fill="white"/>
<path id="&#232;&#183;&#175;&#229;&#190;&#132;_25" d="M133.136 122.128C133.3 122.046 133.5 122.097 133.604 122.248C133.953 122.64 134.478 122.826 134.996 122.74C135.564 122.604 135.796 121.94 136.08 121.94C136.364 121.94 137.876 123.228 137.96 123.78C138.044 124.332 137.272 124.74 136.416 124.792C135.56 124.844 133.616 124.256 133.26 123.804C132.945 123.3 132.899 122.673 133.136 122.128Z" fill="white"/>
<path id="&#232;&#183;&#175;&#229;&#190;&#132;_26" d="M139.336 85.94L143.252 88.028L151.54 85.084L152.98 88.628C152.98 88.628 145.38 92.516 143.912 92.532C142.444 92.548 138.584 91.48 138.584 91.48L139.336 85.94Z" fill="white"/>
<rect id="&#231;&#159;&#169;&#229;&#189;&#162;_7" x="129.794" y="87.7021" width="4.24" height="9.98" rx="2.12" transform="rotate(-19.53 129.794 87.7021)" fill="white"/>
<path id="&#232;&#183;&#175;&#229;&#190;&#132;_27" d="M193.024 88.272C191.308 120.44 169.78 128.848 169.78 128.848C145.88 114.608 146 86.8 146 86.8C161.232 82.688 169.944 74.276 170.216 74C175.896 82.276 193.024 88.272 193.024 88.272Z" fill="#15A675"/>
<path id="&#232;&#183;&#175;&#229;&#190;&#132;_28" d="M193.024 88.256C191.308 120.424 169.78 128.832 169.78 128.832C145.88 114.592 146 86.784 146 86.784C161.24 82.68 169.952 74.28 170.224 74C175.896 82.28 193.024 88.256 193.024 88.256Z" fill="url(#paint0_linear)"/>
<path id="&#232;&#183;&#175;&#229;&#190;&#132;_29" d="M189.9 90.0039C188.384 118.356 169.412 125.768 169.412 125.768C148.348 113.216 148.452 88.7079 148.452 88.7079C161.88 85.0839 169.556 77.6679 169.796 77.4399C174.796 84.7399 189.9 90.0039 189.9 90.0039Z" fill="#15A675"/>
<path id="&#232;&#183;&#175;&#229;&#190;&#132;_30" d="M169.8 77.436L169.4 125.768C148.336 113.216 148.44 88.708 148.44 88.708C161.868 85.084 169.544 77.668 169.784 77.44L169.8 77.436Z" fill="url(#paint1_linear)"/>
<circle id="&#230;&#164;&#173;&#229;&#156;&#134;&#229;&#189;&#162;_2" cx="169.412" cy="98.1559" r="3.716" fill="#473F47"/>
<path id="&#232;&#183;&#175;&#229;&#190;&#132;_31" d="M167.176 107.424H171.18L170.044 101.472H168.584L167.176 107.424Z" fill="#473F47"/>
<path id="&#232;&#183;&#175;&#229;&#190;&#132;_32" opacity="0.18" d="M149.464 96.7961H154.244V93.3281H158.032" stroke="white" stroke-width="0.5"/>
<path id="&#232;&#183;&#175;&#229;&#190;&#132;_33" opacity="0.18" d="M150.4 100.512H156.624V108.08H160.52" stroke="white" stroke-width="0.5"/>
<path id="&#232;&#183;&#175;&#229;&#190;&#132;_34" opacity="0.18" d="M189.504 94.4402H181.624V89.9722H174.588" stroke="white" stroke-width="0.5"/>
<path id="&#232;&#183;&#175;&#229;&#190;&#132;_35" opacity="0.18" d="M188.036 101.872H180.36V109.74H174.948" stroke="white" stroke-width="0.5"/>
<path id="&#232;&#183;&#175;&#229;&#190;&#132;_36" opacity="0.18" d="M158.032 115.72H164.472V112.696H168.368" stroke="white" stroke-width="0.5"/>
<path id="&#229;&#189;&#162;&#231;&#138;&#182;_5" fill-rule="evenodd" clip-rule="evenodd" d="M164.68 71.6279C188.64 71.6279 208.656 78.6599 213.008 87.9399C213.58 89.1214 213.882 90.4153 213.892 91.7279C213.891 92.314 213.829 92.8985 213.708 93.4719C213.264 95.3404 212.345 97.0626 211.04 98.4719C210.049 99.5872 208.938 100.59 207.728 101.464C199.32 107.64 183.176 111.828 164.68 111.828C137.556 111.828 115.48 102.812 115.48 91.7279C115.48 80.6439 137.544 71.6279 164.68 71.6279ZM207.812 101.012C208.838 100.246 209.789 99.383 210.652 98.4359C212.148 96.7639 213.1 94.9879 213.428 93.1399C213.515 92.6743 213.557 92.2016 213.556 91.7279C213.546 90.3729 213.22 89.0388 212.604 87.8319C208.12 78.7919 188.336 71.9599 164.68 71.9599C137.724 71.9599 115.796 80.8279 115.796 91.7279C115.796 102.628 137.724 111.492 164.672 111.492C183.332 111.492 199.58 107.244 207.812 101.012Z" fill="white"/>
<path id="&#229;&#189;&#162;&#231;&#138;&#182;_6" opacity="0.18" fill-rule="evenodd" clip-rule="evenodd" d="M214.36 89.8519C214.426 90.1703 214.474 90.4922 214.504 90.8159C214.536 91.1202 214.552 91.426 214.552 91.7319C214.552 92.6388 214.417 93.5407 214.152 94.4079C213.7 95.8423 212.977 97.1769 212.024 98.3399C210.846 99.7813 209.478 101.056 207.956 102.128C207.794 101.946 207.712 101.707 207.728 101.464C199.32 107.64 183.176 111.828 164.68 111.828C137.556 111.828 115.48 102.812 115.48 91.7279C115.48 80.6439 137.544 71.6279 164.68 71.6279C188.64 71.6279 208.656 78.6599 213.008 87.9399C213.093 87.9653 213.179 87.9902 213.265 88.0151C213.436 88.0648 213.608 88.1146 213.776 88.1679L213.848 88.1919C214.067 88.729 214.239 89.2845 214.36 89.8519ZM115.804 91.7279C115.804 102.628 137.732 111.492 164.68 111.492C183.332 111.492 199.58 107.244 207.808 101.024C207.833 100.925 207.859 100.835 207.885 100.746C207.897 100.705 207.909 100.664 207.92 100.624C207.968 100.453 207.968 100.271 207.92 100.1C208.644 99.5324 209.323 98.9106 209.952 98.2399C211.632 96.4559 212.596 94.5679 212.832 92.6399C212.869 92.3373 212.887 92.0328 212.888 91.7279C212.875 90.4087 212.545 89.1121 211.924 87.9479C212.129 87.8278 212.371 87.7865 212.604 87.8319C208.12 78.7919 188.336 71.9599 164.68 71.9599C137.724 71.9599 115.804 80.8279 115.804 91.7279Z" fill="#15A675"/>
<path id="&#232;&#183;&#175;&#229;&#190;&#132;_37" opacity="0.18" d="M212.596 87.832C212.362 87.7866 212.121 87.8278 211.916 87.948C210.076 84.384 205.632 81.072 198.964 78.376C189.8 74.672 177.62 72.632 164.68 72.632C151.74 72.632 139.548 74.672 130.384 78.376C121.404 82.004 116.464 86.74 116.464 91.728C116.464 96.716 121.404 101.448 130.376 105.076C139.54 108.784 151.72 110.824 164.672 110.824C177.624 110.824 189.8 108.784 198.964 105.076C202.648 103.588 205.648 101.916 207.912 100.104C207.96 100.275 207.96 100.457 207.912 100.628C207.876 100.756 207.836 100.884 207.8 101.028C199.568 107.26 183.32 111.508 164.66 111.508C137.712 111.508 115.784 102.644 115.784 91.744C115.784 80.844 137.724 71.96 164.68 71.96C188.328 71.96 208.112 78.792 212.596 87.832Z" fill="#15A675"/>
<path id="&#232;&#183;&#175;&#229;&#190;&#132;_38" opacity="0.18" d="M213.848 88.192L213.776 88.168C213.524 88.088 213.264 88.016 213.008 87.94C208.656 78.66 188.64 71.628 164.68 71.628C137.544 71.628 115.48 80.644 115.48 91.728C115.48 102.812 137.556 111.828 164.68 111.828C183.176 111.828 199.32 107.64 207.728 101.464C207.712 101.707 207.794 101.946 207.956 102.128C205.392 103.923 202.624 105.409 199.712 106.556C190.324 110.388 177.88 112.496 164.68 112.496C151.48 112.496 139.028 110.388 129.648 106.556C120.072 102.644 114.8 97.376 114.8 91.728C114.8 86.08 120.064 80.812 129.64 76.904C139.02 73.068 151.48 70.96 164.68 70.96C177.88 70.96 190.332 73.068 199.712 76.904C207.248 79.984 212.12 83.904 213.848 88.192Z" fill="#68E1FD"/>
<ellipse id="&#230;&#164;&#173;&#229;&#156;&#134;&#229;&#189;&#162;_3" opacity="0.35" cx="169.204" cy="127.36" rx="38.492" ry="6.344" fill="#15A675"/>
<path id="&#232;&#183;&#175;&#229;&#190;&#132;_39" d="M154.04 77.64H144.612V66H152.74L154.04 67.66V77.64Z" fill="white"/>
<path id="&#232;&#183;&#175;&#229;&#190;&#132;_40" d="M153.204 78.328H143.776V66.688H151.904L153.204 68.348V78.328Z" fill="white"/>
<path id="&#232;&#183;&#175;&#229;&#190;&#132;_41" d="M153.124 78.4081H143.696V66.7681H151.824L153.124 68.4281V78.4081Z" fill="url(#paint2_linear)"/>
<path id="&#232;&#183;&#175;&#229;&#190;&#132;_42" d="M152.296 79.372H142.868V67.728H150.996L152.296 69.388V79.372Z" fill="white"/>
<path id="&#232;&#183;&#175;&#229;&#190;&#132;_43" d="M150.996 67.728V69.372H152.296L150.996 67.728Z" fill="url(#paint3_linear)"/>
<path id="&#232;&#183;&#175;&#229;&#190;&#132;_44" d="M151.824 66.7681V68.4601H153.124L151.824 66.7681Z" fill="url(#paint4_linear)"/>
<path id="&#232;&#183;&#175;&#229;&#190;&#132;_45" d="M152.74 66V67.692H154.04L152.74 66Z" fill="url(#paint5_linear)"/>
<g id="Q83r0t">
<path id="&#229;&#189;&#162;&#231;&#138;&#182;_7" fill-rule="evenodd" clip-rule="evenodd" d="M213.26 101.688C213.385 101.917 213.599 102.084 213.852 102.148C214.101 102.221 214.37 102.189 214.596 102.06C214.956 101.872 215.316 101.672 215.672 101.472C215.905 101.352 216.079 101.142 216.154 100.891C216.229 100.64 216.2 100.369 216.072 100.14C216.03 100.062 215.985 99.9829 215.941 99.904C215.887 99.8101 215.834 99.7157 215.784 99.6201C215.603 99.3139 215.637 98.9264 215.868 98.6561C216.074 98.3608 216.444 98.2264 216.792 98.3201C216.917 98.3494 217.039 98.3859 217.161 98.4223C217.222 98.4405 217.283 98.4588 217.344 98.4761C217.59 98.5684 217.863 98.5518 218.096 98.4304C218.329 98.3091 218.499 98.0944 218.564 97.8401C218.692 97.4401 218.808 97.0401 218.912 96.6401C218.993 96.3986 218.968 96.1342 218.843 95.9123C218.717 95.6905 218.504 95.532 218.256 95.4761C218.221 95.466 218.186 95.4563 218.152 95.4466C217.969 95.395 217.8 95.3475 217.632 95.2801C217.3 95.1535 217.082 94.8349 217.084 94.4801C217.061 94.148 217.237 93.8338 217.532 93.6801C217.627 93.6246 217.725 93.574 217.823 93.5236C217.901 93.4831 217.979 93.4428 218.056 93.4001C218.288 93.2804 218.462 93.0714 218.538 92.821C218.613 92.5706 218.584 92.3003 218.456 92.0721C218.264 91.7121 218.064 91.3521 217.864 90.9961C217.738 90.7636 217.524 90.5907 217.271 90.5157C217.017 90.4407 216.744 90.4696 216.512 90.5961C216.418 90.6441 216.325 90.6964 216.231 90.7487C216.169 90.7836 216.106 90.8185 216.044 90.8521C215.716 91.0502 215.299 91.0164 215.008 90.7681C214.702 90.5384 214.581 90.1368 214.708 89.7761C214.723 89.7248 214.739 89.6731 214.754 89.6213C214.792 89.4955 214.83 89.3688 214.864 89.2441C214.943 88.9846 214.912 88.7038 214.778 88.4678C214.644 88.2317 214.419 88.0612 214.156 87.9961L213.132 87.6961C212.869 87.6031 212.58 87.6247 212.334 87.7556C212.089 87.8864 211.909 88.1145 211.84 88.3841C211.816 88.4595 211.794 88.5362 211.772 88.6132C211.742 88.7201 211.711 88.8275 211.676 88.9321C211.577 89.2877 211.264 89.5416 210.896 89.5641C210.538 89.618 210.185 89.44 210.016 89.1201C209.966 89.0341 209.919 88.9471 209.872 88.8601C209.825 88.7731 209.778 88.6861 209.728 88.6001C209.467 88.1434 208.896 87.9682 208.424 88.2001C208.279 88.2785 208.136 88.3541 207.993 88.4291C207.757 88.5532 207.524 88.676 207.292 88.8081C207.064 88.9255 206.894 89.1295 206.819 89.3741C206.743 89.6186 206.77 89.8832 206.892 90.1081C206.972 90.2641 207.06 90.4201 207.148 90.5761C207.353 90.9046 207.329 91.3265 207.088 91.6299C206.848 91.9333 206.442 92.0527 206.076 91.9281C206.001 91.9083 205.928 91.887 205.857 91.866C205.726 91.8275 205.598 91.79 205.464 91.7641C204.957 91.6452 204.447 91.9522 204.316 92.4561C204.212 92.8041 204.112 93.1521 204.012 93.5001C203.917 93.7581 203.936 94.0441 204.063 94.2878C204.19 94.5314 204.414 94.7102 204.68 94.7801C204.776 94.813 204.878 94.8416 204.98 94.8703C205.077 94.8976 205.174 94.925 205.268 94.9561C205.625 95.0622 205.874 95.3841 205.888 95.7561C205.932 96.1155 205.747 96.4641 205.424 96.6281C205.341 96.6769 205.255 96.7223 205.168 96.768C205.092 96.8084 205.015 96.8489 204.94 96.8921C204.7 97.0114 204.52 97.2255 204.444 97.4828C204.368 97.7401 204.403 98.0175 204.54 98.2481C204.656 98.4836 204.789 98.7174 204.922 98.9517C204.986 99.0636 205.05 99.1756 205.112 99.2881C205.238 99.5239 205.453 99.699 205.71 99.7743C205.966 99.8495 206.242 99.8185 206.476 99.6881C206.545 99.652 206.613 99.6139 206.681 99.5757C206.78 99.5208 206.878 99.4656 206.98 99.4161C207.293 99.2345 207.688 99.2731 207.96 99.5121C208.259 99.7268 208.389 100.107 208.284 100.46C208.259 100.561 208.228 100.664 208.197 100.767C208.169 100.862 208.141 100.957 208.116 101.052C208.04 101.305 208.069 101.577 208.197 101.808C208.325 102.038 208.541 102.207 208.796 102.276L209.896 102.6C210.402 102.751 210.937 102.468 211.096 101.964C211.139 101.845 211.174 101.72 211.209 101.594C211.229 101.521 211.25 101.448 211.272 101.376C211.37 101.009 211.692 100.745 212.072 100.72C212.444 100.663 212.811 100.852 212.98 101.188C213.028 101.27 213.074 101.354 213.12 101.438C213.166 101.522 213.212 101.606 213.26 101.688ZM209.494 97.6053C208.497 96.7995 208.085 95.4729 208.448 94.2441C208.684 93.4372 209.232 92.7577 209.971 92.356C210.71 91.9544 211.578 91.8637 212.384 92.1041C213.613 92.4673 214.502 93.5349 214.636 94.8092C214.771 96.0834 214.125 97.3133 212.999 97.9254C211.873 98.5375 210.49 98.4111 209.494 97.6053Z" fill="#68E1FD"/>
</g>
<g id="Q83r0t-2" opacity="0.27">
<path id="&#229;&#189;&#162;&#231;&#138;&#182;_8" fill-rule="evenodd" clip-rule="evenodd" d="M213.26 101.688C213.385 101.917 213.599 102.084 213.852 102.148C214.101 102.221 214.37 102.189 214.596 102.06C214.956 101.872 215.316 101.672 215.672 101.472C215.905 101.352 216.079 101.142 216.154 100.891C216.229 100.64 216.2 100.369 216.072 100.14C216.03 100.062 215.985 99.9829 215.941 99.904C215.887 99.8101 215.834 99.7157 215.784 99.6201C215.603 99.3139 215.637 98.9264 215.868 98.6561C216.074 98.3608 216.444 98.2264 216.792 98.3201C216.917 98.3494 217.039 98.3859 217.161 98.4223C217.222 98.4405 217.283 98.4588 217.344 98.4761C217.59 98.5684 217.863 98.5518 218.096 98.4304C218.329 98.3091 218.499 98.0944 218.564 97.8401C218.692 97.4401 218.808 97.0401 218.912 96.6401C218.993 96.3986 218.968 96.1342 218.843 95.9123C218.717 95.6905 218.504 95.532 218.256 95.4761C218.221 95.466 218.186 95.4563 218.152 95.4466C217.969 95.395 217.8 95.3475 217.632 95.2801C217.3 95.1535 217.082 94.8349 217.084 94.4801C217.061 94.148 217.237 93.8338 217.532 93.6801C217.627 93.6246 217.725 93.574 217.823 93.5236C217.901 93.4831 217.979 93.4428 218.056 93.4001C218.288 93.2804 218.462 93.0714 218.538 92.821C218.613 92.5706 218.584 92.3003 218.456 92.0721C218.264 91.7121 218.064 91.3521 217.864 90.9961C217.738 90.7636 217.524 90.5907 217.271 90.5157C217.017 90.4407 216.744 90.4696 216.512 90.5961C216.418 90.6441 216.325 90.6964 216.231 90.7487C216.169 90.7836 216.106 90.8185 216.044 90.8521C215.716 91.0502 215.299 91.0164 215.008 90.7681C214.702 90.5384 214.581 90.1368 214.708 89.7761C214.723 89.7248 214.739 89.6731 214.754 89.6213C214.792 89.4955 214.83 89.3688 214.864 89.2441C214.943 88.9846 214.912 88.7038 214.778 88.4678C214.644 88.2317 214.419 88.0612 214.156 87.9961L213.132 87.6961C212.869 87.6031 212.58 87.6247 212.334 87.7556C212.089 87.8864 211.909 88.1145 211.84 88.3841C211.816 88.4595 211.794 88.5362 211.772 88.6132C211.742 88.7201 211.711 88.8275 211.676 88.9321C211.577 89.2877 211.264 89.5416 210.896 89.5641C210.538 89.618 210.185 89.44 210.016 89.1201C209.966 89.0341 209.919 88.9471 209.872 88.8601C209.825 88.7731 209.778 88.6861 209.728 88.6001C209.467 88.1434 208.896 87.9682 208.424 88.2001C208.279 88.2785 208.136 88.3541 207.993 88.4291C207.757 88.5532 207.524 88.676 207.292 88.8081C207.064 88.9255 206.894 89.1295 206.819 89.3741C206.743 89.6186 206.77 89.8832 206.892 90.1081C206.972 90.2641 207.06 90.4201 207.148 90.5761C207.353 90.9046 207.329 91.3265 207.088 91.6299C206.848 91.9333 206.442 92.0527 206.076 91.9281C206.001 91.9083 205.928 91.887 205.857 91.866C205.726 91.8275 205.598 91.79 205.464 91.7641C204.957 91.6452 204.447 91.9522 204.316 92.4561C204.212 92.8041 204.112 93.1521 204.012 93.5001C203.917 93.7581 203.936 94.0441 204.063 94.2878C204.19 94.5314 204.414 94.7102 204.68 94.7801C204.776 94.813 204.878 94.8416 204.98 94.8703C205.077 94.8976 205.174 94.925 205.268 94.9561C205.625 95.0622 205.874 95.3841 205.888 95.7561C205.932 96.1155 205.747 96.4641 205.424 96.6281C205.341 96.6769 205.255 96.7223 205.168 96.768C205.092 96.8084 205.015 96.8489 204.94 96.8921C204.7 97.0114 204.52 97.2255 204.444 97.4828C204.368 97.7401 204.403 98.0175 204.54 98.2481C204.656 98.4836 204.789 98.7174 204.922 98.9517C204.986 99.0636 205.05 99.1756 205.112 99.2881C205.238 99.5239 205.453 99.699 205.71 99.7743C205.966 99.8495 206.242 99.8185 206.476 99.6881C206.545 99.652 206.613 99.6139 206.681 99.5757C206.78 99.5208 206.878 99.4656 206.98 99.4161C207.293 99.2345 207.688 99.2731 207.96 99.5121C208.259 99.7268 208.389 100.107 208.284 100.46C208.259 100.561 208.228 100.664 208.197 100.767C208.169 100.862 208.141 100.957 208.116 101.052C208.04 101.305 208.069 101.577 208.197 101.808C208.325 102.038 208.541 102.207 208.796 102.276L209.896 102.6C210.402 102.751 210.937 102.468 211.096 101.964C211.139 101.845 211.174 101.72 211.209 101.594C211.229 101.521 211.25 101.448 211.272 101.376C211.37 101.009 211.692 100.745 212.072 100.72C212.444 100.663 212.811 100.852 212.98 101.188C213.028 101.27 213.074 101.354 213.12 101.438C213.166 101.522 213.212 101.606 213.26 101.688ZM209.494 97.6053C208.497 96.7995 208.085 95.4729 208.448 94.2441C208.684 93.4372 209.232 92.7577 209.971 92.356C210.71 91.9544 211.578 91.8637 212.384 92.1041C213.613 92.4673 214.502 93.5349 214.636 94.8092C214.771 96.0834 214.125 97.3133 212.999 97.9254C211.873 98.5375 210.49 98.4111 209.494 97.6053Z" fill="#4C5E70"/>
</g>
<g id="Q83r0t-3">
<path id="&#229;&#189;&#162;&#231;&#138;&#182;_9" fill-rule="evenodd" clip-rule="evenodd" d="M217.679 95.5972C217.746 95.6163 217.814 95.6353 217.88 95.6561C218.129 95.7201 218.339 95.8872 218.457 96.1155C218.575 96.3438 218.591 96.6116 218.5 96.8521C218.396 97.2521 218.28 97.6521 218.148 98.0521C218.083 98.3022 217.916 98.5135 217.688 98.6345C217.459 98.7555 217.191 98.7749 216.948 98.6881C216.879 98.6688 216.812 98.6479 216.744 98.6269C216.629 98.5914 216.514 98.5557 216.396 98.5281C216.047 98.4376 215.679 98.5732 215.472 98.8681C215.239 99.1383 215.207 99.5272 215.392 99.8321C215.446 99.9413 215.507 100.047 215.568 100.154C215.606 100.22 215.643 100.285 215.68 100.352C215.807 100.58 215.837 100.851 215.761 101.101C215.686 101.351 215.512 101.56 215.28 101.68C215.054 101.799 214.827 101.924 214.6 102.05C214.468 102.123 214.336 102.196 214.204 102.268C213.721 102.519 213.126 102.342 212.86 101.868C212.829 101.812 212.799 101.756 212.768 101.699C212.708 101.586 212.648 101.473 212.584 101.364C212.414 101.03 212.05 100.842 211.68 100.896C211.301 100.923 210.98 101.186 210.88 101.552C210.854 101.631 210.831 101.713 210.808 101.796C210.776 101.911 210.743 102.028 210.704 102.14C210.543 102.643 210.01 102.925 209.504 102.776L208.404 102.456C208.214 102.403 208.045 102.293 207.92 102.14C207.716 101.883 207.643 101.546 207.724 101.228L207.784 101.024C207.808 100.926 207.835 100.835 207.86 100.746C207.872 100.705 207.884 100.665 207.896 100.624C207.944 100.453 207.944 100.271 207.896 100.1C207.835 99.9293 207.725 99.7803 207.58 99.6721C207.306 99.4354 206.914 99.3969 206.6 99.5761C206.485 99.6347 206.374 99.6969 206.263 99.7592C206.207 99.7903 206.152 99.8214 206.096 99.8521C205.862 99.9802 205.586 100.01 205.331 99.935C205.075 99.86 204.859 99.6862 204.732 99.4521C204.54 99.1081 204.348 98.7601 204.16 98.4121C204.022 98.1814 203.988 97.9041 204.064 97.6468C204.14 97.3894 204.319 97.1754 204.56 97.0561C204.624 97.0207 204.69 96.9859 204.755 96.951C204.853 96.8992 204.952 96.847 205.048 96.7921C205.371 96.6286 205.555 96.2789 205.508 95.9201C205.491 95.5489 205.243 95.2283 204.888 95.1201C204.793 95.0849 204.691 95.0573 204.589 95.0294C204.493 95.0033 204.396 94.9769 204.304 94.9441C204.037 94.876 203.812 94.6984 203.684 94.4553C203.556 94.2121 203.537 93.9261 203.632 93.6681C203.688 93.4696 203.746 93.2724 203.803 93.0758C203.848 92.9237 203.892 92.7719 203.936 92.6201C204.067 92.1162 204.577 91.8092 205.084 91.9281C205.244 91.9584 205.396 92.0049 205.549 92.0518C205.598 92.0667 205.646 92.0816 205.696 92.0961C206.062 92.2251 206.47 92.1041 206.708 91.7961C206.957 91.4952 206.981 91.0672 206.768 90.7401C206.735 90.6803 206.702 90.6211 206.669 90.5618C206.615 90.4664 206.561 90.3708 206.512 90.2721C206.39 90.0472 206.363 89.7826 206.438 89.538C206.514 89.2934 206.684 89.0894 206.912 88.9721C206.994 88.9271 207.075 88.8817 207.157 88.8363C207.446 88.6757 207.736 88.5146 208.048 88.3681C208.518 88.1344 209.09 88.3102 209.348 88.7681C209.39 88.8419 209.429 88.9158 209.468 88.9894C209.522 89.0911 209.575 89.1923 209.636 89.2921C209.807 89.6095 210.159 89.7855 210.516 89.7321C210.889 89.716 211.211 89.4633 211.316 89.1041C211.338 89.0305 211.359 88.9569 211.38 88.8833C211.412 88.7729 211.444 88.6625 211.48 88.5521C211.549 88.3076 211.707 88.0979 211.924 87.9641C212.129 87.8439 212.37 87.8027 212.604 87.8481L212.756 87.8801L213.016 87.9561C213.101 87.9814 213.187 88.0063 213.272 88.0312C213.444 88.0809 213.616 88.1307 213.784 88.1841L213.856 88.2081C214.365 88.3724 214.647 88.9169 214.488 89.4281C214.465 89.5228 214.438 89.6159 214.412 89.7095C214.397 89.7621 214.382 89.8148 214.368 89.8681C214.365 89.8739 214.362 89.8801 214.359 89.8865C214.348 89.9108 214.336 89.9379 214.336 89.9601C214.229 90.261 214.297 90.5958 214.512 90.8321C214.552 90.8761 214.592 90.9161 214.636 90.9561C214.928 91.2031 215.345 91.2353 215.672 91.0361L216.14 90.7801C216.372 90.6536 216.645 90.6246 216.899 90.6997C217.152 90.7747 217.366 90.9475 217.492 91.1801C217.572 91.3275 217.655 91.4763 217.739 91.6259C217.855 91.8335 217.972 92.0428 218.084 92.2521C218.211 92.4803 218.241 92.7506 218.165 93.001C218.09 93.2514 217.916 93.4604 217.684 93.5801C217.604 93.6243 217.523 93.6668 217.443 93.7091C217.348 93.7588 217.254 93.8083 217.164 93.8601C216.867 94.0134 216.69 94.3273 216.712 94.6601C216.71 95.0148 216.928 95.3335 217.26 95.4601C217.395 95.5169 217.537 95.5572 217.679 95.5972ZM211.032 98.4721C212.468 98.5003 213.747 97.568 214.16 96.1921C214.329 95.6072 214.323 94.9858 214.144 94.4041C214.044 94.0712 213.891 93.7565 213.692 93.4721C213.607 93.3541 213.514 93.2431 213.412 93.1401C213.237 92.9465 213.037 92.7782 212.816 92.6401C212.568 92.4799 212.298 92.3559 212.016 92.2721C210.394 91.7924 208.683 92.6718 208.129 94.2689C207.574 95.8661 208.374 97.6167 209.944 98.2441C210.035 98.2833 210.128 98.3167 210.224 98.3441C210.364 98.3842 210.507 98.415 210.652 98.4361C210.777 98.4581 210.904 98.4702 211.032 98.4721Z" fill="#15A675"/>
</g>
</g>
<rect id="&#231;&#159;&#169;&#229;&#189;&#162;_8" x="87.707" y="48.1201" width="164.275" height="3.9984" fill="#778592"/>
<path id="&#232;&#183;&#175;&#229;&#190;&#132;_46" d="M90.8896 50.1167C90.8915 50.519 90.6507 50.8828 90.2795 51.0381C89.9084 51.1934 89.4803 51.1096 89.1951 50.8258C88.9099 50.542 88.824 50.1143 88.9775 49.7424C89.131 49.3705 89.4937 49.1279 89.896 49.1279C90.4428 49.1279 90.8869 49.5699 90.8896 50.1167Z" fill="white"/>
<path id="&#232;&#183;&#175;&#229;&#190;&#132;_47" d="M94.9599 50.1167C94.9618 50.5195 94.7204 50.8836 94.3487 51.0386C93.977 51.1936 93.5485 51.1089 93.2637 50.8241C92.9789 50.5393 92.8942 50.1108 93.0492 49.7391C93.2043 49.3674 93.5683 49.126 93.9711 49.1279C94.5161 49.1306 94.9572 49.5717 94.9599 50.1167Z" fill="white"/>
<path id="&#232;&#183;&#175;&#229;&#190;&#132;_48" d="M98.9872 50.1167C98.9892 50.519 98.7483 50.8828 98.3772 51.0381C98.0061 51.1934 97.5779 51.1096 97.2928 50.8258C97.0076 50.542 96.9217 50.1143 97.0752 49.7424C97.2287 49.3705 97.5913 49.1279 97.9936 49.1279C98.5405 49.1279 98.9846 49.5699 98.9872 50.1167Z" fill="white"/>
</g>
<g id="freepik--Pointer--inject-145">
<path id="&#232;&#183;&#175;&#229;&#190;&#132;_49" d="M228.304 134.894L231.313 142.161L228.308 143.405L225.284 136.089L220.321 139.939V119.477L234.644 133.949L228.304 134.894Z" fill="#273849"/>
<path id="&#232;&#183;&#175;&#229;&#190;&#132;_50" d="M220.494 116.755C220.328 116.322 220.247 115.861 220.254 115.397C220.245 114.934 220.326 114.474 220.494 114.043C220.664 114.474 220.746 114.934 220.734 115.397C220.744 115.861 220.662 116.322 220.494 116.755Z" fill="#273849"/>
<path id="&#232;&#183;&#175;&#229;&#190;&#132;_51" d="M218.157 117.725C217.733 117.536 217.35 117.267 217.029 116.933C216.692 116.613 216.423 116.23 216.237 115.805C217.084 116.197 217.764 116.878 218.157 117.725Z" fill="#273849"/>
<path id="&#232;&#183;&#175;&#229;&#190;&#132;_52" d="M217.187 120.062C216.755 120.227 216.296 120.309 215.833 120.302C215.369 120.312 214.908 120.23 214.475 120.062C214.907 119.892 215.369 119.81 215.833 119.822C216.296 119.813 216.756 119.894 217.187 120.062Z" fill="#273849"/>
<path id="&#232;&#183;&#175;&#229;&#190;&#132;_53" d="M218.157 122.4C217.968 122.822 217.701 123.205 217.37 123.528C217.047 123.863 216.663 124.132 216.237 124.32C216.424 123.894 216.693 123.509 217.029 123.187C217.352 122.856 217.734 122.589 218.157 122.4Z" fill="#273849"/>
<path id="&#232;&#183;&#175;&#229;&#190;&#132;_54" d="M223.801 120.062C224.234 119.894 224.696 119.813 225.16 119.822C225.622 119.811 226.083 119.892 226.513 120.062C226.082 120.23 225.622 120.312 225.16 120.302C224.696 120.31 224.235 120.228 223.801 120.062Z" fill="#273849"/>
<path id="&#232;&#183;&#175;&#229;&#190;&#132;_55" d="M222.832 117.725C223.228 116.88 223.908 116.201 224.752 115.805C224.356 116.649 223.676 117.328 222.832 117.725Z" fill="#273849"/>
</g>
</g>
</g>
</g>
<defs>
<linearGradient id="paint0_linear" x1="215.158" y1="39.5843" x2="158.087" y2="61.5723" gradientUnits="userSpaceOnUse">
<stop/>
<stop offset="1" stop-opacity="0.01"/>
</linearGradient>
<linearGradient id="paint1_linear" x1="88.8007" y1="223.251" x2="181.797" y2="219.593" gradientUnits="userSpaceOnUse">
<stop/>
<stop offset="1" stop-opacity="0.01"/>
</linearGradient>
<linearGradient id="paint2_linear" x1="128.044" y1="110.157" x2="166.402" y2="96.6309" gradientUnits="userSpaceOnUse">
<stop/>
<stop offset="1" stop-opacity="0.01"/>
</linearGradient>
<linearGradient id="paint3_linear" x1="149.433" y1="71.5897" x2="152.958" y2="70.8754" gradientUnits="userSpaceOnUse">
<stop/>
<stop offset="1" stop-opacity="0.01"/>
</linearGradient>
<linearGradient id="paint4_linear" x1="150.599" y1="71.4119" x2="154.076" y2="70.0891" gradientUnits="userSpaceOnUse">
<stop/>
<stop offset="1" stop-opacity="0.01"/>
</linearGradient>
<linearGradient id="paint5_linear" x1="151.521" y1="70.6479" x2="154.998" y2="69.3221" gradientUnits="userSpaceOnUse">
<stop/>
<stop offset="1" stop-opacity="0.01"/>
</linearGradient>
</defs>
</svg>
