<svg width="160" height="160" viewBox="0 0 160 160" fill="none" xmlns="http://www.w3.org/2000/svg">
<path opacity="0.8" d="M140.956 108.198C140.909 107.723 138.629 105.92 138.196 105.72L75.8162 69.3095C74.7769 68.7137 73.6972 69.0587 72.6578 69.6635L17.7778 101.346C17.3472 101.544 17.0527 101.954 17.0028 102.426C17.0028 102.82 17.0028 106.238 17.0028 106.632C17.0435 107.112 17.3423 107.531 17.7823 107.726L78.0986 142.466C79.2832 143.064 80.6816 143.064 81.8663 142.466L137.14 110.792C137.573 110.594 138.601 110.437 138.651 109.963L140.956 108.198Z" fill="#BAC6D4"/>
<path opacity="0.524856" fill-rule="evenodd" clip-rule="evenodd" d="M89.8818 97.4632C91.3484 97.5888 92.7839 97.8483 94.1503 98.2347L97.287 96.4344L102.687 99.2635L100.99 101.817C101.896 102.619 102.645 103.499 103.216 104.436L107.289 104.693L108.2 109.294L104.366 110.276C104.185 111.283 103.807 112.268 103.242 113.206L105.865 115.358L101.765 119.057L98.0403 117.892C96.8735 118.515 95.5904 119.029 94.2253 119.419L93.8505 122.215L87.1386 122.84L85.707 120.209C84.2405 120.083 82.8051 119.823 81.4385 119.437L78.3018 121.238L72.9127 118.424L74.6104 115.867C73.7029 115.067 72.9555 114.186 72.3881 113.249L68.3107 112.992L67.4 108.386L71.2338 107.403C71.4156 106.397 71.7937 105.412 72.3581 104.474L69.7348 102.321L73.8346 98.6231L77.5597 99.7881C78.7272 99.1659 80.0102 98.653 81.3748 98.263L81.7495 95.4648L88.4615 94.8398L89.8818 97.4632ZM83.1057 106.415C86.3073 104.848 90.0897 104.848 93.2913 106.415C96.1071 107.981 96.0988 110.523 93.2913 112.065C90.0897 113.631 86.3073 113.631 83.1057 112.065C80.2981 110.531 80.2981 107.989 83.1057 106.415Z" fill="white"/>
<path opacity="0.555106" d="M28.2132 99.0086C29.0848 98.57 30.1144 98.57 30.986 99.0086C31.7525 99.4471 31.7502 100.159 30.986 100.591C30.1144 101.029 29.0848 101.029 28.2132 100.591C27.4489 100.161 27.4489 99.4494 28.2132 99.0086Z" fill="#1E2A39"/>
<path opacity="0.524856" fill-rule="evenodd" clip-rule="evenodd" d="M32.68 103.939L76.4135 78.4688L89.5032 85.5375L46.7052 111.332L32.68 103.939Z" fill="white"/>
<path opacity="0.555106" d="M23.7332 101.809C24.6047 101.371 25.6344 101.371 26.5059 101.809C27.2725 102.248 27.2702 102.96 26.5059 103.392C25.6344 103.83 24.6047 103.83 23.7332 103.392C22.9689 102.962 22.9689 102.25 23.7332 101.809Z" fill="#1E2A39"/>
<path opacity="0.555106" d="M32.6932 96.2088C33.5647 95.7702 34.5944 95.7702 35.4659 96.2088C36.2325 96.6473 36.2302 97.3592 35.4659 97.7909C34.5944 98.2295 33.5647 98.2295 32.6932 97.7909C31.9289 97.3615 31.9289 96.6496 32.6932 96.2088Z" fill="#1E2A39"/>
<path d="M141.06 112.049C141.01 112.524 140.474 113.03 140.039 113.227L85.1901 144.891C84.6097 145.199 83.9606 145.353 83.304 145.339V141.137C83.9606 141.151 84.6097 140.996 85.1901 140.689L140.061 109.002C140.53 108.805 141.171 108.449 141.172 107.94C141.171 107.975 141.068 108.439 141.06 108.473V112.049Z" fill="#818C99"/>
<path d="M83.4068 141.143V145.345C82.7516 145.359 82.1039 145.204 81.5252 144.897L17.7823 107.725C17.3461 107.526 17.049 107.11 17.0028 106.632C17.0028 106.243 17.0028 102.869 17.0028 102.435C17.052 102.909 17.3486 103.321 17.7823 103.519L81.5252 140.695C82.1039 141.002 82.7516 141.156 83.4068 141.143Z" fill="#5A6470"/>
<path fill-rule="evenodd" clip-rule="evenodd" d="M72.6668 69.663C73.266 69.2701 73.958 69.0414 74.6734 69C75.0747 69.0019 75.4686 69.1084 75.8162 69.3091L140.391 106.993C141.43 107.593 141.435 108.566 140.391 109.166L85.5154 140.853C84.3306 141.45 82.9326 141.45 81.7478 140.853L17.7778 103.518C16.7385 102.918 16.743 101.946 17.7778 101.346L72.6668 69.663ZM74.6734 69C74.6736 69 74.6737 69 74.6738 69H74.6649C74.6677 69 74.6706 69 74.6734 69ZM75.5922 69.6989C75.3117 69.5324 74.9911 69.4457 74.6649 69.448H74.6738C74.0343 69.488 73.4164 69.695 72.8818 70.0483L18.0018 101.735C17.6524 101.937 17.4508 102.183 17.4508 102.434C17.4508 102.685 17.6524 102.927 18.0063 103.133L81.9718 140.463C82.483 140.73 83.0529 140.864 83.6294 140.853C84.2087 140.864 84.7815 140.73 85.2959 140.463L140.167 108.776C140.521 108.575 140.722 108.333 140.722 108.082C140.722 107.831 140.521 107.584 140.171 107.383L75.5922 69.6989Z" fill="#FAFAFA"/>
<path d="M86.3648 88.2607L79.208 92.3991L82.1704 103.202C82.2123 103.294 82.2805 103.372 82.3664 103.426L88.3248 106.886C88.4601 106.961 88.6214 106.97 88.7646 106.913C88.9078 106.855 89.0176 106.737 89.064 106.59L92.3064 91.7159L86.3648 88.2607Z" fill="#BA68C8"/>
<path d="M92.3064 91.7109L89.064 106.585C89.0023 106.788 88.8211 106.931 88.6093 106.945C88.3975 106.959 88.1994 106.84 88.112 106.646L85.1496 95.8437L92.3064 91.7109Z" fill="#475666"/>
<path d="M79.208 92.3994L85.1552 95.8434L88.112 106.651C88.1472 106.727 88.1988 106.794 88.2632 106.847C87.7032 106.528 82.6128 103.577 82.3664 103.426C82.2793 103.373 82.2108 103.295 82.1704 103.202L79.208 92.3994Z" fill="#1D252E"/>
<path d="M107.04 14.5876L60.9464 41.1988C60.4567 41.5191 60.1488 42.0536 60.1176 42.638V104.092C60.1491 104.675 60.4598 105.207 60.952 105.52L63.92 107.2C64.4481 107.468 65.0719 107.468 65.6 107.2L111.71 80.5836C112.201 80.2664 112.509 79.7332 112.539 79.15V17.6732C112.506 17.0866 112.191 16.5524 111.694 16.2396L108.72 14.5596C108.188 14.3 107.563 14.3104 107.04 14.5876Z" fill="#3C4B5D"/>
<path opacity="0.267973" d="M64.7544 106.741V45.2421C64.7903 44.6564 65.1047 44.1233 65.6 43.8085L111.716 17.1973C112.175 16.9285 112.545 17.1469 112.545 17.6733V79.1669C112.515 79.7501 112.206 80.2833 111.716 80.6005L65.6 107.217C65.1296 107.486 64.7544 107.268 64.7544 106.741Z" fill="#647280"/>
<path opacity="0.5" d="M65.6 107.228C65.0802 107.48 64.4735 107.48 63.9536 107.228L60.9856 105.514C60.4936 105.203 60.1827 104.673 60.1512 104.092V42.6376C60.1618 42.3373 60.2527 42.0452 60.4144 41.792L65.0288 44.424C64.8777 44.6708 64.7928 44.9524 64.7824 45.2416V106.741C64.7525 106.947 64.8497 107.151 65.0286 107.257C65.2075 107.364 65.433 107.352 65.6 107.228Z" fill="black"/>
<path opacity="0.2" d="M112.679 17.6959C112.618 17.2815 112.276 17.1359 111.862 17.3655L65.768 43.9823C65.5223 44.1337 65.3198 44.3459 65.18 44.5983L60.56 41.9663C60.695 41.7254 60.8874 41.5215 61.12 41.3727L107.208 14.7615C107.736 14.4923 108.36 14.4923 108.888 14.7615L111.85 16.4415C112.296 16.7196 112.598 17.1773 112.679 17.6959Z" fill="#263546"/>
<ellipse opacity="0.3" cx="88.6433" cy="39.1935" rx="3.6736" ry="2.1896" transform="rotate(-63.45 88.6433 39.1935)" fill="white"/>
<path opacity="0.5" d="M82.6856 43.7354C83.5144 44.6986 83.2456 46.8042 82.1256 48.4338C81.0056 50.0634 79.3872 50.6066 78.5528 49.6434C77.7184 48.6802 77.9928 46.5746 79.1128 44.945C80.2328 43.3154 81.84 42.7722 82.6856 43.7354Z" fill="white"/>
<path opacity="0.6" d="M76.4472 54.3193C77.7912 54.1401 78.5248 55.5233 78.088 57.4105C77.6512 59.2977 76.212 60.9665 74.868 61.1457C73.524 61.3249 72.7904 59.9417 73.2272 58.0545C73.664 56.1673 75.12 54.4985 76.4472 54.3193Z" fill="white"/>
<path opacity="0.7" d="M74.868 65.5536C76.212 64.2992 77.668 64.4336 78.088 65.856C78.508 67.2784 77.7912 69.4456 76.4472 70.7C75.1032 71.9544 73.6472 71.82 73.2272 70.3976C72.8072 68.9752 73.524 66.808 74.868 65.5536Z" fill="white"/>
<ellipse opacity="0.75" cx="80.6144" cy="73.8829" rx="3.6736" ry="2.1896" transform="rotate(-63.45 80.6144 73.8829)" fill="white"/>
<ellipse opacity="0.8" cx="88.6424" cy="72.8146" rx="3.6736" ry="2.1896" transform="rotate(-63.45 88.6424 72.8146)" fill="white"/>
<path opacity="0.85" d="M94.5968 68.286C93.768 67.3228 94.0368 65.2172 95.1568 63.5876C96.2768 61.958 97.9008 61.4148 98.7296 62.378C99.5584 63.3412 99.2896 65.4468 98.1696 67.0764C97.0496 68.706 95.4256 69.2492 94.5968 68.286Z" fill="white"/>
<path opacity="0.9" d="M100.835 57.6796C99.4912 57.8588 98.7576 56.4756 99.1944 54.5884C99.6312 52.7012 101.07 51.0268 102.414 50.8476C103.758 50.6684 104.492 52.0572 104.055 53.9388C103.618 55.8204 102.179 57.5172 100.835 57.6796Z" fill="white"/>
<path d="M102.414 46.4793C101.07 47.7337 99.6144 47.5993 99.1944 46.1769C98.7744 44.7545 99.4912 42.5873 100.835 41.3385C102.179 40.0897 103.635 40.2185 104.055 41.6409C104.475 43.0633 103.758 45.2137 102.414 46.4793Z" fill="white"/>
<path opacity="0.15" d="M98.7352 38.8804C97.9064 40.7284 96.3048 41.8932 95.1624 41.4788C94.02 41.0644 93.768 39.2388 94.6024 37.3852C95.4368 35.5316 97.0328 34.3724 98.1752 34.7812C99.3176 35.19 99.564 37.0324 98.7352 38.8804Z" fill="white"/>
<path d="M78.5752 92.2037C78.6052 92.176 78.6516 92.176 78.6816 92.2037C78.7168 92.248 78.7329 92.3044 78.7264 92.3605V93.3741C78.7283 93.4458 78.7129 93.5168 78.6816 93.5813C78.6636 93.639 78.626 93.6886 78.5752 93.7213L75.988 95.2109C75.9742 95.2257 75.955 95.234 75.9348 95.234C75.9146 95.234 75.8954 95.2257 75.8816 95.2109C75.8493 95.1653 75.8335 95.11 75.8368 95.0541V88.8661C75.8384 88.7948 75.8536 88.7245 75.8816 88.6589C75.9034 88.6048 75.9403 88.5581 75.988 88.5245L76.7216 88.0989C76.7516 88.0712 76.798 88.0712 76.828 88.0989C76.8607 88.1444 76.8766 88.1999 76.8728 88.2557V93.1725L78.5752 92.2037Z" fill="#FAFAFA"/>
<path fill-rule="evenodd" clip-rule="evenodd" d="M79.4376 88.0202C79.3598 88.3793 79.3148 88.7449 79.3032 89.1122C79.2994 89.3005 79.3007 89.504 79.302 89.7005C79.3026 89.7962 79.3032 89.8903 79.3032 89.9802V90.8146C79.3093 91.1307 79.3544 91.4448 79.4376 91.7498C79.5026 91.9837 79.6193 92.1999 79.7792 92.3826C79.9258 92.5351 80.1277 92.6219 80.3392 92.6234C80.5985 92.6269 80.8527 92.5506 81.0672 92.405C81.3458 92.2439 81.5925 92.0332 81.7952 91.7834C82.0207 91.5231 82.2092 91.2329 82.3552 90.921C82.5074 90.5914 82.622 90.2458 82.6968 89.8906C82.774 89.533 82.8209 89.1696 82.8368 88.8042V87.953V87.0962C82.8263 86.7819 82.7793 86.47 82.6968 86.1666C82.6391 85.9315 82.5214 85.7154 82.3552 85.5394C82.2082 85.3869 82.007 85.2984 81.7952 85.293C81.5371 85.2925 81.2844 85.3664 81.0672 85.5058C80.7897 85.6707 80.5433 85.883 80.3392 86.133C80.1168 86.3976 79.9286 86.6892 79.7792 87.001C79.6312 87.3283 79.5167 87.6698 79.4376 88.0202ZM81.756 88.961V89.353C81.7406 89.6586 81.6743 89.9595 81.56 90.2434C81.4656 90.5012 81.2831 90.7174 81.0448 90.8538C80.8152 91.005 80.6416 90.9994 80.5296 90.8538C80.3977 90.6509 80.3312 90.4124 80.3392 90.1706V89.7954V88.9386V88.5634C80.343 88.4033 80.3618 88.244 80.3952 88.0874C80.4265 87.9416 80.4715 87.7991 80.5296 87.6618C80.5837 87.5331 80.6553 87.4125 80.7424 87.3034C80.8266 87.1982 80.929 87.109 81.0448 87.0402C81.1349 86.9819 81.2399 86.9508 81.3472 86.9506C81.43 86.9587 81.5064 86.9989 81.56 87.0626C81.6278 87.1409 81.6741 87.2354 81.6944 87.337C81.7312 87.4684 81.7519 87.6038 81.756 87.7402V88.1042V88.5298V88.961Z" fill="#FAFAFA"/>
<path fill-rule="evenodd" clip-rule="evenodd" d="M85.8664 82.9192C85.8272 82.88 85.7712 82.8744 85.6928 82.9192L84.7464 83.4512C84.6664 83.4983 84.6051 83.5714 84.5728 83.6584C84.5355 83.7405 84.5092 83.8271 84.4944 83.916L83.2736 90.636V90.7928C83.2681 90.8394 83.2824 90.886 83.3128 90.9216C83.3234 90.9337 83.3387 90.9406 83.3548 90.9406C83.3709 90.9406 83.3862 90.9337 83.3968 90.9216L84.1024 90.5184C84.1726 90.4797 84.2278 90.4186 84.2592 90.3448C84.2891 90.2848 84.3099 90.2206 84.3208 90.1544L84.4776 89.264L85.9616 88.4072L86.1184 89.1128C86.1274 89.1587 86.1487 89.2013 86.18 89.236C86.208 89.2864 86.264 89.2808 86.3368 89.236L87.0424 88.8328C87.0814 88.8052 87.1107 88.766 87.1264 88.7208C87.1532 88.6669 87.1667 88.6074 87.1656 88.5472C87.1687 88.5044 87.1687 88.4613 87.1656 88.4184L85.9448 83.0872C85.9327 83.0257 85.9058 82.968 85.8664 82.9192ZM85.6928 87.108L84.7912 87.6288L85.2448 85.0696L85.6928 87.108Z" fill="#FAFAFA"/>
<path fill-rule="evenodd" clip-rule="evenodd" d="M90.2512 80.4824C90.0026 80.4867 89.7602 80.5604 89.5512 80.6952L88.056 81.5912C88.0097 81.6285 87.9731 81.6766 87.9496 81.7312C87.9217 81.7968 87.9064 81.8671 87.9048 81.9384V88.0984C87.9011 88.1543 87.9169 88.2098 87.9496 88.2552C87.9797 88.283 88.026 88.283 88.056 88.2552L89.568 87.3872C89.8335 87.2284 90.0687 87.0236 90.2624 86.7824C90.487 86.5235 90.6754 86.2353 90.8224 85.9256C90.9775 85.5884 91.0958 85.2354 91.1752 84.8728C91.2612 84.4902 91.31 84.1001 91.3208 83.708V83.3496V82.7112V82.3472C91.316 82.0119 91.2671 81.6786 91.1752 81.356C91.1083 81.1165 90.9832 80.8972 90.8112 80.7176C90.6596 80.5735 90.4604 80.4898 90.2512 80.4824ZM89.5232 82.2688C90.0048 81.9888 90.2848 82.2128 90.2848 82.9352H90.296V84.3688C90.3455 84.9735 90.0651 85.5579 89.5624 85.8976L88.9632 86.2392V82.5992L89.5232 82.2688Z" fill="#FAFAFA"/>
<path d="M92.3904 85.7632C92.3604 85.791 92.314 85.791 92.284 85.7632C92.2488 85.719 92.2327 85.6626 92.2392 85.6064V79.4016C92.2373 79.33 92.2527 79.2589 92.284 79.1944C92.3005 79.136 92.3386 79.086 92.3904 79.0544L93.1184 78.6344C93.1322 78.6197 93.1514 78.6113 93.1716 78.6113C93.1918 78.6113 93.211 78.6197 93.2248 78.6344C93.2594 78.679 93.2755 78.7351 93.2696 78.7912V84.9848C93.2704 85.0564 93.2551 85.1272 93.2248 85.192C93.2066 85.2481 93.1688 85.2958 93.1184 85.3264L92.3904 85.7632Z" fill="#FAFAFA"/>
<path d="M96.876 83.1707C96.8088 83.2099 96.7584 83.2099 96.7192 83.1707C96.6888 83.1441 96.6641 83.1118 96.6464 83.0755L95.364 80.5387V83.7811C95.3649 83.8527 95.3495 83.9235 95.3192 83.9883C95.301 84.0444 95.2632 84.0921 95.2128 84.1227L94.4848 84.5483C94.4548 84.5761 94.4085 84.5761 94.3784 84.5483C94.3433 84.5041 94.3271 84.4476 94.3336 84.3915V78.1923C94.3318 78.1206 94.3471 78.0496 94.3784 77.9851C94.3964 77.9274 94.434 77.8778 94.4848 77.8451L95.0448 77.5091C95.112 77.4755 95.1624 77.4755 95.2016 77.5091C95.2328 77.5326 95.2578 77.5634 95.2744 77.5987L96.5568 80.1355V76.8987C96.555 76.827 96.5703 76.756 96.6016 76.6915C96.6196 76.6338 96.6572 76.5842 96.708 76.5515L97.436 76.1315C97.4498 76.1168 97.4691 76.1084 97.4892 76.1084C97.5094 76.1084 97.5287 76.1168 97.5424 76.1315C97.577 76.176 97.5931 76.2322 97.5872 76.2883V82.4819C97.5884 82.5535 97.5731 82.6244 97.5424 82.6891C97.5242 82.7452 97.4864 82.7929 97.436 82.8235L96.876 83.1707Z" fill="#FAFAFA"/>
<path d="M100.27 75.941C100.147 76.0121 100.039 76.1051 99.9504 76.2154C99.8674 76.3283 99.7978 76.4504 99.7432 76.5794C99.6864 76.7158 99.6469 76.8588 99.6256 77.005C99.5987 77.1551 99.58 77.3065 99.5696 77.4586C99.5626 77.5761 99.5626 77.6939 99.5696 77.8114V78.2706C99.5696 78.4274 99.5696 78.5786 99.5696 78.7242C99.5696 78.8698 99.5696 78.9874 99.5696 79.0658C99.5736 79.1978 99.5904 79.3291 99.62 79.4578C99.6405 79.5606 99.6825 79.6579 99.7432 79.7434C99.7935 79.8128 99.8708 79.8575 99.956 79.8666C100.068 79.8703 100.178 79.8368 100.27 79.7714C100.372 79.7152 100.464 79.6434 100.544 79.5586C100.634 79.4656 100.709 79.36 100.768 79.245C100.834 79.1149 100.884 78.9777 100.919 78.8362C100.959 78.6655 100.978 78.4907 100.975 78.3154L100.505 78.5842C100.475 78.612 100.428 78.612 100.398 78.5842C100.366 78.5388 100.35 78.4833 100.354 78.4274V77.4138C100.355 77.3425 100.37 77.2722 100.398 77.2066C100.42 77.1511 100.457 77.1026 100.505 77.0666L101.86 76.2882C101.89 76.2605 101.936 76.2605 101.966 76.2882C101.999 76.3317 102.015 76.3853 102.011 76.4394V77.6658C102.013 78.0636 101.968 78.4602 101.877 78.8474C101.794 79.2078 101.67 79.5573 101.507 79.889C101.357 80.1918 101.169 80.4741 100.947 80.729C100.75 80.9519 100.517 81.1411 100.258 81.289C100.046 81.4298 99.7961 81.5022 99.5416 81.4962C99.3298 81.4908 99.1287 81.4023 98.9816 81.2498C98.8167 81.0699 98.6976 80.8528 98.6344 80.617C98.5516 80.3177 98.5064 80.0091 98.5 79.6986C98.5 79.441 98.5 79.1386 98.5 78.8586C98.5 78.5786 98.5 78.2986 98.5 77.9906C98.5067 77.6266 98.5518 77.2644 98.6344 76.9098C98.7135 76.5576 98.828 76.2143 98.976 75.885C99.1269 75.5724 99.3149 75.2791 99.536 75.0114C99.736 74.7632 99.9788 74.5527 100.253 74.3898C100.463 74.2542 100.708 74.1823 100.958 74.1826C101.152 74.1874 101.338 74.2542 101.49 74.373C101.64 74.4981 101.757 74.6576 101.832 74.8378C101.911 75.0303 101.956 75.2348 101.966 75.4426C101.966 75.5003 101.955 75.5573 101.933 75.6106C101.915 75.6577 101.884 75.6986 101.843 75.7282L101.098 76.1538C101.042 76.1874 100.998 76.1538 100.97 76.1538C100.935 76.1172 100.903 76.0778 100.874 76.0362C100.824 75.9519 100.75 75.8839 100.662 75.8402C100.589 75.8066 100.454 75.8346 100.27 75.941Z" fill="#FAFAFA"/>
</svg>
