<svg width="160" height="160" viewBox="0 0 160 160" fill="none" xmlns="http://www.w3.org/2000/svg">
<path opacity="0.8" d="M140.956 108.198C140.909 107.723 138.629 105.92 138.196 105.72L75.8162 69.3095C74.7769 68.7137 73.6972 69.0586 72.6578 69.6634L17.7778 101.346C17.3472 101.544 17.0527 101.954 17.0028 102.426C17.0028 102.82 17.0028 106.238 17.0028 106.632C17.0435 107.112 17.3423 107.531 17.7823 107.726L78.0986 142.466C79.2832 143.064 80.6816 143.064 81.8663 142.466L137.14 110.792C137.573 110.594 138.601 110.437 138.651 109.963L140.956 108.198Z" fill="#BAC6D4"/>
<path opacity="0.524856" fill-rule="evenodd" clip-rule="evenodd" d="M89.8818 97.4633C91.3484 97.5889 92.7839 97.8484 94.1503 98.2349L97.287 96.4345L102.687 99.2636L100.99 101.817C101.896 102.619 102.645 103.5 103.216 104.436L107.289 104.693L108.2 109.294L104.366 110.276C104.185 111.283 103.807 112.268 103.242 113.206L105.865 115.358L101.765 119.057L98.0403 117.892C96.8735 118.515 95.5904 119.029 94.2253 119.419L93.8505 122.215L87.1386 122.84L85.707 120.209C84.2405 120.083 82.8051 119.824 81.4385 119.437L78.3018 121.238L72.9127 118.424L74.6104 115.868C73.7029 115.067 72.9555 114.186 72.3881 113.249L68.3107 112.992L67.4 108.386L71.2338 107.404C71.4156 106.397 71.7937 105.412 72.3581 104.474L69.7348 102.322L73.8346 98.6232L77.5597 99.7883C78.7272 99.166 80.0102 98.6531 81.3748 98.2631L81.7495 95.4649L88.4615 94.84L89.8818 97.4633ZM83.1057 106.415C86.3073 104.848 90.0897 104.848 93.2913 106.415C96.1071 107.981 96.0988 110.523 93.2913 112.065C90.0897 113.632 86.3073 113.632 83.1057 112.065C80.2981 110.531 80.2981 107.989 83.1057 106.415Z" fill="white"/>
<path opacity="0.555106" d="M28.2132 99.0089C29.0848 98.5703 30.1144 98.5703 30.986 99.0089C31.7525 99.4474 31.7502 100.159 30.986 100.591C30.1144 101.03 29.0848 101.03 28.2132 100.591C27.4489 100.162 27.4489 99.4497 28.2132 99.0089Z" fill="#1E2A39"/>
<path opacity="0.524856" fill-rule="evenodd" clip-rule="evenodd" d="M32.6801 103.938L76.4135 78.4684L89.5033 85.5371L46.7053 111.332L32.6801 103.938Z" fill="white"/>
<path opacity="0.555106" d="M23.7332 101.809C24.6048 101.37 25.6344 101.37 26.506 101.809C27.2725 102.247 27.2702 102.959 26.506 103.391C25.6344 103.83 24.6048 103.83 23.7332 103.391C22.969 102.962 22.969 102.25 23.7332 101.809Z" fill="#1E2A39"/>
<path opacity="0.555106" d="M32.6932 96.2089C33.5647 95.7703 34.5944 95.7703 35.4659 96.2089C36.2325 96.6474 36.2302 97.3594 35.4659 97.791C34.5944 98.2296 33.5647 98.2296 32.6932 97.791C31.9289 97.3616 31.9289 96.6497 32.6932 96.2089Z" fill="#1E2A39"/>
<path d="M141.06 112.049C141.01 112.524 140.474 113.031 140.039 113.227L85.19 144.892C84.6097 145.199 83.9605 145.353 83.304 145.34V141.137C83.9605 141.151 84.6097 140.997 85.19 140.689L140.061 109.002C140.53 108.805 141.171 108.449 141.172 107.941C141.171 107.975 141.068 108.44 141.06 108.473V112.049Z" fill="#818C99"/>
<path d="M83.4068 141.143V145.345C82.7516 145.359 82.1039 145.204 81.5252 144.897L17.7823 107.726C17.3461 107.526 17.049 107.11 17.0028 106.632C17.0028 106.243 17.0028 102.869 17.0028 102.435C17.052 102.909 17.3486 103.321 17.7823 103.519L81.5252 140.695C82.1039 141.002 82.7516 141.156 83.4068 141.143Z" fill="#5A6470"/>
<path fill-rule="evenodd" clip-rule="evenodd" d="M72.6668 69.6635C73.266 69.2705 73.958 69.0418 74.6734 69.0004C75.0747 69.0023 75.4686 69.1088 75.8162 69.3095L140.391 106.993C141.43 107.594 141.435 108.566 140.391 109.166L85.5154 140.853C84.3306 141.451 82.9326 141.451 81.7478 140.853L17.7778 103.519C16.7385 102.918 16.743 101.946 17.7778 101.346L72.6668 69.6635ZM74.6734 69.0004C74.6736 69.0004 74.6737 69.0004 74.6738 69.0004H74.6649C74.6677 69.0004 74.6706 69.0004 74.6734 69.0004ZM75.5922 69.6993C75.3117 69.5328 74.9911 69.4461 74.6649 69.4484H74.6738C74.0343 69.4884 73.4164 69.6954 72.8818 70.0487L18.0018 101.736C17.6524 101.937 17.4508 102.184 17.4508 102.435C17.4508 102.686 17.6524 102.927 18.0063 103.134L81.9718 140.464C82.483 140.73 83.0529 140.864 83.6294 140.853C84.2087 140.864 84.7815 140.73 85.2959 140.464L140.167 108.777C140.521 108.575 140.722 108.333 140.722 108.082C140.722 107.831 140.521 107.585 140.171 107.383L75.5922 69.6993Z" fill="#FAFAFA"/>
<path d="M86.3648 88.2616L79.208 92.4L82.1704 103.202C82.2123 103.295 82.2805 103.373 82.3664 103.426L88.3248 106.887C88.4601 106.961 88.6214 106.971 88.7646 106.914C88.9078 106.856 89.0176 106.738 89.064 106.59L92.3064 91.7168L86.3648 88.2616Z" fill="#BA68C8"/>
<path d="M92.3063 91.7112L89.0639 106.585C89.0022 106.788 88.8211 106.931 88.6093 106.945C88.3974 106.959 88.1993 106.84 88.1119 106.646L85.1495 95.844L92.3063 91.7112Z" fill="#475666"/>
<path d="M79.208 92.4L85.1552 95.844L88.112 106.652C88.1472 106.728 88.1988 106.795 88.2632 106.848C87.7032 106.529 82.6128 103.578 82.3664 103.426C82.2793 103.374 82.2108 103.296 82.1704 103.202L79.208 92.4Z" fill="#1D252E"/>
<path d="M107.04 14.588L60.9464 41.1992C60.4566 41.5195 60.1488 42.054 60.1176 42.6384V104.093C60.149 104.676 60.4597 105.207 60.952 105.521L63.92 107.201C64.448 107.468 65.0719 107.468 65.6 107.201L111.71 80.584C112.201 80.2667 112.509 79.7335 112.539 79.1504V17.6736C112.506 17.087 112.191 16.5528 111.694 16.24L108.72 14.56C108.188 14.3004 107.563 14.3108 107.04 14.588Z" fill="#3C4B5D"/>
<path opacity="0.267973" d="M64.7544 106.742V45.2424C64.7903 44.6566 65.1047 44.1235 65.6 43.8088L111.716 17.1976C112.175 16.9288 112.545 17.1472 112.545 17.6736V79.1672C112.515 79.7503 112.206 80.2835 111.716 80.6008L65.6 107.218C65.1296 107.486 64.7544 107.268 64.7544 106.742Z" fill="#647280"/>
<path opacity="0.5" d="M65.5999 107.229C65.0801 107.481 64.4734 107.481 63.9535 107.229L60.9855 105.515C60.4935 105.204 60.1825 104.674 60.1511 104.093V42.6384C60.1616 42.3381 60.2525 42.046 60.4143 41.7928L65.0287 44.4248C64.8775 44.6715 64.7927 44.9532 64.7823 45.2424V106.742C64.7524 106.948 64.8495 107.152 65.0284 107.258C65.2074 107.365 65.4329 107.353 65.5999 107.229Z" fill="black"/>
<path opacity="0.2" d="M112.679 17.6963C112.618 17.2819 112.276 17.1363 111.862 17.3659L65.7679 43.9827C65.5223 44.1342 65.3198 44.3463 65.1799 44.5987L60.5599 41.9667C60.695 41.7259 60.8873 41.522 61.1199 41.3731L107.208 14.7619C107.736 14.4927 108.36 14.4927 108.888 14.7619L111.85 16.4419C112.296 16.72 112.598 17.1778 112.679 17.6963Z" fill="#263546"/>
<ellipse opacity="0.3" cx="88.6432" cy="39.1941" rx="3.6736" ry="2.1896" transform="rotate(-63.45 88.6432 39.1941)" fill="white"/>
<path opacity="0.5" d="M82.6856 43.736C83.5144 44.6992 83.2456 46.8048 82.1256 48.4344C81.0056 50.064 79.3872 50.6072 78.5528 49.644C77.7184 48.6808 77.9928 46.5752 79.1128 44.9456C80.2328 43.316 81.84 42.7728 82.6856 43.736Z" fill="white"/>
<path opacity="0.6" d="M76.4471 54.32C77.7911 54.1408 78.5247 55.524 78.0879 57.4112C77.6511 59.2984 76.2119 60.9672 74.8679 61.1464C73.5239 61.3256 72.7903 59.9424 73.2271 58.0552C73.6639 56.168 75.1199 54.4992 76.4471 54.32Z" fill="white"/>
<path opacity="0.7" d="M74.8679 65.5536C76.2119 64.2992 77.6679 64.4336 78.0879 65.856C78.5079 67.2784 77.7911 69.4456 76.4471 70.7C75.1031 71.9544 73.6471 71.82 73.2271 70.3976C72.8071 68.9752 73.5239 66.808 74.8679 65.5536Z" fill="white"/>
<ellipse opacity="0.75" cx="80.6144" cy="73.8831" rx="3.6736" ry="2.1896" transform="rotate(-63.45 80.6144 73.8831)" fill="white"/>
<ellipse opacity="0.8" cx="88.6423" cy="72.8146" rx="3.6736" ry="2.1896" transform="rotate(-63.45 88.6423 72.8146)" fill="white"/>
<path opacity="0.85" d="M94.5967 68.2864C93.7679 67.3232 94.0367 65.2176 95.1567 63.588C96.2767 61.9584 97.9007 61.4152 98.7295 62.3784C99.5583 63.3416 99.2895 65.4472 98.1695 67.0768C97.0495 68.7064 95.4255 69.2496 94.5967 68.2864Z" fill="white"/>
<path opacity="0.9" d="M100.835 57.68C99.4912 57.8592 98.7576 56.476 99.1944 54.5888C99.6312 52.7016 101.07 51.0272 102.414 50.848C103.758 50.6688 104.492 52.0576 104.055 53.9392C103.618 55.8208 102.179 57.5176 100.835 57.68Z" fill="white"/>
<path d="M102.414 46.48C101.07 47.7344 99.6144 47.6 99.1944 46.1776C98.7744 44.7552 99.4912 42.588 100.835 41.3392C102.179 40.0904 103.635 40.2192 104.055 41.6416C104.475 43.064 103.758 45.2144 102.414 46.48Z" fill="white"/>
<path opacity="0.15" d="M98.7351 38.8808C97.9063 40.7288 96.3047 41.8936 95.1623 41.4792C94.0199 41.0648 93.7679 39.2392 94.6023 37.3856C95.4367 35.532 97.0327 34.3728 98.1751 34.7816C99.3175 35.1904 99.5639 37.0328 98.7351 38.8808Z" fill="white"/>
<path d="M78.5751 92.204C78.6052 92.1762 78.6515 92.1762 78.6815 92.204C78.7167 92.2482 78.7328 92.3046 78.7263 92.3608V93.3744C78.7282 93.446 78.7128 93.5171 78.6815 93.5816C78.6636 93.6393 78.6259 93.6888 78.5751 93.7216L75.9879 95.2112C75.9742 95.2259 75.9549 95.2343 75.9347 95.2343C75.9146 95.2343 75.8953 95.2259 75.8815 95.2112C75.8492 95.1655 75.8334 95.1102 75.8367 95.0544V88.8664C75.8383 88.7951 75.8535 88.7248 75.8815 88.6592C75.9033 88.6051 75.9402 88.5584 75.9879 88.5248L76.7215 88.0992C76.7516 88.0714 76.7979 88.0714 76.8279 88.0992C76.8606 88.1446 76.8765 88.2001 76.8727 88.256V93.1728L78.5751 92.204Z" fill="#FAFAFA"/>
<path fill-rule="evenodd" clip-rule="evenodd" d="M79.4375 88.0208C79.3598 88.38 79.3148 88.7455 79.3031 89.1128C79.2994 89.3011 79.3007 89.5046 79.3019 89.7011C79.3025 89.7968 79.3031 89.8909 79.3031 89.9808V90.8152C79.3092 91.1313 79.3544 91.4454 79.4375 91.7504C79.5025 91.9843 79.6193 92.2005 79.7791 92.3832C79.9257 92.5357 80.1276 92.6225 80.3391 92.624C80.5985 92.6275 80.8526 92.5512 81.0671 92.4056C81.3457 92.2445 81.5924 92.0339 81.7951 91.784C82.0207 91.5237 82.2091 91.2335 82.3551 90.9216C82.5073 90.592 82.6219 90.2464 82.6967 89.8912C82.774 89.5336 82.8208 89.1702 82.8367 88.8048V87.9536V87.0968C82.8262 86.7825 82.7793 86.4706 82.6967 86.1672C82.639 85.9321 82.5213 85.716 82.3551 85.54C82.2081 85.3875 82.0069 85.299 81.7951 85.2936C81.5371 85.2932 81.2844 85.367 81.0671 85.5064C80.7897 85.6713 80.5433 85.8836 80.3391 86.1336C80.1167 86.3982 79.9286 86.6899 79.7791 87.0016C79.6311 87.3289 79.5167 87.6704 79.4375 88.0208ZM81.7559 88.9616V89.3536C81.7405 89.6592 81.6743 89.9601 81.5599 90.244C81.4655 90.5018 81.2831 90.718 81.0447 90.8544C80.8151 91.0056 80.6415 91 80.5295 90.8544C80.3976 90.6515 80.3312 90.413 80.3391 90.1712V89.796V88.9392V88.564C80.343 88.4039 80.3617 88.2446 80.3951 88.088C80.4265 87.9422 80.4715 87.7997 80.5295 87.6624C80.5837 87.5337 80.6553 87.4131 80.7423 87.304C80.8265 87.1988 80.9289 87.1096 81.0447 87.0408C81.1349 86.9826 81.2398 86.9515 81.3471 86.9512C81.43 86.9593 81.5063 86.9995 81.5599 87.0632C81.6277 87.1415 81.674 87.236 81.6943 87.3376C81.7312 87.469 81.7519 87.6044 81.7559 87.7408V88.1048V88.5304V88.9616Z" fill="#FAFAFA"/>
<path fill-rule="evenodd" clip-rule="evenodd" d="M85.8664 82.9192C85.8272 82.88 85.7712 82.8744 85.6928 82.9192L84.7464 83.4512C84.6664 83.4982 84.6051 83.5714 84.5728 83.6584C84.5355 83.7405 84.5092 83.8271 84.4944 83.916L83.2736 90.636V90.7928C83.2681 90.8393 83.2824 90.886 83.3128 90.9216C83.3234 90.9336 83.3387 90.9405 83.3548 90.9405C83.3709 90.9405 83.3862 90.9336 83.3968 90.9216L84.1024 90.5184C84.1726 90.4797 84.2278 90.4186 84.2592 90.3448C84.2891 90.2847 84.3099 90.2206 84.3208 90.1544L84.4776 89.264L85.9616 88.4072L86.1184 89.1128C86.1274 89.1587 86.1487 89.2013 86.18 89.236C86.208 89.2864 86.264 89.2808 86.3368 89.236L87.0424 88.8328C87.0814 88.8051 87.1107 88.766 87.1264 88.7208C87.1532 88.6669 87.1667 88.6074 87.1656 88.5472C87.1687 88.5043 87.1687 88.4613 87.1656 88.4184L85.9448 83.0872C85.9327 83.0257 85.9058 82.968 85.8664 82.9192ZM85.6928 87.108L84.7912 87.6288L85.2448 85.0696L85.6928 87.108Z" fill="#FAFAFA"/>
<path fill-rule="evenodd" clip-rule="evenodd" d="M90.2511 80.4832C90.0025 80.4874 89.76 80.5611 89.5511 80.696L88.0559 81.592C88.0095 81.6293 87.973 81.6773 87.9495 81.732C87.9215 81.7976 87.9063 81.8679 87.9047 81.9392V88.0992C87.901 88.1551 87.9168 88.2105 87.9495 88.256C87.9796 88.2837 88.0259 88.2837 88.0559 88.256L89.5679 87.388C89.8334 87.2291 90.0685 87.0244 90.2623 86.7832C90.4869 86.5243 90.6753 86.236 90.8223 85.9264C90.9774 85.5891 91.0957 85.2362 91.1751 84.8736C91.2611 84.4909 91.3099 84.1008 91.3207 83.7088V83.3504V82.712V82.348C91.3159 82.0126 91.267 81.6794 91.1751 81.3568C91.1081 81.1173 90.9831 80.898 90.8111 80.7184C90.6594 80.5742 90.4602 80.4906 90.2511 80.4832ZM89.5231 82.2696C90.0047 81.9896 90.2847 82.2136 90.2847 82.936H90.2959V84.3696C90.3454 84.9743 90.065 85.5586 89.5623 85.8984L88.9631 86.24V82.6L89.5231 82.2696Z" fill="#FAFAFA"/>
<path d="M92.3904 85.764C92.3604 85.7917 92.314 85.7917 92.284 85.764C92.2488 85.7198 92.2327 85.6633 92.2392 85.6072V79.4024C92.2373 79.3307 92.2527 79.2597 92.284 79.1952C92.3005 79.1368 92.3386 79.0868 92.3904 79.0552L93.1184 78.6352C93.1322 78.6205 93.1514 78.6121 93.1716 78.6121C93.1918 78.6121 93.211 78.6205 93.2248 78.6352C93.2594 78.6797 93.2755 78.7359 93.2696 78.792V84.9856C93.2704 85.0572 93.2551 85.128 93.2248 85.1928C93.2066 85.2489 93.1688 85.2966 93.1184 85.3272L92.3904 85.764Z" fill="#FAFAFA"/>
<path d="M96.876 83.1712C96.8088 83.2104 96.7584 83.2104 96.7192 83.1712C96.6888 83.1446 96.664 83.1123 96.6464 83.076L95.364 80.5392V83.7816C95.3648 83.8531 95.3495 83.924 95.3192 83.9888C95.3009 84.0449 95.2632 84.0926 95.2128 84.1232L94.4848 84.5488C94.4547 84.5765 94.4084 84.5765 94.3784 84.5488C94.3432 84.5045 94.3271 84.4481 94.3336 84.392V78.1928C94.3317 78.1211 94.3471 78.0501 94.3784 77.9856C94.3963 77.9279 94.434 77.8783 94.4848 77.8456L95.0448 77.5096C95.112 77.476 95.1624 77.476 95.2016 77.5096C95.2327 77.5331 95.2577 77.5639 95.2744 77.5992L96.5568 80.136V76.8992C96.5549 76.8275 96.5703 76.7565 96.6016 76.692C96.6195 76.6343 96.6572 76.5847 96.708 76.552L97.436 76.132C97.4497 76.1173 97.469 76.1089 97.4892 76.1089C97.5093 76.1089 97.5286 76.1173 97.5424 76.132C97.577 76.1765 97.593 76.2327 97.5872 76.2888V82.4824C97.5884 82.554 97.5731 82.6249 97.5424 82.6896C97.5241 82.7457 97.4864 82.7934 97.436 82.824L96.876 83.1712Z" fill="#FAFAFA"/>
<path d="M100.27 75.9416C100.147 76.0127 100.039 76.1057 99.9504 76.216C99.8674 76.3288 99.7978 76.451 99.7432 76.58C99.6864 76.7164 99.6469 76.8594 99.6256 77.0056C99.5987 77.1556 99.58 77.3071 99.5696 77.4592C99.5626 77.5767 99.5626 77.6945 99.5696 77.812V78.2712C99.5696 78.428 99.5696 78.5792 99.5696 78.7248C99.5696 78.8704 99.5696 78.988 99.5696 79.0664C99.5736 79.1984 99.5904 79.3297 99.62 79.4584C99.6405 79.5612 99.6825 79.6585 99.7432 79.744C99.7935 79.8133 99.8708 79.8581 99.956 79.8672C100.068 79.8708 100.178 79.8374 100.27 79.772C100.372 79.7157 100.464 79.644 100.544 79.5592C100.634 79.4662 100.709 79.3605 100.768 79.2456C100.834 79.1154 100.884 78.9783 100.919 78.8368C100.959 78.6661 100.978 78.4912 100.975 78.316L100.505 78.5848C100.475 78.6125 100.428 78.6125 100.398 78.5848C100.366 78.5393 100.35 78.4839 100.354 78.428V77.4144C100.355 77.3431 100.37 77.2728 100.398 77.2072C100.42 77.1516 100.457 77.1032 100.505 77.0672L101.86 76.2888C101.89 76.261 101.936 76.261 101.966 76.2888C101.999 76.3323 102.015 76.3859 102.011 76.44V77.6664C102.013 78.0642 101.968 78.4608 101.877 78.848C101.794 79.2084 101.67 79.5579 101.507 79.8896C101.357 80.1923 101.169 80.4746 100.947 80.7296C100.75 80.9525 100.517 81.1416 100.258 81.2896C100.046 81.4304 99.7961 81.5027 99.5416 81.4968C99.3298 81.4914 99.1287 81.4029 98.9816 81.2504C98.8167 81.0704 98.6976 80.8534 98.6344 80.6176C98.5516 80.3182 98.5064 80.0097 98.5 79.6992C98.5 79.4416 98.5 79.1392 98.5 78.8592C98.5 78.5792 98.5 78.2992 98.5 77.9912C98.5067 77.6272 98.5518 77.2649 98.6344 76.9104C98.7135 76.5582 98.828 76.2148 98.976 75.8856C99.1269 75.573 99.3149 75.2796 99.536 75.012C99.736 74.7638 99.9788 74.5532 100.253 74.3904C100.463 74.2548 100.708 74.1829 100.958 74.1832C101.152 74.188 101.338 74.2548 101.49 74.3736C101.64 74.4987 101.757 74.6582 101.832 74.8384C101.911 75.0309 101.956 75.2354 101.966 75.4432C101.966 75.5008 101.955 75.5579 101.933 75.6112C101.915 75.6583 101.884 75.6992 101.843 75.7288L101.098 76.1544C101.042 76.188 100.998 76.1544 100.97 76.1544C100.935 76.1177 100.903 76.0784 100.874 76.0368C100.824 75.9525 100.75 75.8845 100.662 75.8408C100.589 75.8072 100.454 75.8352 100.27 75.9416Z" fill="#FAFAFA"/>
</svg>
