<svg width="350" height="220" viewBox="0 0 350 220" fill="none" xmlns="http://www.w3.org/2000/svg">
<g id="&#230;&#143;&#146;&#229;&#155;&#190;">
<g id="Search engines-cuate 2">
<g id="Search engines-cuate">
<g id="freepik--background-complete--inject-145">
<path id="&#229;&#189;&#162;&#231;&#138;&#182;" fill-rule="evenodd" clip-rule="evenodd" d="M310.082 127.771L306.102 134.189L304.134 132.97C303.557 132.615 302.83 132.615 302.253 132.97C302.099 133.066 301.941 133.162 301.773 133.248C301.748 133.261 301.724 133.273 301.7 133.286C301.557 133.359 301.416 133.432 301.269 133.498C300.654 133.779 300.25 134.382 300.222 135.058L300.15 137.371L292.605 137.136L292.677 134.803C292.687 134.127 292.316 133.504 291.717 133.19C291.394 133.017 291.081 132.824 290.781 132.614C290.226 132.217 289.494 132.167 288.89 132.485L286.854 133.574L283.283 126.917L285.318 125.827C285.917 125.498 286.279 124.859 286.254 124.176C286.25 123.811 286.264 123.442 286.293 123.077C286.362 122.406 286.046 121.754 285.477 121.392L283.494 120.163L287.474 113.746L289.451 114.97C290.019 115.319 290.736 115.319 291.304 114.97C291.467 114.869 291.64 114.773 291.813 114.682L291.813 114.682C291.986 114.59 292.158 114.499 292.336 114.418C292.943 114.136 293.339 113.536 293.358 112.867L293.43 110.549L300.981 110.784L300.904 113.093C300.881 113.76 301.236 114.384 301.821 114.706C302.173 114.898 302.514 115.11 302.843 115.339C303.39 115.716 304.102 115.755 304.686 115.44L306.746 114.355L310.317 121.013L308.282 122.107C307.674 122.429 307.302 123.067 307.322 123.754C307.328 124.122 307.315 124.491 307.283 124.858C307.217 125.53 307.534 126.183 308.104 126.547L310.082 127.771ZM293.19 129.005C295.347 130.548 298.247 130.543 300.4 128.995C302.671 127.364 303.564 124.412 302.579 121.795C301.646 119.313 299.235 117.701 296.585 117.788C293.934 117.875 291.634 119.642 290.866 122.18C290.097 124.718 291.032 127.463 293.19 129.005Z" fill="#D5DEE7"/>
<path id="&#229;&#189;&#162;&#231;&#138;&#182;_2" fill-rule="evenodd" clip-rule="evenodd" d="M287.219 107.914L282.64 110.558L281.814 109.138C281.572 108.73 281.121 108.493 280.648 108.523H280.254H279.866C279.392 108.493 278.942 108.73 278.699 109.138L277.888 110.544L273.304 107.899L274.115 106.493C274.352 106.08 274.335 105.569 274.072 105.173C273.926 104.953 273.793 104.726 273.674 104.491C273.464 104.068 273.032 103.8 272.56 103.8H270.952V98.52H272.574C273.048 98.5201 273.481 98.2499 273.688 97.824C273.809 97.5899 273.942 97.3624 274.086 97.1424C274.35 96.7478 274.366 96.2382 274.13 95.8272L273.318 94.4208L277.902 91.776L278.718 93.1872C278.959 93.5941 279.408 93.8315 279.88 93.8016H280.269H280.662C281.137 93.8312 281.588 93.5919 281.829 93.1824L282.64 91.776L287.219 94.4352L286.413 95.8368C286.176 96.2478 286.193 96.7574 286.456 97.152C286.599 97.3737 286.731 97.6028 286.85 97.8384C287.062 98.2619 287.494 98.5307 287.968 98.5344H289.59V103.814H287.968C287.493 103.816 287.061 104.085 286.85 104.51C286.731 104.744 286.599 104.972 286.456 105.192C286.193 105.588 286.176 106.099 286.413 106.512L287.219 107.914ZM275.92 101.179C275.92 103.565 277.854 105.499 280.24 105.499C282.626 105.499 284.56 103.565 284.56 101.179C284.56 98.7933 282.626 96.8592 280.24 96.8592C277.854 96.8592 275.92 98.7933 275.92 101.179Z" fill="#D5DEE7"/>
<path id="&#229;&#189;&#162;&#231;&#138;&#182;_3" fill-rule="evenodd" clip-rule="evenodd" d="M32.368 36.3744C32.3987 35.8998 32.1591 35.4484 31.7488 35.208L30.3472 34.3968L32.992 29.8128L34.3984 30.624C34.8094 30.8607 35.319 30.8439 35.7136 30.5808C35.9352 30.436 36.1643 30.303 36.4 30.1824C36.8254 29.9711 37.0962 29.5389 37.1008 29.064V27.4464H42.3808V29.064C42.3822 29.5385 42.6517 29.9715 43.0768 30.1824C43.3109 30.303 43.5384 30.436 43.7584 30.5808C44.1548 30.8437 44.6656 30.8604 45.0784 30.624L46.48 29.8128L49.1152 34.3872L47.704 35.1984C47.2955 35.4401 47.0578 35.8912 47.0896 36.3648V36.7536V37.1424C47.0574 37.6148 47.2954 38.0647 47.704 38.304L49.1152 39.12L46.4704 43.704L45.064 42.8928C44.6503 42.6578 44.1395 42.6764 43.744 42.9408C43.5246 43.085 43.297 43.2164 43.0624 43.3344C42.6399 43.5475 42.3728 43.9796 42.3712 44.4528V46.0704H37.0912V44.4528C37.0875 43.9789 36.8187 43.547 36.3952 43.3344C36.1611 43.2154 35.9336 43.084 35.7136 42.9408C35.3181 42.6764 34.8072 42.6578 34.3936 42.8928L32.992 43.704L30.3472 39.12L31.7536 38.3184C32.1605 38.0775 32.3978 37.6287 32.368 37.1568V36.7632V36.3744ZM44.08 36.7488C44.08 34.3629 42.1458 32.4288 39.76 32.4288C37.3741 32.4288 35.44 34.3629 35.44 36.7488C35.44 39.1347 37.3741 41.0688 39.76 41.0688C42.1458 41.0688 44.08 39.1347 44.08 36.7488Z" fill="#D5DEE7"/>
<g id="freepik--aiZGp2--inject-145">
<path id="&#232;&#183;&#175;&#229;&#190;&#132;" d="M261.443 35.8704C260.119 39.246 259.338 42.8102 259.13 46.4304H258.995H249.875H249.76V46.1712C249.76 45.9312 249.813 45.6912 249.837 45.4512C249.954 44.2059 250.161 42.9707 250.456 41.7552C250.943 39.7664 251.641 37.8354 252.539 35.9952C252.574 35.9027 252.667 35.8453 252.765 35.856H261.453L261.443 35.8704Z" fill="#E4EBF1"/>
<path id="&#232;&#183;&#175;&#229;&#190;&#132;_2" d="M261.16 59.52H252.549C252.455 59.5315 252.367 59.4752 252.338 59.3856C251.347 57.3156 250.627 55.1263 250.197 52.872C249.989 51.7824 249.848 50.6812 249.774 49.5744C249.779 49.5377 249.779 49.5007 249.774 49.464V49.2C249.822 49.2 249.87 49.2 249.918 49.2H258.99C259.158 49.2 259.149 49.2 259.163 49.3728C259.221 50.1264 259.269 50.88 259.341 51.6288C259.461 52.8218 259.653 54.0064 259.917 55.176C260.228 56.6087 260.637 58.0184 261.141 59.3952C261.15 59.4364 261.156 59.4781 261.16 59.52Z" fill="#EBEBEB"/>
<path id="&#232;&#183;&#175;&#229;&#190;&#132;_3" d="M297.395 62.2464L297.318 62.376C296.589 63.4935 295.772 64.5513 294.875 65.5392C293.8 66.759 292.602 67.8641 291.299 68.8368C288.789 70.7432 285.947 72.1687 282.918 73.0416C281.741 73.3794 280.541 73.6345 279.328 73.8048L278.978 73.8624H278.766L278.57 73.7376L278.795 73.5744C281.423 71.7851 283.723 69.5555 285.592 66.984C286.647 65.5319 287.575 63.9918 288.366 62.3808C288.396 62.2912 288.484 62.2348 288.578 62.2464H297.395Z" fill="#E4EBF1"/>
<path id="&#232;&#183;&#175;&#229;&#190;&#132;_4" d="M288.774 46.4496H276.674V35.8896H286.12C286.207 35.8794 286.289 35.9344 286.312 36.0192C287.176 38.0069 287.82 40.0833 288.232 42.2112C288.452 43.3219 288.612 44.4434 288.712 45.5712C288.726 45.84 288.75 46.1376 288.774 46.4496Z" fill="#E4EBF1"/>
<path id="&#232;&#183;&#175;&#229;&#190;&#132;_5" d="M288.702 49.272C288.702 49.5216 288.702 49.752 288.664 50.016C288.611 50.6064 288.573 51.1968 288.491 51.7824C288.376 52.5936 288.251 53.4048 288.088 54.2064C287.729 55.9722 287.204 57.7 286.518 59.3664C286.497 59.4683 286.401 59.537 286.298 59.5248H276.602V49.272H288.702Z" fill="#E4EBF1"/>
<path id="&#232;&#183;&#175;&#229;&#190;&#132;_6" d="M273.942 35.9376V46.5264H262.13C262.13 46.2576 262.154 45.9984 262.178 45.7344C262.24 45.144 262.288 44.5488 262.384 43.9632C262.528 43.0656 262.682 42.168 262.864 41.2752C263.26 39.4869 263.832 37.7424 264.573 36.0672C264.598 35.9797 264.684 35.9244 264.774 35.9376H273.933H273.942Z" fill="#E4EBF1"/>
<path id="&#232;&#183;&#175;&#229;&#190;&#132;_7" d="M273.957 49.4112C273.957 52.7328 273.957 56.0512 273.957 59.3664V59.52H264.51C264.417 59.5305 264.329 59.4715 264.304 59.3808C263.585 57.6636 263.046 55.8764 262.696 54.048C262.518 53.088 262.384 52.1568 262.264 51.2064C262.187 50.5872 262.168 49.9584 262.125 49.3344C262.125 49.3344 262.125 49.3008 262.125 49.2672H273.808C273.928 49.2576 273.957 49.296 273.957 49.4112Z" fill="#E4EBF1"/>
<path id="&#232;&#183;&#175;&#229;&#190;&#132;_8" d="M301.605 46.5264H291.688C291.484 42.8732 290.698 39.2759 289.36 35.8704H298.6C298.693 35.8595 298.782 35.9128 298.816 36C299.876 38.0975 300.646 40.329 301.106 42.6336C301.347 43.8601 301.507 45.1012 301.586 46.3488C301.61 46.4016 301.605 46.4592 301.605 46.5264Z" fill="#E4EBF1"/>
<path id="&#232;&#183;&#175;&#229;&#190;&#132;_9" d="M301.614 49.2C301.614 49.44 301.614 49.68 301.581 49.896C301.377 52.8799 300.649 55.8046 299.43 58.536C299.296 58.8432 299.152 59.1456 299.013 59.4528C298.991 59.5144 298.929 59.5523 298.864 59.544H289.744H289.648C289.758 59.2272 289.869 58.92 289.974 58.6128C290.506 57.037 290.915 55.4227 291.198 53.784C291.41 52.5932 291.553 51.3912 291.626 50.184C291.626 49.9008 291.659 49.6176 291.674 49.3296C291.674 49.2576 291.674 49.2192 291.774 49.224H301.605L301.614 49.2Z" fill="#E4EBF1"/>
<path id="&#232;&#183;&#175;&#229;&#190;&#132;_10" d="M297.122 33.1728C297.122 33.1728 297.122 33.1728 297.122 33.2112H288.304C288.215 33.2228 288.129 33.1739 288.093 33.0912C286.936 30.7864 285.483 28.642 283.773 26.712C282.77 25.5962 281.664 24.5773 280.47 23.6688C279.88 23.1888 279.266 22.7856 278.661 22.3488L278.56 22.272L278.68 22.1904C278.68 22.1328 278.646 22.0752 278.622 22.0032C286.116 22.8598 292.864 26.9376 297.107 33.1728H297.122Z" fill="#E4EBF1"/>
<path id="&#232;&#183;&#175;&#229;&#190;&#132;_11" d="M272.267 73.7424C272.185 73.7677 272.099 73.7822 272.013 73.7856C271.06 73.6595 270.116 73.4752 269.186 73.2336C267.446 72.794 265.758 72.1696 264.15 71.3712C262.314 70.4593 260.593 69.3313 259.024 68.0112C257.905 67.0768 256.872 66.0439 255.938 64.9248C255.241 64.0789 254.6 63.1891 254.018 62.2608L253.979 62.1792H262.192C262.281 62.17 262.365 62.2238 262.394 62.3088C263.234 64.005 264.227 65.6213 265.36 67.1376C266.407 68.5142 267.57 69.7989 268.835 70.9776C269.88 71.9647 271.004 72.8653 272.195 73.6704L272.267 73.7424Z" fill="#E4EBF1"/>
<path id="&#232;&#183;&#175;&#229;&#190;&#132;_12" d="M272.157 22.2576C271.787 22.5312 271.355 22.8336 270.933 23.16C269.524 24.2547 268.215 25.4722 267.021 26.7984C265.402 28.5636 264.022 30.5341 262.917 32.6592C262.845 32.7936 262.782 32.928 262.706 33.0576C262.677 33.1009 262.632 33.1304 262.581 33.1392C262.437 33.1392 262.288 33.1392 262.139 33.1392H254.243C258.64 26.9328 264.549 23.1984 272.08 22.056L272.032 22.1568L272.157 22.2576Z" fill="#E4EBF1"/>
<path id="&#232;&#183;&#175;&#229;&#190;&#132;_13" d="M285.165 62.256C284.05 64.2094 282.708 66.0236 281.166 67.6608C279.805 69.1299 278.273 70.4304 276.602 71.5344V62.256H285.165Z" fill="#E4EBF1"/>
<path id="&#232;&#183;&#175;&#229;&#190;&#132;_14" d="M273.942 62.2608V71.3568C270.526 69.0144 267.712 65.8976 265.73 62.2608H273.942Z" fill="#E4EBF1"/>
<path id="&#232;&#183;&#175;&#229;&#190;&#132;_15" d="M284.891 33.1344H276.674V24.4608C278.361 25.5592 279.909 26.8565 281.286 28.3248C282.652 29.7981 283.86 31.41 284.891 33.1344Z" fill="#E4EBF1"/>
<path id="&#232;&#183;&#175;&#229;&#190;&#132;_16" d="M273.942 24.72V33.2016H266.056C267.985 29.7961 270.686 26.891 273.942 24.72V24.72Z" fill="#E4EBF1"/>
</g>
<rect id="&#231;&#159;&#169;&#229;&#189;&#162;" x="57.4384" y="18.2976" width="62.4528" height="42.0864" fill="#F4F7F9"/>
<path id="&#229;&#189;&#162;&#231;&#138;&#182;_4" fill-rule="evenodd" clip-rule="evenodd" d="M57.1984 60.624H120.131V18.0576H57.1984V60.624ZM119.651 60.144H57.6784V18.5376H119.651V60.144Z" fill="#EBEBEB"/>
<path id="&#232;&#183;&#175;&#229;&#190;&#132;_17" d="M63.4719 21.4848C63.4719 22.2801 62.8272 22.9248 62.0319 22.9248C61.2366 22.9248 60.5919 22.2801 60.5919 21.4848C60.5919 20.6895 61.2366 20.0448 62.0319 20.0448C62.4138 20.0448 62.7801 20.1965 63.0502 20.4666C63.3202 20.7366 63.4719 21.1029 63.4719 21.4848Z" fill="#D5DEE7"/>
<path id="&#232;&#183;&#175;&#229;&#190;&#132;_18" d="M69.3472 21.4848C69.3472 22.2801 68.7025 22.9248 67.9072 22.9248C67.1119 22.9248 66.4672 22.2801 66.4672 21.4848C66.4672 20.6895 67.1119 20.0448 67.9072 20.0448C68.7025 20.0448 69.3472 20.6895 69.3472 21.4848Z" fill="#D5DEE7"/>
<path id="&#232;&#183;&#175;&#229;&#190;&#132;_19" d="M75.2175 21.4848C75.2175 22.2801 74.5728 22.9248 73.7775 22.9248C72.9822 22.9248 72.3375 22.2801 72.3375 21.4848C72.3375 20.6895 72.9822 20.0448 73.7775 20.0448C74.5728 20.0448 75.2175 20.6895 75.2175 21.4848Z" fill="#D5DEE7"/>
<rect id="&#231;&#159;&#169;&#229;&#189;&#162;_2" x="57.4384" y="24.3984" width="62.4528" height="0.48" fill="#EBEBEB"/>
</g>
<g id="freepik--Shadow--inject-145">
<ellipse id="&#230;&#164;&#173;&#229;&#156;&#134;&#229;&#189;&#162;" opacity="0.374512" cx="171.81" cy="181.034" rx="157.81" ry="19.8336" fill="#E4EBF1"/>
</g>
<g id="freepik--Floor--inject-145">
<path id="&#232;&#183;&#175;&#229;&#190;&#132;_20" opacity="0.371698" d="M17.2 180.64L56.1136 180.525L95.0272 180.482L172.854 180.4L250.682 180.482L289.595 180.525L328.509 180.64L289.595 180.76L250.682 180.798L172.854 180.88L95.0272 180.798L56.1136 180.755L17.2 180.64Z" fill="#778592"/>
</g>
<g id="freepik--Device--inject-145">
<rect id="&#231;&#159;&#169;&#229;&#189;&#162;_3" x="76.0239" y="37.2768" width="187.781" height="125.611" fill="#E4EBF1"/>
<rect id="&#231;&#159;&#169;&#229;&#189;&#162;_4" x="77.392" y="38.808" width="185.054" height="122.549" fill="#273849"/>
<rect id="&#231;&#159;&#169;&#229;&#189;&#162;_5" x="51.568" y="172.306" width="236.698" height="8.6208" fill="#D5DEE7"/>
<path id="&#232;&#183;&#175;&#229;&#190;&#132;_21" d="M51.568 172.306L76.024 162.888H263.81L288.266 172.306H51.568Z" fill="#F5F7FA"/>
<path id="&#232;&#183;&#175;&#229;&#190;&#132;_22" d="M78.208 168.965L93.9904 162.888H245.838L261.626 168.965H78.208Z" fill="#273849"/>
<rect id="&#231;&#159;&#169;&#229;&#189;&#162;_6" x="87.8464" y="48.12" width="164.136" height="103.925" fill="white"/>
<g id="Group 7488">
<g id="Vector" filter="url(#filter0_d_11305_126041)">
<path d="M172.438 135.781C191.871 135.781 207.624 120.012 207.624 100.559C207.624 81.1072 191.871 65.3381 172.438 65.3381C153.005 65.3381 137.251 81.1072 137.251 100.559C137.251 120.012 153.005 135.781 172.438 135.781Z" fill="url(#paint0_linear_11305_126041)"/>
<path d="M206.624 100.559C206.624 119.46 191.318 134.781 172.438 134.781C153.558 134.781 138.251 119.46 138.251 100.559C138.251 81.6586 153.558 66.3381 172.438 66.3381C191.318 66.3381 206.624 81.6586 206.624 100.559Z" stroke="url(#paint1_linear_11305_126041)" stroke-width="2"/>
</g>
<g id="Group 7489">
<path id="Subtract" opacity="0.18" fill-rule="evenodd" clip-rule="evenodd" d="M205 87.5921C205.738 87.8568 206.46 88.1315 207.164 88.416C213.832 91.112 218.276 94.424 220.116 97.988C220.321 97.8678 220.563 97.8266 220.796 97.872C218.641 93.5276 212.953 89.6932 205 86.8819V87.5921ZM138 88.6559V87.9366C129.336 91.5091 123.984 96.4007 123.984 101.784C123.984 112.684 145.912 121.548 172.86 121.548C191.52 121.548 207.768 117.3 216 111.068C216.025 110.969 216.051 110.878 216.077 110.79C216.085 110.763 216.093 110.736 216.1 110.71C216.104 110.696 216.108 110.682 216.112 110.668C216.16 110.497 216.16 110.315 216.112 110.144C213.848 111.956 210.848 113.628 207.164 115.116C198 118.824 185.824 120.864 172.872 120.864C159.92 120.864 147.74 118.824 138.576 115.116C129.604 111.488 124.664 106.756 124.664 101.768C124.664 96.8892 129.39 92.2515 138 88.6559Z" fill="#15A675"/>
</g>
<g id="Group">
<g id="Group_2">
<g id="Vector_2" filter="url(#filter1_d_11305_126041)">
<path d="M152.572 109.371C153.411 109.371 154.071 109.678 154.071 110.069V125.57C154.071 125.961 153.411 126.268 152.572 126.268H101.499C100.659 126.268 100 125.961 100 125.57V110.069C100 109.678 100.659 109.371 101.499 109.371H152.572Z" fill="url(#paint2_linear_11305_126041)" shape-rendering="crispEdges"/>
</g>
</g>
</g>
<path id="Vector_3" d="M144.937 71.9291C145.867 71.6267 146.375 70.6271 146.073 69.6966C145.771 68.7661 144.773 68.2569 143.843 68.5593C142.913 68.8618 142.405 69.8613 142.707 70.7918C143.009 71.7224 144.007 72.2315 144.937 71.9291Z" fill="#C8EADF"/>
<path id="Vector_4" d="M212.482 79.9688C213.114 79.7632 213.46 79.0835 213.254 78.4507C213.049 77.8179 212.37 77.4717 211.738 77.6774C211.105 77.883 210.76 78.5627 210.965 79.1955C211.17 79.8283 211.849 80.1745 212.482 79.9688Z" fill="#837D83"/>
<path id="Vector_5" d="M196.777 138.858C197.874 137.855 197.951 136.152 196.948 135.054C195.946 133.956 194.244 133.879 193.147 134.883C192.051 135.886 191.974 137.589 192.976 138.687C193.979 139.785 195.68 139.862 196.777 138.858Z" fill="#837D83"/>
<path id="Vector_6" d="M201.153 129.59C201.614 129.168 201.647 128.451 201.225 127.989C200.803 127.526 200.086 127.494 199.624 127.916C199.162 128.339 199.13 129.056 199.552 129.518C199.974 129.981 200.691 130.013 201.153 129.59Z" fill="#5FB497"/>
<g id="Group_3">
<g id="Group_4">
<g id="Group_5">
<g id="Vector_7" filter="url(#filter2_d_11305_126041)">
<path d="M216.95 117.398C217.344 117.398 217.653 117.597 217.653 117.851V127.928C217.653 128.181 217.344 128.381 216.95 128.381H193.01C192.616 128.381 192.307 128.181 192.307 127.928V117.851C192.307 117.597 192.616 117.398 193.01 117.398H216.95Z" fill="url(#paint3_linear_11305_126041)" shape-rendering="crispEdges"/>
</g>
<g id="HDFS">
<path d="M201.088 124.945H200.024V123.228H198.447V124.945H197.376V120.834H198.447V122.466H200.024V120.834H201.088V124.945Z" fill="url(#paint4_linear_11305_126041)"/>
<path d="M201.768 124.945V120.834H203.199C203.591 120.834 203.944 120.916 204.257 121.082C204.57 121.246 204.814 121.478 204.989 121.78C205.166 122.079 205.255 122.415 205.257 122.788V122.977C205.257 123.353 205.171 123.691 204.998 123.991C204.827 124.288 204.585 124.521 204.272 124.691C203.961 124.858 203.614 124.943 203.229 124.945H201.768ZM202.839 121.599V124.183H203.211C203.518 124.183 203.754 124.082 203.919 123.88C204.083 123.677 204.166 123.376 204.166 122.977V122.799C204.166 122.402 204.083 122.102 203.919 121.901C203.754 121.7 203.514 121.599 203.199 121.599H202.839Z" fill="url(#paint5_linear_11305_126041)"/>
<path d="M208.603 123.307H206.877V124.945H205.806V120.834H208.777V121.599H206.877V122.545H208.603V123.307Z" fill="url(#paint6_linear_11305_126041)"/>
<path d="M211.513 123.852C211.513 123.707 211.457 123.594 211.345 123.513C211.236 123.432 211.041 123.349 210.763 123.262C210.484 123.175 210.256 123.092 210.08 123.011C209.504 122.749 209.216 122.39 209.216 121.932C209.216 121.704 209.288 121.504 209.43 121.331C209.574 121.156 209.778 121.02 210.04 120.924C210.302 120.826 210.597 120.777 210.924 120.777C211.244 120.777 211.529 120.83 211.781 120.935C212.036 121.041 212.233 121.191 212.373 121.387C212.513 121.581 212.584 121.803 212.584 122.053H211.516C211.516 121.886 211.46 121.756 211.348 121.664C211.239 121.572 211.089 121.525 210.9 121.525C210.709 121.525 210.557 121.565 210.446 121.644C210.336 121.721 210.281 121.82 210.281 121.941C210.281 122.046 210.342 122.142 210.464 122.229C210.586 122.313 210.8 122.402 211.107 122.494C211.414 122.584 211.667 122.682 211.864 122.788C212.344 123.044 212.584 123.397 212.584 123.847C212.584 124.206 212.437 124.488 212.144 124.694C211.852 124.899 211.45 125.001 210.94 125.001C210.58 125.001 210.253 124.942 209.961 124.824C209.67 124.703 209.45 124.539 209.302 124.332C209.155 124.123 209.082 123.883 209.082 123.612H210.156C210.156 123.832 210.217 123.995 210.339 124.101C210.463 124.204 210.663 124.256 210.94 124.256C211.117 124.256 211.256 124.221 211.358 124.152C211.461 124.08 211.513 123.98 211.513 123.852Z" fill="url(#paint7_linear_11305_126041)"/>
</g>
</g>
</g>
</g>
<g id="Group 7484">
<g id="Group_6">
<g id="Group_7">
<g id="Vector_8" filter="url(#filter3_d_11305_126041)">
<path d="M238.786 93C239.389 93 239.863 93.3072 239.863 93.6982V109.199C239.863 109.59 239.389 109.897 238.786 109.897H202.077C201.474 109.897 201 109.59 201 109.199V93.6982C201 93.3072 201.474 93 202.077 93H238.786Z" fill="url(#paint8_linear_11305_126041)" shape-rendering="crispEdges"/>
</g>
</g>
</g>
<g id="MySQL">
<path d="M209.269 97.9766L210.61 102.156L211.946 97.9766H213.852V103.983H212.4V102.58L212.541 99.7093L211.088 103.983H210.131L208.675 99.7051L208.815 102.58V103.983H207.367V97.9766H209.269Z" fill="url(#paint9_linear_11305_126041)"/>
<path d="M216.497 102.036L217.239 99.5195H218.728L216.909 104.73L216.831 104.919C216.572 105.497 216.116 105.786 215.461 105.786C215.28 105.786 215.089 105.758 214.888 105.703V104.709H215.069C215.265 104.709 215.413 104.68 215.515 104.622C215.619 104.567 215.696 104.467 215.746 104.321L215.857 104.024L214.306 99.5195H215.791L216.497 102.036Z" fill="url(#paint10_linear_11305_126041)"/>
<path d="M222.256 102.387C222.256 102.175 222.18 102.01 222.029 101.892C221.88 101.773 221.618 101.651 221.241 101.524C220.864 101.398 220.556 101.275 220.317 101.157C219.538 100.775 219.149 100.25 219.149 99.5814C219.149 99.2486 219.245 98.9557 219.438 98.7027C219.633 98.4469 219.908 98.2489 220.263 98.1086C220.618 97.9656 221.017 97.8941 221.459 97.8941C221.891 97.8941 222.278 97.9711 222.619 98.1252C222.962 98.2792 223.229 98.4992 223.419 98.7852C223.609 99.0685 223.704 99.393 223.704 99.7588H222.26C222.26 99.514 222.184 99.3242 222.033 99.1895C221.884 99.0547 221.682 98.9873 221.426 98.9873C221.168 98.9873 220.963 99.0451 220.812 99.1606C220.663 99.2734 220.589 99.4177 220.589 99.5937C220.589 99.7478 220.671 99.888 220.836 100.015C221.001 100.138 221.292 100.268 221.707 100.402C222.122 100.534 222.463 100.677 222.73 100.831C223.379 101.205 223.704 101.721 223.704 102.378C223.704 102.904 223.506 103.316 223.109 103.616C222.713 103.916 222.17 104.066 221.48 104.066C220.993 104.066 220.552 103.979 220.156 103.806C219.763 103.63 219.465 103.39 219.265 103.088C219.067 102.783 218.968 102.432 218.968 102.036H220.42C220.42 102.358 220.502 102.596 220.667 102.75C220.835 102.901 221.106 102.976 221.48 102.976C221.719 102.976 221.908 102.926 222.045 102.824C222.185 102.719 222.256 102.574 222.256 102.387Z" fill="url(#paint11_linear_11305_126041)"/>
<path d="M229.541 101.104C229.541 101.659 229.449 102.145 229.264 102.56C229.08 102.972 228.826 103.304 228.501 103.554L229.471 104.321L228.575 105.08L227.284 104.041C227.163 104.057 227.042 104.066 226.921 104.066C226.41 104.066 225.956 103.947 225.56 103.711C225.164 103.474 224.854 103.136 224.632 102.696C224.412 102.256 224.298 101.75 224.289 101.178V100.86C224.289 100.269 224.397 99.7491 224.611 99.3009C224.828 98.8526 225.136 98.5061 225.535 98.2613C225.937 98.0165 226.396 97.8941 226.913 97.8941C227.422 97.8941 227.876 98.0151 228.274 98.2572C228.673 98.4992 228.983 98.8443 229.203 99.2926C229.425 99.7381 229.538 100.25 229.541 100.827V101.104ZM228.068 100.852C228.068 100.255 227.968 99.8028 227.767 99.4947C227.569 99.184 227.284 99.0286 226.913 99.0286C226.531 99.0286 226.243 99.1812 226.051 99.4865C225.858 99.7918 225.761 100.239 225.758 100.827V101.104C225.758 101.695 225.856 102.149 226.051 102.465C226.246 102.778 226.536 102.935 226.921 102.935C227.29 102.935 227.572 102.78 227.767 102.469C227.965 102.158 228.065 101.711 228.068 101.128V100.852Z" fill="url(#paint12_linear_11305_126041)"/>
<path d="M231.727 102.869H234.248V103.983H230.279V97.9766H231.727V102.869Z" fill="url(#paint13_linear_11305_126041)"/>
</g>
</g>
<path id="Vector_9" d="M132.385 137.366C133.05 137.366 133.589 136.826 133.589 136.161C133.589 135.496 133.05 134.956 132.385 134.956C131.72 134.956 131.181 135.496 131.181 136.161C131.181 136.826 131.72 137.366 132.385 137.366Z" fill="#3E5061"/>
<g id="Group 7486">
<g id="Group_8">
<g id="Group_9">
<g id="Group_10">
<g id="Vector_10" filter="url(#filter4_d_11305_126041)">
<path d="M149.545 75.6588C149.951 75.6588 150.271 75.8965 150.271 76.199V88.2138C150.271 88.5164 149.951 88.7541 149.545 88.7541H124.806C124.4 88.7541 124.08 88.5164 124.08 88.2138V76.199C124.08 75.8965 124.4 75.6588 124.806 75.6588H149.545Z" fill="url(#paint14_linear_11305_126041)" shape-rendering="crispEdges"/>
</g>
</g>
</g>
</g>
<g id="HBase">
<path d="M131.9 84.2422H130.784V82.2984H129.131V84.2422H128.009V79.5872H129.131V81.4351H130.784V79.5872H131.9V84.2422Z" fill="url(#paint15_linear_11305_126041)"/>
<path d="M132.613 84.2422V79.5872H134.285C134.884 79.5872 135.339 79.697 135.65 79.9165C135.964 80.1361 136.12 80.4547 136.12 80.8724C136.12 81.1133 136.065 81.319 135.954 81.4895C135.843 81.66 135.68 81.7858 135.465 81.8667C135.708 81.9307 135.894 82.05 136.024 82.2248C136.154 82.3996 136.219 82.6127 136.219 82.8642C136.219 83.3204 136.074 83.6635 135.784 83.8937C135.497 84.1218 135.069 84.2379 134.502 84.2422H132.613ZM133.735 82.2632V83.379H134.47C134.673 83.379 134.829 83.3331 134.937 83.2415C135.046 83.1477 135.1 83.0166 135.1 82.8483C135.1 82.4603 134.907 82.2653 134.522 82.2632H133.735ZM133.735 81.5279H134.32C134.565 81.5257 134.74 81.481 134.845 81.3936C134.949 81.3062 135.001 81.1772 135.001 81.0067C135.001 80.8106 134.945 80.67 134.832 80.5847C134.719 80.4973 134.537 80.4536 134.285 80.4536H133.735V81.5279Z" fill="url(#paint16_linear_11305_126041)"/>
<path d="M138.739 84.2422C138.7 84.1718 138.666 84.0685 138.636 83.9321C138.438 84.1814 138.161 84.3061 137.805 84.3061C137.479 84.3061 137.202 84.2081 136.974 84.012C136.746 83.8138 136.632 83.5655 136.632 83.2671C136.632 82.8919 136.77 82.6085 137.047 82.4166C137.324 82.2248 137.727 82.1289 138.256 82.1289H138.588V81.9467C138.588 81.6291 138.451 81.4703 138.176 81.4703C137.92 81.4703 137.792 81.5961 137.792 81.8476H136.715C136.715 81.5129 136.857 81.2412 137.14 81.0323C137.426 80.8234 137.789 80.719 138.23 80.719C138.671 80.719 139.02 80.8266 139.276 81.0419C139.531 81.2572 139.663 81.5524 139.669 81.9275V83.4589C139.673 83.7765 139.722 84.0195 139.816 84.1878V84.2422H138.739ZM138.064 83.5388C138.198 83.5388 138.309 83.51 138.397 83.4525C138.486 83.395 138.55 83.3299 138.588 83.2575V82.7044H138.275C137.9 82.7044 137.712 82.8728 137.712 83.2095C137.712 83.3076 137.745 83.3875 137.811 83.4493C137.878 83.509 137.962 83.5388 138.064 83.5388Z" fill="url(#paint17_linear_11305_126041)"/>
<path d="M142.08 83.2703C142.08 83.1786 142.032 83.1051 141.936 83.0497C141.84 82.9943 141.658 82.9367 141.389 82.877C141.12 82.8173 140.899 82.7395 140.724 82.6436C140.549 82.5456 140.416 82.4273 140.324 82.2888C140.233 82.1502 140.187 81.9914 140.187 81.8124C140.187 81.4948 140.318 81.2337 140.58 81.0291C140.842 80.8224 141.185 80.719 141.61 80.719C142.066 80.719 142.432 80.8224 142.709 81.0291C142.986 81.2359 143.125 81.5076 143.125 81.8444H142.044C142.044 81.5673 141.898 81.4287 141.606 81.4287C141.493 81.4287 141.399 81.4607 141.322 81.5247C141.245 81.5865 141.207 81.6643 141.207 81.758C141.207 81.854 141.254 81.9318 141.347 81.9914C141.441 82.0511 141.59 82.1001 141.795 82.1385C142.002 82.1769 142.183 82.2227 142.339 82.276C142.859 82.455 143.119 82.7758 143.119 83.2383C143.119 83.5537 142.978 83.8106 142.697 84.0088C142.417 84.207 142.055 84.3061 141.61 84.3061C141.313 84.3061 141.049 84.2528 140.817 84.1463C140.584 84.0397 140.403 83.8948 140.273 83.7115C140.143 83.5282 140.078 83.3353 140.078 83.1328H141.085C141.09 83.2926 141.143 83.4099 141.245 83.4845C141.347 83.5569 141.478 83.5932 141.638 83.5932C141.785 83.5932 141.895 83.5633 141.968 83.5037C142.042 83.444 142.08 83.3662 142.08 83.2703Z" fill="url(#paint18_linear_11305_126041)"/>
<path d="M145.299 84.3061C144.768 84.3061 144.339 84.1484 144.011 83.833C143.682 83.5154 143.518 83.103 143.518 82.5957V82.5062C143.518 82.1524 143.583 81.8401 143.713 81.5694C143.845 81.2987 144.037 81.0899 144.289 80.9428C144.54 80.7936 144.839 80.719 145.184 80.719C145.67 80.719 146.054 80.8703 146.335 81.173C146.616 81.4735 146.757 81.8934 146.757 82.4326V82.8514H144.615C144.653 83.0454 144.737 83.1978 144.867 83.3086C144.997 83.4195 145.166 83.4749 145.373 83.4749C145.714 83.4749 145.98 83.3555 146.172 83.1168L146.664 83.6987C146.53 83.8841 146.339 84.0322 146.092 84.1431C145.847 84.2518 145.582 84.3061 145.299 84.3061ZM145.178 81.5502C144.862 81.5502 144.675 81.7591 144.615 82.1769H145.702V82.0937C145.706 81.9211 145.662 81.7879 145.571 81.6941C145.479 81.5982 145.348 81.5502 145.178 81.5502Z" fill="url(#paint19_linear_11305_126041)"/>
</g>
</g>
<g id="Group 7485">
<g id="Group_11">
<g id="Group_12">
<g id="Group_13">
<g id="Vector_11" filter="url(#filter5_d_11305_126041)">
<path d="M213.286 61C214.073 61 214.691 61.2706 214.691 61.6151V75.2942C214.691 75.6386 214.073 75.9092 213.286 75.9092H165.405C164.618 75.9092 164 75.6386 164 75.2942V61.6151C164 61.2706 164.618 61 165.405 61H213.286Z" fill="url(#paint20_linear_11305_126041)" shape-rendering="crispEdges"/>
</g>
</g>
</g>
</g>
<g id="PostgreSQL">
<path d="M171.987 68.3016V70.0997H170.709V64.8H172.824C173.229 64.8 173.587 64.8752 173.898 65.0256C174.211 65.1737 174.452 65.386 174.622 65.6626C174.794 65.9368 174.88 66.2487 174.88 66.5981C174.88 67.115 174.695 67.5287 174.324 67.8393C173.955 68.1475 173.448 68.3016 172.802 68.3016H171.987ZM171.987 67.3152H172.824C173.071 67.3152 173.259 67.2533 173.388 67.1295C173.519 67.0058 173.585 66.8311 173.585 66.6054C173.585 66.3579 173.518 66.1601 173.384 66.0121C173.251 65.8641 173.069 65.7888 172.838 65.7864H171.987V67.3152Z" fill="url(#paint21_linear_11305_126041)"/>
<path d="M175.303 68.0941C175.303 67.701 175.379 67.3516 175.532 67.0458C175.685 66.7376 175.905 66.501 176.191 66.336C176.477 66.171 176.813 66.0885 177.199 66.0885C177.789 66.0885 178.254 66.2717 178.593 66.6381C178.933 67.0021 179.103 67.4984 179.103 68.1269V68.1706C179.103 68.7845 178.932 69.2723 178.59 69.6338C178.25 69.993 177.789 70.1725 177.206 70.1725C176.646 70.1725 176.196 70.0051 175.856 69.6702C175.516 69.3329 175.333 68.8767 175.306 68.3016L175.303 68.0941ZM176.529 68.1706C176.529 68.5346 176.586 68.8015 176.7 68.9714C176.815 69.1412 176.983 69.2262 177.206 69.2262C177.643 69.2262 177.866 68.8901 177.876 68.2179V68.0941C177.876 67.388 177.65 67.0349 177.199 67.0349C176.789 67.0349 176.567 67.3394 176.533 67.9485L176.529 68.1706Z" fill="url(#paint22_linear_11305_126041)"/>
<path d="M181.705 68.9932C181.705 68.8888 181.651 68.8051 181.542 68.742C181.432 68.6789 181.225 68.6134 180.919 68.5455C180.613 68.4775 180.361 68.389 180.162 68.2798C179.963 68.1681 179.811 68.0335 179.707 67.8757C179.603 67.718 179.551 67.5372 179.551 67.3334C179.551 66.9718 179.7 66.6745 179.998 66.4416C180.297 66.2062 180.687 66.0885 181.17 66.0885C181.69 66.0885 182.107 66.2062 182.422 66.4416C182.738 66.677 182.896 66.9864 182.896 67.3698H181.665C181.665 67.0543 181.499 66.8966 181.167 66.8966C181.038 66.8966 180.93 66.933 180.843 67.0058C180.755 67.0762 180.712 67.1647 180.712 67.2715C180.712 67.3807 180.765 67.4693 180.872 67.5372C180.979 67.6052 181.148 67.661 181.381 67.7047C181.617 67.7483 181.823 67.8005 182 67.8612C182.592 68.065 182.888 68.4302 182.888 68.9568C182.888 69.3159 182.728 69.6083 182.408 69.834C182.09 70.0597 181.677 70.1725 181.17 70.1725C180.833 70.1725 180.532 70.1119 180.268 69.9905C180.003 69.8692 179.797 69.7042 179.649 69.4955C179.501 69.2868 179.427 69.0672 179.427 68.8367H180.573C180.578 69.0187 180.639 69.1521 180.755 69.2371C180.872 69.3196 181.021 69.3608 181.203 69.3608C181.371 69.3608 181.495 69.3269 181.578 69.2589C181.663 69.191 181.705 69.1024 181.705 68.9932Z" fill="url(#paint23_linear_11305_126041)"/>
<path d="M184.894 65.1822V66.1613H185.542V67.0131H184.894V68.8148C184.894 68.9629 184.921 69.066 184.974 69.1242C185.027 69.1825 185.133 69.2116 185.291 69.2116C185.412 69.2116 185.514 69.2043 185.597 69.1898V70.067C185.376 70.1374 185.145 70.1725 184.905 70.1725C184.483 70.1725 184.171 70.073 183.969 69.8741C183.768 69.6751 183.667 69.373 183.667 68.9677V67.0131H183.165V66.1613H183.667V65.1822H184.894Z" fill="url(#paint24_linear_11305_126041)"/>
<path d="M185.884 68.1014C185.884 67.7034 185.95 67.3516 186.081 67.0458C186.212 66.7401 186.4 66.5047 186.645 66.3397C186.89 66.1722 187.175 66.0885 187.5 66.0885C187.91 66.0885 188.231 66.2268 188.461 66.5035L188.505 66.1613H189.619V69.9505C189.619 70.2975 189.537 70.5984 189.375 70.8532C189.215 71.1104 188.982 71.307 188.676 71.4429C188.37 71.5812 188.016 71.6504 187.613 71.6504C187.324 71.6504 187.044 71.5958 186.772 71.4866C186.503 71.3774 186.297 71.2354 186.153 71.0607L186.667 70.34C186.895 70.6093 187.196 70.744 187.569 70.744C188.113 70.744 188.385 70.4649 188.385 69.9068V69.7831C188.149 70.0427 187.852 70.1725 187.493 70.1725C187.012 70.1725 186.624 69.9893 186.328 69.6229C186.032 69.2541 185.884 68.7615 185.884 68.1451V68.1014ZM187.114 68.1778C187.114 68.5006 187.175 68.7566 187.296 68.9459C187.418 69.1327 187.588 69.2262 187.806 69.2262C188.07 69.2262 188.263 69.1376 188.385 68.9604V67.3043C188.266 67.1247 188.075 67.0349 187.813 67.0349C187.595 67.0349 187.424 67.1332 187.3 67.3297C187.176 67.5239 187.114 67.8066 187.114 68.1778Z" fill="url(#paint25_linear_11305_126041)"/>
<path d="M192.698 67.2715L192.294 67.2424C191.908 67.2424 191.661 67.3637 191.551 67.6064V70.0997H190.325V66.1613H191.475L191.515 66.6673C191.721 66.2814 192.009 66.0885 192.378 66.0885C192.509 66.0885 192.623 66.1031 192.72 66.1322L192.698 67.2715Z" fill="url(#paint26_linear_11305_126041)"/>
<path d="M194.973 70.1725C194.369 70.1725 193.88 69.993 193.506 69.6338C193.132 69.2723 192.946 68.8027 192.946 68.2252V68.1232C192.946 67.7204 193.02 67.3649 193.168 67.0567C193.318 66.7486 193.536 66.5107 193.823 66.3433C194.109 66.1734 194.449 66.0885 194.842 66.0885C195.395 66.0885 195.832 66.2608 196.152 66.6054C196.473 66.9475 196.633 67.4256 196.633 68.0395V68.5164H194.194C194.238 68.7372 194.334 68.9107 194.482 69.0369C194.63 69.1631 194.821 69.2262 195.057 69.2262C195.445 69.2262 195.748 69.0903 195.967 68.8185L196.527 69.4809C196.374 69.6921 196.157 69.8607 195.876 69.9869C195.597 70.1107 195.296 70.1725 194.973 70.1725ZM194.835 67.0349C194.476 67.0349 194.262 67.2727 194.194 67.7483H195.432V67.6537C195.437 67.4571 195.387 67.3055 195.282 67.1987C195.178 67.0895 195.029 67.0349 194.835 67.0349Z" fill="url(#paint27_linear_11305_126041)"/>
<path d="M199.92 68.6911C199.92 68.5042 199.853 68.3586 199.72 68.2543C199.588 68.1499 199.357 68.042 199.024 67.9303C198.692 67.8187 198.42 67.7107 198.209 67.6064C197.522 67.2691 197.179 66.8056 197.179 66.2159C197.179 65.9223 197.264 65.6639 197.434 65.4406C197.606 65.2149 197.849 65.0402 198.162 64.9165C198.475 64.7903 198.827 64.7272 199.217 64.7272C199.598 64.7272 199.939 64.7951 200.24 64.931C200.543 65.0669 200.779 65.261 200.946 65.5134C201.114 65.7633 201.197 66.0497 201.197 66.3724H199.923C199.923 66.1565 199.857 65.989 199.723 65.8701C199.592 65.7512 199.414 65.6918 199.188 65.6918C198.96 65.6918 198.779 65.7427 198.646 65.8446C198.515 65.9441 198.449 66.0715 198.449 66.2268C198.449 66.3627 198.522 66.4865 198.668 66.5981C198.813 66.7073 199.069 66.8214 199.436 66.9403C199.802 67.0567 200.103 67.1829 200.338 67.3188C200.911 67.6488 201.197 68.1038 201.197 68.6838C201.197 69.1473 201.023 69.5113 200.673 69.7758C200.324 70.0403 199.844 70.1725 199.235 70.1725C198.806 70.1725 198.416 70.0961 198.067 69.9432C197.72 69.7879 197.458 69.5768 197.281 69.3099C197.106 69.0405 197.019 68.7311 197.019 68.3817H198.3C198.3 68.6656 198.373 68.8755 198.518 69.0114C198.666 69.1449 198.905 69.2116 199.235 69.2116C199.447 69.2116 199.613 69.1667 199.734 69.0769C199.858 68.9847 199.92 68.8561 199.92 68.6911Z" fill="url(#paint28_linear_11305_126041)"/>
<path d="M206.348 67.5591C206.348 68.0492 206.267 68.4775 206.104 68.844C205.941 69.208 205.717 69.5004 205.431 69.7212L206.286 70.3982L205.496 71.068L204.357 70.1507C204.25 70.1653 204.143 70.1725 204.036 70.1725C203.585 70.1725 203.185 70.0682 202.835 69.8595C202.486 69.6508 202.213 69.3523 202.016 68.9641C201.822 68.5758 201.721 68.1293 201.714 67.6246V67.3443C201.714 66.8226 201.809 66.3639 201.998 65.9684C202.19 65.5729 202.462 65.2671 202.813 65.0511C203.168 64.8352 203.573 64.7272 204.029 64.7272C204.478 64.7272 204.879 64.8339 205.23 65.0475C205.582 65.261 205.855 65.5656 206.049 65.9611C206.246 66.3542 206.345 66.8056 206.348 67.3152V67.5591ZM205.048 67.337C205.048 66.8104 204.96 66.4113 204.783 66.1395C204.608 65.8653 204.357 65.7282 204.029 65.7282C203.692 65.7282 203.438 65.8628 203.268 66.1322C203.099 66.4016 203.012 66.7959 203.01 67.3152V67.5591C203.01 68.0808 203.096 68.4812 203.268 68.7602C203.441 69.0369 203.697 69.1752 204.036 69.1752C204.362 69.1752 204.61 69.0381 204.783 68.7639C204.957 68.4897 205.046 68.0953 205.048 67.5809V67.337Z" fill="url(#paint29_linear_11305_126041)"/>
<path d="M208.277 69.117H210.501V70.0997H206.999V64.8H208.277V69.117Z" fill="url(#paint30_linear_11305_126041)"/>
</g>
</g>
<g id="Group 7487">
<g id="Group_14">
<g id="Group_15">
<g id="Group_16">
<g id="Vector_12" filter="url(#filter6_d_11305_126041)">
<path d="M179.858 129C180.382 129 180.794 129.276 180.794 129.627V143.58C180.794 143.931 180.382 144.207 179.858 144.207H147.937C147.412 144.207 147 143.931 147 143.58V129.627C147 129.276 147.412 129 147.937 129H179.858Z" fill="url(#paint31_linear_11305_126041)" shape-rendering="crispEdges"/>
</g>
</g>
</g>
</g>
<g id="Kafka">
<path d="M155.801 137.413L155.207 138.064V139.649H153.759V133.642H155.207V136.291L155.71 135.527L157.005 133.642H158.796L156.766 136.299L158.796 139.649H157.08L155.801 137.413Z" fill="url(#paint32_linear_11305_126041)"/>
<path d="M161.613 139.649C161.564 139.558 161.52 139.424 161.481 139.248C161.226 139.57 160.868 139.731 160.409 139.731C159.988 139.731 159.63 139.605 159.336 139.352C159.042 139.096 158.895 138.775 158.895 138.39C158.895 137.906 159.074 137.541 159.431 137.293C159.789 137.046 160.308 136.922 160.99 136.922H161.419V136.687C161.419 136.277 161.242 136.072 160.887 136.072C160.557 136.072 160.392 136.234 160.392 136.559H159.002C159.002 136.127 159.185 135.776 159.551 135.507C159.919 135.237 160.388 135.103 160.957 135.103C161.527 135.103 161.976 135.241 162.306 135.519C162.636 135.797 162.806 136.178 162.814 136.662V138.638C162.819 139.048 162.883 139.361 163.004 139.578V139.649H161.613ZM160.743 138.741C160.916 138.741 161.059 138.704 161.172 138.63C161.287 138.555 161.37 138.472 161.419 138.378V137.664H161.015C160.531 137.664 160.289 137.882 160.289 138.316C160.289 138.443 160.332 138.546 160.417 138.626C160.502 138.703 160.611 138.741 160.743 138.741Z" fill="url(#paint33_linear_11305_126041)"/>
<path d="M163.895 139.649V136.15H163.247V135.185H163.895V134.83C163.895 134.321 164.044 133.927 164.344 133.646C164.644 133.366 165.065 133.226 165.607 133.226C165.805 133.226 166.022 133.254 166.258 133.312L166.263 134.335C166.177 134.31 166.063 134.298 165.92 134.298C165.499 134.298 165.289 134.48 165.289 134.843V135.185H166.159V136.15H165.289V139.649H163.895Z" fill="url(#paint34_linear_11305_126041)"/>
<path d="M168.441 137.986L168.049 138.378V139.649H166.659V133.308H168.049V136.674L168.189 136.489L169.237 135.185H170.903L169.34 137.021L171.007 139.649H169.414L168.441 137.986Z" fill="url(#paint35_linear_11305_126041)"/>
<path d="M173.783 139.649C173.733 139.558 173.689 139.424 173.651 139.248C173.395 139.57 173.038 139.731 172.578 139.731C172.158 139.731 171.8 139.605 171.506 139.352C171.211 139.096 171.064 138.775 171.064 138.39C171.064 137.906 171.243 137.541 171.601 137.293C171.958 137.046 172.478 136.922 173.16 136.922H173.589V136.687C173.589 136.277 173.412 136.072 173.057 136.072C172.727 136.072 172.562 136.234 172.562 136.559H171.172C171.172 136.127 171.354 135.776 171.72 135.507C172.089 135.237 172.558 135.103 173.127 135.103C173.696 135.103 174.146 135.241 174.476 135.519C174.806 135.797 174.975 136.178 174.983 136.662V138.638C174.989 139.048 175.052 139.361 175.173 139.578V139.649H173.783ZM172.912 138.741C173.086 138.741 173.229 138.704 173.341 138.63C173.457 138.555 173.539 138.472 173.589 138.378V137.664H173.185C172.701 137.664 172.459 137.882 172.459 138.316C172.459 138.443 172.501 138.546 172.587 138.626C172.672 138.703 172.78 138.741 172.912 138.741Z" fill="url(#paint36_linear_11305_126041)"/>
</g>
</g>
<g id="ClickHouse">
<path d="M110.098 118.747C110.079 119.165 109.966 119.535 109.76 119.857C109.553 120.176 109.263 120.423 108.889 120.599C108.518 120.775 108.093 120.863 107.614 120.863C106.825 120.863 106.204 120.606 105.75 120.092C105.296 119.577 105.069 118.851 105.069 117.914V117.617C105.069 117.028 105.171 116.514 105.374 116.074C105.581 115.631 105.876 115.29 106.261 115.051C106.646 114.809 107.092 114.688 107.598 114.688C108.327 114.688 108.912 114.88 109.355 115.265C109.798 115.647 110.05 116.175 110.11 116.849H108.666C108.655 116.483 108.563 116.221 108.39 116.061C108.217 115.902 107.953 115.822 107.598 115.822C107.238 115.822 106.974 115.957 106.806 116.226C106.638 116.496 106.55 116.926 106.542 117.518V117.942C106.542 118.583 106.622 119.041 106.781 119.316C106.943 119.591 107.221 119.729 107.614 119.729C107.947 119.729 108.202 119.65 108.378 119.494C108.554 119.337 108.647 119.088 108.658 118.747H110.098Z" fill="url(#paint37_linear_11305_126041)"/>
<path d="M112.185 120.781H110.791V114.444H112.185V120.781Z" fill="url(#paint38_linear_11305_126041)"/>
<path d="M114.512 120.781H113.118V116.317H114.512V120.781ZM113.035 115.166C113.035 114.968 113.107 114.806 113.25 114.679C113.393 114.553 113.578 114.49 113.806 114.49C114.035 114.49 114.22 114.553 114.363 114.679C114.506 114.806 114.578 114.968 114.578 115.166C114.578 115.364 114.506 115.526 114.363 115.653C114.22 115.779 114.035 115.843 113.806 115.843C113.578 115.843 113.393 115.779 113.25 115.653C113.107 115.526 113.035 115.364 113.035 115.166Z" fill="url(#paint39_linear_11305_126041)"/>
<path d="M117.259 119.791C117.455 119.791 117.606 119.738 117.713 119.634C117.82 119.527 117.873 119.378 117.87 119.188H119.173C119.173 119.678 118.997 120.079 118.645 120.393C118.296 120.706 117.845 120.863 117.292 120.863C116.643 120.863 116.132 120.66 115.758 120.253C115.384 119.846 115.197 119.282 115.197 118.561V118.503C115.197 118.052 115.279 117.655 115.444 117.311C115.612 116.965 115.853 116.699 116.166 116.515C116.48 116.328 116.851 116.235 117.28 116.235C117.86 116.235 118.321 116.395 118.662 116.717C119.003 117.039 119.173 117.475 119.173 118.025H117.87C117.87 117.794 117.813 117.617 117.701 117.493C117.588 117.369 117.437 117.307 117.247 117.307C116.887 117.307 116.676 117.537 116.616 117.996C116.596 118.142 116.587 118.343 116.587 118.598C116.587 119.047 116.64 119.357 116.748 119.531C116.855 119.704 117.026 119.791 117.259 119.791Z" fill="url(#paint40_linear_11305_126041)"/>
<path d="M121.554 119.118L121.162 119.51V120.781H119.772V114.44H121.162V117.806L121.302 117.621L122.35 116.317H124.016L122.453 118.153L124.12 120.781H122.527L121.554 119.118Z" fill="url(#paint41_linear_11305_126041)"/>
<path d="M129.466 120.781H128.026V118.272H125.893V120.781H124.446V114.774H125.893V117.159H128.026V114.774H129.466V120.781Z" fill="url(#paint42_linear_11305_126041)"/>
<path d="M130.147 118.508C130.147 118.062 130.233 117.666 130.407 117.32C130.58 116.97 130.829 116.702 131.153 116.515C131.478 116.328 131.859 116.235 132.296 116.235C132.964 116.235 133.491 116.442 133.876 116.858C134.261 117.27 134.453 117.832 134.453 118.545V118.594C134.453 119.29 134.26 119.843 133.872 120.253C133.487 120.66 132.964 120.863 132.304 120.863C131.669 120.863 131.159 120.673 130.774 120.294C130.389 119.912 130.181 119.395 130.151 118.743L130.147 118.508ZM131.537 118.594C131.537 119.007 131.601 119.309 131.731 119.502C131.86 119.694 132.051 119.791 132.304 119.791C132.799 119.791 133.052 119.41 133.063 118.648V118.508C133.063 117.707 132.807 117.307 132.296 117.307C131.831 117.307 131.579 117.652 131.541 118.343L131.537 118.594Z" fill="url(#paint43_linear_11305_126041)"/>
<path d="M137.725 120.298C137.431 120.675 137.033 120.863 136.533 120.863C136.043 120.863 135.672 120.722 135.419 120.438C135.168 120.152 135.043 119.742 135.043 119.209V116.317H136.434V119.217C136.434 119.599 136.619 119.791 136.99 119.791C137.31 119.791 137.536 119.676 137.671 119.448V116.317H139.07V120.781H137.766L137.725 120.298Z" fill="url(#paint44_linear_11305_126041)"/>
<path d="M142.172 119.527C142.172 119.408 142.11 119.313 141.986 119.242C141.862 119.17 141.627 119.096 141.281 119.019C140.934 118.942 140.648 118.842 140.423 118.718C140.197 118.591 140.025 118.439 139.907 118.26C139.789 118.081 139.73 117.876 139.73 117.645C139.73 117.236 139.899 116.899 140.237 116.635C140.575 116.368 141.018 116.235 141.565 116.235C142.154 116.235 142.627 116.368 142.985 116.635C143.342 116.902 143.521 117.252 143.521 117.687H142.126C142.126 117.329 141.938 117.15 141.561 117.15C141.416 117.15 141.293 117.192 141.194 117.274C141.095 117.354 141.046 117.454 141.046 117.575C141.046 117.699 141.106 117.799 141.227 117.876C141.348 117.953 141.541 118.017 141.805 118.066C142.071 118.116 142.305 118.175 142.506 118.244C143.177 118.475 143.513 118.889 143.513 119.485C143.513 119.892 143.331 120.224 142.968 120.479C142.608 120.735 142.14 120.863 141.565 120.863C141.183 120.863 140.842 120.794 140.542 120.657C140.243 120.519 140.009 120.332 139.841 120.096C139.673 119.859 139.589 119.61 139.589 119.349H140.889C140.894 119.555 140.963 119.707 141.095 119.803C141.227 119.896 141.396 119.943 141.603 119.943C141.792 119.943 141.934 119.905 142.027 119.828C142.124 119.751 142.172 119.65 142.172 119.527Z" fill="url(#paint45_linear_11305_126041)"/>
<path d="M146.326 120.863C145.641 120.863 145.087 120.66 144.663 120.253C144.24 119.843 144.028 119.311 144.028 118.656V118.541C144.028 118.084 144.112 117.681 144.28 117.332C144.45 116.983 144.698 116.713 145.022 116.523C145.347 116.331 145.732 116.235 146.177 116.235C146.805 116.235 147.3 116.43 147.663 116.82C148.026 117.208 148.207 117.75 148.207 118.446V118.986H145.443C145.493 119.236 145.601 119.433 145.769 119.576C145.937 119.719 146.154 119.791 146.421 119.791C146.861 119.791 147.205 119.637 147.452 119.329L148.087 120.079C147.914 120.319 147.668 120.51 147.349 120.653C147.033 120.793 146.692 120.863 146.326 120.863ZM146.169 117.307C145.762 117.307 145.52 117.577 145.443 118.116H146.846V118.008C146.851 117.786 146.795 117.614 146.677 117.493C146.558 117.369 146.389 117.307 146.169 117.307Z" fill="url(#paint46_linear_11305_126041)"/>
</g>
<g id="Union" filter="url(#filter7_d_11305_126041)">
<path fill-rule="evenodd" clip-rule="evenodd" d="M160.897 90.1069H163.752V107.027H160.897V90.1069ZM147.358 91.181H158.231V93.643H150.356V97.9847H157.78V100.357H150.356V107.027H147.358V91.181ZM167.381 91.5059C167.04 91.8269 166.869 92.2035 166.869 92.6361C166.869 93.069 167.04 93.4456 167.381 93.7663C167.722 94.0873 168.154 94.2476 168.678 94.2476C169.202 94.2476 169.642 94.0949 169.999 93.7889C170.356 93.4831 170.534 93.0989 170.534 92.6361C170.534 92.1738 170.356 91.7896 169.999 91.4835C169.642 91.1782 169.201 91.0246 168.678 91.0246C168.154 91.0246 167.722 91.1855 167.381 91.5059ZM170.129 96.2842H167.274V107.027H170.129V96.2842ZM173.604 96.2843H176.315V98.0074H176.363C176.616 97.4704 177.057 96.997 177.684 96.5864C178.31 96.1761 179.052 95.9708 179.908 95.9708C180.654 95.9708 181.292 96.094 181.824 96.3401C182.355 96.5864 182.791 96.911 183.133 97.3137C183.474 97.7166 183.723 98.1792 183.882 98.7013C184.04 99.2238 184.12 99.7609 184.12 100.313V107.027H181.265V101.074C181.265 100.761 181.241 100.432 181.194 100.089C181.146 99.7462 181.043 99.4367 180.885 99.1605C180.726 98.8846 180.508 98.657 180.23 98.4778C179.952 98.2988 179.584 98.2092 179.124 98.2092C178.664 98.2092 178.267 98.2951 177.934 98.4664C177.601 98.6381 177.327 98.8581 177.113 99.127C176.899 99.3955 176.736 99.7054 176.626 100.056C176.515 100.406 176.459 100.761 176.459 101.119V107.027H173.604V96.2843ZM190.353 90.1069H187.498V107.027H190.353V101.521H190.425L194.945 107.027H198.728L193.47 101.141L198.419 96.284H194.755L190.424 100.805H190.353V90.1069Z" fill="url(#paint47_linear_11305_126041)"/>
</g>
</g>
<rect id="&#231;&#159;&#169;&#229;&#189;&#162;_7" x="87.7072" y="48.12" width="164.275" height="3.9984" fill="#778592"/>
<path id="&#232;&#183;&#175;&#229;&#190;&#132;_23" d="M90.8896 50.1168C90.8915 50.5191 90.6507 50.8829 90.2795 51.0382C89.9084 51.1935 89.4803 51.1097 89.1951 50.8259C88.9099 50.5421 88.824 50.1143 88.9775 49.7425C89.131 49.3706 89.4937 49.128 89.896 49.128C90.4428 49.128 90.8869 49.5699 90.8896 50.1168Z" fill="white"/>
<path id="&#232;&#183;&#175;&#229;&#190;&#132;_24" d="M94.96 50.1168C94.9619 50.5195 94.7206 50.8836 94.3489 51.0386C93.9771 51.1937 93.5486 51.109 93.2638 50.8242C92.979 50.5394 92.8943 50.1109 93.0494 49.7391C93.2044 49.3674 93.5685 49.1261 93.9712 49.128C94.5162 49.1306 94.9574 49.5718 94.96 50.1168Z" fill="white"/>
<path id="&#232;&#183;&#175;&#229;&#190;&#132;_25" d="M98.9872 50.1168C98.9892 50.5191 98.7483 50.8829 98.3772 51.0382C98.0061 51.1935 97.5779 51.1097 97.2928 50.8259C97.0076 50.5421 96.9217 50.1143 97.0752 49.7425C97.2287 49.3706 97.5913 49.128 97.9936 49.128C98.5405 49.128 98.9846 49.5699 98.9872 50.1168Z" fill="white"/>
</g>
<g id="freepik--Pointer--inject-145">
<path id="&#232;&#183;&#175;&#229;&#190;&#132;_26" d="M238.829 134.851L241.838 142.118L238.834 143.362L235.81 136.046L230.846 139.896V119.434L245.17 133.906L238.829 134.851Z" fill="#273849"/>
<path id="&#232;&#183;&#175;&#229;&#190;&#132;_27" d="M231.019 116.712C230.853 116.279 230.772 115.818 230.779 115.354C230.77 114.891 230.852 114.431 231.019 114C231.189 114.431 231.271 114.891 231.259 115.354C231.269 115.818 231.187 116.279 231.019 116.712Z" fill="#273849"/>
<path id="&#232;&#183;&#175;&#229;&#190;&#132;_28" d="M228.682 117.682C228.258 117.493 227.875 117.224 227.554 116.89C227.217 116.57 226.948 116.187 226.762 115.762C227.609 116.154 228.289 116.835 228.682 117.682Z" fill="#273849"/>
<path id="&#232;&#183;&#175;&#229;&#190;&#132;_29" d="M227.712 120.019C227.28 120.185 226.821 120.266 226.358 120.259C225.894 120.269 225.433 120.187 225 120.019C225.432 119.849 225.894 119.767 226.358 119.779C226.821 119.77 227.281 119.852 227.712 120.019Z" fill="#273849"/>
<path id="&#232;&#183;&#175;&#229;&#190;&#132;_30" d="M228.682 122.357C228.493 122.779 228.226 123.162 227.894 123.485C227.572 123.82 227.187 124.089 226.762 124.277C226.949 123.851 227.218 123.466 227.554 123.144C227.877 122.813 228.259 122.546 228.682 122.357Z" fill="#273849"/>
<path id="&#232;&#183;&#175;&#229;&#190;&#132;_31" d="M234.326 120.019C234.759 119.851 235.221 119.77 235.685 119.779C236.148 119.768 236.608 119.849 237.038 120.019C236.607 120.187 236.147 120.268 235.685 120.259C235.221 120.266 234.76 120.185 234.326 120.019Z" fill="#273849"/>
<path id="&#232;&#183;&#175;&#229;&#190;&#132;_32" d="M233.357 117.682C233.753 116.837 234.432 116.158 235.277 115.762C234.88 116.606 234.201 117.285 233.357 117.682Z" fill="#273849"/>
</g>
</g>
</g>
</g>
<defs>
<filter id="filter0_d_11305_126041" x="131.251" y="61.3381" width="82.3732" height="82.4425" filterUnits="userSpaceOnUse" color-interpolation-filters="sRGB">
<feFlood flood-opacity="0" result="BackgroundImageFix"/>
<feColorMatrix in="SourceAlpha" type="matrix" values="0 0 0 0 0 0 0 0 0 0 0 0 0 0 0 0 0 0 127 0" result="hardAlpha"/>
<feOffset dy="2"/>
<feGaussianBlur stdDeviation="3"/>
<feComposite in2="hardAlpha" operator="out"/>
<feColorMatrix type="matrix" values="0 0 0 0 0.801892 0 0 0 0 0.870833 0 0 0 0 0.848594 0 0 0 1 0"/>
<feBlend mode="normal" in2="BackgroundImageFix" result="effect1_dropShadow_11305_126041"/>
<feBlend mode="normal" in="SourceGraphic" in2="effect1_dropShadow_11305_126041" result="shape"/>
</filter>
<filter id="filter1_d_11305_126041" x="100" y="109.371" width="56.0708" height="18.8971" filterUnits="userSpaceOnUse" color-interpolation-filters="sRGB">
<feFlood flood-opacity="0" result="BackgroundImageFix"/>
<feColorMatrix in="SourceAlpha" type="matrix" values="0 0 0 0 0 0 0 0 0 0 0 0 0 0 0 0 0 0 127 0" result="hardAlpha"/>
<feOffset dx="2" dy="2"/>
<feComposite in2="hardAlpha" operator="out"/>
<feColorMatrix type="matrix" values="0 0 0 0 0.784314 0 0 0 0 0.917647 0 0 0 0 0.87451 0 0 0 0.45 0"/>
<feBlend mode="normal" in2="BackgroundImageFix" result="effect1_dropShadow_11305_126041"/>
<feBlend mode="normal" in="SourceGraphic" in2="effect1_dropShadow_11305_126041" result="shape"/>
</filter>
<filter id="filter2_d_11305_126041" x="192.307" y="117.398" width="27.3457" height="12.9831" filterUnits="userSpaceOnUse" color-interpolation-filters="sRGB">
<feFlood flood-opacity="0" result="BackgroundImageFix"/>
<feColorMatrix in="SourceAlpha" type="matrix" values="0 0 0 0 0 0 0 0 0 0 0 0 0 0 0 0 0 0 127 0" result="hardAlpha"/>
<feOffset dx="2" dy="2"/>
<feComposite in2="hardAlpha" operator="out"/>
<feColorMatrix type="matrix" values="0 0 0 0 0.784314 0 0 0 0 0.917647 0 0 0 0 0.87451 0 0 0 0.45 0"/>
<feBlend mode="normal" in2="BackgroundImageFix" result="effect1_dropShadow_11305_126041"/>
<feBlend mode="normal" in="SourceGraphic" in2="effect1_dropShadow_11305_126041" result="shape"/>
</filter>
<filter id="filter3_d_11305_126041" x="201" y="93" width="40.8634" height="18.8971" filterUnits="userSpaceOnUse" color-interpolation-filters="sRGB">
<feFlood flood-opacity="0" result="BackgroundImageFix"/>
<feColorMatrix in="SourceAlpha" type="matrix" values="0 0 0 0 0 0 0 0 0 0 0 0 0 0 0 0 0 0 127 0" result="hardAlpha"/>
<feOffset dx="2" dy="2"/>
<feComposite in2="hardAlpha" operator="out"/>
<feColorMatrix type="matrix" values="0 0 0 0 0.784314 0 0 0 0 0.917647 0 0 0 0 0.87451 0 0 0 0.45 0"/>
<feBlend mode="normal" in2="BackgroundImageFix" result="effect1_dropShadow_11305_126041"/>
<feBlend mode="normal" in="SourceGraphic" in2="effect1_dropShadow_11305_126041" result="shape"/>
</filter>
<filter id="filter4_d_11305_126041" x="124.08" y="75.6588" width="28.1906" height="15.0953" filterUnits="userSpaceOnUse" color-interpolation-filters="sRGB">
<feFlood flood-opacity="0" result="BackgroundImageFix"/>
<feColorMatrix in="SourceAlpha" type="matrix" values="0 0 0 0 0 0 0 0 0 0 0 0 0 0 0 0 0 0 127 0" result="hardAlpha"/>
<feOffset dx="2" dy="2"/>
<feComposite in2="hardAlpha" operator="out"/>
<feColorMatrix type="matrix" values="0 0 0 0 0.784314 0 0 0 0 0.917647 0 0 0 0 0.87451 0 0 0 0.45 0"/>
<feBlend mode="normal" in2="BackgroundImageFix" result="effect1_dropShadow_11305_126041"/>
<feBlend mode="normal" in="SourceGraphic" in2="effect1_dropShadow_11305_126041" result="shape"/>
</filter>
<filter id="filter5_d_11305_126041" x="164" y="61" width="52.6914" height="16.9092" filterUnits="userSpaceOnUse" color-interpolation-filters="sRGB">
<feFlood flood-opacity="0" result="BackgroundImageFix"/>
<feColorMatrix in="SourceAlpha" type="matrix" values="0 0 0 0 0 0 0 0 0 0 0 0 0 0 0 0 0 0 127 0" result="hardAlpha"/>
<feOffset dx="2" dy="2"/>
<feComposite in2="hardAlpha" operator="out"/>
<feColorMatrix type="matrix" values="0 0 0 0 0.784314 0 0 0 0 0.917647 0 0 0 0 0.87451 0 0 0 0.45 0"/>
<feBlend mode="normal" in2="BackgroundImageFix" result="effect1_dropShadow_11305_126041"/>
<feBlend mode="normal" in="SourceGraphic" in2="effect1_dropShadow_11305_126041" result="shape"/>
</filter>
<filter id="filter6_d_11305_126041" x="147" y="129" width="35.7943" height="17.2074" filterUnits="userSpaceOnUse" color-interpolation-filters="sRGB">
<feFlood flood-opacity="0" result="BackgroundImageFix"/>
<feColorMatrix in="SourceAlpha" type="matrix" values="0 0 0 0 0 0 0 0 0 0 0 0 0 0 0 0 0 0 127 0" result="hardAlpha"/>
<feOffset dx="2" dy="2"/>
<feComposite in2="hardAlpha" operator="out"/>
<feColorMatrix type="matrix" values="0 0 0 0 0.784314 0 0 0 0 0.917647 0 0 0 0 0.87451 0 0 0 0.45 0"/>
<feBlend mode="normal" in2="BackgroundImageFix" result="effect1_dropShadow_11305_126041"/>
<feBlend mode="normal" in="SourceGraphic" in2="effect1_dropShadow_11305_126041" result="shape"/>
</filter>
<filter id="filter7_d_11305_126041" x="147.358" y="90.1069" width="51.3708" height="19.9203" filterUnits="userSpaceOnUse" color-interpolation-filters="sRGB">
<feFlood flood-opacity="0" result="BackgroundImageFix"/>
<feColorMatrix in="SourceAlpha" type="matrix" values="0 0 0 0 0 0 0 0 0 0 0 0 0 0 0 0 0 0 127 0" result="hardAlpha"/>
<feOffset dy="3"/>
<feComposite in2="hardAlpha" operator="out"/>
<feColorMatrix type="matrix" values="0 0 0 0 0.71066 0 0 0 0 0.879167 0 0 0 0 0.818317 0 0 0 1 0"/>
<feBlend mode="normal" in2="BackgroundImageFix" result="effect1_dropShadow_11305_126041"/>
<feBlend mode="normal" in="SourceGraphic" in2="effect1_dropShadow_11305_126041" result="shape"/>
</filter>
<linearGradient id="paint0_linear_11305_126041" x1="207.558" y1="65.224" x2="149.766" y2="125.424" gradientUnits="userSpaceOnUse">
<stop stop-color="#C8EADF"/>
<stop offset="1" stop-color="white"/>
</linearGradient>
<linearGradient id="paint1_linear_11305_126041" x1="207.558" y1="69.2374" x2="152.174" y2="120.608" gradientUnits="userSpaceOnUse">
<stop stop-color="#5EA38C"/>
<stop offset="1" stop-color="#5EA38C" stop-opacity="0"/>
</linearGradient>
<linearGradient id="paint2_linear_11305_126041" x1="127.035" y1="109.371" x2="127.035" y2="126.268" gradientUnits="userSpaceOnUse">
<stop stop-color="white"/>
<stop offset="1" stop-color="white" stop-opacity="0.74"/>
</linearGradient>
<linearGradient id="paint3_linear_11305_126041" x1="204.98" y1="117.398" x2="204.98" y2="128.381" gradientUnits="userSpaceOnUse">
<stop stop-color="white"/>
<stop offset="1" stop-color="white" stop-opacity="0.74"/>
</linearGradient>
<linearGradient id="paint4_linear_11305_126041" x1="197.307" y1="122.91" x2="212.585" y2="122.91" gradientUnits="userSpaceOnUse">
<stop stop-color="#39504A"/>
<stop offset="1" stop-color="#889890"/>
</linearGradient>
<linearGradient id="paint5_linear_11305_126041" x1="197.307" y1="122.91" x2="212.585" y2="122.91" gradientUnits="userSpaceOnUse">
<stop stop-color="#39504A"/>
<stop offset="1" stop-color="#889890"/>
</linearGradient>
<linearGradient id="paint6_linear_11305_126041" x1="197.307" y1="122.91" x2="212.585" y2="122.91" gradientUnits="userSpaceOnUse">
<stop stop-color="#39504A"/>
<stop offset="1" stop-color="#889890"/>
</linearGradient>
<linearGradient id="paint7_linear_11305_126041" x1="197.307" y1="122.91" x2="212.585" y2="122.91" gradientUnits="userSpaceOnUse">
<stop stop-color="#39504A"/>
<stop offset="1" stop-color="#889890"/>
</linearGradient>
<linearGradient id="paint8_linear_11305_126041" x1="220.432" y1="93" x2="220.432" y2="109.897" gradientUnits="userSpaceOnUse">
<stop stop-color="white"/>
<stop offset="1" stop-color="white" stop-opacity="0.74"/>
</linearGradient>
<linearGradient id="paint9_linear_11305_126041" x1="207.245" y1="101.878" x2="234.249" y2="101.878" gradientUnits="userSpaceOnUse">
<stop stop-color="#39504A"/>
<stop offset="1" stop-color="#889890"/>
</linearGradient>
<linearGradient id="paint10_linear_11305_126041" x1="207.245" y1="101.878" x2="234.249" y2="101.878" gradientUnits="userSpaceOnUse">
<stop stop-color="#39504A"/>
<stop offset="1" stop-color="#889890"/>
</linearGradient>
<linearGradient id="paint11_linear_11305_126041" x1="207.245" y1="101.878" x2="234.249" y2="101.878" gradientUnits="userSpaceOnUse">
<stop stop-color="#39504A"/>
<stop offset="1" stop-color="#889890"/>
</linearGradient>
<linearGradient id="paint12_linear_11305_126041" x1="207.245" y1="101.878" x2="234.249" y2="101.878" gradientUnits="userSpaceOnUse">
<stop stop-color="#39504A"/>
<stop offset="1" stop-color="#889890"/>
</linearGradient>
<linearGradient id="paint13_linear_11305_126041" x1="207.245" y1="101.878" x2="234.249" y2="101.878" gradientUnits="userSpaceOnUse">
<stop stop-color="#39504A"/>
<stop offset="1" stop-color="#889890"/>
</linearGradient>
<linearGradient id="paint14_linear_11305_126041" x1="137.175" y1="75.6588" x2="137.175" y2="88.7541" gradientUnits="userSpaceOnUse">
<stop stop-color="white"/>
<stop offset="1" stop-color="white" stop-opacity="0.74"/>
</linearGradient>
<linearGradient id="paint15_linear_11305_126041" x1="127.924" y1="81.9695" x2="146.758" y2="81.9695" gradientUnits="userSpaceOnUse">
<stop stop-color="#39504A"/>
<stop offset="1" stop-color="#889890"/>
</linearGradient>
<linearGradient id="paint16_linear_11305_126041" x1="127.924" y1="81.9695" x2="146.758" y2="81.9695" gradientUnits="userSpaceOnUse">
<stop stop-color="#39504A"/>
<stop offset="1" stop-color="#889890"/>
</linearGradient>
<linearGradient id="paint17_linear_11305_126041" x1="127.924" y1="81.9695" x2="146.758" y2="81.9695" gradientUnits="userSpaceOnUse">
<stop stop-color="#39504A"/>
<stop offset="1" stop-color="#889890"/>
</linearGradient>
<linearGradient id="paint18_linear_11305_126041" x1="127.924" y1="81.9695" x2="146.758" y2="81.9695" gradientUnits="userSpaceOnUse">
<stop stop-color="#39504A"/>
<stop offset="1" stop-color="#889890"/>
</linearGradient>
<linearGradient id="paint19_linear_11305_126041" x1="127.924" y1="81.9695" x2="146.758" y2="81.9695" gradientUnits="userSpaceOnUse">
<stop stop-color="#39504A"/>
<stop offset="1" stop-color="#889890"/>
</linearGradient>
<linearGradient id="paint20_linear_11305_126041" x1="189.346" y1="61" x2="189.346" y2="75.9092" gradientUnits="userSpaceOnUse">
<stop stop-color="white"/>
<stop offset="1" stop-color="white" stop-opacity="0.74"/>
</linearGradient>
<linearGradient id="paint21_linear_11305_126041" x1="170.528" y1="68.2223" x2="210.504" y2="68.2223" gradientUnits="userSpaceOnUse">
<stop stop-color="#39504A"/>
<stop offset="1" stop-color="#889890"/>
</linearGradient>
<linearGradient id="paint22_linear_11305_126041" x1="170.528" y1="68.2223" x2="210.504" y2="68.2223" gradientUnits="userSpaceOnUse">
<stop stop-color="#39504A"/>
<stop offset="1" stop-color="#889890"/>
</linearGradient>
<linearGradient id="paint23_linear_11305_126041" x1="170.528" y1="68.2223" x2="210.504" y2="68.2223" gradientUnits="userSpaceOnUse">
<stop stop-color="#39504A"/>
<stop offset="1" stop-color="#889890"/>
</linearGradient>
<linearGradient id="paint24_linear_11305_126041" x1="170.528" y1="68.2223" x2="210.504" y2="68.2223" gradientUnits="userSpaceOnUse">
<stop stop-color="#39504A"/>
<stop offset="1" stop-color="#889890"/>
</linearGradient>
<linearGradient id="paint25_linear_11305_126041" x1="170.528" y1="68.2223" x2="210.504" y2="68.2223" gradientUnits="userSpaceOnUse">
<stop stop-color="#39504A"/>
<stop offset="1" stop-color="#889890"/>
</linearGradient>
<linearGradient id="paint26_linear_11305_126041" x1="170.528" y1="68.2223" x2="210.504" y2="68.2223" gradientUnits="userSpaceOnUse">
<stop stop-color="#39504A"/>
<stop offset="1" stop-color="#889890"/>
</linearGradient>
<linearGradient id="paint27_linear_11305_126041" x1="170.528" y1="68.2223" x2="210.504" y2="68.2223" gradientUnits="userSpaceOnUse">
<stop stop-color="#39504A"/>
<stop offset="1" stop-color="#889890"/>
</linearGradient>
<linearGradient id="paint28_linear_11305_126041" x1="170.528" y1="68.2223" x2="210.504" y2="68.2223" gradientUnits="userSpaceOnUse">
<stop stop-color="#39504A"/>
<stop offset="1" stop-color="#889890"/>
</linearGradient>
<linearGradient id="paint29_linear_11305_126041" x1="170.528" y1="68.2223" x2="210.504" y2="68.2223" gradientUnits="userSpaceOnUse">
<stop stop-color="#39504A"/>
<stop offset="1" stop-color="#889890"/>
</linearGradient>
<linearGradient id="paint30_linear_11305_126041" x1="170.528" y1="68.2223" x2="210.504" y2="68.2223" gradientUnits="userSpaceOnUse">
<stop stop-color="#39504A"/>
<stop offset="1" stop-color="#889890"/>
</linearGradient>
<linearGradient id="paint31_linear_11305_126041" x1="163.897" y1="129" x2="163.897" y2="144.207" gradientUnits="userSpaceOnUse">
<stop stop-color="white"/>
<stop offset="1" stop-color="white" stop-opacity="0.74"/>
</linearGradient>
<linearGradient id="paint32_linear_11305_126041" x1="153.661" y1="136.51" x2="175.175" y2="136.51" gradientUnits="userSpaceOnUse">
<stop stop-color="#39504A"/>
<stop offset="1" stop-color="#889890"/>
</linearGradient>
<linearGradient id="paint33_linear_11305_126041" x1="153.661" y1="136.51" x2="175.175" y2="136.51" gradientUnits="userSpaceOnUse">
<stop stop-color="#39504A"/>
<stop offset="1" stop-color="#889890"/>
</linearGradient>
<linearGradient id="paint34_linear_11305_126041" x1="153.661" y1="136.51" x2="175.175" y2="136.51" gradientUnits="userSpaceOnUse">
<stop stop-color="#39504A"/>
<stop offset="1" stop-color="#889890"/>
</linearGradient>
<linearGradient id="paint35_linear_11305_126041" x1="153.661" y1="136.51" x2="175.175" y2="136.51" gradientUnits="userSpaceOnUse">
<stop stop-color="#39504A"/>
<stop offset="1" stop-color="#889890"/>
</linearGradient>
<linearGradient id="paint36_linear_11305_126041" x1="153.661" y1="136.51" x2="175.175" y2="136.51" gradientUnits="userSpaceOnUse">
<stop stop-color="#39504A"/>
<stop offset="1" stop-color="#889890"/>
</linearGradient>
<linearGradient id="paint37_linear_11305_126041" x1="104.872" y1="117.683" x2="148.21" y2="117.683" gradientUnits="userSpaceOnUse">
<stop stop-color="#39504A"/>
<stop offset="1" stop-color="#889890"/>
</linearGradient>
<linearGradient id="paint38_linear_11305_126041" x1="104.872" y1="117.683" x2="148.21" y2="117.683" gradientUnits="userSpaceOnUse">
<stop stop-color="#39504A"/>
<stop offset="1" stop-color="#889890"/>
</linearGradient>
<linearGradient id="paint39_linear_11305_126041" x1="104.872" y1="117.683" x2="148.21" y2="117.683" gradientUnits="userSpaceOnUse">
<stop stop-color="#39504A"/>
<stop offset="1" stop-color="#889890"/>
</linearGradient>
<linearGradient id="paint40_linear_11305_126041" x1="104.872" y1="117.683" x2="148.21" y2="117.683" gradientUnits="userSpaceOnUse">
<stop stop-color="#39504A"/>
<stop offset="1" stop-color="#889890"/>
</linearGradient>
<linearGradient id="paint41_linear_11305_126041" x1="104.872" y1="117.683" x2="148.21" y2="117.683" gradientUnits="userSpaceOnUse">
<stop stop-color="#39504A"/>
<stop offset="1" stop-color="#889890"/>
</linearGradient>
<linearGradient id="paint42_linear_11305_126041" x1="104.872" y1="117.683" x2="148.21" y2="117.683" gradientUnits="userSpaceOnUse">
<stop stop-color="#39504A"/>
<stop offset="1" stop-color="#889890"/>
</linearGradient>
<linearGradient id="paint43_linear_11305_126041" x1="104.872" y1="117.683" x2="148.21" y2="117.683" gradientUnits="userSpaceOnUse">
<stop stop-color="#39504A"/>
<stop offset="1" stop-color="#889890"/>
</linearGradient>
<linearGradient id="paint44_linear_11305_126041" x1="104.872" y1="117.683" x2="148.21" y2="117.683" gradientUnits="userSpaceOnUse">
<stop stop-color="#39504A"/>
<stop offset="1" stop-color="#889890"/>
</linearGradient>
<linearGradient id="paint45_linear_11305_126041" x1="104.872" y1="117.683" x2="148.21" y2="117.683" gradientUnits="userSpaceOnUse">
<stop stop-color="#39504A"/>
<stop offset="1" stop-color="#889890"/>
</linearGradient>
<linearGradient id="paint46_linear_11305_126041" x1="104.872" y1="117.683" x2="148.21" y2="117.683" gradientUnits="userSpaceOnUse">
<stop stop-color="#39504A"/>
<stop offset="1" stop-color="#889890"/>
</linearGradient>
<linearGradient id="paint47_linear_11305_126041" x1="147.124" y1="98.6489" x2="198.732" y2="98.6489" gradientUnits="userSpaceOnUse">
<stop stop-color="#5EAD92"/>
<stop offset="1" stop-color="#61C3A2"/>
</linearGradient>
</defs>
</svg>
