<?xml version="1.0" encoding="UTF-8"?>
<svg width="455px" height="932px" viewBox="0 0 455 932" version="1.1" xmlns="http://www.w3.org/2000/svg" xmlns:xlink="http://www.w3.org/1999/xlink">
    <title>画板</title>
    <defs>
        <linearGradient x1="19.6780588%" y1="92.5011612%" x2="40.7522663%" y2="-4.79532344%" id="linearGradient-1">
            <stop stop-color="#F7FAFB" offset="0%"></stop>
            <stop stop-color="#E2ECEF" offset="100%"></stop>
        </linearGradient>
        <linearGradient x1="50%" y1="0%" x2="69.5981728%" y2="165.512929%" id="linearGradient-2">
            <stop stop-color="#68747F" stop-opacity="0.339188156" offset="0%"></stop>
            <stop stop-color="#31383E" offset="100%"></stop>
        </linearGradient>
    </defs>
    <g id="画板" stroke="none" stroke-width="1" fill="none" fill-rule="evenodd">
        <g id="编组" transform="translate(-110.000000, -3.000000)">
            <path d="M310.353797,6.5192042 L116.9711,158.901801 C95.7328158,175.637243 92.065217,206.413348 108.775831,227.671173 C209.664331,356.01296 310.55283,484.354747 411.44133,612.696534 C411.44133,612.696534 443.587896,612.696534 507.881028,612.696534 L175.982976,189.330655 L403.37811,6.5192042 L310.353797,6.5192042 Z" id="路径-2备份-2" stroke="#F5F9FA" fill="url(#linearGradient-1)" fill-rule="nonzero" transform="translate(303.088664, 309.607869) scale(-1, 1) rotate(90.000000) translate(-303.088664, -309.607869) "></path>
            <path d="M70.6095597,1 L5.6403536,91.3831705 C-2.0800635,102.123578 -1.8551297,116.652965 6.1940587,127.149239 C57.687727,194.297828 109.181395,261.446417 160.675063,328.595006 C160.675063,328.595006 160.911254,296.495161 161.383634,232.295473 L70.4382811,109.643415 L144.87356,1 L70.6095597,1 Z" id="路径-2" fill="url(#linearGradient-2)" fill-rule="nonzero" opacity="0.10139974" transform="translate(80.691817, 164.797503) scale(-1, 1) translate(-80.691817, -164.797503) "></path>
            <path d="M503.0737,0 L462.012055,47.0700844 C447.314945,63.9177835 446.195697,88.6814379 459.313051,106.786273 C488.920042,147.650435 518.527033,188.514598 548.134024,229.378761 C548.134024,229.378761 579.726615,229.378761 642.911796,229.378761 L532.676769,76.0655131 L594.494943,0 L503.0737,0 Z" id="路径-2备份" fill="#E1EBED" fill-rule="nonzero" opacity="0.403715588"></path>
            <path d="M448.935163,0 L418.335987,35.0766719 C397.51508,58.9442458 395.92948,94.0260894 414.512398,119.674606 C441.006761,156.242657 467.501125,192.810709 493.995488,229.378761 C493.995488,229.378761 527.584973,229.378761 594.763944,229.378761 L484.528917,76.0655131 L546.34709,0 L448.935163,0 Z" id="路径-2备份-4" stroke="#EDF3F5"></path>
        </g>
    </g>
</svg>