<svg width="402" height="381" viewBox="0 0 402 381" fill="none" xmlns="http://www.w3.org/2000/svg">
<path d="M203.755 329.509C282.596 329.509 346.509 265.596 346.509 186.755C346.509 107.913 282.596 44 203.755 44C124.913 44 61 107.913 61 186.755C61 265.596 124.913 329.509 203.755 329.509Z" fill="#17423A"/>
<path d="M203.5 269C249.063 269 286 232.063 286 186.5C286 140.937 249.063 104 203.5 104C157.937 104 121 140.937 121 186.5C121 232.063 157.937 269 203.5 269Z" fill="#093A3E"/>
<path d="M203.325 355.071C296.443 355.071 371.93 279.584 371.93 186.465C371.93 93.3468 296.443 17.8595 203.325 17.8595C110.206 17.8595 34.7189 93.3468 34.7189 186.465C34.7189 279.584 110.206 355.071 203.325 355.071Z" stroke="#374B57" stroke-width="2" stroke-miterlimit="10" stroke-linecap="round" stroke-linejoin="round" stroke-dasharray="1 6"/>
<path d="M109.074 72.6536C112.845 71.4277 114.909 67.3766 113.683 63.605C112.457 59.8335 108.406 57.7698 104.634 58.9957C100.863 60.2215 98.7991 64.2727 100.025 68.0442C101.251 71.8158 105.302 73.8795 109.074 72.6536Z" fill="#354659"/>
<path d="M124.655 48.9502C127.22 48.1167 128.623 45.3619 127.79 42.7972C126.956 40.2326 124.201 38.8293 121.637 39.6628C119.072 40.4964 117.669 43.2512 118.502 45.8159C119.336 48.3805 122.091 49.7838 124.655 48.9502Z" fill="#354659"/>
<path d="M248.711 39.6897C251.249 39.6897 253.306 37.6322 253.306 35.094C253.306 32.5559 251.249 30.4983 248.711 30.4983C246.172 30.4983 244.115 32.5559 244.115 35.094C244.115 37.6322 246.172 39.6897 248.711 39.6897Z" fill="url(#paint0_linear_18692_147773)"/>
<path d="M49.6586 210.882C52.1967 210.882 54.2543 208.825 54.2543 206.286C54.2543 203.748 52.1967 201.691 49.6586 201.691C47.1204 201.691 45.0629 203.748 45.0629 206.286C45.0629 208.825 47.1204 210.882 49.6586 210.882Z" fill="url(#paint1_linear_18692_147773)"/>
<path d="M75.7954 320.029C78.3336 320.029 80.3912 317.972 80.3912 315.434C80.3912 312.895 78.3336 310.838 75.7954 310.838C73.2573 310.838 71.1997 312.895 71.1997 315.434C71.1997 317.972 73.2573 320.029 75.7954 320.029Z" fill="url(#paint2_linear_18692_147773)"/>
<path d="M89.6403 80.2472C88.7786 80.2472 87.9169 79.96 87.0552 79.0983L70.683 63.0132C69.2468 61.5771 69.2468 59.2792 70.683 57.8431C72.1191 56.4069 74.417 56.4069 75.8531 57.8431L92.2254 74.2153C93.6616 75.6515 93.6616 77.9494 92.2254 79.3855C91.3637 79.96 90.502 80.2472 89.6403 80.2472Z" fill="url(#paint3_linear_18692_147773)"/>
<path d="M329.939 320.548C329.077 320.548 328.215 320.26 327.354 319.399L310.981 303.026C309.545 301.59 309.545 299.292 310.981 297.856C312.417 296.42 314.715 296.42 316.151 297.856L332.524 314.228C333.96 315.665 333.96 317.963 332.524 319.399C331.662 320.26 330.8 320.548 329.939 320.548Z" fill="url(#paint4_linear_18692_147773)"/>
<path d="M73.2681 320.548C72.4064 320.548 71.5447 320.26 70.683 319.399C69.2468 317.963 69.2468 315.665 70.683 314.228L87.0552 297.856C88.4914 296.42 90.7893 296.42 92.2254 297.856C93.6616 299.292 93.6616 301.59 92.2254 303.026L75.8531 319.399C74.9914 320.26 74.1298 320.548 73.2681 320.548Z" fill="url(#paint5_linear_18692_147773)"/>
<path d="M313.566 80.2474C312.705 80.2474 311.843 79.9602 310.981 79.0985C309.545 77.6623 309.545 75.3644 310.981 73.9283L327.354 57.556C328.79 56.1198 331.088 56.1198 332.524 57.556C333.96 58.9922 333.96 61.29 332.524 62.7262L316.151 79.0985C315.29 79.9602 314.428 80.2474 313.566 80.2474Z" fill="url(#paint6_linear_18692_147773)"/>
<path d="M400.029 16.8311C399.447 15.8615 399 15.5 398 14.504V14.5L376.176 1.89892C374.043 0.73537 371.716 0.929294 369.583 2.09284L348.445 14.3101C347.475 14.8919 346.506 15.6676 345.924 16.8311C345.342 17.8008 344.954 18.9643 344.954 20.1279V46.8895C344.954 49.2166 346.312 51.5437 348.251 52.7073L368.807 64.5367C369.971 65.3124 371.522 65.7003 372.879 65.7003C374.237 65.7003 375.594 65.3124 376.952 64.5367L397.508 52.7073C399.641 51.5437 400.805 49.2166 400.805 46.8895V20.1279C400.999 18.9643 400.5 18 400.029 16.8311Z" stroke="url(#paint7_linear_18692_147773)" stroke-width="2" stroke-miterlimit="10" stroke-linecap="round" stroke-linejoin="round"/>
<path d="M401 20.127V46.8886C401 49.2157 399.642 51.5428 397.703 52.7064L377.147 64.5358C375.984 65.3115 374.432 65.6993 373.075 65.6993C371.717 65.6993 370.36 65.3115 369.002 64.5358L348.446 52.7064C346.313 51.5428 345.15 49.4096 345.15 46.8886V20.127C345.15 18.9634 345.537 17.7999 346.119 16.8302C346.701 15.8606 347.477 14.891 348.64 14.3092L369.778 2.09193C371.717 0.928382 374.238 0.928383 376.371 1.89801C376.371 1.89801 376.565 1.89801 376.565 2.09193L397.897 14.3092C397.897 14.3092 398.091 14.3092 398.091 14.5031C398.091 14.5031 398.091 14.5031 398.285 14.5031C399.255 15.0849 399.836 15.8606 400.418 16.8302C400.612 17.7999 401 18.9634 401 20.127Z" fill="#1DE06B"/>
<path d="M400.991 20.1269V46.8885C400.991 49.2156 399.634 51.5427 397.694 52.7063L377.138 64.5357C375.975 65.3114 374.423 65.6993 373.066 65.6993V32.3442L400.021 16.8302C400.603 17.7998 400.991 18.9633 400.991 20.1269Z" fill="#344C5A"/>
<path d="M373.065 32.3442V65.6993C371.708 65.6993 370.35 65.3114 368.993 64.5357L348.437 52.7063C346.303 51.5427 345.14 49.4096 345.14 46.8885V20.1269C345.14 18.9633 345.418 17.4696 346 16.5L373.065 32.3442Z" fill="#3E5D70"/>
<path d="M400.022 16.8308L373.067 32.3448L345.917 16.6369C346.499 15.6672 347.275 14.6976 348.438 14.1158L369.576 1.89856C371.515 0.735009 374.036 0.735008 376.169 1.70463L397.889 14.3098C397.889 14.3098 397.889 14.3098 398.083 14.3098C398.859 15.0855 399.634 15.8612 400.022 16.8308Z" fill="#4C6C80"/>
<path d="M362.706 40.9833L362.512 39.6258C362.512 37.4926 360.96 34.7777 359.021 33.6141C357.082 32.6445 355.724 33.4202 355.724 35.5534V36.9108L355.53 36.7169C354.755 36.3291 354.173 36.7169 354.173 37.4926V42.7286C354.173 44.0861 355.143 45.8314 356.5 46.6071L362.124 49.7099C363.288 50.4856 364.451 49.9038 364.451 48.3524V43.1164C364.063 42.5347 363.481 41.565 362.706 40.9833ZM359.797 44.8618C359.797 45.2496 359.603 45.4435 359.409 45.4435C359.409 45.4435 359.215 45.4435 359.021 45.2496C358.633 45.0557 358.245 44.4739 358.245 43.8921V42.1468C358.245 41.759 358.633 41.565 359.021 41.759C359.409 41.9529 359.797 42.5347 359.797 42.9225V44.8618ZM361.154 40.2076L357.276 37.8805V36.523C357.276 35.3594 358.245 34.9716 359.409 35.5534C360.573 36.3291 361.348 37.6865 361.348 39.044V40.2076H361.154Z" fill="#20E072"/>
<path d="M56.0747 16.8311C55.4929 15.8615 54.9111 15.0858 53.9415 14.504H53.7476L32.2219 1.89892C30.0887 0.73537 27.7616 0.929294 25.6285 2.09284L4.49064 14.3101C3.52102 14.8919 2.5514 15.6676 1.96962 16.8311C1.38785 17.8008 1 18.9643 1 20.1279V46.8895C1 49.2166 2.35747 51.5437 4.29672 52.7073L24.8528 64.5367C26.0163 65.3124 27.5677 65.7003 28.9252 65.7003C30.2827 65.7003 31.6401 65.3124 32.9976 64.5367L53.5537 52.7073C55.6868 51.5437 56.8504 49.2166 56.8504 46.8895V20.1279C57.0443 18.9643 56.6565 17.8008 56.0747 16.8311Z" stroke="url(#paint8_linear_18692_147773)" stroke-width="2" stroke-miterlimit="10" stroke-linecap="round" stroke-linejoin="round"/>
<path d="M57.0457 20.127V46.8886C57.0457 49.2157 55.6882 51.5428 53.749 52.7064L33.1929 64.5358C32.0294 65.3115 30.478 65.6993 29.1205 65.6993C27.763 65.6993 26.4056 65.3115 25.0481 64.5358L4.49203 52.7064C2.35886 51.5428 1.19531 49.4096 1.19531 46.8886V20.127C1.19531 18.9634 1.58316 17.7999 2.16494 16.8302C2.74671 15.8606 3.52242 14.891 4.68597 14.3092L25.8238 2.09193C27.763 0.928382 30.2841 0.928383 32.4172 1.89801C32.4172 1.89801 32.6112 1.89801 32.6112 2.09193L53.9429 14.3092C53.9429 14.3092 54.1368 14.3092 54.1368 14.5031C54.1368 14.5031 54.1368 14.5031 54.3308 14.5031C55.3004 15.0849 55.8822 15.8606 56.4639 16.8302C56.6579 17.7999 57.0457 18.9634 57.0457 20.127Z" fill="#F3F6FA"/>
<path d="M57.0419 20.1269V46.8885C57.0419 49.2156 55.6844 51.5427 53.7452 52.7063L33.1891 64.5357C32.0256 65.3114 30.4742 65.6993 29.1167 65.6993V32.3442L56.0723 16.8302C56.6541 17.7998 57.0419 18.9633 57.0419 20.1269Z" fill="#344C5A"/>
<path d="M29.1159 32.3442V65.6993C27.7585 65.6993 26.401 65.3114 25.0435 64.5357L4.48745 52.7063C2.35428 51.5427 1.19073 49.4096 1.19073 46.8885V20.1269C1.19073 18.9633 1.57858 17.7998 2.16036 16.8302L29.1159 32.3442Z" fill="#3E5D70"/>
<path d="M56.0732 16.8308L29.1176 32.3448L1.96808 16.6369C2.54985 15.6672 3.32554 14.6976 4.48909 14.1158L25.6269 1.89856C27.5662 0.735009 30.0872 0.735008 32.2204 1.70463L53.94 14.3098C53.94 14.3098 53.94 14.3098 54.1339 14.3098C54.9096 15.0855 55.6853 15.8612 56.0732 16.8308Z" fill="#4C6C80"/>
<path d="M18.7515 40.9833L18.5576 39.6258C18.5576 37.4926 17.0062 34.7777 15.0669 33.6141C13.1277 32.6445 11.7702 33.4202 11.7702 35.5534V36.9108L11.5763 36.7169C10.8006 36.3291 10.2188 36.7169 10.2188 37.4926V42.7286C10.2188 44.0861 11.1884 45.8314 12.5459 46.6071L18.1697 49.7099C19.3333 50.4856 20.4968 49.9038 20.4968 48.3524V43.1164C20.109 42.5347 19.5272 41.565 18.7515 40.9833ZM15.8427 44.8618C15.8427 45.2496 15.6487 45.4435 15.4548 45.4435C15.4548 45.4435 15.2609 45.4435 15.0669 45.2496C14.6791 45.0557 14.2912 44.4739 14.2912 43.8921V42.1468C14.2912 41.759 14.6791 41.565 15.0669 41.759C15.4548 41.9529 15.8427 42.5347 15.8427 42.9225V44.8618ZM17.2001 40.2076L13.3216 37.8805V36.523C13.3216 35.3594 14.2912 34.9716 15.4548 35.5534C16.6183 36.3291 17.394 37.6865 17.394 39.044V40.2076H17.2001Z" fill="#20E072"/>
<path d="M400.029 330.439C399.447 329.47 398.865 328.694 397.896 328.112H397.702L376.176 315.507C374.043 314.343 371.716 314.537 369.583 315.701L348.445 327.918C347.475 328.5 346.506 329.276 345.924 330.439C345.342 331.409 344.954 332.572 344.954 333.736V360.498C344.954 362.825 346.312 365.152 348.251 366.315L368.807 378.145C369.971 378.921 371.522 379.308 372.879 379.308C374.237 379.308 375.594 378.921 376.952 378.145L397.508 366.315C399.641 365.152 400.805 362.825 400.805 360.498V333.736C400.999 332.572 400.611 331.409 400.029 330.439Z" stroke="url(#paint9_linear_18692_147773)" stroke-width="2" stroke-miterlimit="10" stroke-linecap="round" stroke-linejoin="round"/>
<path d="M401 333.733V360.495C401 362.822 399.642 365.149 397.703 366.312L377.147 378.142C375.984 378.918 374.432 379.305 373.075 379.305C371.717 379.305 370.36 378.918 369.002 378.142L348.446 366.312C346.313 365.149 345.15 363.016 345.15 360.495V333.733C345.15 332.57 345.537 331.406 346.119 330.436C346.701 329.467 347.477 328.497 348.64 327.915L369.778 315.698C371.717 314.535 374.238 314.535 376.371 315.504C376.371 315.504 376.565 315.504 376.565 315.698L397.897 327.915C397.897 327.915 398.091 327.915 398.091 328.109C398.091 328.109 398.091 328.109 398.285 328.109C399.255 328.691 399.836 329.467 400.418 330.436C400.612 331.406 401 332.57 401 333.733Z" fill="#F3F6FA"/>
<path d="M400.991 333.736V360.497C400.991 362.825 399.634 365.152 397.694 366.315L377.138 378.145C375.975 378.92 374.423 379.308 373.066 379.308V345.953L400.021 330.439C400.603 331.409 400.991 332.572 400.991 333.736Z" fill="#344C5A"/>
<path d="M373.065 345.953V379.308C371.708 379.308 370.35 378.92 368.993 378.145L348.437 366.315C346.303 365.152 345.14 363.018 345.14 360.497V333.736C345.14 332.572 345.528 331.409 346.109 330.439L373.065 345.953Z" fill="#3E5D70"/>
<path d="M400.022 330.44L373.067 345.954L345.917 330.246C346.499 329.276 347.275 328.306 348.438 327.725L369.576 315.507C371.515 314.344 374.036 314.344 376.169 315.314L397.889 327.919C397.889 327.919 397.889 327.919 398.083 327.919C398.859 328.694 399.634 329.47 400.022 330.44Z" fill="#4C6C80"/>
<path d="M362.706 354.589L362.512 353.232C362.512 351.099 360.96 348.384 359.021 347.22C357.082 346.251 355.724 347.026 355.724 349.159V350.517L355.53 350.323C354.755 349.935 354.173 350.323 354.173 351.099V356.335C354.173 357.692 355.143 359.438 356.5 360.213L362.124 363.316C363.288 364.092 364.451 363.51 364.451 361.959V356.723C364.063 356.141 363.481 355.171 362.706 354.589ZM359.797 358.468C359.797 358.856 359.603 359.05 359.409 359.05C359.409 359.05 359.215 359.05 359.021 358.856C358.633 358.662 358.245 358.08 358.245 357.498V355.753C358.245 355.365 358.633 355.171 359.021 355.365C359.409 355.559 359.797 356.141 359.797 356.529V358.468ZM361.154 353.814L357.276 351.487V350.129C357.276 348.966 358.245 348.578 359.409 349.159C360.573 349.935 361.348 351.293 361.348 352.65V353.814H361.154Z" fill="#20E072"/>
<path d="M59.448 330.439C58.8662 329.47 58.2844 328.694 57.3148 328.112H57.1209L35.5952 315.507C33.462 314.343 31.1349 314.537 29.0018 315.701L7.86393 327.918C6.89431 328.5 5.92469 329.276 5.34292 330.439C4.76114 331.409 4.37329 332.572 4.37329 333.736V360.498C4.37329 362.825 5.73076 365.152 7.67001 366.315L28.2261 378.145C29.3896 378.921 30.941 379.308 32.2985 379.308C33.656 379.308 35.0134 378.921 36.3709 378.145L56.927 366.315C59.0601 365.152 60.2237 362.825 60.2237 360.498V333.736C60.4176 332.572 60.0298 331.409 59.448 330.439Z" stroke="url(#paint10_linear_18692_147773)" stroke-width="2" stroke-miterlimit="10" stroke-linecap="round" stroke-linejoin="round"/>
<path d="M60.4191 333.733V360.495C60.4191 362.822 59.0616 365.149 57.1223 366.312L36.5663 378.142C35.4027 378.918 33.8513 379.305 32.4939 379.305C31.1364 379.305 29.7789 378.918 28.4214 378.142L7.86538 366.312C5.73221 365.149 4.56866 363.016 4.56866 360.495V333.733C4.56866 332.57 4.95651 331.406 5.53829 330.436C6.12006 329.467 6.89577 328.497 8.05932 327.915L29.1971 315.698C31.1364 314.535 33.6574 314.535 35.7906 315.504C35.7906 315.504 35.9845 315.504 35.9845 315.698L57.3163 327.915C57.3163 327.915 57.5102 327.915 57.5102 328.109C57.5102 328.109 57.5102 328.109 57.7041 328.109C58.6737 328.691 59.2555 329.467 59.8373 330.436C60.0312 331.406 60.4191 332.57 60.4191 333.733Z" fill="#F3F6FA"/>
<path d="M60.4171 333.736V360.497C60.4171 362.825 59.0597 365.152 57.1204 366.315L36.5644 378.145C35.4008 378.92 33.8494 379.308 32.4919 379.308V345.953L59.4475 330.439C60.0293 331.409 60.4171 332.572 60.4171 333.736Z" fill="#344C5A"/>
<path d="M32.4912 345.953V379.308C31.1337 379.308 29.7762 378.92 28.4188 378.145L7.8627 366.315C5.72952 365.152 4.56598 363.018 4.56598 360.497V333.736C4.56598 332.572 4.95383 331.409 5.5356 330.439L32.4912 345.953Z" fill="#3E5D70"/>
<path d="M59.4484 330.44L32.4928 345.954L5.34332 330.246C5.9251 329.276 6.70079 328.306 7.86434 327.725L29.0022 315.507C30.9414 314.344 33.4624 314.344 35.5956 315.314L57.3152 327.919C57.3152 327.919 57.3152 327.919 57.5092 327.919C58.2849 328.694 59.0606 329.47 59.4484 330.44Z" fill="#4C6C80"/>
<path d="M22.1248 354.589L21.9309 353.232C21.9309 351.099 20.3795 348.384 18.4402 347.22C16.501 346.251 15.1435 347.026 15.1435 349.159V350.517L14.9496 350.323C14.1739 349.935 13.5921 350.323 13.5921 351.099V356.335C13.5921 357.692 14.5617 359.438 15.9192 360.213L21.543 363.316C22.7066 364.092 23.8701 363.51 23.8701 361.959V356.723C23.4823 356.141 22.9005 355.171 22.1248 354.589ZM19.2159 358.468C19.2159 358.856 19.022 359.05 18.8281 359.05C18.8281 359.05 18.6342 359.05 18.4402 358.856C18.0524 358.662 17.6645 358.08 17.6645 357.498V355.753C17.6645 355.365 18.0524 355.171 18.4402 355.365C18.8281 355.559 19.2159 356.141 19.2159 356.529V358.468ZM20.5734 353.814L16.6949 351.487V350.129C16.6949 348.966 17.6645 348.578 18.8281 349.159C19.9916 349.935 20.7673 351.293 20.7673 352.65V353.814H20.5734Z" fill="#20E072"/>
<g opacity="0.4">
<path d="M203 142.333C190.377 142.333 179.626 150.353 175.566 161.574C166.232 163.638 159.25 171.962 159.25 181.917C159.25 190.735 164.729 198.273 172.468 201.314L173.833 198.583V181.917H232.167V198.583L233.532 201.314C241.271 198.273 246.75 190.735 246.75 181.917C246.75 171.962 239.768 163.638 230.434 161.574C226.374 150.353 215.623 142.333 203 142.333Z" fill="white" fill-opacity="0.4"/>
<path d="M189.458 201.203V188.167H183.208V201.203C183.208 201.38 183.163 201.553 183.078 201.708L179.008 209.06C178.677 209.02 178.341 209 178 209C173.398 209 169.667 212.731 169.667 217.333C169.667 221.936 173.398 225.667 178 225.667C182.602 225.667 186.333 221.936 186.333 217.333C186.333 215.345 185.637 213.52 184.476 212.088L188.546 204.735C189.144 203.654 189.458 202.439 189.458 201.203Z" fill="white"/>
<path d="M216.542 201.203V188.167H222.792V201.203C222.792 201.38 222.836 201.553 222.922 201.708L226.992 209.06C227.323 209.02 227.659 209 228 209C232.602 209 236.333 212.731 236.333 217.333C236.333 221.936 232.602 225.667 228 225.667C223.398 225.667 219.667 221.936 219.667 217.333C219.667 215.345 220.363 213.52 221.524 212.088L217.454 204.735C216.856 203.654 216.542 202.439 216.542 201.203Z" fill="white"/>
<path d="M203 225.667C207.602 225.667 211.333 221.936 211.333 217.333C211.333 213.836 209.179 210.842 206.125 209.606V188.167H199.875V209.606C196.821 210.842 194.667 213.836 194.667 217.333C194.667 221.936 198.398 225.667 203 225.667Z" fill="white"/>
</g>
<defs>
<linearGradient id="paint0_linear_18692_147773" x1="244.131" y1="35.2075" x2="253.047" y2="35.2075" gradientUnits="userSpaceOnUse">
<stop offset="0.00289017" stop-color="#FFD44F"/>
<stop offset="1" stop-color="#FFA607"/>
</linearGradient>
<linearGradient id="paint1_linear_18692_147773" x1="45.0879" y1="206.189" x2="54.0041" y2="206.189" gradientUnits="userSpaceOnUse">
<stop offset="0.00289017" stop-color="#FFD44F"/>
<stop offset="1" stop-color="#FFA607"/>
</linearGradient>
<linearGradient id="paint2_linear_18692_147773" x1="71.2557" y1="315.38" x2="80.1723" y2="315.38" gradientUnits="userSpaceOnUse">
<stop offset="0.00289017" stop-color="#FFD44F"/>
<stop offset="1" stop-color="#FFA607"/>
</linearGradient>
<linearGradient id="paint3_linear_18692_147773" x1="69.6512" y1="68.589" x2="93.2244" y2="68.589" gradientUnits="userSpaceOnUse">
<stop stop-color="#51DFD4"/>
<stop offset="1" stop-color="#1BE068"/>
</linearGradient>
<linearGradient id="paint4_linear_18692_147773" x1="309.944" y1="308.884" x2="333.518" y2="308.884" gradientUnits="userSpaceOnUse">
<stop stop-color="#51DFD4"/>
<stop offset="1" stop-color="#1BE068"/>
</linearGradient>
<linearGradient id="paint5_linear_18692_147773" x1="81.4378" y1="320.67" x2="81.4378" y2="297.097" gradientUnits="userSpaceOnUse">
<stop stop-color="#51DFD4"/>
<stop offset="1" stop-color="#1BE068"/>
</linearGradient>
<linearGradient id="paint6_linear_18692_147773" x1="321.731" y1="80.3749" x2="321.731" y2="56.8032" gradientUnits="userSpaceOnUse">
<stop stop-color="#51DFD4"/>
<stop offset="1" stop-color="#1BE068"/>
</linearGradient>
<linearGradient id="paint7_linear_18692_147773" x1="343.18" y1="33.3497" x2="402.949" y2="33.3497" gradientUnits="userSpaceOnUse">
<stop stop-color="#51DFD4"/>
<stop offset="1" stop-color="#1BE068"/>
</linearGradient>
<linearGradient id="paint8_linear_18692_147773" x1="-0.77422" y1="33.3497" x2="58.995" y2="33.3497" gradientUnits="userSpaceOnUse">
<stop stop-color="#51DFD4"/>
<stop offset="1" stop-color="#1BE068"/>
</linearGradient>
<linearGradient id="paint9_linear_18692_147773" x1="343.18" y1="346.958" x2="402.949" y2="346.958" gradientUnits="userSpaceOnUse">
<stop stop-color="#51DFD4"/>
<stop offset="1" stop-color="#1BE068"/>
</linearGradient>
<linearGradient id="paint10_linear_18692_147773" x1="2.59907" y1="346.958" x2="62.3683" y2="346.958" gradientUnits="userSpaceOnUse">
<stop stop-color="#51DFD4"/>
<stop offset="1" stop-color="#1BE068"/>
</linearGradient>
</defs>
</svg>
