<svg width="1180" height="64" viewBox="0 0 1180 64" fill="none" xmlns="http://www.w3.org/2000/svg">
<g filter="url(#filter0_i)">
<rect width="1180" height="64" fill="#F5F7FA"/>
</g>
<g filter="url(#filter1_d)">
<rect x="1128" y="16" width="32" height="32" rx="2" fill="white"/>
<rect x="1128.5" y="16.5" width="31" height="31" rx="1.5" stroke="#D5DEE7"/>
</g>
<path fill-rule="evenodd" clip-rule="evenodd" d="M1149.06 28.7186L1147.27 24.5L1146.4 26.6556C1145.64 26.3526 1144.82 26.1859 1143.95 26.1859C1140.3 26.1859 1137.33 29.1482 1137.33 32.8024C1137.33 36.4567 1140.3 39.419 1143.95 39.419C1147.38 39.419 1150.2 36.806 1150.53 33.4609L1148.88 33.295C1148.63 35.7975 1146.52 37.7523 1143.95 37.7523C1141.22 37.7523 1139 35.5362 1139 32.8024C1139 30.0687 1141.22 27.8525 1143.95 27.8525C1144.6 27.8525 1145.21 27.9763 1145.78 28.2014L1144.85 30.5093L1149.06 28.7186Z" fill="#324558"/>
<g clip-path="url(#clip0)">
<rect x="21" y="14" width="600" height="36" rx="2" fill="white" stroke="#D5DEE7"/>
<path fill-rule="evenodd" clip-rule="evenodd" d="M34.667 29.4998C34.667 26.288 37.2885 23.6665 40.5003 23.6665C43.7121 23.6665 46.3337 26.288 46.3337 29.4998C46.3337 30.9565 45.7903 32.2873 44.9014 33.3117L45.2562 33.6665H46.3337L51.3337 38.6665L49.667 40.3332L44.667 35.3332V34.2557L44.3122 33.9009C43.2878 34.7899 41.957 35.3332 40.5003 35.3332C37.2885 35.3332 34.667 32.7116 34.667 29.4998ZM44.667 29.4998C44.667 27.1888 42.8114 25.3332 40.5003 25.3332C38.1893 25.3332 36.3337 27.1888 36.3337 29.4998C36.3337 31.8109 38.1893 33.6665 40.5003 33.6665C42.8114 33.6665 44.667 31.8109 44.667 29.4998Z" fill="black"/>
<mask id="mask0" mask-type="alpha" maskUnits="userSpaceOnUse" x="34" y="23" width="18" height="18">
<path fill-rule="evenodd" clip-rule="evenodd" d="M34.667 29.4998C34.667 26.288 37.2885 23.6665 40.5003 23.6665C43.7121 23.6665 46.3337 26.288 46.3337 29.4998C46.3337 30.9565 45.7903 32.2873 44.9014 33.3117L45.2562 33.6665H46.3337L51.3337 38.6665L49.667 40.3332L44.667 35.3332V34.2557L44.3122 33.9009C43.2878 34.7899 41.957 35.3332 40.5003 35.3332C37.2885 35.3332 34.667 32.7116 34.667 29.4998ZM44.667 29.4998C44.667 27.1888 42.8114 25.3332 40.5003 25.3332C38.1893 25.3332 36.3337 27.1888 36.3337 29.4998C36.3337 31.8109 38.1893 33.6665 40.5003 33.6665C42.8114 33.6665 44.667 31.8109 44.667 29.4998Z" fill="white"/>
</mask>
<g mask="url(#mask0)">
<rect width="20" height="20" transform="translate(33 22)" fill="#324558"/>
</g>
<path d="M66.436 29.556H67.744V28.836H66.436V27.684C67.012 27.468 67.516 27.252 67.924 27.036L67.432 26.4C66.868 26.736 66.268 26.988 65.644 27.156V31.488H68.392V32.544H65.572V33.324H66.076C66.532 34.164 67.18 34.896 68.044 35.508C67.144 35.892 66.064 36.204 64.816 36.444L65.248 37.212C66.652 36.9 67.852 36.492 68.86 36.012C69.784 36.516 70.9 36.912 72.208 37.188L72.52 36.384C71.464 36.168 70.54 35.88 69.748 35.52C70.732 34.896 71.452 34.152 71.884 33.276V32.544H69.196V31.488H71.92V26.784H69.82V27.528H71.14V28.836H69.88V29.556H71.14V30.744H69.196V26.244H68.392V30.744H66.436V29.556ZM66.964 33.324H70.948C70.492 33.996 69.808 34.584 68.908 35.088C68.08 34.596 67.432 34.008 66.964 33.324ZM62.98 37.092C63.628 37.092 63.964 36.744 63.964 36.06V32.58C64.372 32.388 64.78 32.196 65.176 31.992V31.152C64.78 31.368 64.372 31.572 63.964 31.752V29.328H65.08V28.5H63.964V26.256H63.124V28.5H61.792V29.328H63.124V32.088C62.62 32.28 62.104 32.436 61.576 32.58L61.768 33.396C62.224 33.252 62.668 33.096 63.124 32.928V35.844C63.124 36.168 62.968 36.336 62.68 36.336C62.368 36.336 62.032 36.312 61.672 36.276L61.852 37.092H62.98ZM74.512 27.144V27.936H78.556V28.98H74.02V31.164H74.86V29.736H78.436C77.74 30.336 76.996 30.864 76.216 31.308C76.036 31.404 75.856 31.476 75.676 31.512L75.844 32.172C76.888 32.148 77.812 32.112 78.628 32.088C77.572 32.688 76.564 33.12 75.58 33.396C75.34 33.396 75.088 33.384 74.836 33.372L75.004 34.152C76.108 34.128 77.32 34.08 78.64 34.02V36.072C78.64 36.312 78.496 36.444 78.232 36.444C77.92 36.444 77.584 36.42 77.248 36.384L77.428 37.188H78.52C79.168 37.188 79.504 36.876 79.504 36.276V33.984C80.368 33.936 81.28 33.876 82.252 33.816C82.492 34.104 82.708 34.392 82.9 34.68L83.548 34.212C83.08 33.564 82.408 32.82 81.532 31.968L80.908 32.364C81.196 32.652 81.472 32.928 81.736 33.216C80.176 33.324 78.628 33.408 77.068 33.456C78.7 32.88 80.212 32.076 81.628 31.02L80.932 30.552C80.5 30.864 80.068 31.164 79.648 31.452C78.976 31.5 78.076 31.524 76.972 31.548C77.752 31.128 78.496 30.636 79.216 30.06L78.556 29.736H83.14V31.176H83.98V28.98H79.444V27.936H83.488V27.144H79.444V26.196H78.556V27.144H74.512ZM80.776 34.62L80.344 35.256C81.496 35.676 82.624 36.252 83.728 36.972L84.172 36.276C83.152 35.628 82.024 35.076 80.776 34.62ZM76.996 34.596C76.144 35.244 75.064 35.772 73.756 36.168L74.116 36.936C75.472 36.468 76.6 35.88 77.5 35.16L76.996 34.596ZM88.72 26.244L87.928 26.628C88.42 27.228 88.876 27.912 89.308 28.68L90.088 28.284C89.656 27.54 89.2 26.868 88.72 26.244ZM93.232 26.136C92.872 27.144 92.476 27.996 92.02 28.692H86.536V29.532H90.556V30.096C90.544 30.684 90.484 31.236 90.376 31.764H85.852V32.604H90.16C89.992 33.132 89.764 33.6 89.476 34.032C88.756 34.992 87.472 35.772 85.636 36.36L86.104 37.116C87.952 36.528 89.284 35.7 90.1 34.644C90.484 34.128 90.784 33.528 91.012 32.844C91.66 34.668 93.292 36.12 95.932 37.188L96.436 36.384C93.916 35.484 92.368 34.224 91.78 32.604H96.148V31.764H91.276C91.372 31.26 91.42 30.696 91.444 30.096V29.532H95.452V28.692H92.98C93.412 28.008 93.772 27.228 94.06 26.364L93.232 26.136ZM98.164 30.504V30.756H99.136V32.232H97.792V33.024H99.136V35.76C99.136 35.928 99.028 36.048 98.812 36.132L99.16 36.852C99.952 36.552 100.66 36.168 101.272 35.712L101.128 34.968C100.72 35.304 100.312 35.568 99.916 35.784V33.024H101.152V32.232H99.916V30.756H100.972V29.988H98.392C98.596 29.484 98.788 28.956 98.956 28.38H101.008V27.552H99.184C99.28 27.144 99.364 26.724 99.46 26.28L98.644 26.112C98.38 27.624 97.972 29.004 97.408 30.252L98.08 30.684C98.104 30.624 98.14 30.564 98.164 30.504ZM107.8 31.236V29.568H108.364V28.872H107.8V27.156H106.132V26.268H105.352V27.156H104.164V27.852H105.352V28.872H103.756V29.568H105.352V30.54H104.164V31.236H105.352V32.16H104.044V32.844H105.352V33.792H103.744V34.512H105.352V35.688H106.132V34.512H108.232V33.792H106.132V32.844H107.932V32.16H106.132V31.236H107.8ZM106.132 27.852H107.068V28.872H106.132V27.852ZM106.132 29.568H107.068V30.54H106.132V29.568ZM106.636 36.216C105.472 36.168 104.62 36.024 104.08 35.76C103.696 35.58 103.336 35.304 103.024 34.92C103.396 33.864 103.6 32.58 103.624 31.08V30.612H102.388C102.784 29.892 103.18 29.04 103.588 28.032V27.324H101.416V28.068H102.808C102.424 29.016 101.98 29.904 101.5 30.72V31.32H102.928C102.88 32.376 102.736 33.312 102.496 34.128C102.208 33.576 101.98 32.952 101.824 32.244L101.176 32.484C101.416 33.492 101.752 34.332 102.172 35.004C101.908 35.604 101.56 36.12 101.152 36.552L101.74 37.128C102.112 36.72 102.436 36.252 102.7 35.7C102.916 35.952 103.168 36.168 103.456 36.348C104.08 36.756 105.292 36.972 107.068 36.996H108.376L108.532 36.168C108.064 36.192 107.428 36.216 106.636 36.216ZM120.088 27.432H115.564C115.408 26.94 115.24 26.496 115.072 26.1L114.088 26.268C114.28 26.616 114.46 27 114.628 27.432H109.912V30.108H110.776V28.26H119.224V30.108H120.088V27.432ZM111.76 29.556V30.36H116.908C116.416 30.672 115.684 31.092 114.712 31.596V32.772H109.696V33.612H114.712V35.856C114.712 36.204 114.556 36.384 114.244 36.384C113.74 36.384 113.284 36.372 112.864 36.36L113.068 37.152H114.544C115.24 37.152 115.588 36.816 115.588 36.156V33.612H120.316V32.772H115.588V31.968C116.548 31.44 117.424 30.912 118.204 30.36V29.556H111.76ZM122.272 29.844V33.504H126.676V29.844H122.272ZM125.824 32.724H123.136V30.648H125.824V32.724ZM127.048 34.188C125.32 34.68 123.532 35.04 121.66 35.28L121.876 36.132C123.724 35.832 125.452 35.46 127.048 35.028V34.188ZM131.092 37.164C131.692 37.164 132.16 36.324 132.484 34.668L131.74 34.176C131.536 35.544 131.284 36.228 130.996 36.228C130.66 36.228 130.288 35.916 129.868 35.292C129.736 35.076 129.616 34.824 129.496 34.548C130.336 33.324 131.032 31.812 131.596 30L130.84 29.592C130.384 31.104 129.82 32.412 129.148 33.516C129.052 33.192 128.98 32.844 128.908 32.472C128.704 31.344 128.596 30.048 128.572 28.584H132.328V27.744H131.164C130.96 27.24 130.744 26.796 130.528 26.4L129.652 26.544C129.892 26.904 130.12 27.312 130.324 27.744H128.56V26.208H127.696V27.744H121.66V28.584H127.696C127.708 30.24 127.852 31.68 128.128 32.904C128.248 33.432 128.38 33.924 128.548 34.38C127.876 35.268 127.108 35.964 126.256 36.48L126.724 37.224C127.528 36.744 128.272 36.096 128.944 35.28C129.064 35.532 129.208 35.772 129.376 36C129.928 36.768 130.492 37.152 131.092 37.164ZM135.748 29.532V31.32H134.56C134.86 30.552 135.136 29.676 135.4 28.692H137.716V27.876H135.604C135.712 27.396 135.82 26.88 135.928 26.34L135.136 26.16C135.028 26.76 134.92 27.324 134.8 27.876H133.612V28.692H134.608C134.332 29.76 134.032 30.66 133.696 31.38L133.876 32.1H135.748V33.888C135.052 34.02 134.308 34.14 133.516 34.236L133.624 35.076C134.356 34.968 135.064 34.848 135.748 34.716V37.2H136.552V34.536L137.692 34.248V33.432C137.332 33.528 136.96 33.624 136.552 33.72V32.1H137.656V31.32H136.552V29.532H135.748ZM139.288 28.92V29.628H142.732V28.908H139.3C139.9 28.332 140.476 27.696 141.052 27C141.964 28.176 142.984 29.172 144.112 29.988L144.568 29.304C143.476 28.536 142.408 27.516 141.364 26.22H140.74C139.768 27.42 138.664 28.476 137.44 29.376L137.908 30.096C138.376 29.736 138.832 29.34 139.288 28.92ZM140.128 37.116C140.716 37.116 141.016 36.804 141.016 36.192V30.588H138.184V37.2H138.94V34.956H140.284V36.036C140.284 36.3 140.152 36.432 139.888 36.432L139.36 36.408L139.552 37.116H140.128ZM138.94 34.284V33.144H140.284V34.284H138.94ZM138.94 32.472V31.284H140.284V32.472H138.94ZM141.736 30.924V35.232H142.408V30.924H141.736ZM143.044 37.14C143.62 37.14 143.92 36.792 143.92 36.108V30.384H143.164V35.916C143.164 36.252 143.032 36.432 142.78 36.432C142.48 36.432 142.168 36.408 141.844 36.384L142.024 37.14H143.044ZM150.472 28.98C149.704 32.172 148.036 34.62 145.468 36.3L145.984 37.032C148.504 35.4 150.16 33.048 150.952 29.988C151.012 30.132 151.072 30.3 151.144 30.492C152.38 33.66 153.964 35.844 155.908 37.02L156.448 36.324C154.552 35.136 153.052 33.108 151.924 30.24C151.18 28.296 150.28 26.94 149.212 26.196L148.492 26.652C149.26 27.204 149.92 27.972 150.472 28.98ZM158.476 26.364L157.876 26.928C158.74 27.624 159.412 28.284 159.904 28.896L160.528 28.26C159.976 27.636 159.292 27 158.476 26.364ZM165.772 36.984H168.304L168.52 36.108C168.232 36.132 167.812 36.144 167.272 36.156C166.72 36.156 166.192 36.168 165.664 36.168C164.68 36.168 163.852 36.156 163.192 36.144C162.448 36.12 161.872 36.036 161.488 35.88C161.14 35.712 160.816 35.46 160.504 35.124C160.396 35.004 160.288 34.92 160.192 34.848V30.348H157.636V31.164H159.364V34.8C158.86 35.016 158.296 35.64 157.648 36.672L158.296 37.248C158.968 36.12 159.46 35.568 159.748 35.568C159.904 35.568 160.072 35.664 160.24 35.868C160.624 36.3 161.068 36.6 161.572 36.744C162.064 36.876 162.724 36.948 163.54 36.96C164.344 36.972 165.088 36.984 165.772 36.984ZM165.412 35.376C166.132 35.376 166.504 35.016 166.504 34.32V29.016H168.28V28.164H166.504V26.22H165.628V28.164H161.092V29.016H165.628V34.116C165.628 34.44 165.448 34.608 165.112 34.608C164.608 34.608 164.068 34.584 163.516 34.548L163.708 35.376H165.412ZM162.4 30.084L161.728 30.516C162.46 31.392 163.036 32.184 163.468 32.904L164.164 32.424C163.756 31.752 163.168 30.972 162.4 30.084ZM175.864 26.172V28.488H173.008V31.56C172.96 33.6 172.492 35.28 171.604 36.6L172.24 37.164C173.26 35.604 173.776 33.732 173.776 31.536V29.232H175.624V30.324L174.256 30.54L174.352 31.224L175.624 31.032V31.692C175.624 32.28 175.972 32.58 176.692 32.58H178.372C178.78 32.58 179.068 32.508 179.26 32.388C179.476 32.244 179.62 31.848 179.692 31.188L178.972 30.948C178.924 31.38 178.84 31.656 178.72 31.752C178.624 31.824 178.456 31.86 178.228 31.86H176.92C176.56 31.86 176.392 31.74 176.392 31.524V30.912L178.492 30.6L178.372 29.904L176.392 30.204V29.232H179.224C179.104 29.676 178.96 30.072 178.792 30.432L179.548 30.636C179.788 30.06 179.956 29.484 180.064 28.884V28.488H176.692V27.564H179.824V26.844H176.692V26.172H175.864ZM170.488 26.34L169.888 26.904C170.74 27.492 171.412 28.056 171.904 28.584L172.492 27.984C171.94 27.432 171.28 26.892 170.488 26.34ZM170.188 29.232L169.588 29.82C170.404 30.468 171.052 31.068 171.532 31.644L172.132 31.044C171.604 30.444 170.956 29.832 170.188 29.232ZM171.352 32.4C170.884 33.864 170.332 35.292 169.684 36.684L170.512 37.044C171.1 35.688 171.628 34.236 172.108 32.7L171.352 32.4ZM179.428 33.66L178.78 33.948C179.164 34.764 179.512 35.688 179.836 36.732L180.508 36.384C180.196 35.388 179.836 34.476 179.428 33.66ZM174.316 33.924C174.112 34.86 173.788 35.724 173.344 36.516L174.016 36.924C174.436 36.12 174.76 35.16 175 34.056L174.316 33.924ZM177.712 37.092C178.084 37.092 178.36 37.02 178.528 36.888C178.72 36.72 178.864 36.276 178.936 35.544L178.216 35.304C178.168 35.808 178.096 36.12 178 36.216C177.904 36.3 177.76 36.348 177.568 36.348H176.728C176.452 36.348 176.32 36.252 176.32 36.06V33.696H175.552V36.204C175.552 36.792 175.864 37.092 176.5 37.092H177.712ZM177.064 32.916L176.512 33.324C176.92 33.804 177.34 34.38 177.748 35.04L178.336 34.608C177.94 33.984 177.52 33.42 177.064 32.916ZM182.5 32.58V33.408H186.592V35.856C186.592 36.216 186.412 36.396 186.064 36.396C185.68 36.396 185.26 36.372 184.828 36.336L185.02 37.164H186.364C187.108 37.164 187.48 36.792 187.48 36.072V33.408H191.464V32.58H187.48V31.404H186.592V32.58H182.5ZM184.48 34.152C183.76 34.932 182.86 35.604 181.792 36.18L182.344 36.912C183.424 36.276 184.336 35.532 185.08 34.68L184.48 34.152ZM191.38 36.888L192.004 36.252C190.96 35.292 190.048 34.572 189.28 34.092L188.716 34.62C189.616 35.268 190.504 36.024 191.38 36.888ZM185.392 26.064C184.564 27.336 183.52 28.38 182.248 29.172L182.8 29.832C183.352 29.472 183.88 29.052 184.372 28.584C184.888 29.1 185.488 29.568 186.184 29.988C184.864 30.588 183.316 31.008 181.54 31.26L181.912 32.04C183.88 31.716 185.572 31.188 187.012 30.444C188.404 31.128 190.084 31.62 192.076 31.908L192.472 31.104C190.696 30.876 189.16 30.492 187.864 29.952C188.836 29.34 189.664 28.62 190.348 27.78V27.108H185.668C185.86 26.844 186.04 26.556 186.232 26.256L185.392 26.064ZM184.9 28.056L185.056 27.876H189.268C188.632 28.512 187.888 29.076 187.024 29.568C186.184 29.136 185.476 28.632 184.9 28.056ZM196.144 26.124C195.568 27.996 194.656 29.664 193.384 31.104L193.66 32.028C194.116 31.548 194.536 31.044 194.92 30.516V37.212H195.772V29.196C196.252 28.344 196.648 27.444 196.96 26.496L196.144 26.124ZM198.16 26.916C197.896 28.512 197.404 29.868 196.672 30.972L197.224 31.692C197.668 31.068 198.04 30.36 198.34 29.568H200.38V32.46H196.852V33.288H200.38V37.152H201.244V33.288H204.448V32.46H201.244V29.568H204.004V28.728H201.244V26.232H200.38V28.728H198.616C198.784 28.2 198.916 27.624 199.012 27.024L198.16 26.916ZM206.992 34.572C206.788 34.572 206.62 34.632 206.488 34.776C206.344 34.908 206.272 35.076 206.272 35.28C206.272 35.484 206.344 35.652 206.488 35.796C206.62 35.928 206.788 36 206.992 36C207.196 36 207.376 35.928 207.52 35.796C207.652 35.664 207.724 35.496 207.724 35.28C207.724 35.076 207.652 34.908 207.52 34.776C207.376 34.632 207.208 34.572 206.992 34.572ZM211 34.572C210.796 34.572 210.628 34.632 210.484 34.776C210.34 34.908 210.28 35.076 210.28 35.28C210.28 35.484 210.34 35.652 210.484 35.796C210.628 35.928 210.796 36 211 36C211.204 36 211.384 35.928 211.528 35.796C211.66 35.664 211.732 35.496 211.732 35.28C211.732 35.076 211.66 34.908 211.528 34.776C211.384 34.632 211.204 34.572 211 34.572ZM214.996 34.572C214.792 34.572 214.624 34.632 214.48 34.776C214.336 34.908 214.276 35.076 214.276 35.28C214.276 35.484 214.336 35.652 214.48 35.796C214.624 35.928 214.792 36 214.996 36C215.2 36 215.368 35.928 215.512 35.796C215.656 35.664 215.728 35.496 215.728 35.28C215.728 35.076 215.656 34.908 215.512 34.776C215.368 34.632 215.2 34.572 214.996 34.572Z" fill="#939EA9"/>
</g>
<defs>
<filter id="filter0_i" x="0" y="0" width="1180" height="64" filterUnits="userSpaceOnUse" color-interpolation-filters="sRGB">
<feFlood flood-opacity="0" result="BackgroundImageFix"/>
<feBlend mode="normal" in="SourceGraphic" in2="BackgroundImageFix" result="shape"/>
<feColorMatrix in="SourceAlpha" type="matrix" values="0 0 0 0 0 0 0 0 0 0 0 0 0 0 0 0 0 0 127 0" result="hardAlpha"/>
<feOffset dy="-1"/>
<feComposite in2="hardAlpha" operator="arithmetic" k2="-1" k3="1"/>
<feColorMatrix type="matrix" values="0 0 0 0 0.870588 0 0 0 0 0.901961 0 0 0 0 0.929412 0 0 0 1 0"/>
<feBlend mode="normal" in2="shape" result="effect1_innerShadow"/>
</filter>
<filter id="filter1_d" x="1126" y="15" width="36" height="36" filterUnits="userSpaceOnUse" color-interpolation-filters="sRGB">
<feFlood flood-opacity="0" result="BackgroundImageFix"/>
<feColorMatrix in="SourceAlpha" type="matrix" values="0 0 0 0 0 0 0 0 0 0 0 0 0 0 0 0 0 0 127 0" result="hardAlpha"/>
<feOffset dy="1"/>
<feGaussianBlur stdDeviation="1"/>
<feColorMatrix type="matrix" values="0 0 0 0 0.835294 0 0 0 0 0.870588 0 0 0 0 0.905882 0 0 0 0.2 0"/>
<feBlend mode="normal" in2="BackgroundImageFix" result="effect1_dropShadow"/>
<feBlend mode="normal" in="SourceGraphic" in2="effect1_dropShadow" result="shape"/>
</filter>
<clipPath id="clip0">
<rect width="600" height="36" fill="white" transform="translate(21 14)"/>
</clipPath>
</defs>
</svg>
