<svg width="29" height="12" viewBox="0 0 29 12" fill="none" xmlns="http://www.w3.org/2000/svg">
<path d="M0.12 0.575999V12H1.992V6.944H7.576V5.344H1.992V2.176H7.912V0.575999H0.12ZM8.5525 0.575999V2.176H12.2965V12H14.1685V2.176H17.9125V0.575999H8.5525ZM19.2763 0.575999V12H21.1483V7.616H23.9803C26.7643 7.616 28.1562 6.432 28.1562 4.08C28.1562 1.744 26.7643 0.575999 24.0123 0.575999H19.2763ZM21.1483 2.176H23.8683C24.6843 2.176 25.2923 2.32 25.6763 2.624C26.0603 2.912 26.2683 3.392 26.2683 4.08C26.2683 4.768 26.0763 5.264 25.6923 5.568C25.3083 5.856 24.7003 6.016 23.8683 6.016H21.1483V2.176Z" fill="black"/>
</svg>
